<?xml version="1.0" encoding="UTF-8" standalone="no"?>
<svg width="26px" height="22px" viewBox="0 0 26 22" version="1.1" xmlns="http://www.w3.org/2000/svg" xmlns:xlink="http://www.w3.org/1999/xlink" xmlns:sketch="http://www.bohemiancoding.com/sketch/ns">
    <title>article</title>
    <description>Created with Sketch (http://www.bohemiancoding.com/sketch)</description>
    <defs></defs>
    <g id="Page-1" stroke="none" stroke-width="1" fill="none" fill-rule="evenodd" sketch:type="MSPage">
        <path d="M0,2 L0,0 L6,0 L6,2 L4,2 L4,7 L2,7 L2,2 L0,2 Z M9,0 L9,2 L26,2 L26,0 L9,0 Z M9,5 L9,7 L26,7 L26,5 L9,5 Z M0,10 L0,12 L26,12 L26,10 L0,10 Z M0,15 L0,17 L26,17 L26,15 L0,15 Z M0,20 L0,22 L14,22 L14,20 L0,20 Z" id="(Icon)-Text" fill="#B0AEB8" sketch:type="MSShapeGroup"></path>
    </g>
</svg>