<?xml version="1.0" encoding="UTF-8" standalone="no"?>
<svg width="120px" height="120px" viewBox="0 0 120 120" version="1.1" xmlns="http://www.w3.org/2000/svg" xmlns:xlink="http://www.w3.org/1999/xlink" xmlns:sketch="http://www.bohemiancoding.com/sketch/ns">
    <title>biglogo</title>
    <description>Created with Sketch (http://www.bohemiancoding.com/sketch)</description>
    <defs></defs>
    <g id="Page-1" stroke="none" stroke-width="1" fill="none" fill-rule="evenodd" sketch:type="MSPage">
        <path d="M58.777,5.211 C58.777,5.886 59.327,6.434 60.005,6.434 C60.683,6.434 61.229,5.886 61.229,5.211 C61.229,4.534 60.682,3.988 60.005,3.988 C59.328,3.988 58.777,4.534 58.777,5.211 C58.777,5.211 58.777,4.534 58.777,5.211 L58.777,5.211 L58.777,5.211 Z M59.228,3.296 L60.77,3.296 C60.77,3.296 60.34,2.25 60.34,1.983 C60.602,1.983 61.65,2.418 61.65,2.418 L61.65,0.878 C61.65,0.878 60.602,1.311 60.34,1.311 C60.34,1.046 60.77,0 60.77,0 L59.228,0 C59.228,0 59.663,1.046 59.663,1.311 C59.398,1.311 58.357,0.878 58.357,0.878 L58.357,2.418 C58.357,2.418 59.398,1.983 59.663,1.983 C59.663,2.25 59.228,3.296 59.228,3.296 L59.228,3.296 L59.228,3.296 L59.228,3.296 Z M63.885,18.029 C64.17,18.08 64.744,18.192 65.261,18.446 C65.261,18.446 67.782,13.951 67.782,11.508 C67.782,9.216 65.774,8.205 63.28,7.662 L61.238,17.748 C62.255,17.793 63.15,17.885 63.885,18.029 C63.885,18.029 63.15,17.885 63.885,18.029 L63.885,18.029 L63.885,18.029 Z M60.004,18.774 C57.197,18.774 54.745,19.15 54.745,19.893 C54.745,20.636 57.197,21.009 60.004,21.009 C62.812,21.009 65.26,20.636 65.26,19.893 C65.26,19.15 62.812,18.774 60.004,18.774 L60.004,18.774 L60.004,18.774 L60.004,18.774 Z M61.787,9.264 C61.787,7.592 60.767,7.082 60.004,7.082 C59.232,7.082 58.214,7.592 58.214,9.264 C58.214,10.624 59.504,15.787 60.004,17.728 C60.498,15.787 61.787,10.624 61.787,9.264 C61.787,9.264 61.787,10.624 61.787,9.264 L61.787,9.264 L61.787,9.264 Z M30.606,11.168 C30.963,11.73 31.129,12.621 31.129,13.1 C31.129,14.07 30.794,14.987 30.438,15.964 C30.073,16.968 29.693,18.01 29.693,19.142 C29.693,21.208 30.985,22.752 33.533,23.728 C34.859,24.24 36.204,24.453 36.905,24.533 C35.631,23.911 32.18,22.015 32.18,19.735 C32.18,18.723 32.705,17.595 33.263,16.407 C33.856,15.135 34.471,13.822 34.471,12.583 C34.471,12.187 34.384,11.755 34.223,11.385 C33.194,11.015 32.426,10.957 32.052,10.957 C31.552,10.956 31.082,11.023 30.606,11.168 C30.606,11.168 31.082,11.023 30.606,11.168 L30.606,11.168 L30.606,11.168 Z M20.697,18.869 C20.697,19.886 20.263,20.508 19.877,21.054 C19.427,21.683 19.039,22.237 19.381,23.249 C19.723,22.213 20.325,21.844 20.958,21.458 C21.373,21.205 21.805,20.938 22.164,20.467 L22.313,20.556 C21.937,21.37 21.743,22.151 21.743,22.876 C21.743,24.127 22.328,25.169 23.501,25.982 C23.232,25.24 23.101,24.61 23.101,24.057 C23.101,23.263 23.378,22.743 23.666,22.197 C23.992,21.582 24.324,20.95 24.324,19.853 C24.324,18.814 23.848,17.892 23.404,17.001 C22.947,16.118 22.487,15.206 22.487,14.19 C22.487,14.055 22.492,13.92 22.506,13.786 C20.424,13.918 19.344,14.58 19.298,14.605 L18.938,14.842 C18.88,15.79 19.403,16.505 19.908,17.197 C20.314,17.757 20.697,18.284 20.697,18.869 C20.697,18.869 20.697,18.284 20.697,18.869 L20.697,18.869 L20.697,18.869 Z M28.159,11.549 C29.335,10.886 30.452,10.261 32.051,10.261 C32.449,10.261 32.86,10.303 33.28,10.388 C32.884,10.157 32.183,9.797 31.024,9.365 C30.507,9.172 30.113,8.92 29.774,8.7 C29.327,8.411 28.983,8.186 28.532,8.186 C27.446,8.186 26.62,9.124 25.742,10.106 C24.843,11.123 23.915,12.169 22.593,12.381 C20.416,12.73 19.544,13.459 19.219,13.857 C19.777,13.584 21.094,13.069 23.239,13.069 C25.465,13.068 26.835,12.297 28.159,11.549 C28.159,11.549 26.835,12.297 28.159,11.549 L28.159,11.549 L28.159,11.549 Z M41.04,31.117 C39.904,30 38.578,28.31 37.812,25.99 C37.604,25.99 37.426,26.084 37.297,26.245 C37.137,26.459 37.077,26.751 37.145,27.021 C37.561,28.677 39.365,30.11 41.04,31.117 C41.04,31.117 39.365,30.11 41.04,31.117 L41.04,31.117 L41.04,31.117 Z M42.603,33.339 C41.167,33.339 39.873,33.855 39.062,34.759 C38.408,35.496 38.091,36.442 38.166,37.511 C39.761,35.701 42.155,34.677 44.775,34.677 C45.06,34.677 45.356,34.688 45.639,34.711 C44.954,33.764 44.011,33.339 42.603,33.339 L42.603,33.339 L42.603,33.339 L42.603,33.339 Z M36.701,27.492 C36.351,27.443 36.014,27.423 35.678,27.423 C33.925,27.423 32.051,28.181 32.051,30.319 C32.051,31.33 32.482,32.725 33.699,33.343 C33.925,33.072 35.012,31.948 37.094,31.948 C38.266,31.948 39.537,32.309 40.886,33.014 C41.436,32.851 42.015,32.767 42.604,32.767 C42.727,32.767 42.848,32.776 42.971,32.781 C40.794,31.764 37.542,29.892 36.701,27.492 C36.701,27.492 37.542,29.892 36.701,27.492 L36.701,27.492 L36.701,27.492 Z M34.994,31.239 C34.66,31.239 34.388,30.966 34.388,30.629 C34.388,30.291 34.66,30.018 34.994,30.018 C35.333,30.018 35.606,30.291 35.606,30.629 C35.606,30.966 35.333,31.239 34.994,31.239 L34.994,31.239 L34.994,31.239 L34.994,31.239 Z M54.751,18.446 C55.264,18.192 55.839,18.08 56.122,18.029 C56.852,17.884 57.752,17.793 58.769,17.749 L56.727,7.663 C54.233,8.206 52.228,9.217 52.228,11.509 C52.228,13.951 54.746,18.447 54.746,18.447 L54.751,18.447 L54.751,18.447 L54.751,18.446 L54.751,18.446 Z M46.81,24.813 C48.309,24.778 53.346,24.723 57.242,21.483 C56.861,21.436 56.513,21.389 56.209,21.33 C55.69,21.226 54.963,21.055 54.535,20.683 C50.681,23.497 47.886,24.407 46.81,24.813 C46.81,24.813 47.886,24.407 46.81,24.813 L46.81,24.813 L46.81,24.813 Z M41.81,14.108 C41.81,14.558 42.171,14.923 42.625,14.923 C43.072,14.923 43.44,14.558 43.44,14.108 C43.44,13.658 43.072,13.291 42.625,13.291 C42.172,13.291 41.81,13.658 41.81,14.108 C41.81,14.108 41.81,13.658 41.81,14.108 L41.81,14.108 L41.81,14.108 Z M42.108,12.775 L43.137,12.775 C43.137,12.775 42.846,12.076 42.846,11.904 C43.025,11.904 43.722,12.189 43.722,12.189 L43.722,11.162 C43.722,11.162 43.025,11.45 42.846,11.45 C42.846,11.273 43.137,10.577 43.137,10.577 L42.108,10.577 C42.108,10.577 42.4,11.273 42.4,11.45 C42.219,11.45 41.523,11.162 41.523,11.162 L41.523,12.189 C41.523,12.189 42.219,11.904 42.4,11.904 C42.4,12.076 42.108,12.775 42.108,12.775 L42.108,12.775 L42.108,12.775 L42.108,12.775 Z M40.019,22.608 C40.582,22.501 41.21,22.451 41.785,22.423 L40.438,15.786 C38.781,16.146 37.442,16.824 37.442,18.353 C37.442,19.825 38.818,22.416 39.08,22.897 C39.433,22.727 39.825,22.65 40.019,22.608 C40.019,22.608 39.825,22.65 40.019,22.608 L40.019,22.608 L40.019,22.608 Z M46.128,23.939 C46.128,23.444 44.501,23.199 42.626,23.199 C40.75,23.199 39.119,23.444 39.119,23.939 C39.119,24.436 40.75,24.685 42.626,24.685 C44.501,24.685 46.128,24.436 46.128,23.939 C46.128,23.939 46.128,24.436 46.128,23.939 L46.128,23.939 L46.128,23.939 Z M45.225,22.608 C45.428,22.649 45.813,22.726 46.173,22.898 C46.431,22.418 47.803,19.826 47.803,18.354 C47.803,16.825 46.47,16.147 44.811,15.787 L43.465,22.424 C44.035,22.451 44.671,22.501 45.225,22.608 C45.225,22.608 44.671,22.501 45.225,22.608 L45.225,22.608 L45.225,22.608 Z M43.799,16.836 C43.799,15.732 43.131,15.401 42.626,15.401 C42.12,15.401 41.444,15.731 41.444,16.836 C41.444,17.73 42.297,21.132 42.626,22.406 C42.95,21.132 43.799,17.73 43.799,16.836 C43.799,16.836 43.799,17.73 43.799,16.836 L43.799,16.836 L43.799,16.836 Z M34.862,36.501 C35.807,36.501 37.34,36.053 37.877,35.624 C38.157,34.887 38.643,34.251 39.263,33.817 C39.147,33.802 39.022,33.796 38.907,33.796 C38.032,33.796 37.209,34.096 36.345,34.41 C35.46,34.731 34.544,35.063 33.544,35.063 C32.616,35.063 31.744,34.731 30.898,34.053 C31.118,34.728 31.96,36.501 34.862,36.501 C34.862,36.501 31.96,36.501 34.862,36.501 L34.862,36.501 L34.862,36.501 Z M46.271,35.118 L46.271,35.195 C46.292,37.142 47.204,39.006 48.712,40.184 L48.769,40.233 L48.779,40.162 C48.86,39.719 48.959,39.058 48.959,38.392 C48.959,36.884 46.951,35.536 46.341,35.161 L46.271,35.118 L46.271,35.118 L46.271,35.118 L46.271,35.118 Z M41.157,73.048 C41.314,72.38 41.452,71.712 41.573,71.049 C41.283,70.644 40.802,69.831 40.553,68.63 C40.492,68.739 40.43,68.855 40.37,68.964 C40.247,69.768 40.082,70.607 39.877,71.443 C39.671,72.315 39.344,73.079 38.902,73.74 L38.772,73.929 L38.744,73.697 C38.652,72.918 38.713,72.082 38.923,71.219 C38.967,71.033 39.013,70.853 39.062,70.67 C38.214,71.496 37.469,71.816 37.438,71.834 L37.079,71.983 L37.068,72.067 C36.247,75.424 37.569,77.52 37.819,77.879 C38.207,77.674 40.338,76.418 41.157,73.048 C41.157,73.048 40.338,76.418 41.157,73.048 L41.157,73.048 L41.157,73.048 Z M35.872,73.637 C36.137,72.897 36.369,72.149 36.571,71.419 C36.331,70.992 35.847,69.989 35.747,68.517 C35.518,69.47 35.226,70.436 34.888,71.401 C34.572,72.312 34.134,73.089 33.598,73.73 L33.449,73.915 L33.449,73.675 C33.443,72.838 33.599,71.967 33.917,71.066 C34.149,70.407 34.413,69.747 34.703,69.101 C33.854,69.961 32.993,70.451 32.384,70.723 C32.178,71.221 31.985,71.713 31.811,72.211 C30.605,75.63 31.683,77.92 31.895,78.32 C32.324,78.148 34.672,77.059 35.872,73.637 C35.872,73.637 34.672,77.059 35.872,73.637 L35.872,73.637 L35.872,73.637 Z M30.282,73.317 C30.73,72.548 31.162,71.775 31.55,71.008 L31.139,71.101 L31.068,71.119 L31.041,71.049 L30.874,70.662 C30.838,70.599 30.593,70 30.501,69.047 C30.224,69.578 29.932,70.104 29.623,70.618 C29.09,71.517 28.455,72.258 27.747,72.83 L27.554,72.978 L27.602,72.747 C27.79,71.853 28.152,70.955 28.681,70.065 C29.233,69.128 29.856,68.212 30.526,67.335 C30.581,66.836 30.696,66.343 30.851,65.843 C30.125,66.538 29.318,67.101 28.448,67.512 C27.615,68.592 26.843,69.715 26.164,70.868 C24.056,74.411 24.699,77.165 24.826,77.631 C25.313,77.538 28.173,76.865 30.282,73.317 C30.282,73.317 28.173,76.865 30.282,73.317 L30.282,73.317 L30.282,73.317 Z M17.769,75.087 C18.544,75.087 21.302,74.864 24.001,71.995 C25.248,70.676 26.353,69.316 27.307,67.959 C26.362,68.245 25.614,68.288 25.24,68.288 C25.075,68.288 24.989,68.279 24.989,68.279 L24.889,68.27 C24.726,68.453 24.577,68.608 24.43,68.77 C23.659,69.589 22.812,70.225 21.922,70.662 L21.705,70.769 L21.806,70.542 C22.216,69.655 22.813,68.79 23.584,67.976 C23.853,67.686 24.143,67.388 24.445,67.096 C24.487,66.52 24.623,65.659 25.031,64.683 C23.406,65.895 21.886,67.251 20.514,68.713 C17.639,71.764 17.622,74.599 17.643,75.081 C17.674,75.087 17.714,75.087 17.769,75.087 C17.769,75.087 17.714,75.087 17.769,75.087 L17.769,75.087 L17.769,75.087 Z M18.873,62.701 C17.695,63.199 16.545,63.75 15.439,64.354 C11.521,66.497 10.534,69.313 10.392,69.792 C10.63,69.881 11.489,70.155 12.763,70.155 C14.446,70.155 16.163,69.693 17.856,68.765 C21.655,66.695 24.161,64.59 25.66,63.088 C24.603,63.523 23.518,63.76 22.421,63.799 C21.507,64.404 20.527,65.002 19.516,65.553 C18.438,66.137 17.365,66.509 16.305,66.645 L16.064,66.679 L16.234,66.503 C16.952,65.738 17.859,65.054 18.918,64.477 C19.452,64.186 19.994,63.907 20.54,63.646 C20.378,63.614 20.218,63.577 20.073,63.539 C19.614,63.416 19.327,63.302 19.257,63.269 L18.835,63.078 L18.771,63.057 L18.791,62.974 L18.873,62.701 L18.873,62.701 L18.873,62.701 L18.873,62.701 Z M13.219,63.916 C15.368,63.341 17.386,62.63 19.222,61.807 C19.526,61.2 20.049,60.343 20.933,59.499 C19.768,59.927 18.464,60.336 16.763,60.802 C15.562,61.142 13.744,61.361 12.791,61.361 C12.518,61.361 12.309,61.342 12.184,61.309 L12.01,61.256 L12.165,61.153 C13.229,60.469 14.497,59.924 15.913,59.544 C17.785,59.037 19.895,58.661 22.358,58.391 C22.627,58.22 22.908,58.06 23.201,57.917 C22.942,57.945 22.691,57.96 22.437,57.978 C22.208,57.991 21.976,58.006 21.75,58.006 C20.791,58.006 19.834,57.86 18.913,57.573 C16.524,57.792 14.142,58.208 11.845,58.832 C7.254,60.065 5.524,62.676 5.258,63.123 C5.592,63.348 7.27,64.36 9.987,64.36 C11.035,64.36 12.119,64.21 13.219,63.916 C13.219,63.916 12.119,64.21 13.219,63.916 L13.219,63.916 L13.219,63.916 Z M7.358,44.145 C12.966,45.937 17.283,46.314 19.915,46.314 C20.415,46.314 20.898,46.304 21.371,46.274 C21,46.073 20.646,45.86 20.289,45.647 C19.907,45.417 19.534,45.148 19.182,44.866 C16.866,44.489 14.44,43.901 11.998,43.116 C10.364,42.592 8.948,41.855 7.78,40.91 L7.583,40.751 L7.837,40.755 C9.305,40.779 10.871,41.055 12.493,41.574 C14.317,42.159 16.146,42.859 17.93,43.647 C17.353,42.968 16.868,42.217 16.495,41.404 C14.132,40.234 11.672,39.236 9.186,38.439 C7.403,37.871 5.671,37.581 4.035,37.581 C1.741,37.581 0.323,38.164 0,38.313 C0.244,38.867 1.999,42.432 7.358,44.145 C7.358,44.145 1.999,42.432 7.358,44.145 L7.358,44.145 L7.358,44.145 Z M7.186,35.289 C10.171,37.441 13.174,39.172 16.113,40.436 C16.012,40.135 15.973,39.94 15.963,39.894 L15.866,39.427 L15.851,39.35 L15.923,39.325 L16.397,39.194 C16.397,39.194 16.596,39.135 16.929,39.079 C15.432,38.213 13.921,37.233 12.428,36.162 C11.015,35.141 9.872,33.971 9.04,32.681 L8.898,32.469 L9.135,32.553 C10.548,33.047 11.979,33.818 13.393,34.83 C15.135,36.089 16.842,37.478 18.465,38.959 C19.17,38.966 19.877,39.046 20.57,39.199 C18.574,36.859 15.31,33.467 10.825,30.232 C6.838,27.357 3.572,27.044 2.355,27.044 C2.049,27.044 1.841,27.063 1.732,27.078 C1.793,27.698 2.379,31.825 7.186,35.289 C7.186,35.289 2.379,31.825 7.186,35.289 L7.186,35.289 L7.186,35.289 Z M19.067,36.126 C18.439,34.92 18.085,33.662 18.002,32.372 C14.111,29.197 12.062,25.733 11.917,22.064 C13.784,25.236 15.906,28.036 18.055,30.715 C18.079,30.506 18.117,30.305 18.16,30.113 C18.319,29.385 18.574,28.729 18.914,28.197 C13.103,20.213 10.651,14.032 10.334,13.202 C8.751,14.081 7.716,15.608 7.342,17.636 C6.723,20.975 8.046,25.117 10.713,28.19 C13.393,31.275 16.203,33.942 19.067,36.126 C19.067,36.126 16.203,33.942 19.067,36.126 L19.067,36.126 L19.067,36.126 Z M20.172,27.861 C19.709,28.117 19.12,28.943 18.834,30.261 C18.564,31.505 18.265,34.767 21.34,38.167 C22.874,39.855 24.668,41.392 26.665,42.726 C25.947,41.685 25.526,40.626 25.397,39.563 C24.821,39.171 24.326,38.762 23.87,38.302 C22.086,36.492 21.578,34.736 21.472,33.575 L21.442,33.281 L21.63,33.51 C22.764,34.958 23.987,36.271 25.265,37.403 C25.342,37.472 25.424,37.539 25.497,37.603 C25.661,36.925 25.947,36.313 26.365,35.794 C26.04,35.453 25.709,35.119 25.378,34.806 C22.261,31.809 20.454,28.413 20.172,27.861 C20.172,27.861 20.454,28.413 20.172,27.861 L20.172,27.861 L20.172,27.861 Z M16.66,39.84 C16.788,40.353 17.638,43.231 20.651,45.059 C22.345,46.084 24.189,46.997 26.128,47.767 C26.108,47.636 26.105,47.517 26.105,47.517 L26.105,47.481 L26.136,47.455 L26.243,47.333 C26.386,47.178 26.681,46.88 27.128,46.589 C25.776,45.989 24.485,45.32 23.287,44.593 C22.46,44.092 21.756,43.447 21.193,42.682 L21.064,42.51 L21.27,42.547 C22.215,42.695 23.11,43.023 23.935,43.526 C25.231,44.312 26.524,45.22 27.768,46.233 C27.887,46.183 27.997,46.128 28.104,46.089 C28.519,45.931 28.957,45.832 29.426,45.799 C27.447,43.928 25.328,42.307 23.128,40.969 C21.333,39.884 19.576,39.653 18.424,39.653 C17.524,39.651 16.876,39.789 16.66,39.84 C16.66,39.84 16.876,39.789 16.66,39.84 L16.66,39.84 L16.66,39.84 Z M15.743,48.279 C16.02,48.696 17.651,50.938 20.996,51.582 C22.883,51.942 24.912,52.131 27.016,52.14 C27.457,51.841 27.957,51.636 28.512,51.503 C28.141,51.286 27.807,51.029 27.518,50.741 C25.908,50.684 24.359,50.515 22.907,50.237 C22.011,50.063 21.178,49.736 20.445,49.261 L20.264,49.148 L20.473,49.108 C20.891,49.028 21.315,48.99 21.752,48.99 C22.197,48.99 22.663,49.031 23.117,49.121 C24.387,49.366 25.7,49.717 27.023,50.163 C26.938,50.054 26.865,49.937 26.797,49.824 C26.532,49.372 26.33,48.877 26.219,48.351 C24.744,47.836 23.274,47.442 21.843,47.164 C21.28,47.059 20.718,47.005 20.165,47.005 C17.734,47.006 16.079,48.043 15.743,48.279 C15.743,48.279 16.079,48.043 15.743,48.279 L15.743,48.279 L15.743,48.279 Z M16.291,55.394 C16.66,55.708 18.661,57.311 21.752,57.311 C21.962,57.311 22.181,57.302 22.393,57.29 C23.863,57.19 25.379,56.973 26.91,56.66 C26.856,56.624 26.808,56.598 26.768,56.56 C26.206,56.181 25.828,55.723 25.603,55.411 C25.561,55.349 25.525,55.3 25.49,55.247 C24.857,55.331 24.228,55.393 23.621,55.438 C23.447,55.45 23.272,55.456 23.1,55.456 C22.389,55.456 21.684,55.35 21.015,55.144 L20.798,55.08 L21.004,54.98 C21.791,54.608 22.646,54.396 23.544,54.33 C24.101,54.294 24.683,54.268 25.304,54.262 C25.449,53.885 25.761,53.229 26.377,52.652 C25.677,52.608 24.989,52.59 24.315,52.59 C23.557,52.59 22.801,52.611 22.072,52.665 C18.616,52.908 16.634,55 16.291,55.394 C16.291,55.394 16.634,55 16.291,55.394 L16.291,55.394 L16.291,55.394 Z M19.606,62.661 C19.87,62.769 20.82,63.111 22.158,63.111 C23.329,63.111 24.5,62.859 25.62,62.35 C26.33,62.028 27.063,61.66 27.785,61.255 C27.702,60.877 27.611,60.203 27.781,59.427 C27.1,59.803 26.424,60.148 25.769,60.443 C24.999,60.794 24.204,60.99 23.413,61.048 L23.178,61.06 L23.343,60.901 C23.915,60.339 24.585,59.882 25.352,59.537 C26.211,59.156 27.132,58.806 28.088,58.496 C28.305,58.051 28.608,57.642 29.013,57.273 C28.514,57.255 28.051,57.169 27.614,57.004 C26.275,57.391 25.007,57.855 23.832,58.382 C20.787,59.755 19.773,62.209 19.606,62.661 C19.606,62.661 19.773,62.209 19.606,62.661 L19.606,62.661 L19.606,62.661 Z M28.976,63.047 C29.22,62.801 29.472,62.564 29.754,62.318 C29.125,62.247 28.49,62.051 28.004,61.78 C27.823,61.949 27.66,62.104 27.502,62.262 C25.169,64.584 25.115,67.129 25.125,67.6 L25.241,67.6 C25.916,67.6 28.274,67.431 30.47,65.248 C31.068,64.646 31.675,63.986 32.257,63.264 C32.212,62.77 32.257,62.262 32.392,61.76 C31.96,62.001 31.529,62.174 31.075,62.259 C30.615,62.804 30.156,63.31 29.693,63.762 C29.089,64.368 28.411,64.844 27.676,65.171 L27.47,65.263 L27.561,65.052 C27.894,64.327 28.371,63.648 28.976,63.047 C28.976,63.047 28.371,63.648 28.976,63.047 L28.976,63.047 L28.976,63.047 Z M35.686,66.546 C35.915,66.102 36.124,65.635 36.341,65.139 C36.163,65.265 35.978,65.377 35.785,65.465 C35.181,65.768 34.604,65.876 34.213,65.919 C33.87,66.527 33.471,67.066 33.002,67.512 L32.824,67.683 L32.859,67.437 C32.931,66.877 33.097,66.305 33.345,65.741 C33.073,65.444 32.643,64.869 32.405,64.054 C32.287,64.277 32.168,64.494 32.064,64.697 C30.592,67.568 31.324,69.891 31.475,70.317 C31.915,70.195 34.222,69.415 35.686,66.546 C35.686,66.546 34.222,69.415 35.686,66.546 L35.686,66.546 L35.686,66.546 Z M38.258,65.983 L38.258,65.972 C38.249,65.961 38.235,65.948 38.228,65.931 C37.94,65.568 37.577,64.946 37.418,64.053 C37.355,64.132 37.298,64.219 37.229,64.293 C37.05,64.78 36.896,65.262 36.761,65.719 C35.878,68.759 36.998,70.793 37.227,71.163 C37.601,70.986 39.492,69.94 40.422,67.147 C40.251,67.231 40.112,67.271 40.038,67.271 C39.91,67.271 39.456,67.085 38.976,66.7 C38.766,67.319 38.47,67.873 38.122,68.358 L37.982,68.551 L37.962,68.317 C37.922,67.598 38.011,66.843 38.229,66.071 C38.235,66.037 38.249,66.009 38.258,65.983 C38.258,65.983 38.249,66.009 38.258,65.983 L38.258,65.983 L38.258,65.983 Z M43.037,64.494 C42.954,64.388 42.88,64.276 42.808,64.16 C42.642,64.883 42.332,65.514 41.883,66.03 C41.657,66.3 41.395,66.538 41.093,66.754 C41.004,69.132 42.027,70.534 42.258,70.818 C42.609,70.598 44.43,69.324 44.944,66.255 C44.953,66.15 44.973,66.053 44.989,65.948 C44.712,65.843 44.445,65.719 44.2,65.568 C43.972,65.428 43.754,65.262 43.556,65.077 C43.52,65.503 43.465,65.911 43.406,66.3 C43.287,67.005 43.073,67.652 42.78,68.224 L42.657,68.459 L42.609,68.199 C42.522,67.565 42.534,66.878 42.65,66.169 C42.738,65.643 42.868,65.082 43.037,64.494 C43.037,64.494 42.868,65.082 43.037,64.494 L43.037,64.494 L43.037,64.494 Z M50.681,44.452 L50.713,44.41 C51.38,43.599 51.833,42.822 51.833,41.695 C51.833,40.415 50.746,39.301 49.629,38.272 L49.559,38.202 L49.563,38.305 C49.575,38.768 49.501,39.295 49.433,39.814 C49.373,40.254 49.317,40.672 49.317,41.023 C49.317,42.463 50.307,44.035 50.645,44.415 L50.681,44.452 L50.681,44.452 L50.681,44.452 L50.681,44.452 Z M49.813,36.651 C49.813,37.477 50.568,38.505 51.993,39.623 L52.025,39.651 L52.059,39.614 C52.257,39.337 52.919,38.349 52.919,37.223 C52.919,36.04 51.371,34.841 50.461,34.123 C50.349,34.042 50.245,33.96 50.159,33.889 L50.081,33.832 L50.088,33.924 C50.104,34.428 50.03,34.913 49.95,35.385 C49.88,35.8 49.813,36.227 49.813,36.651 C49.813,36.651 49.813,36.227 49.813,36.651 L49.813,36.651 L49.813,36.651 Z M57.404,37.287 L57.383,37.369 C57.288,37.745 57.085,38.102 56.872,38.486 C56.494,39.152 56.076,39.912 56.076,40.988 C56.076,42.509 57.422,44.019 57.838,44.446 L57.866,44.476 L57.897,44.446 C58.998,43.338 59.531,42.416 59.531,41.62 C59.531,40.042 58.485,38.578 57.459,37.351 L57.404,37.287 L57.404,37.287 L57.404,37.287 L57.404,37.287 Z M53.6,36.639 C53.6,37.962 55.12,39.124 55.428,39.342 L55.462,39.365 L55.478,39.334 C56.344,38.257 56.619,37.641 56.619,36.791 C56.619,34.797 55.185,33.475 53.934,32.536 L53.822,32.452 L53.863,32.585 C53.969,32.904 54.026,33.256 54.026,33.655 C54.026,34.273 53.895,34.886 53.783,35.426 C53.691,35.872 53.6,36.29 53.6,36.639 C53.6,36.639 53.6,36.29 53.6,36.639 L53.6,36.639 L53.6,36.639 Z M53.419,38.433 L53.383,38.484 C52.763,39.554 52.454,40.579 52.454,41.521 C52.454,42.5 52.988,43.563 54.043,44.693 L54.075,44.728 L54.107,44.687 C55.169,43.157 55.507,42.443 55.507,41.741 C55.507,40.434 54.74,39.722 54.068,39.091 C53.841,38.884 53.631,38.687 53.454,38.478 L53.419,38.433 L53.419,38.433 L53.419,38.433 L53.419,38.433 Z M60.04,42.936 L60.005,42.887 L59.968,42.936 C59.87,43.081 59.765,43.225 59.663,43.371 C58.96,44.346 58.238,45.357 58.238,46.985 C58.238,47.886 58.735,48.616 59.26,49.385 C59.507,49.757 59.769,50.141 59.963,50.539 L60.004,50.625 L60.043,50.539 C60.237,50.141 60.495,49.757 60.751,49.385 C61.274,48.615 61.764,47.886 61.764,46.985 C61.764,45.357 61.041,44.345 60.341,43.367 C60.241,43.225 60.139,43.08 60.04,42.936 C60.04,42.936 60.139,43.08 60.04,42.936 L60.04,42.936 L60.04,42.936 Z M55.852,50.516 L55.891,50.445 C56.128,50.017 56.418,49.637 56.683,49.273 C57.232,48.529 57.747,47.832 57.747,46.853 C57.747,45.676 57.208,44.942 56.628,44.158 C56.426,43.884 56.211,43.593 56.018,43.276 L55.986,43.225 L55.95,43.272 C55.004,44.431 54.374,45.481 54.374,46.845 C54.374,47.998 54.807,48.72 55.312,49.555 C55.472,49.831 55.645,50.117 55.816,50.445 L55.852,50.516 L55.852,50.516 L55.852,50.516 L55.852,50.516 Z M51.685,50.497 L51.71,50.603 L51.763,50.51 C52.026,50.048 52.337,49.681 52.636,49.315 C53.26,48.561 53.801,47.91 53.801,46.68 C53.801,45.782 53.162,44.826 52.644,44.058 C52.513,43.861 52.374,43.657 52.273,43.484 L52.249,43.428 L52.207,43.476 L52.128,43.562 L52.065,43.646 C51.199,44.678 50.566,45.424 50.566,46.785 C50.566,47.56 50.885,48.34 51.191,49.095 C51.373,49.555 51.574,50.027 51.685,50.497 C51.685,50.497 51.574,50.027 51.685,50.497 L51.685,50.497 L51.685,50.497 Z M35.915,99.148 C35.679,99.38 35.679,99.765 35.915,100.005 C36.154,100.24 36.533,100.24 36.772,100.005 C37.008,99.765 37.008,99.38 36.772,99.148 C36.532,98.909 36.153,98.909 35.915,99.148 C35.915,99.148 36.153,98.909 35.915,99.148 L35.915,99.148 L35.915,99.148 Z M35.982,98.39 C35.982,98.309 35.947,98.218 35.884,98.151 C35.819,98.084 35.737,98.054 35.645,98.054 C35.561,98.054 35.474,98.083 35.41,98.151 L35.164,98.392 L34.921,98.642 C34.858,98.705 34.821,98.795 34.821,98.88 C34.821,98.961 34.857,99.05 34.921,99.117 C34.987,99.181 35.076,99.213 35.159,99.213 C35.242,99.213 35.331,99.182 35.397,99.117 L35.642,98.876 L35.889,98.626 C35.947,98.565 35.982,98.48 35.982,98.39 C35.982,98.39 35.982,98.48 35.982,98.39 L35.982,98.39 L35.982,98.39 Z M28.438,91.181 C28.509,91.119 28.538,91.029 28.538,90.943 C28.538,90.861 28.509,90.778 28.438,90.707 C28.374,90.643 28.292,90.606 28.2,90.606 C28.118,90.606 28.027,90.642 27.961,90.707 L27.714,90.953 L27.474,91.199 C27.411,91.262 27.378,91.353 27.378,91.431 C27.378,91.528 27.411,91.607 27.474,91.67 C27.541,91.741 27.628,91.774 27.71,91.774 C27.797,91.774 27.885,91.742 27.948,91.67 L28.193,91.428 L28.438,91.181 L28.438,91.181 L28.438,91.181 L28.438,91.181 Z M15.476,78.226 C15.541,78.155 15.577,78.077 15.577,77.986 C15.577,77.901 15.541,77.809 15.476,77.745 C15.409,77.683 15.322,77.652 15.242,77.652 C15.155,77.652 15.065,77.682 15,77.745 L14.759,77.995 L14.514,78.242 C14.444,78.301 14.414,78.39 14.414,78.472 C14.414,78.56 14.444,78.642 14.514,78.712 C14.576,78.774 14.666,78.809 14.749,78.809 C14.836,78.809 14.922,78.775 14.99,78.712 L15.233,78.47 L15.476,78.226 L15.476,78.226 L15.476,78.226 L15.476,78.226 Z M27.386,89.398 L15.874,78.434 L15.196,79.113 L26.163,90.616 C26.46,90.92 27.07,91.052 27.445,90.677 C27.817,90.305 27.688,89.694 27.386,89.398 C27.386,89.398 27.688,89.694 27.386,89.398 L27.386,89.398 L27.386,89.398 Z M14.942,76.476 C14.607,76.138 13.732,76.453 13.535,76.524 C13.416,76.35 13.392,76.16 13.392,76.048 C13.61,76.071 13.89,75.995 14.064,75.864 L14.061,75.794 C14.274,75.725 14.446,75.634 14.54,75.572 C14.671,75.641 14.83,75.625 14.942,75.517 C15.067,75.387 15.067,75.171 14.942,75.037 C14.806,74.911 14.591,74.911 14.462,75.037 C14.343,75.16 14.331,75.348 14.433,75.478 C14.303,75.496 14.138,75.517 14.039,75.529 L14.038,75.458 C13.86,75.365 13.668,75.382 13.504,75.396 C13.504,75.396 13.295,75.29 13.047,75.076 C13.044,75.028 13.035,74.991 13.025,74.967 C13.448,75.115 13.653,75.063 13.653,75.063 C13.653,75.063 14.964,74.017 14.2,72.629 C13.429,71.242 12.104,71.246 12.104,71.246 C12.494,72.191 12.352,73.166 12.349,73.263 C12.337,73.384 12.276,73.587 12.392,73.708 C12.471,73.783 12.637,73.768 12.787,73.914 C12.915,74.046 12.854,74.239 12.735,74.365 C12.628,74.472 12.494,74.529 12.36,74.465 L12.375,74.456 C12.527,74.219 12.308,74.132 12.308,74.132 C12.278,74.431 12.024,74.488 11.857,74.321 C11.657,74.117 11.541,73.61 11.541,73.61 C11.541,73.61 11.667,73.408 11.976,73.408 C11.976,73.408 11.864,73.262 11.674,73.341 C11.674,73.341 11.735,73.055 11.98,73.055 C11.98,73.055 12.025,72.953 11.929,72.851 C11.828,72.755 11.691,72.798 11.575,72.972 C11.575,72.972 11.515,72.874 11.421,72.909 C11.421,72.909 11.388,72.97 11.288,73.075 C11.284,73.066 11.137,72.763 11.044,72.664 C10.917,72.545 10.728,72.632 10.617,72.748 C10.537,72.827 10.479,72.93 10.471,73.03 C10.42,72.932 10.36,72.843 10.308,72.792 C10.122,72.609 9.84,72.742 9.67,72.916 C9.497,73.089 9.362,73.366 9.547,73.549 C9.596,73.602 9.69,73.659 9.784,73.723 C9.685,73.723 9.58,73.781 9.504,73.856 C9.389,73.978 9.297,74.166 9.421,74.289 C9.52,74.384 9.832,74.531 9.832,74.531 C9.718,74.634 9.666,74.665 9.666,74.665 C9.632,74.76 9.727,74.819 9.727,74.819 C9.56,74.936 9.512,75.078 9.605,75.173 C9.708,75.272 9.813,75.231 9.813,75.231 C9.813,74.989 10.09,74.919 10.09,74.919 C10.02,75.111 10.169,75.226 10.169,75.226 C10.169,74.916 10.366,74.783 10.366,74.783 C10.366,74.783 10.874,74.904 11.076,75.107 C11.241,75.272 11.189,75.523 10.89,75.551 C10.89,75.551 10.973,75.772 11.205,75.626 L11.22,75.615 C11.284,75.738 11.229,75.87 11.122,75.98 C10.997,76.101 10.802,76.163 10.671,76.035 C10.522,75.882 10.542,75.72 10.462,75.638 C10.342,75.521 10.137,75.584 10.02,75.594 C9.924,75.601 8.944,75.739 8.001,75.354 C8.001,75.354 7.997,76.68 9.386,77.449 C9.765,77.654 10.122,77.711 10.434,77.683 C10.424,77.683 10.411,77.699 10.402,77.705 C10.308,77.801 10.308,77.951 10.402,78.05 C10.5,78.149 10.653,78.149 10.752,78.05 C10.791,78.009 10.813,77.959 10.818,77.915 L11.971,77.895 C11.987,77.907 12.106,77.947 12.277,77.938 C12.464,77.938 12.528,77.895 12.533,77.887 L12.701,77.885 L12.701,77.804 L12.533,77.807 C12.533,77.807 12.48,77.775 12.342,77.766 C12.405,77.665 12.496,77.503 12.55,77.306 L12.627,77.308 C12.753,77.134 12.825,76.858 12.801,76.641 C12.911,76.641 13.108,76.67 13.283,76.781 C13.205,76.982 12.894,77.853 13.224,78.185 C13.559,78.521 14.418,77.766 14.489,77.709 C14.591,77.603 15.29,76.823 14.942,76.476 C14.942,76.476 15.29,76.823 14.942,76.476 L14.942,76.476 L14.942,76.476 Z M10.872,74.356 C10.651,74.32 10.46,74.322 10.46,74.322 C10.444,74.071 10.317,73.986 10.317,73.986 C10.286,74.045 10.234,74.115 10.174,74.189 C10.158,74.165 10.055,73.932 9.965,73.821 C10.075,73.881 10.158,73.92 10.158,73.92 C10.303,73.806 10.305,73.806 10.431,73.675 C10.556,73.549 10.551,73.547 10.673,73.409 C10.673,73.409 10.63,73.321 10.576,73.211 C10.692,73.297 10.919,73.409 10.939,73.419 C10.867,73.481 10.795,73.535 10.74,73.568 C10.74,73.568 10.823,73.69 11.073,73.714 C11.073,73.714 11.071,73.898 11.108,74.118 C11.143,74.326 11.203,74.457 11.203,74.457 C11.203,74.457 11.078,74.393 10.872,74.356 C10.872,74.356 11.078,74.393 10.872,74.356 L10.872,74.356 L10.872,74.356 Z M12.218,77.766 C12.066,77.775 11.963,77.809 11.963,77.809 L10.816,77.833 C10.805,77.782 10.789,77.74 10.75,77.704 C10.718,77.674 10.684,77.652 10.646,77.642 C11.354,77.477 11.817,76.897 11.817,76.897 C11.817,76.897 11.862,76.7 11.714,76.273 C11.743,76.281 11.782,76.287 11.826,76.295 C12.047,76.533 12.149,76.748 12.149,76.748 C12.136,76.917 12.123,77.106 12.21,77.284 L12.277,77.286 C12.272,77.403 12.24,77.627 12.218,77.766 C12.218,77.766 12.24,77.627 12.218,77.766 L12.218,77.766 L12.218,77.766 Z M41.689,90.887 C41.715,89.972 41.887,89.061 42.172,88.294 C41.658,88.4 41.098,88.45 40.521,88.45 C40.103,88.45 39.675,88.425 39.248,88.363 C37.083,90.05 34.857,91.649 33.621,92.519 C34.432,92.693 34.838,93.331 34.883,93.922 C34.886,94.026 34.883,94.138 34.863,94.24 C37.031,93.493 39.318,92.362 41.689,90.887 C41.689,90.887 39.318,92.362 41.689,90.887 L41.689,90.887 L41.689,90.887 Z M80.758,88.363 C80.328,88.425 79.903,88.45 79.488,88.45 C78.907,88.45 78.351,88.4 77.834,88.294 C78.122,89.061 78.292,89.972 78.313,90.887 C80.885,92.49 83.362,93.674 85.674,94.422 C85.547,94.151 85.481,93.841 85.481,93.521 C85.481,93.013 85.651,92.542 85.944,92.204 C84.621,91.266 82.672,89.855 80.758,88.363 C80.758,88.363 82.672,89.855 80.758,88.363 L80.758,88.363 L80.758,88.363 Z M93.459,87.642 C93.482,89.144 93.5,90.571 93.51,92.021 C93.539,92.021 93.572,92.021 93.602,92.032 C93.796,92.032 93.984,92.038 94.171,92.042 C95.418,92.073 96.649,92.145 97.91,92.25 C97.518,89.946 95.735,88.118 93.459,87.642 C93.459,87.642 95.735,88.118 93.459,87.642 L93.459,87.642 L93.459,87.642 Z M90.957,92.031 C90.994,92.02 91.021,92.02 91.049,92.02 C91.07,90.57 91.078,89.143 91.108,87.641 C88.826,88.118 87.051,89.946 86.648,92.248 C87.924,92.143 89.162,92.071 90.42,92.04 C90.596,92.037 90.776,92.031 90.957,92.031 C90.957,92.031 90.776,92.031 90.957,92.031 L90.957,92.031 L90.957,92.031 Z M97.63,92.906 C97.289,92.906 97.014,93.179 97.014,93.52 C97.014,93.863 97.289,94.138 97.63,94.138 C97.971,94.138 98.242,93.863 98.242,93.52 C98.242,93.18 97.971,92.906 97.63,92.906 L97.63,92.906 L97.63,92.906 L97.63,92.906 Z M92.281,92.621 C91.945,92.621 91.67,92.898 91.67,93.239 C91.67,93.576 91.945,93.854 92.281,93.854 C92.623,93.854 92.894,93.576 92.894,93.239 C92.894,92.899 92.623,92.621 92.281,92.621 L92.281,92.621 L92.281,92.621 L92.281,92.621 Z M92.281,89.178 C91.945,89.178 91.67,89.45 91.67,89.793 C91.67,90.134 91.945,90.406 92.281,90.406 C92.623,90.406 92.894,90.134 92.894,89.793 C92.894,89.45 92.623,89.178 92.281,89.178 L92.281,89.178 L92.281,89.178 L92.281,89.178 Z M92.281,90.902 C91.945,90.902 91.67,91.174 91.67,91.514 C91.67,91.853 91.945,92.125 92.281,92.125 C92.623,92.125 92.894,91.853 92.894,91.514 C92.894,91.175 92.623,90.902 92.281,90.902 L92.281,90.902 L92.281,90.902 L92.281,90.902 Z M93.451,93.268 C93.451,93.609 93.722,93.882 94.07,93.882 C94.404,93.882 94.685,93.609 94.685,93.268 C94.685,92.927 94.404,92.653 94.07,92.653 C93.723,92.652 93.451,92.927 93.451,93.268 C93.451,93.268 93.451,92.927 93.451,93.268 L93.451,93.268 L93.451,93.268 Z M95.234,93.361 C95.234,93.699 95.511,93.977 95.851,93.977 C96.191,93.977 96.464,93.699 96.464,93.361 C96.464,93.021 96.191,92.747 95.851,92.747 C95.511,92.747 95.234,93.022 95.234,93.361 C95.234,93.361 95.234,93.022 95.234,93.361 L95.234,93.361 L95.234,93.361 Z M87.549,93.521 C87.549,93.18 87.278,92.907 86.936,92.907 C86.6,92.907 86.323,93.18 86.323,93.521 C86.323,93.864 86.6,94.139 86.936,94.139 C87.277,94.139 87.549,93.863 87.549,93.521 C87.549,93.521 87.549,93.863 87.549,93.521 L87.549,93.521 L87.549,93.521 Z M90.5,93.882 C90.834,93.882 91.115,93.609 91.115,93.268 C91.115,92.927 90.834,92.653 90.5,92.653 C90.158,92.653 89.885,92.927 89.885,93.268 C89.885,93.609 90.158,93.882 90.5,93.882 C90.5,93.882 90.158,93.882 90.5,93.882 L90.5,93.882 L90.5,93.882 Z M88.101,93.361 C88.101,93.699 88.377,93.977 88.711,93.977 C89.049,93.977 89.326,93.699 89.326,93.361 C89.326,93.021 89.049,92.747 88.711,92.747 C88.377,92.747 88.101,93.022 88.101,93.361 C88.101,93.361 88.101,93.022 88.101,93.361 L88.101,93.361 L88.101,93.361 Z M92.281,87.458 C91.945,87.458 91.67,87.729 91.67,88.068 C91.67,88.411 91.945,88.683 92.281,88.683 C92.623,88.683 92.894,88.411 92.894,88.068 C92.894,87.73 92.623,87.458 92.281,87.458 L92.281,87.458 L92.281,87.458 L92.281,87.458 Z M93.929,84.392 C93.929,84.392 92.888,84.819 92.623,84.819 C92.623,84.561 93.051,83.513 93.051,83.513 L91.514,83.513 C91.514,83.513 91.946,84.561 91.946,84.819 C91.683,84.819 90.634,84.392 90.634,84.392 L90.634,85.928 C90.634,85.928 91.684,85.5 91.946,85.5 C91.946,85.762 91.514,86.811 91.514,86.811 L93.051,86.811 C93.051,86.811 92.623,85.762 92.623,85.5 C92.888,85.5 93.929,85.928 93.929,85.928 L93.929,84.392 L93.929,84.392 L93.929,84.392 L93.929,84.392 Z M86.762,94.733 C87.019,95.696 87.526,96.556 88.203,97.256 C88.389,96.891 88.811,96.572 89.23,96.483 C89.58,96.117 90.026,95.928 90.531,95.907 C90.929,95.9 91.088,96.093 91.088,96.093 L90.824,96.458 C90.824,96.458 90.529,96.872 90.42,97.277 C90.537,97.608 90.548,97.954 90.447,98.249 C90.404,98.373 90.343,98.492 90.285,98.598 C90.834,98.808 91.439,98.931 92.059,98.958 C91.986,98.736 91.947,98.492 91.958,98.208 C91.992,97.715 92.306,97.272 92.638,97.019 C92.75,96.585 92.713,96.081 92.713,96.075 L92.683,95.673 C92.71,95.665 93.025,95.624 93.253,95.762 C93.878,96.18 94.099,96.762 94.165,97.22 C94.458,97.592 94.593,98.113 94.581,98.363 C94.581,98.407 94.577,98.445 94.575,98.486 C94.838,98.368 95.096,98.223 95.343,98.07 C95.211,97.862 95.131,97.624 95.092,97.392 C95.058,97.104 95.12,96.791 95.259,96.512 C95.099,96.181 94.884,95.913 94.884,95.913 L94.577,95.55 C94.577,95.55 94.831,95.349 95.202,95.349 C95.652,95.349 96.08,95.496 96.434,95.785 C96.736,95.832 96.971,96.019 97.147,96.251 C97.44,95.785 97.661,95.272 97.806,94.735 C96.088,94.561 94.236,94.468 92.28,94.468 C90.328,94.466 88.476,94.559 86.762,94.733 C86.762,94.733 88.476,94.559 86.762,94.733 L86.762,94.733 L86.762,94.733 Z M93.754,97.395 L93.754,97.364 C93.711,97.035 93.58,96.573 93.152,96.229 C93.155,96.465 93.141,96.888 93.017,97.26 L93.009,97.288 L92.979,97.304 C92.713,97.472 92.416,97.834 92.393,98.234 C92.372,98.573 92.443,98.877 92.611,99.077 C92.755,99.266 92.963,99.373 93.213,99.381 C93.222,99.388 93.249,99.388 93.268,99.388 C93.776,99.388 94.115,98.987 94.151,98.332 C94.163,98.177 94.037,97.702 93.771,97.41 L93.754,97.395 L93.754,97.395 L93.754,97.395 L93.754,97.395 Z M57.455,91.81 C57.564,91.317 57.692,90.887 57.855,90.485 C57.606,90.006 57.376,89.519 57.175,89.035 C56.521,90.881 54.812,92.485 52.924,93.007 C53.111,93.29 53.808,94.13 55.473,94.13 C56.565,94.13 57.273,93.565 57.44,93.41 C57.36,92.824 57.367,92.277 57.452,91.817 L57.455,91.81 L57.455,91.81 L57.455,91.81 L57.455,91.81 Z M33.785,95.228 C33.62,95.29 33.433,95.331 33.239,95.353 C33.322,95.623 33.342,95.875 33.322,96.094 C33.523,96.529 33.477,97.081 33.306,97.39 C33.209,97.565 33.085,97.711 32.951,97.834 C33.909,98.585 34.293,98.657 34.293,98.657 L35.426,97.525 C35.426,97.525 35.31,96.891 33.785,95.228 C33.785,95.228 35.31,96.891 33.785,95.228 L33.785,95.228 L33.785,95.228 Z M28.913,93.237 C29.072,93.164 29.358,93.084 29.674,93.084 C29.876,93.084 30.052,93.113 30.218,93.174 C30.322,93.16 30.426,93.149 30.54,93.149 C30.895,93.149 31.226,93.247 31.529,93.431 L31.706,93.534 C31.752,93.461 31.801,93.387 31.857,93.317 C30.188,91.842 29.004,91.234 29.004,91.234 L27.999,92.241 C27.999,92.241 28.215,92.655 28.7,93.349 C28.769,93.307 28.838,93.268 28.913,93.237 C28.913,93.237 28.838,93.268 28.913,93.237 L28.913,93.237 L28.913,93.237 Z M42.681,87.298 C42.723,86.606 42.987,85.619 43.41,84.639 C43.252,84.645 43.105,84.653 42.946,84.653 C42.603,84.653 42.259,84.627 41.951,84.575 C41.329,84.476 40.743,84.294 40.205,84.036 C38.705,85.048 37.796,86.823 37.605,87.23 C38.55,87.581 39.532,87.766 40.522,87.766 C41.634,87.766 42.401,87.532 42.675,87.431 L42.681,87.298 L42.681,87.298 L42.681,87.298 L42.681,87.298 Z M42.064,83.897 C42.336,83.941 42.635,83.966 42.942,83.966 C43.216,83.966 43.489,83.945 43.738,83.909 C44.198,83.008 44.713,82.271 45.205,81.811 C44.398,81.798 43.6,81.582 42.851,81.169 C41.283,81.788 39.298,81.934 38.74,81.967 C39.006,82.351 39.979,83.55 42.064,83.897 C42.064,83.897 39.979,83.55 42.064,83.897 L42.064,83.897 L42.064,83.897 Z M46.106,90.85 C45.927,90.28 45.831,89.675 45.817,89.038 C45.811,88.592 45.862,88.077 45.964,87.601 C45.103,87.819 44.269,87.948 43.596,87.948 C43.466,87.948 43.342,87.94 43.226,87.936 L43.092,87.921 C42.896,88.306 41.965,90.248 42.573,92.96 C42.998,92.833 44.883,92.186 46.106,90.85 C46.106,90.85 44.883,92.186 46.106,90.85 L46.106,90.85 L46.106,90.85 Z M46.734,87.368 C46.583,87.891 46.496,88.492 46.509,89.029 C46.553,91.142 47.6,92.276 47.949,92.588 C48.052,92.043 48.48,90.102 49.323,88.634 C49.017,87.835 48.921,87.024 49.017,86.216 C48.499,86.643 47.692,87.044 46.734,87.368 C46.734,87.368 47.692,87.044 46.734,87.368 L46.734,87.368 L46.734,87.368 Z M56.18,84.334 L55.539,84.334 C54.709,85.025 53.93,85.901 53.227,86.93 C54.248,87.73 55.128,88.964 55.665,90.335 C56.085,89.797 56.407,89.2 56.587,88.605 L56.777,87.97 C56.458,86.994 56.288,86.109 56.288,85.408 C56.288,85.046 56.322,84.683 56.387,84.34 C56.314,84.336 56.244,84.334 56.18,84.334 L56.18,84.334 L56.18,84.334 L56.18,84.334 Z M27.71,35.284 C27.332,35.511 25.874,36.545 25.874,38.888 C25.874,40.362 26.535,41.901 27.794,43.335 C28.885,44.581 30.381,45.7 32.01,46.509 L32.089,46.544 L32.045,46.628 C32.029,46.653 32.019,46.681 32,46.706 L31.958,46.775 L31.89,46.75 C31.181,46.448 30.471,46.304 29.8,46.304 C29.266,46.304 28.759,46.392 28.293,46.572 C27.391,46.912 26.817,47.475 26.642,47.661 C26.663,47.977 26.766,48.753 27.248,49.559 C27.817,50.539 28.864,51.28 30.188,51.631 L30.267,51.652 L30.257,51.723 L30.245,51.752 L30.237,51.803 L30.23,51.88 L30.152,51.878 C30.053,51.874 29.957,51.868 29.86,51.868 C28.303,51.868 27.347,52.454 26.824,52.941 C26.053,53.614 25.781,54.453 25.727,54.608 C25.798,54.754 26.186,55.546 27.06,56.13 C27.639,56.54 28.372,56.755 29.181,56.755 C29.6,56.755 30.052,56.695 30.509,56.576 L30.584,56.559 L30.614,56.632 C30.623,56.648 30.631,56.674 30.641,56.694 L30.662,56.771 L30.59,56.8 C29.402,57.398 28.597,58.287 28.336,59.316 C28.082,60.202 28.239,60.969 28.326,61.28 L28.326,61.285 C28.911,61.624 29.573,61.816 30.217,61.82 L30.301,61.82 C31.032,61.82 32.146,61.573 33.28,60.389 L33.339,60.333 L33.396,60.379 L33.454,60.422 L33.518,60.473 L33.475,60.545 C32.81,61.623 32.602,62.767 32.865,63.759 C33.082,64.61 33.547,65.191 33.751,65.409 C33.773,65.41 33.805,65.41 33.854,65.41 C34.125,65.41 34.819,65.374 35.559,65.001 C36.483,64.558 37.219,63.653 37.646,62.457 L37.673,62.387 L37.744,62.406 L37.787,62.412 L37.828,62.426 L37.899,62.443 L37.891,62.521 C37.754,63.735 38.023,64.833 38.641,65.62 C39.205,66.363 39.907,66.695 40.04,66.753 C40.167,66.706 40.883,66.402 41.484,65.695 C41.952,65.156 42.491,64.193 42.429,62.644 L42.423,62.569 L42.494,62.555 L42.587,62.546 L42.664,62.525 L42.68,62.599 C43.09,64.032 43.884,64.763 44.465,65.12 C45.295,65.632 46.122,65.83 46.7,65.904 L46.7,55.764 C46.616,55.771 46.531,55.771 46.45,55.771 C46.287,55.771 46.114,55.764 45.946,55.747 C45.101,57.486 43.103,58.482 40.445,58.482 C37.404,58.439 34.336,56.753 34.336,53.611 C34.336,51.491 35.095,49.973 35.71,48.758 C36.161,47.87 36.545,47.102 36.545,46.319 C36.545,44.018 34.805,42.729 32.786,41.232 C30.85,39.792 28.65,38.163 27.71,35.284 C27.71,35.284 28.65,38.163 27.71,35.284 L27.71,35.284 L27.71,35.284 Z M50.659,49.403 C49.638,51.203 48.206,52.115 46.393,52.115 C44.488,52.115 43.224,50.956 42.88,50.594 C42.501,51.612 42.598,52.626 43.156,53.458 C43.825,54.466 45.089,55.09 46.452,55.09 C46.533,55.09 46.618,55.085 46.702,55.082 L46.702,52.552 L50.678,52.552 C51.106,51.586 51.101,50.503 50.659,49.403 C50.659,49.403 51.101,50.503 50.659,49.403 L50.659,49.403 L50.659,49.403 Z M46.703,66.429 C46.342,66.386 45.986,66.316 45.645,66.214 C45.637,66.267 45.63,66.318 45.627,66.371 C45.436,67.496 45.064,68.517 44.525,69.386 C45.012,70.559 45.742,71.486 46.702,72.149 L46.702,66.429 L46.702,66.429 L46.703,66.429 L46.703,66.429 Z M62.942,84.471 C61.156,85.05 60.089,87.222 60.082,87.241 L60.004,87.406 L59.931,87.241 C59.911,87.222 58.856,85.051 57.067,84.471 C57.008,84.776 56.98,85.093 56.98,85.409 C56.98,87.495 58.653,91.021 60.004,92.421 C61.352,91.022 63.019,87.495 63.019,85.409 C63.019,85.093 63,84.775 62.942,84.471 C62.942,84.471 63,84.775 62.942,84.471 L62.942,84.471 L62.942,84.471 Z M46.703,80.895 L46.703,77.432 C44.551,78.77 42.347,79.324 41.754,79.458 C42.845,80.56 44.035,81.125 45.302,81.125 C45.765,81.125 46.241,81.046 46.703,80.895 C46.703,80.895 46.241,81.046 46.703,80.895 L46.703,80.895 L46.703,80.895 Z M46.767,81.653 C46.393,81.793 46.049,82.001 45.734,82.275 C44.604,83.252 43.497,85.834 43.377,87.25 C43.442,87.254 43.521,87.259 43.593,87.259 C45.06,87.259 47.584,86.545 48.64,85.633 C49.077,85.25 49.39,84.809 49.588,84.298 C48.178,84.114 47.046,83.037 46.767,81.653 C46.767,81.653 47.046,83.037 46.767,81.653 L46.767,81.653 L46.767,81.653 Z M54.545,84.334 L50.453,84.334 C49.761,85.377 48.943,87.453 50.857,89.972 C51.112,89.299 52.264,86.486 54.545,84.334 C54.545,84.334 52.264,86.486 54.545,84.334 L54.545,84.334 L54.545,84.334 Z M60.432,92.977 L60.069,93.34 L60.005,93.402 L59.945,93.34 L59.575,92.977 C59.171,92.577 58.735,91.99 58.309,91.282 C58.238,91.495 58.185,91.714 58.135,91.95 C57.936,92.99 58.273,94.46 58.706,95.228 C59.197,96.108 59.569,96.478 60.004,96.763 C60.438,96.478 60.814,96.108 61.304,95.228 C61.738,94.459 62.07,92.99 61.872,91.95 C61.824,91.714 61.763,91.495 61.702,91.282 C61.269,91.989 60.838,92.571 60.432,92.977 C60.432,92.977 60.838,92.571 60.432,92.977 L60.432,92.977 L60.432,92.977 Z M46.703,72.972 C46.224,72.679 45.784,72.339 45.399,71.948 C45.33,73.722 44.699,76.558 44.256,77.917 C45.143,77.539 45.971,77.102 46.702,76.608 L46.702,72.972 L46.702,72.972 L46.703,72.972 L46.703,72.972 Z M89.971,97.32 L89.983,97.29 C90.047,96.919 90.251,96.554 90.381,96.357 C90.02,96.407 89.715,96.577 89.469,96.859 L89.439,96.887 L89.407,96.89 C89.061,96.917 88.684,97.218 88.579,97.471 C88.448,97.782 88.442,98.115 88.557,98.371 C88.648,98.569 88.794,98.714 88.968,98.775 C89.07,98.805 89.162,98.826 89.252,98.826 L89.257,98.826 C89.751,98.826 89.984,98.273 90.043,98.105 C90.121,97.88 90.091,97.601 89.985,97.334 L89.971,97.32 L89.971,97.32 L89.971,97.32 L89.971,97.32 Z M96.289,96.199 L96.26,96.199 L96.233,96.178 C95.969,95.937 95.661,95.806 95.323,95.782 C95.436,95.936 95.615,96.207 95.725,96.499 L95.745,96.537 L95.716,96.572 C95.568,96.809 95.494,97.093 95.522,97.327 C95.584,97.772 95.892,98.221 96.357,98.221 C96.394,98.221 96.427,98.221 96.466,98.218 C96.914,98.155 97.144,97.663 97.093,97.231 C97.076,96.966 96.828,96.215 96.289,96.199 C96.289,96.199 96.828,96.215 96.289,96.199 L96.289,96.199 L96.289,96.199 Z M45.732,109.596 C45.732,106.674 49.114,103.634 52.1,100.944 C52.769,100.34 53.407,99.769 53.973,99.223 C55.581,97.686 57.086,95.966 57.855,95.048 C57.743,94.768 57.648,94.443 57.572,94.118 C55.423,96.126 51.123,99.38 48.095,99.38 C46.691,99.38 45.475,99.143 44.129,97.992 C43.121,99.067 43.351,100.971 44.656,102.277 L44.724,102.346 L44.648,102.408 C41.898,104.461 39.354,106.882 39.354,110.548 C39.354,114.093 42.497,115.747 44.618,115.747 C46.889,115.747 47.94,115.015 48.783,114.225 C47.242,113.608 45.732,111.967 45.732,109.596 C45.732,109.596 45.732,111.967 45.732,109.596 L45.732,109.596 L45.732,109.596 Z M44.308,98.877 C44.364,99.285 45.192,100.519 47.684,100.714 C45.334,101.524 44.011,100.268 44.308,98.877 C44.308,98.877 44.011,100.268 44.308,98.877 L44.308,98.877 L44.308,98.877 Z M43.857,112.929 C42.806,112.396 42.251,111.076 42.251,109.871 C42.251,107.608 44.34,104.829 46.367,103.453 C44.495,105.569 43.221,107.889 43.221,110.276 C43.22,111.014 43.434,112.208 43.857,112.929 C43.857,112.929 43.434,112.208 43.857,112.929 L43.857,112.929 L43.857,112.929 Z M57.881,114.817 C57.437,114.911 57.008,114.955 56.627,114.955 C55.61,114.955 54.824,114.642 54.284,114.011 C53.718,113.345 53.428,112.344 53.428,111.031 C53.428,108.383 54.455,106.093 55.761,103.208 C56.64,101.252 57.643,99.033 58.52,96.25 C58.402,96.081 58.293,95.9 58.174,95.696 C57.401,96.704 56.331,97.853 55.201,99.068 C51.753,102.782 47.467,107.394 47.467,112.079 C47.467,112.287 47.478,112.501 47.499,112.728 C47.961,113.204 48.526,113.587 49.095,113.791 L49.623,113.982 L49.754,114.031 L49.648,114.131 L49.244,114.512 C49.002,114.741 48.71,115.011 48.346,115.252 C49.418,116.983 51.264,117.977 53.429,117.977 C55.057,117.977 56.312,117.425 57.143,116.337 C57.621,115.71 57.819,115.083 57.881,114.817 C57.881,114.817 57.819,115.083 57.881,114.817 L57.881,114.817 L57.881,114.817 Z M49.979,111.448 C49.979,108.883 51.202,106.707 52.366,105.281 C51.697,106.756 50.857,109.451 50.857,111.268 C50.857,112.546 51.382,114.273 52.433,114.991 C51.234,114.706 49.979,113.162 49.979,111.448 C49.979,111.448 49.979,113.162 49.979,111.448 L49.979,111.448 L49.979,111.448 Z M61.584,114.777 L61.5,114.268 L61.477,114.146 L61.607,114.166 L62.106,114.282 C62.569,114.393 63.001,114.441 63.38,114.441 C63.663,114.441 63.93,114.412 64.167,114.358 C64.283,113.735 64.344,113.085 64.344,112.406 C64.344,109.754 63.585,107.055 62.707,103.94 C62.086,101.712 61.436,99.416 60.985,96.855 C60.791,97.046 60.584,97.217 60.329,97.376 L60.046,97.557 L60.004,97.589 L59.956,97.557 L59.679,97.376 C59.425,97.217 59.215,97.046 59.02,96.855 C58.572,99.416 57.926,101.712 57.302,103.94 C56.427,107.055 55.666,109.753 55.666,112.406 C55.666,113.085 55.719,113.735 55.839,114.358 C56.078,114.412 56.343,114.441 56.627,114.441 C57.009,114.441 57.44,114.393 57.898,114.282 L58.4,114.166 L58.529,114.146 L58.508,114.268 L58.425,114.777 C58.402,114.876 58.238,115.759 57.557,116.647 C57.38,116.876 57.182,117.088 56.968,117.288 C58.144,119.146 59.763,119.883 60.005,119.991 C60.245,119.883 61.861,119.146 63.04,117.288 C62.823,117.089 62.628,116.876 62.454,116.647 C61.769,115.76 61.602,114.876 61.584,114.777 C61.584,114.777 61.602,114.876 61.584,114.777 L61.584,114.777 L61.584,114.777 Z M60.004,116.664 C59.552,115.525 59.331,114.916 59.331,112.618 C59.331,110.159 59.651,106.995 60.004,104.7 C60.358,106.995 60.679,110.159 60.679,112.618 C60.68,114.916 60.456,115.525 60.004,116.664 C60.004,116.664 60.456,115.525 60.004,116.664 L60.004,116.664 L60.004,116.664 Z M42.22,31.426 C43.407,32.399 44.505,32.963 44.99,33.185 C44.321,32.193 43.652,30.851 43.368,30.241 C44.55,31.501 46.299,32.253 46.824,32.46 C46.54,31.356 45.799,29.867 45.785,29.851 C46.792,30.819 48.222,31.653 49.046,32.023 C48.75,30.666 47.827,29.298 47.81,29.283 C48.702,30.033 49.978,31.028 50.722,31.285 C50.609,30.5 50.135,29.154 50.126,29.141 C51.475,30.848 53.038,31.9 55.225,31.9 C56.527,31.9 57.52,31.427 57.972,31.154 C55.992,31.357 53.258,30.138 51.707,28.925 C52.839,28.671 53.853,27.636 54.237,27.193 C53.675,27.315 53.108,27.373 52.564,27.373 C51.732,27.373 51.247,27.228 50.932,27.133 C53.552,26.462 54.466,25.21 54.731,24.741 C52.472,25.431 48.155,25.515 45.06,25.515 C42.361,25.515 38.8,24.998 38.081,24.895 C38.874,28.104 40.769,30.214 42.22,31.426 C42.22,31.426 40.769,30.214 42.22,31.426 L42.22,31.426 L42.22,31.426 Z M44.687,27.316 C44.831,27.316 44.977,27.316 45.116,27.309 L45.168,27.309 L45.196,27.357 L45.27,27.507 L45.321,27.626 L45.196,27.633 C45.174,27.633 42.916,27.799 41.895,28.82 L41.839,28.876 L41.778,28.824 C41.311,28.448 41.062,27.894 40.995,27.125 L40.988,27.016 L41.098,27.037 C41.117,27.036 42.924,27.316 44.687,27.316 C44.687,27.316 42.924,27.316 44.687,27.316 L44.687,27.316 L44.687,27.316 Z M49.626,31.503 C49.665,31.624 49.693,31.751 49.725,31.871 L49.869,32.571 C50.94,33.421 52.453,34.92 53.038,35.504 C53.308,34.498 53.306,33.342 53.018,32.227 C52.468,32.028 51.942,31.751 51.438,31.384 L51.568,32.313 L50.489,31.939 C50.241,31.852 49.944,31.693 49.626,31.503 C49.626,31.503 49.944,31.693 49.626,31.503 L49.626,31.503 L49.626,31.503 Z M49.233,35.305 C49.353,34.534 49.469,33.676 49.282,32.879 L48.761,32.654 C48.433,32.5 47.933,32.247 47.386,31.918 C47.425,32.044 47.467,32.166 47.492,32.29 L47.833,33.599 L46.568,33.105 C46.354,33.016 45.931,32.836 45.414,32.572 C46.303,34.087 47.91,35.825 49.094,36.529 C49.114,36.116 49.179,35.7 49.233,35.305 C49.233,35.305 49.179,35.7 49.233,35.305 L49.233,35.305 L49.233,35.305 Z M59.735,52.552 L59.735,52.547 C59.699,51.109 58.94,50.033 58.377,49.257 C58.226,49.036 58.085,48.827 57.985,48.657 L57.955,48.607 L57.914,48.647 C57.499,49.103 56.154,50.674 56.154,51.86 C56.154,52.083 56.18,52.315 56.217,52.551 L59.735,52.551 L59.735,52.551 L59.735,52.552 L59.735,52.552 Z M55.603,52.492 C55.603,51.101 54.83,49.941 54.082,48.818 L54.057,48.775 L54.013,48.811 C52.622,50.072 51.754,51.361 51.527,52.54 L51.522,52.551 L55.604,52.551 L55.604,52.492 L55.604,52.492 L55.603,52.492 L55.603,52.492 Z M9.871,57.883 C12.551,57.792 15.096,57.482 17.435,56.966 C17.41,56.957 17.396,56.946 17.377,56.938 C16.527,56.494 15.996,56.051 15.809,55.89 L15.408,55.546 C14.848,55.593 14.266,55.636 13.686,55.659 C13.511,55.673 13.328,55.675 13.146,55.681 C13.024,55.684 12.896,55.692 12.773,55.692 C11.592,55.692 10.491,55.496 9.502,55.128 L9.285,55.046 L9.502,54.964 C10.52,54.583 11.673,54.354 12.918,54.294 C12.98,54.294 13.039,54.283 13.104,54.283 C13.507,54.275 13.92,54.264 14.328,54.264 C15.009,54.264 15.696,54.283 16.385,54.326 L16.39,54.326 C16.929,53.841 17.793,53.203 18.959,52.707 C16.452,52.467 13.113,52.351 11.22,52.351 C10.706,52.351 10.188,52.36 9.682,52.378 C4.644,52.552 2.233,54.78 1.855,55.163 C2.233,55.565 4.644,57.892 9.353,57.892 C9.521,57.893 9.7,57.887 9.871,57.883 C9.871,57.883 9.7,57.887 9.871,57.883 L9.871,57.883 L9.871,57.883 Z M15.922,51.768 C16.644,51.768 18.077,51.788 19.218,51.786 C17.898,51.273 16.919,50.547 16.25,49.911 L16.229,49.908 C14.955,49.845 13.665,49.733 12.383,49.575 C10.779,49.379 9.333,48.938 8.087,48.267 L7.865,48.147 L8.114,48.106 C8.752,47.995 9.438,47.928 10.139,47.911 C10.254,47.911 10.361,47.908 10.476,47.908 C11.152,47.908 11.856,47.953 12.57,48.041 C13.37,48.141 14.18,48.264 14.993,48.404 L14.787,48.098 L15.315,47.738 C15.458,47.636 15.865,47.368 16.482,47.091 C13.664,46.386 11.081,45.895 8.79,45.623 C8.077,45.535 7.375,45.494 6.7,45.494 C2.751,45.494 0.575,46.939 0.188,47.219 C0.522,47.704 2.807,50.71 8.114,51.332 C10.57,51.62 13.202,51.768 15.922,51.768 C15.922,51.768 13.202,51.768 15.922,51.768 L15.922,51.768 L15.922,51.768 Z M31.325,95.659 C31.576,95.383 31.922,95.163 32.119,95.046 C31.96,94.994 31.809,94.964 31.651,94.952 C31.279,94.931 30.958,95.046 30.76,95.144 L30.732,95.159 L30.714,95.159 C30.694,95.154 30.685,95.154 30.672,95.151 C30.301,95.134 29.898,95.284 29.786,95.373 C29.517,95.589 29.34,95.835 29.295,96.094 C29.253,96.323 29.311,96.551 29.461,96.746 C29.62,96.942 29.824,97.052 30.057,97.065 C30.318,97.081 30.602,96.978 30.88,96.759 C31.192,96.502 31.322,96.045 31.303,95.725 L31.3,95.683 L31.325,95.659 L31.325,95.659 L31.325,95.659 L31.325,95.659 Z M31.098,94.633 C31.245,94.612 31.465,94.584 31.704,94.584 C31.928,94.584 32.13,94.611 32.298,94.655 L32.314,94.66 L32.324,94.668 C32.543,94.829 32.823,94.922 33.084,94.922 L33.148,94.922 C33.489,94.901 33.775,94.787 33.962,94.606 C34.129,94.438 34.204,94.226 34.189,93.978 C34.15,93.477 33.758,93.166 33.155,93.166 L33.025,93.166 C32.594,93.198 32.144,93.517 32.021,93.88 L32.009,93.919 L31.969,93.93 C31.584,94.065 31.297,94.306 31.098,94.633 C31.098,94.633 31.297,94.306 31.098,94.633 L31.098,94.633 L31.098,94.633 Z M29.776,95.048 C30.104,94.918 30.351,94.559 30.422,94.276 L30.435,94.249 L30.458,94.231 C30.743,94.016 31.098,93.87 31.308,93.794 C31.071,93.653 30.814,93.582 30.541,93.582 C30.423,93.582 30.308,93.601 30.188,93.619 L30.162,93.624 L30.141,93.611 C30.014,93.549 29.861,93.52 29.675,93.52 C29.444,93.52 29.215,93.571 29.085,93.625 C28.686,93.812 28.371,94.252 28.535,94.67 C28.654,94.97 28.935,95.142 29.309,95.142 C29.463,95.143 29.627,95.108 29.776,95.048 C29.776,95.048 29.627,95.108 29.776,95.048 L29.776,95.048 L29.776,95.048 Z M83.1,24.532 C83.798,24.452 85.143,24.239 86.469,23.727 C89.02,22.751 90.312,21.207 90.312,19.141 C90.312,18.009 89.932,16.967 89.565,15.963 C89.208,14.985 88.878,14.068 88.878,13.099 C88.878,12.62 89.043,11.73 89.399,11.167 C88.923,11.021 88.45,10.955 87.956,10.955 C87.58,10.955 86.812,11.013 85.787,11.383 C85.63,11.753 85.541,12.185 85.541,12.581 C85.541,13.82 86.154,15.133 86.746,16.405 C87.302,17.593 87.826,18.721 87.826,19.733 C87.826,22.015 84.376,23.91 83.1,24.532 C83.1,24.532 84.376,23.91 83.1,24.532 L83.1,24.532 L83.1,24.532 Z M101.072,14.844 L100.703,14.607 C100.663,14.582 99.581,13.919 97.504,13.788 C97.518,13.923 97.522,14.058 97.522,14.192 C97.522,15.208 97.063,16.12 96.606,17.003 C96.159,17.894 95.686,18.815 95.686,19.855 C95.686,20.952 96.018,21.584 96.342,22.199 C96.633,22.745 96.904,23.265 96.904,24.059 C96.904,24.612 96.776,25.242 96.507,25.984 C97.673,25.171 98.268,24.129 98.268,22.878 C98.268,22.152 98.074,21.372 97.694,20.558 L97.839,20.469 C98.202,20.941 98.635,21.207 99.051,21.46 C99.68,21.846 100.284,22.215 100.632,23.251 C100.968,22.238 100.577,21.685 100.13,21.056 C99.747,20.51 99.308,19.888 99.308,18.871 C99.308,18.286 99.687,17.759 100.097,17.201 C100.601,16.507 101.125,15.792 101.072,14.844 C101.072,14.844 101.125,15.792 101.072,14.844 L101.072,14.844 L101.072,14.844 Z M91.845,11.549 C93.167,12.297 94.539,13.069 96.772,13.069 C98.907,13.069 100.227,13.584 100.792,13.857 C100.462,13.46 99.591,12.73 97.418,12.381 C96.095,12.169 95.162,11.122 94.269,10.106 C93.39,9.124 92.553,8.186 91.476,8.186 C91.03,8.186 90.675,8.411 90.234,8.7 C89.9,8.92 89.506,9.172 88.99,9.365 C87.825,9.798 87.121,10.157 86.732,10.388 C87.148,10.303 87.56,10.261 87.958,10.261 C89.555,10.261 90.666,10.886 91.845,11.549 C91.845,11.549 90.666,10.886 91.845,11.549 L91.845,11.549 L91.845,11.549 Z M78.967,31.117 C80.637,30.11 82.444,28.677 82.86,27.021 C82.926,26.75 82.872,26.459 82.71,26.245 C82.577,26.084 82.398,25.99 82.192,25.99 C81.43,28.311 80.105,30 78.967,31.117 C78.967,31.117 80.105,30 78.967,31.117 L78.967,31.117 L78.967,31.117 Z M81.842,37.511 C81.912,36.442 81.608,35.496 80.941,34.759 C80.129,33.855 78.84,33.339 77.403,33.339 C75.999,33.339 75.049,33.764 74.368,34.711 C74.653,34.688 74.948,34.677 75.239,34.677 C77.852,34.677 80.25,35.701 81.842,37.511 C81.842,37.511 80.25,35.701 81.842,37.511 L81.842,37.511 L81.842,37.511 Z M84.324,27.423 C83.994,27.423 83.653,27.444 83.31,27.492 C82.472,29.891 79.215,31.763 77.036,32.782 C77.155,32.777 77.279,32.768 77.402,32.768 C77.994,32.768 78.576,32.852 79.125,33.015 C80.47,32.31 81.746,31.949 82.914,31.949 C84.996,31.949 86.08,33.072 86.307,33.344 C87.524,32.726 87.956,31.33 87.956,30.32 C87.956,28.181 86.08,27.423 84.324,27.423 L84.324,27.423 L84.324,27.423 L84.324,27.423 Z M85.008,31.239 C84.67,31.239 84.393,30.966 84.393,30.629 C84.393,30.291 84.67,30.018 85.008,30.018 C85.346,30.018 85.618,30.291 85.618,30.629 C85.618,30.966 85.346,31.239 85.008,31.239 L85.008,31.239 L85.008,31.239 L85.008,31.239 Z M63.798,21.329 C63.491,21.389 63.145,21.435 62.768,21.482 C66.659,24.722 71.693,24.777 73.189,24.812 C72.124,24.407 69.329,23.497 65.476,20.681 C65.039,21.054 64.316,21.226 63.798,21.329 C63.798,21.329 64.316,21.226 63.798,21.329 L63.798,21.329 L63.798,21.329 Z M76.566,14.108 C76.566,14.558 76.933,14.923 77.38,14.923 C77.833,14.923 78.195,14.558 78.195,14.108 C78.195,13.658 77.833,13.291 77.38,13.291 C76.934,13.291 76.566,13.658 76.566,14.108 C76.566,14.108 76.566,13.658 76.566,14.108 L76.566,14.108 L76.566,14.108 Z M76.869,12.775 L77.893,12.775 C77.893,12.775 77.61,12.076 77.61,11.904 C77.787,11.904 78.482,12.189 78.482,12.189 L78.482,11.162 C78.482,11.162 77.787,11.45 77.61,11.45 C77.61,11.273 77.893,10.577 77.893,10.577 L76.869,10.577 C76.869,10.577 77.155,11.273 77.155,11.45 C76.983,11.45 76.286,11.162 76.286,11.162 L76.286,12.189 C76.286,12.189 76.983,11.904 77.155,11.904 C77.155,12.076 76.869,12.775 76.869,12.775 L76.869,12.775 L76.869,12.775 L76.869,12.775 Z M79.986,22.608 C80.185,22.649 80.57,22.726 80.924,22.898 C81.184,22.418 82.563,19.826 82.563,18.354 C82.563,16.825 81.234,16.147 79.569,15.787 L78.223,22.424 C78.793,22.451 79.424,22.501 79.986,22.608 C79.986,22.608 79.424,22.501 79.986,22.608 L79.986,22.608 L79.986,22.608 Z M80.885,23.939 C80.885,23.444 79.255,23.199 77.381,23.199 C75.51,23.199 73.879,23.444 73.879,23.939 C73.879,24.436 75.51,24.685 77.381,24.685 C79.255,24.685 80.885,24.436 80.885,23.939 C80.885,23.939 80.885,24.436 80.885,23.939 L80.885,23.939 L80.885,23.939 Z M74.781,22.608 C75.339,22.501 75.976,22.451 76.539,22.423 L75.197,15.786 C73.531,16.146 72.203,16.824 72.203,18.353 C72.203,19.825 73.573,22.416 73.836,22.897 C74.193,22.727 74.582,22.65 74.781,22.608 C74.781,22.608 74.582,22.65 74.781,22.608 L74.781,22.608 L74.781,22.608 Z M78.553,16.836 C78.553,15.732 77.89,15.401 77.381,15.401 C76.877,15.401 76.208,15.731 76.208,16.836 C76.208,17.73 77.053,21.132 77.381,22.406 C77.715,21.132 78.553,17.73 78.553,16.836 C78.553,16.836 78.553,17.73 78.553,16.836 L78.553,16.836 L78.553,16.836 Z M83.66,34.411 C82.796,34.097 81.981,33.797 81.103,33.797 C80.982,33.797 80.863,33.803 80.742,33.818 C81.366,34.252 81.853,34.887 82.13,35.625 C82.665,36.054 84.2,36.502 85.139,36.502 C88.038,36.502 88.887,34.729 89.114,34.056 C88.26,34.734 87.391,35.066 86.461,35.066 C85.463,35.065 84.548,34.733 83.66,34.411 C83.66,34.411 84.548,34.733 83.66,34.411 L83.66,34.411 L83.66,34.411 Z M71.043,38.393 C71.043,39.058 71.142,39.719 71.229,40.163 L71.236,40.234 L71.298,40.185 C72.804,39.006 73.716,37.143 73.739,35.196 L73.739,35.119 L73.665,35.162 C73.049,35.536 71.043,36.885 71.043,38.393 C71.043,38.393 71.043,36.885 71.043,38.393 L71.043,38.393 L71.043,38.393 Z M82.946,72.068 L82.924,71.984 L82.572,71.835 C82.544,71.817 81.793,71.497 80.943,70.671 C80.995,70.854 81.037,71.034 81.08,71.22 C81.288,72.082 81.351,72.918 81.262,73.698 L81.239,73.93 L81.106,73.741 C80.663,73.08 80.331,72.316 80.124,71.444 C79.919,70.607 79.759,69.768 79.636,68.965 C79.572,68.856 79.512,68.74 79.457,68.631 C79.201,69.832 78.726,70.645 78.435,71.05 C78.552,71.713 78.687,72.381 78.853,73.049 C79.667,76.419 81.794,77.675 82.189,77.882 C82.441,77.522 83.762,75.426 82.946,72.068 C82.946,72.068 83.762,75.426 82.946,72.068 L82.946,72.068 L82.946,72.068 Z M88.109,78.319 C88.317,77.919 89.399,75.629 88.194,72.21 C88.024,71.712 87.826,71.22 87.625,70.722 C87.016,70.45 86.154,69.96 85.301,69.1 C85.591,69.746 85.855,70.406 86.088,71.065 C86.405,71.966 86.561,72.837 86.561,73.674 L86.561,73.914 L86.409,73.729 C85.876,73.087 85.436,72.311 85.121,71.4 C84.78,70.435 84.489,69.469 84.259,68.516 C84.162,69.989 83.677,70.992 83.431,71.418 C83.636,72.147 83.872,72.896 84.136,73.636 C85.332,77.059 87.682,78.148 88.109,78.319 C88.109,78.319 87.682,78.148 88.109,78.319 L88.109,78.319 L88.109,78.319 Z M91.554,67.512 C90.69,67.101 89.883,66.538 89.159,65.843 C89.31,66.343 89.425,66.836 89.488,67.335 C90.15,68.213 90.774,69.129 91.322,70.065 C91.858,70.955 92.219,71.853 92.404,72.747 L92.449,72.978 L92.263,72.83 C91.548,72.258 90.913,71.518 90.387,70.618 C90.075,70.103 89.781,69.578 89.504,69.047 C89.407,70 89.167,70.599 89.136,70.662 L88.964,71.049 L88.935,71.119 L88.873,71.101 L88.455,71.008 C88.846,71.775 89.271,72.548 89.731,73.317 C91.835,76.865 94.692,77.538 95.177,77.63 C95.312,77.164 95.949,74.41 93.845,70.867 C93.16,69.715 92.391,68.592 91.554,67.512 C91.554,67.512 92.391,68.592 91.554,67.512 L91.554,67.512 L91.554,67.512 Z M94.972,64.684 C95.383,65.661 95.521,66.521 95.567,67.097 C95.864,67.389 96.155,67.687 96.422,67.977 C97.19,68.791 97.791,69.657 98.201,70.543 L98.306,70.77 L98.089,70.663 C97.189,70.226 96.348,69.591 95.577,68.771 C95.428,68.609 95.274,68.454 95.12,68.271 L95.018,68.28 C95.018,68.28 94.929,68.289 94.764,68.289 C94.389,68.289 93.641,68.246 92.702,67.96 C93.65,69.317 94.763,70.677 96.007,71.996 C98.704,74.865 101.455,75.088 102.236,75.088 C102.291,75.088 102.332,75.088 102.362,75.083 C102.384,74.601 102.367,71.766 99.491,68.715 C98.114,67.252 96.6,65.896 94.972,64.684 C94.972,64.684 96.6,65.896 94.972,64.684 L94.972,64.684 L94.972,64.684 Z M104.559,64.355 C103.46,63.751 102.307,63.2 101.137,62.702 L101.216,62.975 L101.235,63.058 L101.171,63.079 L100.753,63.27 C100.675,63.302 100.396,63.416 99.935,63.54 C99.787,63.578 99.632,63.615 99.467,63.647 C100.021,63.908 100.561,64.187 101.085,64.478 C102.146,65.055 103.052,65.74 103.774,66.504 L103.94,66.68 L103.698,66.646 C102.646,66.51 101.571,66.138 100.497,65.554 C99.474,65.003 98.502,64.406 97.585,63.8 C96.491,63.761 95.403,63.524 94.346,63.089 C95.849,64.591 98.347,66.695 102.154,68.766 C103.843,69.694 105.557,70.156 107.248,70.156 C108.517,70.156 109.373,69.882 109.617,69.793 C109.469,69.314 108.483,66.497 104.559,64.355 C104.559,64.355 108.483,66.497 104.559,64.355 L104.559,64.355 L104.559,64.355 Z M108.158,58.832 C105.861,58.208 103.48,57.792 101.086,57.573 C100.173,57.86 99.215,58.006 98.254,58.006 C98.029,58.006 97.797,57.99 97.566,57.978 C97.317,57.96 97.067,57.946 96.803,57.917 C97.092,58.06 97.38,58.22 97.653,58.391 C100.11,58.662 102.221,59.037 104.096,59.544 C105.514,59.925 106.775,60.47 107.84,61.153 L107.998,61.256 L107.824,61.309 C107.696,61.342 107.49,61.361 107.214,61.361 C106.267,61.361 104.443,61.142 103.245,60.802 C101.546,60.336 100.232,59.927 99.07,59.499 C99.951,60.343 100.481,61.199 100.779,61.807 C102.619,62.63 104.644,63.341 106.788,63.916 C107.891,64.21 108.975,64.36 110.017,64.36 C112.733,64.36 114.413,63.347 114.746,63.123 C114.48,62.676 112.749,60.066 108.158,58.832 C108.158,58.832 112.749,60.066 108.158,58.832 L108.158,58.832 L108.158,58.832 Z M120.007,38.313 C119.682,38.164 118.269,37.581 115.967,37.581 C114.339,37.581 112.601,37.871 110.823,38.439 C108.334,39.236 105.878,40.234 103.519,41.404 C103.142,42.217 102.658,42.968 102.074,43.647 C103.855,42.859 105.685,42.159 107.519,41.574 C109.132,41.054 110.704,40.779 112.169,40.755 L112.426,40.751 L112.228,40.91 C111.06,41.855 109.64,42.592 108.013,43.116 C105.564,43.901 103.146,44.489 100.825,44.866 C100.471,45.148 100.096,45.417 99.713,45.647 C99.365,45.86 99.006,46.073 98.639,46.274 C99.106,46.304 99.59,46.314 100.086,46.314 C102.717,46.314 107.04,45.937 112.647,44.145 C118.006,42.432 119.762,38.867 120.007,38.313 C120.007,38.313 119.762,38.867 120.007,38.313 L120.007,38.313 L120.007,38.313 Z M99.438,39.199 C100.128,39.046 100.835,38.966 101.545,38.959 C103.157,37.479 104.865,36.089 106.614,34.83 C108.026,33.817 109.456,33.047 110.868,32.553 L111.108,32.469 L110.968,32.681 C110.131,33.971 108.994,35.141 107.578,36.162 C106.084,37.233 104.572,38.213 103.074,39.079 C103.412,39.136 103.601,39.194 103.601,39.194 L104.078,39.325 L104.158,39.35 L104.142,39.427 L104.038,39.894 C104.038,39.94 103.99,40.135 103.895,40.436 C106.831,39.171 109.834,37.441 112.822,35.289 C117.62,31.825 118.208,27.698 118.277,27.079 C118.167,27.063 117.954,27.045 117.652,27.045 C116.43,27.045 113.167,27.357 109.174,30.233 C104.693,33.467 101.434,36.859 99.438,39.199 C99.438,39.199 101.434,36.859 99.438,39.199 L99.438,39.199 L99.438,39.199 Z M101.951,30.716 C104.098,28.036 106.221,25.237 108.088,22.065 C107.943,25.734 105.9,29.198 102.003,32.373 C101.921,33.663 101.562,34.921 100.935,36.127 C103.803,33.942 106.616,31.276 109.293,28.191 C111.957,25.119 113.287,20.976 112.672,17.637 C112.294,15.61 111.251,14.082 109.672,13.203 C109.36,14.033 106.907,20.214 101.086,28.198 C101.424,28.73 101.69,29.386 101.848,30.114 C101.891,30.306 101.926,30.507 101.951,30.716 C101.951,30.716 101.926,30.507 101.951,30.716 L101.951,30.716 L101.951,30.716 Z M101.17,30.262 C100.885,28.944 100.292,28.117 99.832,27.862 C99.549,28.414 97.744,31.809 94.626,34.808 C94.292,35.121 93.965,35.455 93.641,35.796 C94.055,36.315 94.345,36.927 94.512,37.605 C94.582,37.541 94.658,37.474 94.741,37.405 C96.022,36.273 97.246,34.961 98.384,33.512 L98.564,33.283 L98.535,33.577 C98.423,34.737 97.922,36.494 96.136,38.304 C95.681,38.764 95.182,39.173 94.619,39.565 C94.486,40.628 94.057,41.687 93.336,42.728 C95.344,41.394 97.14,39.858 98.672,38.169 C101.742,34.768 101.439,31.506 101.17,30.262 C101.17,30.262 101.439,31.506 101.17,30.262 L101.17,30.262 L101.17,30.262 Z M93.879,47.767 C95.82,46.997 97.662,46.084 99.354,45.059 C102.368,43.231 103.218,40.353 103.348,39.84 C103.131,39.789 102.479,39.652 101.582,39.652 C100.427,39.652 98.673,39.883 96.879,40.968 C94.679,42.306 92.566,43.927 90.585,45.798 C91.044,45.831 91.49,45.93 91.897,46.088 C92.013,46.126 92.127,46.182 92.24,46.232 C93.482,45.219 94.771,44.311 96.074,43.525 C96.899,43.022 97.791,42.695 98.734,42.546 L98.942,42.509 L98.818,42.681 C98.249,43.447 97.545,44.091 96.723,44.592 C95.52,45.32 94.237,45.988 92.887,46.588 C93.328,46.879 93.623,47.177 93.765,47.332 L93.878,47.454 L93.9,47.48 L93.9,47.516 C93.901,47.517 93.896,47.636 93.879,47.767 C93.879,47.767 93.896,47.636 93.879,47.767 L93.879,47.767 L93.879,47.767 Z M104.266,48.279 C103.926,48.043 102.274,47.006 99.846,47.006 C99.29,47.006 98.721,47.06 98.162,47.165 C96.732,47.442 95.267,47.837 93.787,48.352 C93.672,48.877 93.473,49.373 93.208,49.825 C93.145,49.938 93.068,50.054 92.988,50.164 C94.303,49.718 95.621,49.367 96.888,49.122 C97.343,49.032 97.802,48.991 98.253,48.991 C98.686,48.991 99.117,49.029 99.536,49.109 L99.749,49.149 L99.563,49.262 C98.825,49.737 97.997,50.064 97.1,50.238 C95.645,50.516 94.098,50.685 92.496,50.742 C92.196,51.03 91.866,51.287 91.493,51.504 C92.048,51.637 92.546,51.842 92.989,52.141 C95.092,52.132 97.118,51.944 99.012,51.583 C102.357,50.939 103.981,48.696 104.266,48.279 C104.266,48.279 103.981,48.696 104.266,48.279 L104.266,48.279 L104.266,48.279 Z M98.254,57.311 C101.344,57.311 103.348,55.708 103.712,55.394 C103.371,55 101.393,52.909 97.936,52.665 C97.207,52.611 96.452,52.59 95.693,52.59 C95.02,52.59 94.325,52.609 93.633,52.652 C94.249,53.229 94.558,53.885 94.701,54.262 C95.322,54.268 95.898,54.294 96.465,54.33 C97.356,54.396 98.21,54.608 99.002,54.98 L99.201,55.08 L98.99,55.144 C98.318,55.349 97.618,55.456 96.904,55.456 C96.732,55.456 96.556,55.45 96.39,55.438 C95.779,55.393 95.145,55.331 94.518,55.247 C94.484,55.3 94.443,55.35 94.404,55.411 C94.177,55.723 93.798,56.182 93.244,56.56 C93.189,56.597 93.15,56.623 93.094,56.66 C94.626,56.972 96.145,57.19 97.614,57.29 C97.828,57.302 98.043,57.311 98.254,57.311 C98.254,57.311 98.043,57.311 98.254,57.311 L98.254,57.311 L98.254,57.311 Z M97.847,63.111 C99.19,63.111 100.139,62.769 100.403,62.661 C100.229,62.209 99.219,59.755 96.169,58.383 C95.002,57.856 93.729,57.392 92.392,57.005 C91.958,57.169 91.496,57.256 91.001,57.274 C91.396,57.643 91.697,58.051 91.919,58.497 C92.88,58.807 93.797,59.157 94.655,59.538 C95.419,59.884 96.094,60.341 96.665,60.902 L96.829,61.061 L96.597,61.049 C95.803,60.99 95.009,60.794 94.247,60.444 C93.581,60.149 92.907,59.804 92.231,59.428 C92.394,60.204 92.303,60.878 92.22,61.256 C92.943,61.66 93.672,62.028 94.389,62.351 C95.509,62.859 96.671,63.111 97.847,63.111 C97.847,63.111 96.671,63.111 97.847,63.111 L97.847,63.111 L97.847,63.111 Z M94.885,67.6 C94.899,67.129 94.837,64.584 92.508,62.262 C92.348,62.104 92.188,61.949 92.01,61.78 C91.52,62.051 90.881,62.247 90.26,62.318 C90.531,62.564 90.785,62.801 91.031,63.047 C91.644,63.648 92.113,64.327 92.442,65.052 L92.536,65.263 L92.326,65.171 C91.597,64.844 90.921,64.368 90.312,63.762 C89.853,63.31 89.391,62.804 88.926,62.259 C88.483,62.174 88.038,62.001 87.617,61.76 C87.755,62.262 87.796,62.77 87.755,63.264 C88.331,63.987 88.936,64.647 89.539,65.248 C91.734,67.431 94.096,67.6 94.766,67.6 L94.885,67.6 L94.885,67.6 L94.885,67.6 L94.885,67.6 Z M85.795,65.919 C85.408,65.876 84.824,65.768 84.214,65.465 C84.031,65.377 83.844,65.265 83.664,65.139 C83.881,65.635 84.096,66.102 84.316,66.546 C85.787,69.415 88.1,70.195 88.53,70.317 C88.683,69.891 89.408,67.568 87.937,64.697 C87.832,64.495 87.724,64.277 87.601,64.054 C87.363,64.868 86.931,65.444 86.665,65.741 C86.907,66.305 87.075,66.878 87.152,67.437 L87.182,67.683 L87.005,67.512 C86.54,67.066 86.131,66.527 85.795,65.919 C85.795,65.919 86.131,66.527 85.795,65.919 L85.795,65.919 L85.795,65.919 Z M83.248,65.72 C83.113,65.263 82.956,64.782 82.773,64.294 C82.709,64.22 82.646,64.133 82.583,64.054 C82.432,64.947 82.068,65.569 81.78,65.932 C81.766,65.949 81.755,65.962 81.748,65.973 L81.748,65.984 C81.755,66.009 81.767,66.038 81.775,66.073 C81.995,66.845 82.088,67.6 82.036,68.319 L82.022,68.553 L81.882,68.36 C81.526,67.875 81.244,67.321 81.027,66.702 C80.545,67.088 80.101,67.273 79.97,67.273 C79.895,67.273 79.751,67.233 79.588,67.149 C80.513,69.942 82.403,70.988 82.776,71.165 C83.006,70.794 84.129,68.76 83.248,65.72 C83.248,65.72 84.129,68.76 83.248,65.72 L83.248,65.72 L83.248,65.72 Z M78.122,66.03 C77.67,65.513 77.363,64.883 77.198,64.16 C77.13,64.276 77.05,64.388 76.974,64.494 C77.14,65.082 77.267,65.642 77.361,66.169 C77.479,66.878 77.488,67.565 77.392,68.199 L77.353,68.459 L77.234,68.224 C76.933,67.652 76.724,67.005 76.603,66.3 C76.539,65.911 76.49,65.503 76.453,65.077 C76.252,65.263 76.029,65.429 75.806,65.568 C75.563,65.719 75.293,65.842 75.019,65.948 C75.036,66.052 75.049,66.149 75.061,66.255 C75.58,69.324 77.393,70.599 77.752,70.818 C77.977,70.534 78.998,69.131 78.912,66.754 C78.611,66.538 78.35,66.3 78.122,66.03 C78.122,66.03 78.35,66.3 78.122,66.03 L78.122,66.03 L78.122,66.03 Z M70.576,39.814 C70.504,39.295 70.428,38.768 70.445,38.305 L70.451,38.202 L70.375,38.272 C69.26,39.301 68.175,40.415 68.175,41.695 C68.175,42.822 68.623,43.599 69.291,44.41 L69.328,44.452 L69.359,44.414 C69.705,44.034 70.69,42.463 70.69,41.022 C70.69,40.672 70.634,40.254 70.576,39.814 C70.576,39.814 70.634,40.254 70.576,39.814 L70.576,39.814 L70.576,39.814 Z M69.85,33.89 C69.758,33.961 69.66,34.043 69.543,34.124 C68.63,34.842 67.088,36.041 67.088,37.224 C67.088,38.35 67.747,39.337 67.955,39.615 L67.976,39.652 L68.008,39.624 C69.44,38.506 70.188,37.478 70.188,36.652 C70.188,36.227 70.122,35.8 70.053,35.386 C69.978,34.914 69.899,34.429 69.913,33.925 L69.92,33.833 L69.85,33.89 L69.85,33.89 L69.85,33.89 L69.85,33.89 Z M62.627,37.369 L62.601,37.287 L62.543,37.351 C61.516,38.578 60.471,40.041 60.471,41.62 C60.471,42.416 61.008,43.338 62.112,44.446 L62.134,44.476 L62.164,44.446 C62.583,44.019 63.935,42.508 63.935,40.988 C63.935,39.912 63.504,39.152 63.129,38.486 C62.916,38.103 62.714,37.745 62.627,37.369 C62.627,37.369 62.714,37.745 62.627,37.369 L62.627,37.369 L62.627,37.369 Z M66.187,32.452 L66.079,32.536 C64.824,33.474 63.389,34.797 63.389,36.791 C63.389,37.641 63.663,38.257 64.522,39.334 L64.543,39.365 L64.582,39.342 C64.885,39.124 66.404,37.962 66.404,36.639 C66.404,36.29 66.322,35.872 66.223,35.426 C66.111,34.887 65.981,34.274 65.981,33.655 C65.981,33.256 66.029,32.904 66.142,32.585 L66.187,32.452 L66.187,32.452 L66.187,32.452 L66.187,32.452 Z M66.592,38.433 L66.556,38.477 C66.372,38.686 66.162,38.883 65.943,39.09 C65.266,39.722 64.496,40.434 64.496,41.74 C64.496,42.442 64.839,43.156 65.893,44.686 L65.926,44.727 L65.97,44.692 C67.016,43.562 67.553,42.499 67.553,41.52 C67.553,40.578 67.244,39.553 66.622,38.483 L66.592,38.433 L66.592,38.433 L66.592,38.433 L66.592,38.433 Z M64.146,50.516 L64.187,50.445 C64.357,50.118 64.534,49.832 64.697,49.555 C65.201,48.72 65.631,47.998 65.631,46.845 C65.631,45.481 64.997,44.431 64.061,43.272 L64.017,43.225 L63.991,43.276 C63.796,43.592 63.583,43.883 63.377,44.158 C62.798,44.942 62.261,45.677 62.261,46.853 C62.261,47.832 62.776,48.529 63.325,49.273 C63.597,49.637 63.875,50.017 64.11,50.445 L64.146,50.516 L64.146,50.516 L64.146,50.516 L64.146,50.516 Z M67.941,43.647 L67.871,43.563 L67.802,43.477 L67.758,43.429 L67.729,43.485 C67.628,43.658 67.491,43.862 67.358,44.059 C66.846,44.827 66.211,45.783 66.211,46.681 C66.211,47.91 66.746,48.562 67.368,49.316 C67.675,49.682 67.976,50.049 68.242,50.511 L68.298,50.604 L68.323,50.498 C68.435,50.028 68.63,49.556 68.82,49.096 C69.122,48.341 69.439,47.562 69.439,46.786 C69.439,45.425 68.81,44.679 67.941,43.647 C67.941,43.647 68.81,44.679 67.941,43.647 L67.941,43.647 L67.941,43.647 Z M64.534,94.129 C66.203,94.129 66.896,93.289 67.086,93.006 C65.196,92.485 63.49,90.88 62.834,89.034 C62.631,89.518 62.401,90.006 62.15,90.484 C62.317,90.886 62.441,91.316 62.546,91.809 L62.559,91.816 C62.639,92.276 62.643,92.823 62.569,93.409 C62.735,93.564 63.443,94.129 64.534,94.129 C64.534,94.129 63.443,94.129 64.534,94.129 L64.534,94.129 L64.534,94.129 Z M82.402,87.23 C82.203,86.823 81.299,85.047 79.803,84.036 C79.269,84.294 78.675,84.476 78.054,84.575 C77.747,84.627 77.402,84.653 77.056,84.653 C76.901,84.653 76.757,84.645 76.603,84.639 C77.013,85.619 77.283,86.606 77.322,87.298 L77.336,87.431 C77.61,87.532 78.372,87.766 79.488,87.766 C80.48,87.766 81.453,87.58 82.402,87.23 C82.402,87.23 81.453,87.58 82.402,87.23 L82.402,87.23 L82.402,87.23 Z M76.264,83.909 C76.52,83.945 76.791,83.966 77.067,83.966 C77.376,83.966 77.669,83.941 77.938,83.897 C80.026,83.55 81,82.351 81.266,81.968 C80.705,81.935 78.722,81.789 77.153,81.17 C76.403,81.582 75.612,81.799 74.796,81.812 C75.293,82.272 75.809,83.008 76.264,83.909 C76.264,83.909 75.809,83.008 76.264,83.909 L76.264,83.909 L76.264,83.909 Z M77.432,92.961 C78.036,90.249 77.117,88.307 76.911,87.922 L76.776,87.937 C76.664,87.941 76.534,87.949 76.405,87.949 C75.744,87.949 74.903,87.82 74.04,87.602 C74.147,88.078 74.2,88.592 74.186,89.039 C74.177,89.676 74.079,90.28 73.901,90.851 C75.121,92.186 77.006,92.833 77.432,92.961 C77.432,92.961 77.006,92.833 77.432,92.961 L77.432,92.961 L77.432,92.961 Z M72.059,92.588 C72.405,92.276 73.455,91.143 73.5,89.029 C73.504,88.492 73.42,87.891 73.269,87.368 C72.311,87.044 71.506,86.642 70.989,86.216 C71.09,87.024 70.989,87.835 70.686,88.634 C71.525,90.102 71.953,92.043 72.059,92.588 C72.059,92.588 71.953,92.043 72.059,92.588 L72.059,92.588 L72.059,92.588 Z M63.419,88.605 C63.601,89.201 63.92,89.797 64.348,90.335 C64.877,88.964 65.755,87.73 66.776,86.93 C66.08,85.902 65.297,85.026 64.469,84.334 L63.834,84.334 C63.762,84.334 63.695,84.336 63.617,84.34 C63.687,84.684 63.717,85.046 63.717,85.408 C63.717,86.108 63.546,86.994 63.226,87.97 L63.419,88.605 L63.419,88.605 L63.419,88.605 L63.419,88.605 Z M92.295,35.284 C91.356,38.163 89.159,39.792 87.213,41.235 C85.199,42.732 83.461,44.021 83.461,46.322 C83.461,47.105 83.844,47.874 84.292,48.761 C84.904,49.976 85.67,51.493 85.67,53.614 C85.67,56.756 82.602,58.442 79.565,58.485 C76.902,58.485 74.903,57.489 74.059,55.75 C73.889,55.768 73.722,55.774 73.555,55.774 C73.471,55.774 73.391,55.774 73.299,55.767 L73.299,65.907 C73.879,65.833 74.713,65.635 75.535,65.123 C76.121,64.766 76.91,64.034 77.317,62.602 L77.347,62.528 L77.413,62.549 L77.509,62.558 L77.584,62.572 L77.575,62.647 C77.511,64.196 78.051,65.159 78.513,65.698 C79.124,66.405 79.839,66.709 79.97,66.756 C80.101,66.698 80.8,66.366 81.366,65.623 C81.983,64.836 82.242,63.738 82.116,62.524 L82.105,62.446 L82.177,62.429 L82.226,62.415 L82.259,62.409 L82.337,62.39 L82.362,62.46 C82.784,63.656 83.521,64.561 84.446,65.004 C85.186,65.377 85.883,65.413 86.153,65.413 C86.194,65.413 86.23,65.413 86.258,65.412 C86.458,65.193 86.925,64.612 87.141,63.762 C87.406,62.77 87.186,61.626 86.528,60.548 L86.484,60.476 L86.547,60.425 L86.605,60.382 L86.669,60.336 L86.729,60.392 C87.861,61.576 88.965,61.823 89.7,61.823 L89.788,61.823 C90.425,61.819 91.099,61.627 91.673,61.288 L91.679,61.283 C91.762,60.972 91.921,60.205 91.661,59.319 C91.407,58.291 90.606,57.401 89.407,56.803 L89.337,56.774 L89.371,56.697 C89.374,56.676 89.384,56.65 89.395,56.635 L89.418,56.562 L89.498,56.579 C89.949,56.698 90.402,56.758 90.822,56.758 C91.638,56.758 92.367,56.543 92.943,56.133 C93.812,55.548 94.211,54.756 94.276,54.611 C94.226,54.456 93.947,53.617 93.178,52.944 C92.652,52.457 91.698,51.871 90.148,51.871 C90.046,51.871 89.949,51.877 89.857,51.881 L89.779,51.883 L89.767,51.806 L89.761,51.755 L89.751,51.726 L89.744,51.655 L89.81,51.634 C91.143,51.282 92.186,50.542 92.761,49.562 C93.24,48.755 93.344,47.98 93.36,47.664 C93.186,47.478 92.62,46.915 91.715,46.575 C91.248,46.395 90.738,46.307 90.205,46.307 C89.53,46.307 88.819,46.452 88.119,46.753 L88.041,46.778 L88.002,46.709 C87.988,46.684 87.971,46.656 87.956,46.631 L87.918,46.547 L87.995,46.512 C89.627,45.703 91.122,44.584 92.204,43.338 C93.463,41.903 94.133,40.364 94.133,38.891 C94.137,36.545 92.673,35.511 92.295,35.284 C92.295,35.284 92.673,35.511 92.295,35.284 L92.295,35.284 L92.295,35.284 Z M73.299,55.082 C73.388,55.085 73.471,55.09 73.555,55.09 C74.916,55.09 76.181,54.466 76.856,53.458 C77.407,52.626 77.51,51.611 77.126,50.594 C76.778,50.956 75.519,52.115 73.61,52.115 C71.798,52.115 70.364,51.203 69.351,49.403 C68.905,50.503 68.905,51.586 69.33,52.551 L73.299,52.551 L73.299,55.082 L73.299,55.082 L73.299,55.082 L73.299,55.082 Z M74.383,66.371 C74.376,66.317 74.369,66.267 74.358,66.214 C74.014,66.316 73.665,66.386 73.299,66.429 L73.299,72.149 C74.264,71.486 74.993,70.559 75.481,69.386 C74.938,68.517 74.575,67.496 74.383,66.371 C74.383,66.371 74.575,67.496 74.383,66.371 L74.383,66.371 L74.383,66.371 Z M73.299,80.895 C73.77,81.046 74.24,81.125 74.707,81.125 C75.977,81.125 77.164,80.56 78.258,79.458 C77.656,79.323 75.453,78.77 73.299,77.432 L73.299,80.895 L73.299,80.895 L73.299,80.895 L73.299,80.895 Z M76.633,87.25 C76.51,85.834 75.404,83.252 74.274,82.275 C73.96,82.001 73.61,81.793 73.237,81.653 C72.963,83.037 71.826,84.114 70.422,84.298 C70.616,84.809 70.935,85.25 71.369,85.633 C72.426,86.545 74.948,87.259 76.41,87.259 C76.49,87.259 76.562,87.254 76.633,87.25 C76.633,87.25 76.562,87.254 76.633,87.25 L76.633,87.25 L76.633,87.25 Z M69.552,84.334 L65.471,84.334 C67.737,86.486 68.891,89.299 69.145,89.972 C71.063,87.453 70.245,85.377 69.552,84.334 C69.552,84.334 70.245,85.377 69.552,84.334 L69.552,84.334 L69.552,84.334 Z M73.299,76.608 C74.035,77.101 74.863,77.539 75.753,77.917 C75.305,76.559 74.676,73.723 74.616,71.948 C74.224,72.34 73.783,72.679 73.299,72.972 L73.299,76.608 L73.299,76.608 L73.299,76.608 L73.299,76.608 Z M75.364,102.408 L75.279,102.346 L75.349,102.277 C76.654,100.971 76.884,99.067 75.878,97.992 C74.524,99.142 73.314,99.38 71.909,99.38 C68.883,99.38 64.59,96.126 62.438,94.118 C62.362,94.442 62.261,94.767 62.149,95.048 C62.919,95.966 64.42,97.686 66.028,99.223 C66.597,99.769 67.235,100.339 67.901,100.944 C70.891,103.634 74.276,106.674 74.276,109.596 C74.276,111.967 72.766,113.608 71.225,114.225 C72.062,115.015 73.114,115.747 75.38,115.747 C77.508,115.747 80.651,114.093 80.651,110.548 C80.652,106.882 78.106,104.461 75.364,102.408 C75.364,102.408 78.106,104.461 75.364,102.408 L75.364,102.408 L75.364,102.408 Z M75.698,98.877 C75.998,100.268 74.671,101.523 72.326,100.714 C74.812,100.519 75.641,99.285 75.698,98.877 C75.698,98.877 75.641,99.285 75.698,98.877 L75.698,98.877 L75.698,98.877 Z M76.148,112.929 C76.569,112.208 76.782,111.014 76.782,110.277 C76.782,107.889 75.514,105.57 73.635,103.454 C75.666,104.83 77.756,107.609 77.756,109.872 C77.756,111.076 77.201,112.396 76.148,112.929 C76.148,112.929 77.201,112.396 76.148,112.929 L76.148,112.929 L76.148,112.929 Z M70.357,114.131 L70.252,114.031 L70.383,113.982 L70.908,113.791 C71.482,113.587 72.047,113.203 72.51,112.728 C72.532,112.5 72.541,112.287 72.541,112.079 C72.541,107.394 68.25,102.782 64.811,99.068 C63.672,97.853 62.605,96.704 61.832,95.696 C61.719,95.9 61.603,96.081 61.484,96.25 C62.363,99.033 63.363,101.252 64.244,103.208 C65.547,106.094 66.583,108.383 66.583,111.031 C66.583,112.344 66.287,113.345 65.725,114.011 C65.18,114.642 64.389,114.955 63.38,114.955 C62.991,114.955 62.572,114.911 62.121,114.817 C62.191,115.083 62.389,115.71 62.865,116.337 C63.703,117.425 64.951,117.977 66.583,117.977 C68.744,117.977 70.593,116.984 71.656,115.252 C71.299,115.011 71.004,114.74 70.763,114.512 L70.357,114.131 L70.357,114.131 L70.357,114.131 L70.357,114.131 Z M67.575,114.991 C68.621,114.273 69.144,112.547 69.144,111.268 C69.144,109.451 68.306,106.755 67.634,105.281 C68.806,106.707 70.03,108.883 70.03,111.448 C70.03,113.162 68.769,114.706 67.575,114.991 C67.575,114.991 68.769,114.706 67.575,114.991 L67.575,114.991 L67.575,114.991 Z M69.08,27.13 C68.753,27.226 68.273,27.37 67.445,27.37 C66.898,27.37 66.328,27.312 65.768,27.19 C66.152,27.633 67.165,28.669 68.297,28.922 C66.744,30.136 64.012,31.355 62.026,31.151 C62.48,31.424 63.481,31.897 64.784,31.897 C66.968,31.897 68.528,30.845 69.875,29.138 C69.871,29.151 69.397,30.496 69.28,31.282 C70.029,31.025 71.302,30.03 72.195,29.28 C72.176,29.296 71.251,30.663 70.96,32.02 C71.78,31.65 73.216,30.816 74.218,29.848 C74.21,29.865 73.464,31.354 73.181,32.457 C73.704,32.25 75.452,31.498 76.637,30.238 C76.363,30.848 75.681,32.19 75.016,33.182 C75.505,32.96 76.603,32.396 77.787,31.423 C79.236,30.211 81.131,28.101 81.924,24.89 C81.206,24.994 77.645,25.51 74.947,25.51 C71.85,25.51 67.524,25.426 65.274,24.736 C65.542,25.207 66.459,26.459 69.08,27.13 C69.08,27.13 66.459,26.459 69.08,27.13 L69.08,27.13 L69.08,27.13 Z M74.742,27.508 L74.81,27.358 L74.835,27.31 L74.888,27.31 C75.027,27.317 75.169,27.317 75.32,27.317 C77.082,27.317 78.888,27.037 78.907,27.037 L79.017,27.016 L79.007,27.125 C78.947,27.895 78.689,28.448 78.234,28.824 L78.168,28.876 L78.116,28.82 C77.097,27.799 74.836,27.633 74.81,27.633 L74.685,27.626 L74.742,27.508 L74.742,27.508 L74.742,27.508 L74.742,27.508 Z M66.983,32.227 C66.706,33.342 66.703,34.498 66.968,35.504 C67.552,34.92 69.064,33.421 70.134,32.571 L70.285,31.871 C70.315,31.751 70.343,31.624 70.379,31.503 C70.067,31.693 69.764,31.852 69.51,31.939 L68.435,32.313 L68.575,31.384 C68.067,31.751 67.539,32.027 66.983,32.227 C66.983,32.227 67.539,32.027 66.983,32.227 L66.983,32.227 L66.983,32.227 Z M73.434,33.105 L72.171,33.599 L72.512,32.29 C72.541,32.166 72.58,32.044 72.616,31.918 C72.064,32.247 71.577,32.5 71.245,32.654 L70.73,32.879 C70.532,33.676 70.655,34.534 70.766,35.305 C70.832,35.701 70.893,36.117 70.909,36.529 C72.098,35.825 73.704,34.087 74.589,32.572 C74.076,32.836 73.655,33.016 73.434,33.105 C73.434,33.105 73.655,33.016 73.434,33.105 L73.434,33.105 L73.434,33.105 Z M63.852,51.86 C63.852,50.674 62.504,49.103 62.098,48.647 L62.054,48.607 L62.022,48.657 C61.92,48.827 61.78,49.036 61.626,49.257 C61.072,50.033 60.313,51.11 60.273,52.547 L60.273,52.552 L63.788,52.552 C63.83,52.316 63.852,52.083 63.852,51.86 C63.852,51.86 63.852,52.083 63.852,51.86 L63.852,51.86 L63.852,51.86 Z M68.478,52.541 C68.249,51.361 67.385,50.072 65.988,48.812 L65.956,48.776 L65.922,48.819 C65.174,49.942 64.402,51.102 64.402,52.493 L64.402,52.553 L68.48,52.553 L68.478,52.541 L68.478,52.541 L68.478,52.541 L68.478,52.541 Z M108.787,52.351 C106.9,52.351 103.556,52.467 101.045,52.707 C102.211,53.203 103.076,53.841 103.613,54.326 L103.623,54.326 C104.311,54.283 105.002,54.264 105.679,54.264 C106.086,54.264 106.498,54.275 106.908,54.283 C106.97,54.283 107.027,54.294 107.087,54.294 C108.335,54.354 109.482,54.583 110.504,54.964 L110.722,55.046 L110.504,55.128 C109.514,55.496 108.413,55.692 107.235,55.692 C107.114,55.692 106.985,55.684 106.853,55.681 C106.676,55.674 106.499,55.672 106.32,55.659 C105.743,55.636 105.163,55.593 104.595,55.546 L104.192,55.89 C104.019,56.051 103.474,56.494 102.635,56.938 C102.61,56.947 102.593,56.958 102.573,56.966 C104.911,57.482 107.455,57.792 110.134,57.883 C110.312,57.887 110.486,57.893 110.657,57.893 C115.364,57.893 117.777,55.566 118.153,55.164 C117.773,54.781 115.364,52.553 110.33,52.379 C109.819,52.359 109.3,52.351 108.787,52.351 L108.787,52.351 L108.787,52.351 L108.787,52.351 Z M111.219,45.622 C108.924,45.893 106.338,46.385 103.527,47.09 C104.145,47.367 104.548,47.636 104.691,47.737 L105.215,48.097 L105.014,48.403 C105.821,48.262 106.635,48.139 107.433,48.04 C108.15,47.952 108.85,47.907 109.534,47.907 C109.645,47.907 109.752,47.91 109.868,47.91 C110.57,47.928 111.252,47.994 111.893,48.105 L112.141,48.146 L111.918,48.266 C110.67,48.937 109.23,49.377 107.623,49.574 C106.338,49.732 105.045,49.844 103.782,49.907 C103.782,49.907 103.771,49.91 103.761,49.91 C103.081,50.546 102.103,51.272 100.79,51.785 C101.934,51.787 103.362,51.767 104.079,51.767 C106.804,51.767 109.433,51.62 111.891,51.33 C117.197,50.708 119.475,47.702 119.816,47.217 C119.432,46.938 117.256,45.492 113.311,45.492 C112.633,45.493 111.928,45.534 111.219,45.622 C111.219,45.622 111.928,45.534 111.219,45.622 L111.219,45.622 L111.219,45.622 Z M32.898,96.203 L32.882,96.178 L32.882,96.151 C32.93,95.896 32.974,95.589 32.688,95.249 C32.633,95.544 32.504,95.794 32.211,95.982 C31.919,96.048 31.667,96.211 31.529,96.417 C31.403,96.614 31.04,97.277 31.655,97.671 C31.76,97.742 31.889,97.776 32.025,97.776 C32.376,97.776 32.723,97.547 32.928,97.185 C33.051,96.953 33.065,96.503 32.898,96.203 C32.898,96.203 33.065,96.503 32.898,96.203 L32.898,96.203 L32.898,96.203 Z M53.605,68.424 C53.605,67.714 53.224,67.349 53.224,66.688 C53.224,66.148 53.545,65.855 53.929,65.855 C54.178,65.855 54.415,65.894 54.637,65.978 C54.74,65.837 54.863,65.697 54.989,65.574 C54.406,64.992 53.651,64.643 52.913,64.643 C52.044,64.643 51.225,65.185 51.225,66.322 C51.225,67.573 52.41,68.051 52.41,69.19 C52.41,69.606 52.236,70.03 51.804,70.496 C52.071,70.438 53.605,70.11 53.605,68.424 C53.605,68.424 53.605,70.11 53.605,68.424 L53.605,68.424 L53.605,68.424 Z M57.074,60.081 C56.69,59.904 55.974,59.438 55.762,58.383 C55.72,58.205 55.702,58.038 55.684,57.893 C53.407,58.469 51.936,60.853 51.936,60.853 C52.742,60.926 52.632,61.465 52.944,61.91 C53.174,62.252 53.638,62.331 54.25,62.283 C54.831,62.241 55.296,62.262 55.646,62.728 C56.019,63.215 56.565,63.284 57.257,63.2 C57.282,63.091 57.314,62.987 57.344,62.884 C57.43,62.568 57.488,62.025 57.282,61.298 C57.135,60.749 57.085,60.334 57.074,60.081 C57.074,60.081 57.085,60.334 57.074,60.081 L57.074,60.081 L57.074,60.081 Z M53.298,80.112 C53.361,80.112 53.807,80.101 54.135,80.027 C53.885,79.565 53.753,79.083 53.753,78.653 C53.753,78.527 53.765,78.398 53.794,78.275 C53.469,78.371 53.054,78.387 52.953,78.387 C52.205,78.387 51.6,77.848 51.6,77.124 C51.6,76.406 51.956,76.216 51.956,75.531 C51.956,74.678 51.383,74.583 51.383,74.583 C51.383,74.583 51.638,74.95 51.638,75.276 C51.638,76.094 50.808,76.464 50.808,77.732 C50.81,79.287 52.193,80.112 53.298,80.112 C53.298,80.112 52.193,80.112 53.298,80.112 L53.298,80.112 L53.298,80.112 Z M59.315,67.49 C59.039,66.922 58.753,66.343 58.445,65.96 C58.279,65.756 58.103,65.629 57.93,65.503 C57.699,65.345 57.451,65.159 57.299,64.852 C57.242,64.855 57.197,64.868 57.141,64.873 C57.079,64.967 57.007,65.097 56.938,65.263 C56.767,65.643 56.6,66.218 56.6,66.989 C56.6,67.561 56.696,68.241 56.949,69.028 C57.572,69.145 58.205,69.25 58.823,69.25 C59.084,69.25 59.499,69.244 59.986,69.213 C59.963,68.937 59.93,68.652 59.843,68.518 C59.663,68.224 59.497,67.867 59.315,67.49 C59.315,67.49 59.497,67.867 59.315,67.49 L59.315,67.49 L59.315,67.49 Z M60.15,70.175 C60.082,69.985 60.046,69.765 60.018,69.557 C59.528,69.592 59.101,69.592 58.823,69.592 C58.173,69.592 57.507,69.489 56.885,69.37 L56.682,69.334 L56.617,69.14 C56.377,68.38 56.253,67.656 56.253,66.989 C56.253,66.133 56.455,65.501 56.617,65.124 C56.638,65.073 56.67,65.021 56.69,64.978 C55.511,65.326 54.355,66.286 54.355,67.94 C54.355,68.756 54.928,70.098 54.928,70.098 C54.928,70.098 54.124,70.916 54.003,71.899 C54.003,71.899 53.258,72.276 53.294,73.259 C53.294,73.259 52.978,73.85 52.935,75.308 C52.919,75.669 52.955,76.168 52.955,76.168 C52.955,76.168 52.832,76.45 52.868,76.756 C52.868,76.756 52.714,77.056 52.749,77.243 C52.749,77.243 53.001,77.482 53.582,77.482 C53.971,77.482 54.257,77.299 54.257,77.299 C54.257,77.299 54.271,76.834 53.964,76.643 C53.964,76.643 53.967,76.336 53.698,76.061 C53.698,76.061 53.757,74.832 54.135,73.313 C54.271,73.263 54.534,73.135 54.767,72.883 C55.674,72.553 57.388,71.744 57.893,70.243 C57.893,70.243 59.264,70.6 60.375,70.708 C60.293,70.547 60.224,70.371 60.15,70.175 C60.15,70.175 60.224,70.371 60.15,70.175 L60.15,70.175 L60.15,70.175 Z M58.16,73.149 C59.185,72.521 59.619,71.676 59.847,70.988 C59.172,70.888 58.481,70.743 58.104,70.653 C57.939,71.025 57.705,71.351 57.438,71.634 C57.476,71.757 57.499,71.879 57.499,72.007 C57.499,72.512 57.499,72.837 57.033,73.035 C56.569,73.234 56.827,73.486 57.048,73.776 C57.237,74.016 57.711,74.742 58.067,75.77 C58.357,75.775 58.644,75.793 58.923,75.832 C58.547,75.215 58.208,74.442 58.068,74.193 C57.759,73.646 57.926,73.292 58.16,73.149 C58.16,73.149 57.926,73.292 58.16,73.149 L58.16,73.149 L58.16,73.149 Z M61.888,68.909 C62.208,68.83 62.521,68.724 62.784,68.594 C62.781,68.495 62.76,68.336 62.717,68.115 C62.659,67.762 62.559,67.273 62.379,66.738 C62.093,65.823 61.603,64.748 60.823,63.955 L60.783,64.06 C60.806,64.099 60.823,64.13 60.842,64.165 C61.555,65.589 61.892,67.651 61.892,68.019 C61.892,68.089 61.888,68.169 61.888,68.256 C61.883,68.448 61.883,68.667 61.888,68.909 C61.888,68.909 61.883,68.667 61.888,68.909 L61.888,68.909 L61.888,68.909 Z M69.337,68.471 C68.964,68.097 68.193,67.193 68.193,67.193 C68.193,67.193 68.069,66.76 67.232,67.005 C66.339,67.268 65.482,67.38 65.482,67.38 C65.482,67.38 65.544,67.119 65.544,66.488 C65.544,64.985 64.855,64.795 64.855,63.489 C64.855,62.996 65.091,62.383 65.494,62.088 C65.53,62.296 65.639,62.76 65.846,63.172 C65.846,63.172 65.799,63.881 65.844,64.061 C65.844,64.061 65.641,64.405 65.799,64.592 C65.961,64.774 66.105,64.732 66.105,64.732 C66.105,64.732 66.171,64.889 66.54,64.967 C66.909,65.036 67.11,64.503 67.265,64.089 C67.419,63.672 67.549,63.128 67.549,63.128 C67.549,63.128 68.631,61.877 67.89,60.34 C67.89,60.34 68.113,59.651 67.2,59.455 C67.226,59.083 66.759,58.872 66.187,59.049 C65.994,58.608 65.157,58.904 64.939,59.122 C64.939,59.122 64.597,58.529 63.745,59.373 C63.634,59.233 63.087,59.069 62.641,59.978 C62.381,59.844 61.911,60.034 61.789,60.781 C61.652,60.757 61.245,60.926 61.287,61.772 C61.135,61.772 60.863,61.909 60.998,62.754 C60.998,62.754 60.733,62.849 60.863,63.496 L61.073,63.713 C61.949,64.607 62.448,65.789 62.713,66.628 C62.851,67.068 62.97,67.534 63.061,68.048 C63.098,68.251 63.125,68.441 63.132,68.564 L63.153,68.798 L62.945,68.9 C62.655,69.038 62.32,69.155 61.911,69.264 C61.921,69.337 61.923,69.404 61.934,69.479 C61.937,69.501 61.957,69.566 61.969,69.62 C61.998,69.752 62.047,69.926 62.073,70.127 C62.089,70.237 62.159,70.398 62.208,70.596 C62.64,70.509 62.852,70.436 62.852,70.436 C62.852,70.436 63.177,71.774 63.997,72.473 C63.997,72.473 63.961,73.235 64.393,73.601 C64.506,74.68 64.641,75.296 64.754,75.659 C64.842,75.931 65.043,76.307 65.043,76.307 C65.043,76.307 64.814,76.764 64.914,77.16 C64.711,77.287 64.467,77.373 64.039,77.373 C63.843,77.373 63.542,77.201 63.47,76.966 C63.743,76.754 63.628,76.644 63.628,76.384 C63.628,76.132 63.566,75.914 63.561,75.87 C63.504,75.621 63.403,75.512 63.403,75.139 C63.403,74.919 63.381,74.698 63.251,74.698 C63.19,74.698 63.087,74.732 62.996,74.76 C62.925,74.577 62.767,74.433 62.577,74.415 L61.974,72.594 L56.614,56.419 C56.708,56.388 56.962,56.289 56.848,55.87 C56.783,55.661 56.609,55.385 56.384,55.496 C56.361,55.506 56.339,55.519 56.327,55.521 L55.837,54.057 L55.508,54.16 L56.046,55.769 C55.94,55.962 56.016,56.167 56.026,56.289 C56.05,56.543 56.093,56.809 56.093,56.809 C56.093,56.809 55.891,57.304 56.101,58.314 C56.33,59.435 57.205,59.776 57.384,59.835 L57.415,59.939 C57.422,60.121 57.443,60.564 57.624,61.203 C57.853,62.01 57.782,62.605 57.685,62.99 C57.561,63.382 57.467,63.818 57.467,64.053 C57.467,65.12 58.164,65.055 58.718,65.743 C59.269,66.416 59.71,67.618 60.147,68.339 C60.381,68.728 60.293,69.521 60.482,70.068 C60.749,70.836 61.147,71.231 61.147,71.493 C61.147,71.71 61.012,72.144 61.012,72.286 C61.012,72.398 61.262,72.558 61.607,72.582 L62.36,74.848 C62.292,74.789 62.221,74.761 62.126,74.761 C61.96,74.761 61.844,74.873 61.833,75.085 C61.885,75.007 61.952,74.986 61.987,74.975 C62.003,75.109 62.158,75.221 62.29,75.233 C62.345,75.244 62.486,75.319 62.618,75.514 L62.85,76.205 C62.74,76.267 62.532,76.141 62.532,76.018 C62.532,75.9 62.525,75.845 62.507,75.8 C62.569,75.8 62.597,75.825 62.618,75.835 C62.609,75.777 62.577,75.693 62.479,75.693 C62.339,75.693 62.256,75.893 62.256,76.01 C62.256,76.322 62.585,76.596 62.666,76.689 C62.538,76.638 62.478,76.52 62.243,76.52 C62.07,76.52 61.851,76.58 61.552,76.746 C61.594,76.672 61.807,76.462 61.807,76.234 C61.807,76.179 61.787,76.121 61.735,76.088 C61.753,76.027 61.762,75.97 61.762,75.915 C61.762,75.664 61.619,75.46 61.607,75.354 C61.583,75.219 61.583,74.625 61.279,74.625 C61.231,74.625 61.137,74.633 61.078,74.665 C60.984,74.493 60.878,74.413 60.756,74.413 C60.56,74.413 60.466,74.527 60.452,74.682 C60.483,74.633 60.554,74.586 60.619,74.586 C60.619,74.586 60.718,74.837 60.859,74.937 C60.82,75.019 60.744,75.051 60.599,75.051 C60.524,74.986 60.444,74.802 60.32,74.802 C60.231,74.802 60.076,74.886 60.091,75.06 C60.003,75.108 60.023,75.285 60.087,75.346 C60.087,75.254 60.147,75.14 60.231,75.174 C60.328,75.355 60.942,75.605 60.942,75.796 C60.942,75.84 60.922,75.894 60.922,75.953 C60.922,75.988 60.934,76.017 60.959,76.059 C60.934,76.228 60.783,76.554 60.783,76.554 C59.902,76.172 58.773,76.027 57.83,76.027 C55.884,76.059 54.107,77.167 54.107,78.655 C54.107,79.757 55.116,81.418 57.129,81.418 C58.994,81.418 60.258,80.721 60.258,79.441 C60.258,79.001 60.061,78.643 59.734,78.389 C59.487,78.218 59.072,78.026 58.404,78.026 C58.131,78.026 57.813,78.055 57.446,78.133 C57.369,78.277 57.327,78.433 57.327,78.59 C57.327,78.764 57.378,78.966 57.587,79.168 L57.342,79.41 C57.08,79.152 56.978,78.858 56.978,78.6 C56.978,78.6 56.978,78.591 56.982,78.579 C56.982,78.184 57.176,77.914 57.214,77.852 L57.235,77.822 L57.27,77.813 C57.728,77.717 58.091,77.681 58.403,77.681 C59.473,77.673 60.449,78.176 60.585,79.215 C60.758,79.356 60.899,79.624 60.899,79.9 C60.899,80.267 60.633,80.702 60.019,80.972 C59.999,81.866 58.992,82.254 58.302,82.372 C58.901,82.583 59.522,82.682 60.238,82.634 C63.666,82.394 64.795,81.092 65.337,79.675 C65.49,79.647 65.646,79.615 65.783,79.565 C65.764,79.723 65.715,79.865 65.641,79.998 C65.887,79.92 66.121,79.676 66.256,79.414 C66.287,79.405 66.327,79.389 66.354,79.376 C66.373,79.797 66.234,80.153 65.982,80.476 C66.592,80.206 66.848,79.589 66.947,79.008 C67.03,78.976 67.276,78.792 67.356,78.792 C67.505,78.792 67.633,78.841 67.757,78.841 C68.008,78.841 68.323,78.427 68.371,78.241 C68.408,78.14 68.344,78.06 68.285,78.053 C69.32,77.25 69.135,76.877 69.408,76.445 C69.588,76.162 69.656,75.967 69.656,75.833 C69.656,75.68 69.588,75.595 69.467,75.543 C69.36,75.212 69.155,75.138 68.964,75.138 C68.86,75.138 68.763,75.16 68.693,75.172 C68.728,75.29 68.753,75.397 68.753,75.496 C68.753,75.806 68.575,76.038 68.236,76.178 C68.316,76.077 68.369,75.973 68.369,75.881 C68.369,75.752 68.246,75.725 68.246,75.532 C68.246,75.197 68.563,74.553 69.058,74.433 C68.068,74.433 67.704,75.706 67.461,76.388 C67.326,76.449 67.152,76.477 66.979,76.493 C67.237,75.88 67.075,75.43 67.715,75.104 C67.356,74.869 66.905,75.047 66.645,75.359 C66.521,75.518 66.328,75.912 66.022,76.253 L65.906,76.186 C65.856,75.529 65.689,75.282 65.471,74.709 C65.394,74.496 65.307,74.048 65.229,73.657 C65.229,73.657 65.464,72.78 64.794,72.193 C64.794,72.193 64.938,70.863 64.586,69.509 C64.586,69.509 64.83,69.442 65.053,69.212 C65.053,69.212 66.832,68.857 67.264,67.804 C67.264,67.804 67.61,67.866 67.747,67.722 C67.747,67.722 68.552,68.119 68.964,69.212 C68.964,69.212 68.729,69.561 68.891,69.868 C68.891,69.868 68.448,70.118 68.63,70.462 C68.846,70.842 69.202,71.162 69.531,71.24 C69.795,71.299 69.84,71.257 69.751,70.69 C69.751,70.69 69.884,70.447 69.884,70.186 C69.884,69.792 69.69,69.802 69.69,69.512 C69.69,69.34 69.71,69.24 69.71,69.111 C69.709,68.993 69.598,68.735 69.337,68.471 C69.337,68.471 69.598,68.735 69.337,68.471 L69.337,68.471 L69.337,68.471 Z M61.307,57.246 C61.587,57.286 61.67,56.507 61.614,56.274 C61.442,55.639 60.669,55.382 59.982,55.659 C59.441,55.882 59.121,56.619 58.992,57.099 C58.873,57.541 59.32,57.637 59.32,57.637 C59.297,57.722 59.224,57.834 59.172,57.91 C58.453,57.727 57.942,57.734 57.349,57.722 L62.293,72.645 C62.719,72.673 63.119,72.669 63.296,72.669 C63.688,72.669 63.668,72.409 63.466,72.369 C63.26,72.321 62.409,71.779 62.281,71.596 C62.16,71.425 61.839,70.621 61.747,70.167 C61.687,69.88 61.602,69.624 61.587,69.516 C61.513,68.934 61.543,68.358 61.543,68.017 C61.543,67.712 61.191,65.434 60.397,64.097 L60.542,63.658 L60.519,63.559 C60.421,63.067 60.511,62.79 60.63,62.628 C60.581,62.176 60.646,61.849 60.824,61.64 C60.862,61.603 60.895,61.57 60.942,61.536 C60.964,61.075 61.112,60.817 61.252,60.676 C61.33,60.593 61.408,60.531 61.497,60.495 C61.436,59.683 61.159,58.96 60.591,58.549 C60.571,58.307 60.527,58.135 60.527,58.135 C61.09,57.954 61.307,57.246 61.307,57.246 L61.307,57.246 L61.307,57.246 L61.307,57.246 Z" id="(Symbol)-Normal" fill="#ffffff" sketch:type="MSShapeGroup"></path>
    </g>
</svg>