<?xml version="1.0" encoding="UTF-8" standalone="no"?>
<svg width="15px" height="15px" viewBox="0 0 15 15" version="1.1" xmlns="http://www.w3.org/2000/svg" xmlns:xlink="http://www.w3.org/1999/xlink" xmlns:sketch="http://www.bohemiancoding.com/sketch/ns">
    <title>Slice 1</title>
    <description>Created with Sketch (http://www.bohemiancoding.com/sketch)</description>
    <defs></defs>
    <g id="Page-1" stroke="none" stroke-width="1" fill="none" fill-rule="evenodd" sketch:type="MSPage">
        <path d="M15,7.5 C15,3.35786417 11.6421358,0 7.5,0 C3.35786417,0 0,3.35786417 0,7.5 C0,11.6421358 3.35786417,15 7.5,15 C11.6421358,15 15,11.6421358 15,7.5 Z M13.5,7.5 C13.5,4.18629134 10.8137087,1.5 7.5,1.5 C4.18629134,1.5 1.5,4.18629134 1.5,7.5 C1.5,10.8137087 4.18629134,13.5 7.5,13.5 C10.8137087,13.5 13.5,10.8137087 13.5,7.5 Z M7.46573381,6.83975932 L6.34154761,6.83975932 C6.23567541,6.36857969 5.9180588,6.12662259 5.40854881,6.12662259 C4.73361351,6.12662259 4.30350768,6.67420972 4.30350768,7.52105958 C4.30350768,8.34244028 4.74023052,8.87729283 5.40854881,8.87729283 C5.95114386,8.87729283 6.26876047,8.58439739 6.35478164,8.00497379 L7.43148542,8.00497379 C7.40248236,7.84191983 7.38763428,7.67165131 7.38763428,7.49559042 C7.38763428,7.26443524 7.4144954,7.04500307 7.46573379,6.83975932 Z M7.52520078,6.63876984 C7.34084767,5.68561777 6.41981856,5.133325 5.43501686,5.133325 C4.03221016,5.133325 3.05950928,6.10115342 3.05950928,7.49559042 C3.05950928,8.86455824 3.952806,9.883325 5.41516583,9.883325 C6.34816463,9.883325 6.99001487,9.53312393 7.36056758,8.80725261 C7.44852388,8.63797882 7.50093788,8.52090649 7.53272887,8.39573939 C7.84215029,9.28788386 8.6314055,9.883325 9.75490183,9.883325 C10.6924994,9.883325 11.3375133,9.53312393 11.7098925,8.80725261 C11.8761332,8.488888 11.9160309,8.35517487 11.9293302,8.00497379 L10.699149,8.00497379 C10.6127038,8.58439739 10.2935217,8.87729283 9.7482522,8.87729283 C9.07663978,8.87729283 8.63776433,8.34244028 8.63776433,7.52105958 C8.63776433,6.67420972 9.06999015,6.12662259 9.7482522,6.12662259 C10.2602736,6.12662259 10.5794557,6.36857969 10.6858497,6.83975932 L11.9027317,6.83975932 C11.8162865,5.76368693 10.8321416,5.133325 9.77485072,5.133325 C8.6769404,5.133325 7.84119708,5.72036228 7.52520078,6.63876984 Z" id="(Icon)-Creative-Commons" fill="#666478" sketch:type="MSShapeGroup"></path>
    </g>
</svg>