<?xml version="1.0" encoding="UTF-8" standalone="no"?>
<svg width="26px" height="24px" viewBox="0 0 26 24" version="1.1" xmlns="http://www.w3.org/2000/svg" xmlns:xlink="http://www.w3.org/1999/xlink" xmlns:sketch="http://www.bohemiancoding.com/sketch/ns">
    <title>export</title>
    <description>Created with Sketch (http://www.bohemiancoding.com/sketch)</description>
    <defs></defs>
    <g id="Page-1" stroke="none" stroke-width="1" fill="none" fill-rule="evenodd" sketch:type="MSPage">
        <path d="M9.46486453,1.46492947 L1.41597502,9.51381898 C0.63395361,10.2958404 0,11.8233366 0,12.9325541 L0,21.9270339 C0,23.0331277 0.894978851,23.929794 1.99700466,23.929794 L24.0029953,23.929794 C25.1059106,23.929794 26,23.0362514 26,21.9270339 L26,12.9325541 C26,11.8264603 25.372983,10.302777 24.584025,9.51381898 L16.5351355,1.46492947 C14.5827341,-0.487471937 11.4189415,-0.489147532 9.46486453,1.46492947 Z M23.1698114,10.9280325 C23.580929,11.3391502 24,12.3529691 24,12.9325541 L24,21.9270339 C24,21.9314081 1.99700466,21.929794 1.99700466,21.929794 C2.00039358,21.929794 2,12.9325541 2,12.9325541 C2,12.3549891 2.42237702,11.3358441 2.83018858,10.9280325 L10.8790781,2.87914304 C12.0514241,1.706797 13.9488865,1.70710767 15.1209219,2.87914304 L23.1698114,10.9280325 Z" id="(Icon)-Options" fill="#B0AEB8" sketch:type="MSShapeGroup"></path>
    </g>
</svg>