<?xml version="1.0" encoding="UTF-8" standalone="no"?>
<svg width="16px" height="14px" viewBox="0 0 16 14" version="1.1" xmlns="http://www.w3.org/2000/svg" xmlns:xlink="http://www.w3.org/1999/xlink" xmlns:sketch="http://www.bohemiancoding.com/sketch/ns">
    <title>Slice 1</title>
    <description>Created with Sketch (http://www.bohemiancoding.com/sketch)</description>
    <defs></defs>
    <g id="Page-1" stroke="none" stroke-width="1" fill="none" fill-rule="evenodd" sketch:type="MSPage">
        <path d="M11.0059191,0 L14.9970707,0 C15.5621186,0 16,0.449026756 16,1.00292933 L16,4.99408095 C16,6.11344516 15.365787,6.36578697 14.5834455,5.58344555 L13.2071068,4.20710678 L10.7071068,6.70710678 C10.3165825,7.09763107 9.68341751,7.09763107 9.29289322,6.70710678 C8.90236893,6.31658249 8.90236893,5.68341751 9.29289322,5.29289322 L11.7928932,2.79289322 L10.4165545,1.41655445 C9.63354932,0.633549318 9.89808055,0 11.0059191,0 Z M0,1 C0,0.44771525 0.44771525,0 1,0 L7,0 C7.55228475,0 8,0.44771525 8,1 C8,1.55228475 7.55228475,2 7,2 L2,2 L2,12 L14,12 L14,9 C14,8.44771525 14.4477153,8 15,8 C15.5522847,8 16,8.44771525 16,9 L16,13 C16,13.5522847 15.5522847,14 15,14 L1,14 C0.44771525,14 0,13.5522847 0,13 L0,1 Z" id="Icon,-New-window" fill="#D6D6D6" sketch:type="MSShapeGroup"></path>
    </g>
</svg>