<?xml version="1.0" encoding="UTF-8" standalone="no"?>
<svg width="120px" height="120px" viewBox="0 0 120 120" version="1.1" xmlns="http://www.w3.org/2000/svg" xmlns:xlink="http://www.w3.org/1999/xlink" xmlns:sketch="http://www.bohemiancoding.com/sketch/ns">
    <title>media</title>
    <description>Created with Sketch (http://www.bohemiancoding.com/sketch)</description>
    <defs></defs>
    <g id="Page-1" stroke="none" stroke-width="1" fill="none" fill-rule="evenodd" sketch:type="MSPage">
        <path d="M66.2928932,72.2928932 C65.9023689,72.6834175 65.9023689,73.3165825 66.2928932,73.7071068 C66.6834175,74.0976311 67.3165825,74.0976311 67.7071068,73.7071068 L79.2955605,62.1186531 C80.4648108,60.9494027 80.4653496,59.0511361 79.2955605,57.8813469 L67.7071068,46.2928932 C67.3165825,45.9023689 66.6834175,45.9023689 66.2928932,46.2928932 C65.9023689,46.6834175 65.9023689,47.3165825 66.2928932,47.7071068 L77.5857864,59 L41,59 C40.4477153,59 40,59.4477153 40,60 C40,60.5522847 40.4477153,61 41,61 L77.5857864,61 L66.2928932,72.2928932 Z" id="Icon,-Arrow" fill="#FFFFFF" sketch:type="MSShapeGroup"></path>
        <path d="M109.610266,33.9981508 C109.256136,33.3238782 108.888663,32.657711 108.508198,32 L100.003555,32 C98.900544,32 98,32.893736 98,33.9923358 L98,84.0076642 C98,85.1094338 98.9043366,86 100.003555,86 L109.611233,86.0000072 C109.957347,85.3409361 110.290713,84.6741219 110.611003,83.9998921 C104.496584,83.9998246 100.003555,84 100.003555,84 C100.002095,84 100,33.9923358 100,33.9923358 C100,33.9951683 104.010719,33.9969891 109.610266,33.9981508 L109.610266,33.9981508 Z M98.5046844,28 C98.2259549,28 98,28.214035 98,28.5046844 L98,29.4953156 C98,29.7740451 98.214035,30 98.5046844,30 L99.4953156,30 C99.7740451,30 100,29.785965 100,29.4953156 L100,28.5046844 C100,28.2259549 99.785965,28 99.4953156,28 L98.5046844,28 Z M98.5046844,24 C98.2259549,24 98,24.214035 98,24.5046844 L98,25.4953156 C98,25.7740451 98.214035,26 98.5046844,26 L99.4953156,26 C99.7740451,26 100,25.785965 100,25.4953156 L100,24.5046844 C100,24.2259549 99.785965,24 99.4953156,24 L98.5046844,24 Z M98.5046844,20 C98.2259549,20 98,20.214035 98,20.5046844 L98,21.4953156 C98,21.7740451 98.214035,22 98.5046844,22 L99.4953156,22 C99.7740451,22 100,21.785965 100,21.4953156 L100,20.5046844 C100,20.2259549 99.785965,20 99.4953156,20 L98.5046844,20 Z M98.5046844,96 C98.2259549,96 98,96.214035 98,96.5046844 L98,97.4953156 C98,97.7740451 98.214035,98 98.5046844,98 L99.4953156,98 C99.7740451,98 100,97.785965 100,97.4953156 L100,96.5046844 C100,96.2259549 99.785965,96 99.4953156,96 L98.5046844,96 Z M98.5046844,92 C98.2259549,92 98,92.214035 98,92.5046844 L98,93.4953156 C98,93.7740451 98.214035,94 98.5046844,94 L99.4953156,94 C99.7740451,94 100,93.785965 100,93.4953156 L100,92.5046844 C100,92.2259549 99.785965,92 99.4953156,92 L98.5046844,92 Z M98.5046844,88 C98.2259549,88 98,88.214035 98,88.5046844 L98,89.4953156 C98,89.7740451 98.214035,90 98.5046844,90 L99.4953156,90 C99.7740451,90 100,89.785965 100,89.4953156 L100,88.5046844 C100,88.2259549 99.785965,88 99.4953156,88 L98.5046844,88 Z" id="Icon,-Side-space" fill="#FFFFFF" sketch:type="MSShapeGroup"></path>
        <path d="M120,60 C120,26.8629134 93.1370866,0 60,0 C26.8629134,0 0,26.8629134 0,60 C0,93.1370866 26.8629134,120 60,120 C93.1370866,120 120,93.1370866 120,60 Z M2,60 C2,27.9674829 27.9674829,2 60,2 C92.0325171,2 118,27.9674829 118,60 C118,92.0325171 92.0325171,118 60,118 C27.9674829,118 2,92.0325171 2,60 Z" id="Icon,-Shape" fill="#FFFFFF" sketch:type="MSShapeGroup"></path>
    </g>
</svg>