<?xml version="1.0" encoding="UTF-8" standalone="no"?>
<svg width="30px" height="6px" viewBox="0 0 30 6" version="1.1" xmlns="http://www.w3.org/2000/svg" xmlns:xlink="http://www.w3.org/1999/xlink" xmlns:sketch="http://www.bohemiancoding.com/sketch/ns">
    <title>more_alt</title>
    <description>Created with Sketch (http://www.bohemiancoding.com/sketch)</description>
    <defs></defs>
    <g id="Page-1" stroke="none" stroke-width="1" fill="none" fill-rule="evenodd" sketch:type="MSPage">
        <path d="M15,6 C16.6568543,6 18,4.65685433 18,3 C18,1.34314567 16.6568543,0 15,0 C13.3431457,0 12,1.34314567 12,3 C12,4.65685433 13.3431457,6 15,6 Z M27,6 C28.6568543,6 30,4.65685433 30,3 C30,1.34314567 28.6568543,0 27,0 C25.3431457,0 24,1.34314567 24,3 C24,4.65685433 25.3431457,6 27,6 Z" id="Icon,-Process" fill="#FCFCFC" sketch:type="MSShapeGroup"></path>
        <path d="M3,6 C4.65685433,6 6,4.65685433 6,3 C6,1.34314567 4.65685433,0 3,0 C1.34314567,0 0,1.34314567 0,3 C0,4.65685433 1.34314567,6 3,6 Z" id="Icon,-Highlight" fill="#2A40C8" sketch:type="MSShapeGroup"></path>
    </g>
</svg>