<?xml version="1.0" encoding="UTF-8" standalone="no"?>
<svg width="26px" height="22px" viewBox="0 0 26 22" version="1.1" xmlns="http://www.w3.org/2000/svg" xmlns:xlink="http://www.w3.org/1999/xlink" xmlns:sketch="http://www.bohemiancoding.com/sketch/ns">
    <title>photo_active</title>
    <description>Created with Sketch (http://www.bohemiancoding.com/sketch)</description>
    <defs></defs>
    <g id="Page-1" stroke="none" stroke-width="1" fill="none" fill-rule="evenodd" sketch:type="MSPage">
        <path d="M2,2.50020972 C2,2.22758651 2.22423198,2 2.50083613,2 L23.4991639,2 C23.7822583,2 24,2.22395152 24,2.50020972 L23.9956055,15 L16,7 L10,13 L8,11 L2,17 L2,2.50020972 Z M0,1.991155 L0,20.008845 C0,21.1085295 0.894978851,22 1.99700466,22 L24.0029953,22 C25.1059106,22 26,21.1103261 26,20.008845 L26,1.991155 C26,0.891470458 25.1050211,0 24.0029953,0 L1.99700466,0 C0.89408944,0 0,0.889673948 0,1.991155 Z M9,6 C9,4.89543045 8.10456955,4 7,4 C5.89543045,4 5,4.89543045 5,6 C5,7.10456955 5.89543045,8 7,8 C8.10456955,8 9,7.10456955 9,6 Z" id="(Icon)-Photo" fill="#1E1836" sketch:type="MSShapeGroup"></path>
    </g>
</svg>