<?xml version="1.0" encoding="UTF-8" standalone="no"?>
<svg width="60px" height="60px" viewBox="0 0 60 60" version="1.1" xmlns="http://www.w3.org/2000/svg" xmlns:xlink="http://www.w3.org/1999/xlink" xmlns:sketch="http://www.bohemiancoding.com/sketch/ns">
    <title>prev</title>
    <description>Created with Sketch (http://www.bohemiancoding.com/sketch)</description>
    <defs></defs>
    <g id="Page-1" stroke="none" stroke-width="1" fill="none" fill-rule="evenodd" sketch:type="MSPage">
        <path d="M30,0 C13.4314567,0 0,13.4314567 0,30 C0,46.5685433 13.4314567,60 30,60 C46.5685433,60 60,46.5685433 60,30 C60,13.4314567 46.5685433,0 30,0 Z M30,2 C45.4639738,2 58,14.5360262 58,30 C58,45.4639738 45.4639738,58 30,58 C14.5360262,58 2,45.4639738 2,30 C2,14.5360262 14.5360262,2 30,2 Z M24.4187157,29.9954979 L33.7071068,20.7071068 C34.0976311,20.3165825 34.0976311,19.6834175 33.7071068,19.2928932 C33.3165825,18.9023689 32.6834175,18.9023689 32.2928932,19.2928932 L22.2928932,29.2928932 C21.9023689,29.6834175 21.9023689,30.3165825 22.2928932,30.7071068 L32.2928932,40.7071068 C32.6834175,41.0976311 33.3165825,41.0976311 33.7071068,40.7071068 C34.0976311,40.3165825 34.0976311,39.6834175 33.7071068,39.2928932 L24.4187157,29.9954979 Z" id="(Icon)-Prev" fill="#FCFCFC" sketch:type="MSShapeGroup"></path>
    </g>
</svg>