<?xml version="1.0" encoding="UTF-8" standalone="no"?>
<svg width="26px" height="22px" viewBox="0 0 26 22" version="1.1" xmlns="http://www.w3.org/2000/svg" xmlns:xlink="http://www.w3.org/1999/xlink" xmlns:sketch="http://www.bohemiancoding.com/sketch/ns">
    <title>video</title>
    <description>Created with Sketch (http://www.bohemiancoding.com/sketch)</description>
    <defs></defs>
    <g id="Page-1" stroke="none" stroke-width="1" fill="none" fill-rule="evenodd" sketch:type="MSPage">
        <path d="M1.99700466,0 C0.89408944,0 0,0.889673948 0,1.991155 L0,20.008845 C0,21.1085295 0.894978851,22 1.99700466,22 L24.0029953,22 C25.1059106,22 26,21.1103261 26,20.008845 L26,1.991155 C26,0.891470458 25.1050211,0 24.0029953,0 L1.99700466,0 Z M2.50083613,2 C2.22423198,2 2,2.22758651 2,2.50020972 L2,19.4997903 C2,19.7760485 2.21774173,20 2.50083613,20 L23.4991639,20 C23.775768,20 24,19.7724135 24,19.4997903 L24,2.50020972 C24,2.22395152 23.7822583,2 23.4991639,2 L2.50083613,2 Z M4,4 L4,6 L7,6 L7,4 L4,4 Z M4,8 L4,10 L7,10 L7,8 L4,8 Z M4,12 L4,14 L7,14 L7,12 L4,12 Z M4,16 L4,18 L7,18 L7,16 L4,16 Z M19,4 L19,6 L22,6 L22,4 L19,4 Z M19,8 L19,10 L22,10 L22,8 L19,8 Z M19,12 L19,14 L22,14 L22,12 L19,12 Z M19,16 L19,18 L22,18 L22,16 L19,16 Z" id="(Icon)-Video" fill="#B0AEB8" sketch:type="MSShapeGroup"></path>
    </g>
</svg>