<?xml version="1.0" standalone="no"?>
<!DOCTYPE svg PUBLIC "-//W3C//DTD SVG 1.1//EN" "http://www.w3.org/Graphics/SVG/1.1/DTD/svg11.dtd" >
<svg>
<metadata>
Created by FontForge 20110222 at Sun Aug  4 21:57:27 2013
 By Orthosie Webhosting
Copyright 1990-2003 Bitstream Inc. All rights reserved. Partial Copyright (c) 2005, ParaType Inc, ParaType Ltd. All rights reserved.
</metadata>
<defs>
<font id="NewsGothicBTCond" horiz-adv-x="500" >
  <font-face 
    font-family="NewsGothicBTCond"
    font-weight="400"
    font-stretch="condensed"
    units-per-em="1000"
    panose-1="2 11 5 6 3 5 3 2 2 4"
    ascent="793"
    descent="-207"
    x-height="519"
    cap-height="723"
    bbox="-265 -267 1064 962"
    underline-thickness="50"
    underline-position="-50"
    unicode-range="U+0020-FEFF"
  />
<missing-glyph horiz-adv-x="212" 
 />
    <glyph glyph-name="IJ" unicode="IJ" horiz-adv-x="459" 
d="M67 0v723h74v-723h-74zM396 241v-50q0 -103 -21 -141q-37 -65 -133 -65q-28 0 -58 6l3 69q31 -10 62 -10q21 0 35 7t22 17t11.5 32.5t4.5 41.5t1 55v520h73v-482z" />
    <glyph glyph-name="ij" unicode="ij" horiz-adv-x="368" 
d="M60 0v519h70v-519h-70zM60 641v82h70v-82h-70zM308 -38q0 -74 -20 -105t-75 -31q-15 0 -48 4v57q18 -2 24 -2q32 0 40.5 19.5t8.5 74.5v540h70v-557zM238 641v82h70v-82h-70z" />
    <glyph glyph-name="afii10017.var.accented" unicode="&#x410;`" horiz-adv-x="440" 
d="M13 0l157 723h102l158 -723h-78l-42 213h-182l-42 -213h-73zM144 281h151l-76 378zM153 791l102 171h87l-137 -171h-52z" />
    <glyph glyph-name="afii10022.var.accented" unicode="&#x415;`" horiz-adv-x="417" 
d="M65 0v723h325v-67h-251v-249h184v-66h-184v-274h260v-67h-334zM141 791l102 171h87l-137 -171h-52z" />
    <glyph glyph-name="afii10026.var.accented" unicode="&#x418;`" horiz-adv-x="508" 
d="M65 0v723h74v-469l-4 -71l19 47l215 454v39h74v-723h-74v474l4 71l-18 -50l-216 -452v-43h-74zM207 791l102 171h87l-137 -171h-52z" />
    <glyph glyph-name="afii10032.var.accented" unicode="&#x41e;`" horiz-adv-x="481" 
d="M240 670q-63 0 -92 -71t-29 -220q0 -168 28 -246.5t93 -78.5q64 0 92.5 75t28.5 233t-28.5 233t-92.5 75zM240 -14q-98 0 -148.5 95t-50.5 281q0 375 199 375q98 0 149 -94.5t51 -280.5t-51 -281t-149 -95zM183 791l102 171h87l-137 -171h-52z" />
    <glyph glyph-name="afii10037.var.accented" unicode="&#x423;`" horiz-adv-x="384" 
d="M12 -4v68q26 -7 53 -7q49 0 76 40q19 27 34 74l-182 552h80l132 -440l115 440h74l-137 -491q-38 -139 -68 -184q-40 -62 -117 -62q-22 0 -60 10zM155 791l102 171h87l-137 -171h-52z" />
    <glyph glyph-name="afii10045.var.accented" unicode="&#x42b;`" horiz-adv-x="616" 
d="M65 0v723h74v-298h106q90 0 136 -59t46 -157q0 -100 -50 -154.5t-143 -54.5h-169zM139 66h83q66 0 98 34t32 113q0 62 -34.5 103.5t-92.5 41.5h-86v-292zM477 0v723h74v-723h-74zM241 791l102 171h87l-137 -171h-52z" />
    <glyph glyph-name="afii10047.var.accented" unicode="&#x42d;`" horiz-adv-x="474" 
d="M36 195h70q1 -22 6.5 -44t17.5 -46t35 -38.5t54 -14.5q137 0 137 286h-206v70h205q0 25 -1 49.5t-8 66.5t-19 72t-36.5 53t-57.5 23q-55 0 -81 -34.5t-39 -97.5h-70q11 87 55 142.5t126 55.5q46 0 81.5 -16.5t57.5 -47.5t36.5 -66t21.5 -80.5t9.5 -82.5t2.5 -81
q0 -90 -10 -155.5t-33.5 -117.5t-66 -78.5t-105.5 -26.5q-76 0 -126 56.5t-56 152.5zM180 791l102 171h87l-137 -171h-52z" />
    <glyph glyph-name="afii10048.var.accented" unicode="&#x42e;`" horiz-adv-x="650" 
d="M215 413q14 324 196 324q198 0 198 -375q0 -376 -198 -376q-192 0 -197 358h-75v-344h-74v723h74v-310h76zM411 670q-63 0 -91 -71t-28 -220q0 -169 27 -247t92 -78q64 0 91.5 74.5t27.5 233.5q0 158 -28 233t-91 75zM278 791l102 171h87l-137 -171h-52z" />
    <glyph glyph-name="afii10049.var.accented" unicode="&#x42f;`" horiz-adv-x="472" 
d="M333 0v329h-109l-106 -329h-83l116 343q-54 15 -81 64.5t-27 119.5q0 94 52 145t171 51h141v-723h-74zM333 394v265h-73q-139 0 -139 -132q0 -69 32 -101t109 -32h71zM189 791l102 171h87l-137 -171h-52z" />
    <glyph glyph-name="afii10023.var.accented" unicode="&#x401;`" horiz-adv-x="417" 
d="M65 0v723h325v-67h-251v-249h184v-66h-184v-274h260v-67h-334zM65 894h74v-94h-74v94zM285 894h74v-94h-74v94zM154 791l82 171h79l-117 -171h-44z" />
    <glyph glyph-name="afii10065.var.accented" unicode="&#x430;`" horiz-adv-x="410" 
d="M280 47q-52 -52 -119 -52q-59 0 -92.5 35.5t-33.5 95.5q0 76 62.5 132.5t182.5 86.5q2 22 2 33q0 48 -19 70t-61 22q-36 0 -55.5 -23t-28.5 -75l-67 11q25 147 150 147q80 0 114.5 -41.5t34.5 -131.5v-237q0 -62 9 -120h-71zM280 279q-85 -19 -130.5 -60t-45.5 -94
q0 -30 19.5 -50t49.5 -20q49 0 107 56v168zM158 585l102 171h87l-137 -171h-52z" />
    <glyph glyph-name="afii10070.var.accented" unicode="&#x435;`" horiz-adv-x="381" 
d="M108 308h166v20q0 74 -18.5 108.5t-61.5 34.5q-80 0 -86 -163zM275 170h66q-4 -87 -43 -135t-103 -48q-81 0 -119.5 67t-38.5 205t38.5 205t119.5 67q150 0 150 -240q0 -27 -1 -41h-237q1 -106 20.5 -153.5t67.5 -47.5q75 0 80 121zM143 585l102 171h87l-137 -171h-52z
" />
    <glyph glyph-name="afii10074.var.accented" unicode="&#x438;`" horiz-adv-x="426" 
d="M62 0v519h70v-318l-4 -56l22 53l144 291v30h70v-519h-70v314l4 56l-23 -56l-143 -281v-33h-70zM166 585l102 171h87l-137 -171h-52z" />
    <glyph glyph-name="afii10080.var.accented" unicode="&#x43e;`" horiz-adv-x="382" 
d="M35 259q0 138 38.5 205t119.5 67q154 0 154 -272t-154 -272q-81 0 -119.5 67t-38.5 205zM106 259q0 -111 19 -160.5t67 -49.5q44 0 63.5 51t19.5 159q0 109 -19.5 160t-63.5 51q-48 0 -67 -50t-19 -161zM144 585l102 171h87l-137 -171h-52z" />
    <glyph glyph-name="afii10085.var.accented" unicode="&#x443;`" horiz-adv-x="347" 
d="M9 519h72l90 -391l88 391h69l-121 -517q-22 -94 -61 -135.5t-112 -41.5q-15 0 -22 1v64q6 -1 18 -1q48 0 74 28t37 89zM136 585l102 171h87l-137 -171h-52z" />
    <glyph glyph-name="afii10093.var.accented" unicode="&#x44b;`" horiz-adv-x="554" 
d="M422 0v519h70v-519h-70zM62 0v519h70v-209h84q152 0 152 -155t-153 -155h-153zM132 60h60q51 0 77.5 20.5t26.5 75.5q0 52 -25.5 73t-75.5 21h-63v-190zM220 585l102 171h87l-137 -171h-52z" />
    <glyph glyph-name="afii10095.var.accented" unicode="&#x44d;`" horiz-adv-x="374" 
d="M32 151h66q4 -39 23 -71.5t57 -32.5q21 0 37 9t25.5 27.5t15.5 34.5t8.5 43.5t3 39.5t0.5 37h-142v60h142q-2 35 -4 55t-8 45.5t-14.5 39t-24.5 23t-38 9.5q-73 0 -79 -87h-66q3 58 42 103t108 45q154 0 154 -269q0 -53 -5 -93.5t-19.5 -86t-48 -70.5t-83.5 -25
q-135 0 -150 164zM140 585l102 171h87l-137 -171h-52z" />
    <glyph glyph-name="afii10096.var.accented" unicode="&#x44e;`" horiz-adv-x="540" 
d="M197 301q5 117 42.5 173.5t112.5 56.5q152 0 152 -272t-152 -272q-79 0 -116.5 62t-39.5 192h-64v-241h-70v519h70v-218h65zM267 259q0 -112 18.5 -161t65.5 -49q44 0 62.5 50.5t18.5 159.5t-18.5 160t-62.5 51q-47 0 -65.5 -49.5t-18.5 -161.5zM233 585l102 171h87
l-137 -171h-52z" />
    <glyph glyph-name="afii10097.var.accented" unicode="&#x44f;`" horiz-adv-x="408" 
d="M276 0v225h-83l-95 -225h-80l104 231q-88 26 -88 143q0 145 149 145h163v-519h-70zM276 283v178h-77q-93 0 -93 -91q0 -87 91 -87h79zM157 585l102 171h87l-137 -171h-52z" />
    <glyph glyph-name="afii10071.var.accented" unicode="&#x451;`" horiz-adv-x="381" 
d="M108 308h166v20q0 74 -18.5 108.5t-61.5 34.5q-80 0 -86 -163zM275 170h66q-4 -87 -43 -135t-103 -48q-81 0 -119.5 67t-38.5 205t38.5 205t119.5 67q150 0 150 -240q0 -27 -1 -41h-237q1 -106 20.5 -153.5t67.5 -47.5q75 0 80 121zM42 641v82h70v-82h-70zM270 641v82h70
v-82h-70zM93 585l102 171h87l-137 -171h-52z" />
    <glyph glyph-name="fi" unicode="fi" horiz-adv-x="427" 
d="M232 728v-56q-22 5 -31 5q-36 0 -46 -18.5t-10 -69.5v-70h83v-61h-83v-458h-69v458h-78v61h78v61q0 84 21 118.5t81 34.5q32 0 54 -5zM297 0v519h70v-519h-70zM297 641v82h70v-82h-70z" />
    <glyph glyph-name="fl" unicode="fl" horiz-adv-x="427" 
d="M232 728v-56q-22 5 -31 5q-36 0 -46 -18.5t-10 -69.5v-70h83v-61h-83v-458h-69v458h-78v61h78v61q0 84 21 118.5t81 34.5q32 0 54 -5zM297 0v723h70v-723h-70z" />
    <glyph glyph-name=".notdef" horiz-adv-x="212" 
 />
    <glyph glyph-name=".null" horiz-adv-x="0" 
 />
    <glyph glyph-name="nonmarkingreturn" horiz-adv-x="333" 
 />
    <glyph glyph-name="space" unicode=" " horiz-adv-x="212" 
 />
    <glyph glyph-name="exclam" unicode="!" horiz-adv-x="256" 
d="M103 213l-17 511h83l-16 -511h-50zM89 0v89h79v-89h-79z" />
    <glyph glyph-name="quotedbl" unicode="&#x22;" horiz-adv-x="278" 
d="M97 700v-270h-49v270h49zM231 700v-270h-50v270h50z" />
    <glyph glyph-name="numbersign" unicode="#" horiz-adv-x="425" 
d="M298 710l-82 -236h79l84 236h62l-83 -236h70l-18 -52h-71l-48 -136h70l-18 -52h-70l-83 -234h-63l84 234h-81l-84 -234h-62l83 234h-71l19 52h70l49 136h-69l17 52h70l84 236h62zM276 422h-80l-47 -136h80z" />
    <glyph glyph-name="dollar" unicode="$" horiz-adv-x="425" 
d="M188 -113v113q-139 23 -148 196h60q5 -122 88 -134v295q-134 94 -134 209q0 63 36 103.5t98 45.5v98h50v-98q124 -15 135 -174h-56q-5 102 -79 121v-264q80 -60 115.5 -111t35.5 -116q0 -74 -39.5 -118.5t-111.5 -52.5v-113h-50zM238 59q43 3 68 33.5t25 78.5
q0 83 -93 149v-261zM188 434v228q-38 -3 -58.5 -27t-20.5 -64q0 -78 79 -137z" />
    <glyph glyph-name="percent" unicode="%" horiz-adv-x="736" 
d="M541 292q63 0 107.5 -44.5t44.5 -107.5t-44.5 -107.5t-107.5 -44.5t-107.5 44.5t-44.5 107.5t44.5 107.5t107.5 44.5zM541 237q-41 0 -69 -28.5t-28 -68.5t28 -68.5t69 -28.5t69 28.5t28 68.5t-28 68.5t-69 28.5zM194 725q63 0 107.5 -44.5t44.5 -107.5t-44.5 -107.5
t-107.5 -44.5t-107.5 44.5t-44.5 107.5t44.5 107.5t107.5 44.5zM194 670q-40 0 -68.5 -28.5t-28.5 -69.5q0 -40 28.5 -68.5t68.5 -28.5t68.5 28.5t28.5 68.5q0 41 -28.5 69.5t-68.5 28.5zM114 -14l438 739h55l-438 -739h-55z" />
    <glyph glyph-name="ampersand" unicode="&#x26;" horiz-adv-x="506" 
d="M490 55l-39 -58q-50 34 -85 75q-67 -86 -164 -86q-73 0 -120 50.5t-47 131.5q0 57 27.5 109.5t87.5 117.5q-48 110 -48 194q0 70 33.5 108t91.5 38q55 0 90.5 -37.5t35.5 -96.5q0 -51 -29 -101t-90 -111q43 -103 122 -200q30 63 33 158l67 -3q-3 -123 -52 -209
q36 -42 86 -80zM318 115q-75 92 -137 215q-77 -68 -77 -157q0 -53 30 -85.5t77 -32.5q59 0 107 60zM206 449q78 75 78 152q0 37 -15.5 57.5t-42.5 20.5t-43 -22t-16 -61q0 -66 39 -147z" />
    <glyph glyph-name="quotesingle" unicode="'" horiz-adv-x="144" 
d="M97 700v-270h-49v270h49z" />
    <glyph glyph-name="parenleft" unicode="(" horiz-adv-x="275" 
d="M256 -79h-68q-122 196 -122 408t122 408h68q-126 -199 -126 -408t126 -408z" />
    <glyph glyph-name="parenright" unicode=")" horiz-adv-x="275" 
d="M19 -79q126 199 126 408t-126 408h68q122 -196 122 -408t-122 -408h-68z" />
    <glyph glyph-name="asterisk" unicode="*" 
d="M166 344l-63 47l115 125l-165 35l23 73l154 -70l-14 169h68l-14 -169l154 70l23 -73l-165 -35l115 -125l-63 -47l-84 149z" />
    <glyph glyph-name="plus" unicode="+" horiz-adv-x="633" 
d="M341 596v-274h168v-48h-168v-274h-48v274h-169v48h169v274h48z" />
    <glyph glyph-name="comma" unicode="," horiz-adv-x="213" 
d="M71 2v89h79v-95l-59 -139h-29l44 145h-35z" />
    <glyph glyph-name="hyphen" unicode="-" horiz-adv-x="329" 
d="M45 228v62h239v-62h-239z" />
    <glyph glyph-name="period" unicode="." horiz-adv-x="213" 
d="M67 0v89h79v-89h-79z" />
    <glyph glyph-name="slash" unicode="/" horiz-adv-x="278" 
d="M-24 -93l270 830h56l-271 -830h-55z" />
    <glyph glyph-name="zero" unicode="0" horiz-adv-x="425" 
d="M41 359q0 197 37 284.5t134 87.5t134.5 -87.5t37.5 -284.5t-37.5 -284t-134.5 -87t-134 87t-37 284zM111 359q0 -169 20.5 -239t80.5 -70t80 70t20 239t-20 239t-80 70t-80.5 -70t-20.5 -239z" />
    <glyph glyph-name="one" unicode="1" horiz-adv-x="425" 
d="M101 0v60h86v574l-86 -6v41q71 23 115 56h40v-665h82v-60h-237z" />
    <glyph glyph-name="two" unicode="2" horiz-adv-x="425" 
d="M44 0v62q20 60 55 118t96 142q70 97 88 134q25 51 25 101q0 51 -25.5 81t-67.5 30q-95 0 -100 -149h-63q4 209 168 209q72 0 114 -45.5t42 -123.5q0 -62 -30 -119t-94 -144q-11 -14 -16 -21q-104 -142 -128 -208h266v-67h-330z" />
    <glyph glyph-name="three" unicode="3" horiz-adv-x="425" 
d="M37 171h62q0 -119 93 -119q48 0 74.5 40t26.5 115q0 76 -37.5 111t-117.5 35h-7v57h10q142 0 142 132q0 59 -23.5 92t-61.5 33q-73 0 -86 -97h-61q4 75 43 116t103 41q69 0 111.5 -50.5t42.5 -136.5q0 -113 -88 -156q103 -38 103 -177q0 -100 -46.5 -158.5t-124.5 -58.5
q-77 0 -117.5 44t-40.5 128v9z" />
    <glyph glyph-name="four" unicode="4" horiz-adv-x="425" 
d="M252 -12v174h-225v36l193 520h101v-493h75v-63h-75v-174h-69zM252 225l7 443h-4q-14 -48 -42 -127l-116 -316h155z" />
    <glyph glyph-name="five" unicode="5" horiz-adv-x="425" 
d="M55 166h62q2 -118 87 -118q49 0 77.5 52.5t28.5 150.5q0 81 -25.5 123.5t-73.5 42.5q-61 0 -88 -70l-55 10l24 361h249l-7 -63h-187l-11 -212q29 32 81 32q78 0 120 -57.5t42 -166.5q0 -127 -48.5 -195t-133.5 -68q-67 0 -104.5 44.5t-37.5 124.5v9z" />
    <glyph glyph-name="six" unicode="6" horiz-adv-x="425" 
d="M123 312q-2 -38 -2 -54q0 -206 101 -206q44 0 68 43t24 124q0 162 -92 162q-56 0 -99 -69zM120 376q48 63 114 63t107.5 -58.5t41.5 -163.5q0 -107 -45.5 -168t-121.5 -61q-88 0 -126.5 84.5t-38.5 266.5q0 193 46 292t134 99q58 0 95.5 -39t38.5 -103h-64q-9 85 -71 85
q-107 0 -110 -297z" />
    <glyph glyph-name="seven" unicode="7" horiz-adv-x="425" 
d="M88 -12l205 668h-239v62h312v-45l-206 -685h-72z" />
    <glyph glyph-name="eight" unicode="8" horiz-adv-x="425" 
d="M151 380q-95 74 -95 181q0 75 43.5 121.5t115.5 46.5t116 -44t44 -115q0 -106 -105 -186q119 -78 119 -205q0 -83 -51 -137t-128 -54q-78 0 -126.5 53t-48.5 141q0 107 116 198zM212 347q-106 -72 -106 -167q0 -57 30 -93t76 -36t75.5 35t29.5 93q0 98 -105 168zM213 416
q94 69 94 153q0 44 -26 72.5t-68 28.5q-41 0 -66 -29t-25 -77q0 -81 91 -148z" />
    <glyph glyph-name="nine" unicode="9" horiz-adv-x="425" 
d="M303 342q-48 -63 -115 -63q-66 0 -107 58.5t-41 163.5q0 107 45 168t121 61q89 0 127.5 -84.5t38.5 -266.5q0 -193 -46.5 -292t-134.5 -99q-58 0 -95 39t-38 103h63q9 -85 72 -85q107 0 110 297zM300 406q2 38 2 54q0 206 -101 206q-44 0 -68.5 -43t-24.5 -124
q0 -162 92 -162q56 0 100 69z" />
    <glyph glyph-name="colon" unicode=":" horiz-adv-x="236" 
d="M79 273v89h79v-89h-79zM79 0v89h79v-89h-79z" />
    <glyph glyph-name="semicolon" unicode=";" horiz-adv-x="236" 
d="M78 273v89h79v-89h-79zM78 2v89h79v-95l-59 -139h-29l43 145h-34z" />
    <glyph glyph-name="less" unicode="&#x3c;" horiz-adv-x="633" 
d="M504 491l-309 -193l309 -192v-63l-375 235v40l375 236v-63z" />
    <glyph glyph-name="equal" unicode="=" horiz-adv-x="633" 
d="M509 413v-48h-385v48h385zM509 231v-48h-385v48h385z" />
    <glyph glyph-name="greater" unicode="&#x3e;" horiz-adv-x="633" 
d="M504 318v-40l-375 -235v63l309 192l-309 193v63z" />
    <glyph glyph-name="question" unicode="?" horiz-adv-x="343" 
d="M111 215q-1 10 -1 28q0 81 46 173q8 16 24.5 45.5t25.5 47t17 43t8 49.5q0 38 -18 59.5t-48 21.5q-31 0 -49.5 -23t-18.5 -64v-3l-57 6q1 65 35.5 102t93.5 37q60 0 94 -36t34 -98q0 -30 -10 -61.5t-20 -50t-31.5 -53.5t-29.5 -49q-44 -77 -44 -154q0 -3 0.5 -9.5
t0.5 -10.5h-52zM97 0v89h79v-89h-79z" />
    <glyph glyph-name="at" unicode="@" horiz-adv-x="866" 
d="M484 229l30 121q-1 44 -20 70.5t-45 26.5q-58 0 -95.5 -75.5t-37.5 -164.5q0 -105 53 -105q35 0 69 40t46 87zM533 418l23 51h46l-68 -274q-8 -35 -8 -45q0 -24 6.5 -34.5t29.5 -10.5q67 0 116.5 45.5t70.5 106.5t21 126q0 130 -70 206.5t-224 76.5q-173 0 -276 -114
t-103 -302q0 -163 87.5 -255t247.5 -92q152 0 290 94l19 -27q-74 -56 -144 -82t-155 -26q-188 0 -295 102t-107 298q0 199 118.5 323.5t318.5 124.5q160 0 254.5 -85t94.5 -245q0 -78 -30.5 -149t-95 -120.5t-150.5 -49.5q-37 0 -57.5 19.5t-20.5 44.5q0 2 0.5 6.5t0.5 7.5
q-16 -38 -46 -58t-62 -20q-109 0 -109 150q0 105 54.5 191t136.5 86q71 0 86 -70z" />
    <glyph glyph-name="A" unicode="A" horiz-adv-x="440" 
d="M13 0l157 723h102l158 -723h-78l-42 213h-182l-42 -213h-73zM144 281h151l-76 378z" />
    <glyph glyph-name="B" unicode="B" horiz-adv-x="475" 
d="M65 0v723h132q68 0 107 -9.5t73 -43.5q43 -43 43 -124q0 -122 -103 -164q119 -43 119 -180q0 -103 -56.5 -152.5t-172.5 -49.5h-142zM139 409h69q141 0 141 132q0 66 -35.5 92t-115.5 26h-59v-250zM139 66h75q77 0 113 33t36 105q0 73 -38 107.5t-117 34.5h-69v-280z" />
    <glyph glyph-name="C" unicode="C" horiz-adv-x="464" 
d="M434 237v-16q0 -113 -49.5 -174t-139.5 -61q-204 0 -204 366q0 196 50 291t157 95q83 0 131 -60t48 -167h-72q-8 162 -108 162q-70 0 -99.5 -75.5t-29.5 -238.5q0 -160 32.5 -233.5t108.5 -73.5q50 0 79 44.5t29 125.5v15h67z" />
    <glyph glyph-name="D" unicode="D" horiz-adv-x="485" 
d="M69 0v723h134q127 0 183.5 -86t56.5 -274q0 -189 -56 -276t-184 -87h-134zM144 659v-591q28 -2 40 -2q106 0 145.5 67.5t39.5 231.5q0 162 -39.5 229t-144.5 67q-13 0 -41 -2z" />
    <glyph glyph-name="E" unicode="E" horiz-adv-x="417" 
d="M65 0v723h325v-67h-251v-249h184v-66h-184v-274h260v-67h-334z" />
    <glyph glyph-name="F" unicode="F" horiz-adv-x="390" 
d="M65 0v723h303v-67h-229v-249h176v-66h-176v-341h-74z" />
    <glyph glyph-name="G" unicode="G" horiz-adv-x="479" 
d="M381 0l-8 42q-47 -56 -126 -56q-206 0 -206 366q0 196 50 291t157 95q83 0 131 -60t48 -167h-72q-8 162 -108 162q-71 0 -99.5 -76t-28.5 -243q0 -155 32 -228.5t105 -73.5q49 0 78 36t29 101v85h-105v65h175v-339h-52z" />
    <glyph glyph-name="H" unicode="H" horiz-adv-x="488" 
d="M65 0v723h74v-310h210v310h74v-723h-74v344h-210v-344h-74z" />
    <glyph glyph-name="I" unicode="I" horiz-adv-x="209" 
d="M67 0v723h74v-723h-74z" />
    <glyph glyph-name="J" unicode="J" horiz-adv-x="269" 
d="M206 241v-50q0 -103 -21 -141q-37 -65 -133 -65q-28 0 -58 6l3 69q31 -10 62 -10q21 0 35 7t22 17t11.5 32.5t4.5 41.5t1 55v520h73v-482z" />
    <glyph glyph-name="K" unicode="K" horiz-adv-x="444" 
d="M64 0v723h75v-386l214 386h74l-144 -255l167 -468h-80l-135 391l-97 -174v-217h-74z" />
    <glyph glyph-name="L" unicode="L" horiz-adv-x="382" 
d="M69 0v723h75v-654h227v-69h-302z" />
    <glyph glyph-name="M" unicode="M" horiz-adv-x="616" 
d="M64 0v723h115l87 -376q25 -109 40 -220q14 102 41 219l88 377h116v-723h-66v672l-156 -672h-46l-154 672v-672h-65z" />
    <glyph glyph-name="N" unicode="N" horiz-adv-x="507" 
d="M186 500q-30 81 -55 167v-667h-65v723h108l149 -410q34 -97 59 -180q-6 62 -6 158v432h65v-723h-73z" />
    <glyph glyph-name="O" unicode="O" horiz-adv-x="481" 
d="M240 670q-63 0 -92 -71t-29 -220q0 -168 28 -246.5t93 -78.5q64 0 92.5 75t28.5 233t-28.5 233t-92.5 75zM240 -14q-98 0 -148.5 95t-50.5 281q0 375 199 375q98 0 149 -94.5t51 -280.5t-51 -281t-149 -95z" />
    <glyph glyph-name="P" unicode="P" horiz-adv-x="444" 
d="M65 0v723h121q233 0 233 -196t-233 -196h-47v-331h-74zM139 392h63q147 0 147 131q0 133 -147 133h-63v-264z" />
    <glyph glyph-name="Q" unicode="Q" horiz-adv-x="481" 
d="M308 87q-28 40 -58 47l10 59q36 -4 76 -52q25 62 25 201q0 170 -27.5 249t-93.5 79q-65 0 -93 -74t-28 -234q0 -157 28.5 -232.5t92.5 -75.5q36 0 68 33zM342 21q-47 -35 -102 -35q-98 0 -148.5 95t-50.5 281q0 375 199 375q200 0 200 -375q0 -193 -60 -297
q32 -56 79 -59v-64q-83 13 -117 79z" />
    <glyph glyph-name="R" unicode="R" horiz-adv-x="468" 
d="M65 0v723h132q233 0 233 -190q0 -136 -114 -173l118 -360h-80l-109 344q-50 -2 -77 -2h-29v-342h-74zM139 407h63q149 0 149 126t-149 126h-63v-252z" />
    <glyph glyph-name="S" unicode="S" horiz-adv-x="435" 
d="M36 192h70q7 -139 115 -139q48 0 77 33t29 87t-32.5 94t-107.5 95q-51 37 -77.5 63.5t-44.5 64t-18 84.5q0 69 45.5 116t114.5 47q81 0 127.5 -51.5t49.5 -144.5h-69q-9 134 -105 134q-44 0 -70.5 -27.5t-26.5 -73.5q0 -48 35 -85q17 -18 39 -35.5t51 -39t45 -34.5
q59 -48 86.5 -95.5t27.5 -108.5q0 -86 -49 -138t-129 -52q-86 0 -134 53.5t-49 152.5z" />
    <glyph glyph-name="T" unicode="T" horiz-adv-x="382" 
d="M154 0v661h-144v62h363v-62h-146v-661h-73z" />
    <glyph glyph-name="U" unicode="U" horiz-adv-x="490" 
d="M63 253v470h74v-463q0 -117 19.5 -162.5t88.5 -45.5q68 0 87.5 46t19.5 162v463h74v-470q0 -83 -7 -129t-31 -77q-48 -61 -143 -61q-96 0 -144 61q-25 31 -31.5 76.5t-6.5 129.5z" />
    <glyph glyph-name="V" unicode="V" horiz-adv-x="410" 
d="M170 0l-165 723h74l108 -493q5 -21 18 -113q11 67 22 116l107 490h71l-165 -723h-70z" />
    <glyph glyph-name="W" unicode="W" horiz-adv-x="619" 
d="M199 0h-66l-114 723h68l66 -430q15 -101 17 -169q6 83 23 171l87 428h59l87 -428q17 -88 23 -171q2 71 17 169l66 430h68l-114 -723h-66l-99 519q-9 43 -12 98q-7 -78 -15 -117z" />
    <glyph glyph-name="X" unicode="X" horiz-adv-x="382" 
d="M-11 0l155 383l-147 340h79l107 -264l106 264h76l-139 -339l168 -384h-83l-125 307l-121 -307h-76z" />
    <glyph glyph-name="Y" unicode="Y" horiz-adv-x="377" 
d="M151 0v311l-162 412h77l124 -329l121 329h76l-160 -412v-311h-76z" />
    <glyph glyph-name="Z" unicode="Z" horiz-adv-x="369" 
d="M358 0h-344v56l262 609h-235v58h317v-50l-264 -607h264v-66z" />
    <glyph glyph-name="bracketleft" unicode="[" horiz-adv-x="269" 
d="M142 -41h113v-38h-177v802h177v-38h-113v-726z" />
    <glyph glyph-name="backslash" unicode="\" horiz-adv-x="278" 
d="M31 737l271 -830h-55l-272 830h56z" />
    <glyph glyph-name="bracketright" unicode="]" horiz-adv-x="269" 
d="M127 -41v726h-112v38h176v-802h-176v38h112z" />
    <glyph glyph-name="asciicircum" unicode="^" horiz-adv-x="800" 
d="M434 712l159 -272h-70l-123 222l-124 -222h-70l160 272h68z" />
    <glyph glyph-name="underscore" unicode="_" 
d="M500 -187v-49h-500v49h500z" />
    <glyph glyph-name="grave" unicode="`" 
d="M317 585h-52l-137 171h87z" />
    <glyph glyph-name="a" unicode="a" horiz-adv-x="410" 
d="M280 47q-52 -52 -119 -52q-59 0 -92.5 35.5t-33.5 95.5q0 76 62.5 132.5t182.5 86.5q2 22 2 33q0 48 -19 70t-61 22q-36 0 -55.5 -23t-28.5 -75l-67 11q25 147 150 147q80 0 114.5 -41.5t34.5 -131.5v-237q0 -62 9 -120h-71zM280 279q-85 -19 -130.5 -60t-45.5 -94
q0 -30 19.5 -50t49.5 -20q49 0 107 56v168z" />
    <glyph glyph-name="b" unicode="b" horiz-adv-x="410" 
d="M60 0v723h69v-251q49 59 102 59q67 0 104 -69.5t37 -201.5q0 -134 -37 -203t-105 -69q-53 0 -101 60v-48h-69zM129 117q41 -66 88 -66q45 0 64 52t19 163q0 106 -19.5 156.5t-63.5 50.5q-46 0 -88 -66v-290z" />
    <glyph glyph-name="c" unicode="c" horiz-adv-x="373" 
d="M272 370q-5 101 -78 101q-48 0 -67.5 -51t-19.5 -161q0 -111 19.5 -160.5t68.5 -49.5q75 0 80 121h64q-1 -85 -40 -134t-104 -49q-81 0 -119.5 67t-38.5 205t38.5 205t119.5 67q61 0 99.5 -43t41.5 -118h-64z" />
    <glyph glyph-name="d" unicode="d" horiz-adv-x="410" 
d="M349 0h-69v48q-48 -60 -102 -60q-68 0 -104.5 69t-36.5 203q0 133 36.5 202t103.5 69q54 0 103 -59v251h69v-723zM280 117v290q-42 66 -88 66q-44 0 -63.5 -50.5t-19.5 -156.5q0 -111 19 -163t64 -52q48 0 88 66z" />
    <glyph glyph-name="e" unicode="e" horiz-adv-x="381" 
d="M108 308h166v20q0 74 -18.5 108.5t-61.5 34.5q-80 0 -86 -163zM275 170h66q-4 -87 -43 -135t-103 -48q-81 0 -119.5 67t-38.5 205t38.5 205t119.5 67q150 0 150 -240q0 -27 -1 -41h-237q1 -106 20.5 -153.5t67.5 -47.5q75 0 80 121z" />
    <glyph glyph-name="f" unicode="f" horiz-adv-x="236" 
d="M232 728v-56q-22 5 -31 5q-36 0 -46 -18.5t-10 -69.5v-70h83v-61h-83v-458h-69v458h-78v61h78v61q0 84 21 118.5t81 34.5q32 0 54 -5z" />
    <glyph glyph-name="g" unicode="g" horiz-adv-x="371" 
d="M184 471q-40 0 -56.5 -30t-16.5 -98q0 -67 16.5 -97t56.5 -30q38 0 54 30.5t16 96.5t-16 97t-54 31zM152 30q-37 -14 -54 -32t-17 -45q0 -30 28.5 -48.5t78.5 -18.5q55 0 84.5 17.5t29.5 47.5q0 34 -35.5 52t-114.5 27zM94 192q-45 47 -45 151q0 185 133 185
q67 0 101 -47q37 47 85 47h3v-65q-11 3 -20 3q-25 0 -50 -23q15 -54 15 -112q0 -84 -34.5 -128.5t-97.5 -44.5q-17 0 -44 5q-17 -1 -28.5 -10.5t-11.5 -19.5q0 -25 25 -33q16 -5 59 -12.5t69 -15.5q60 -18 86.5 -44t26.5 -73q0 -56 -49 -91t-132 -35q-82 0 -127 32t-45 87
q0 56 74 102q-52 27 -52 66q0 41 59 76z" />
    <glyph glyph-name="h" unicode="h" horiz-adv-x="413" 
d="M62 0v723h69v-258q60 67 124 67q99 0 99 -134v-398h-69v375q0 51 -12.5 73.5t-45.5 22.5q-51 0 -96 -68v-403h-69z" />
    <glyph glyph-name="i" unicode="i" horiz-adv-x="190" 
d="M60 0v519h70v-519h-70zM60 641v82h70v-82h-70z" />
    <glyph glyph-name="j" unicode="j" horiz-adv-x="190" 
d="M130 -38q0 -74 -20 -105t-75 -31q-15 0 -48 4v57q18 -2 24 -2q32 0 40.5 19.5t8.5 74.5v540h70v-557zM60 641v82h70v-82h-70z" />
    <glyph glyph-name="k" unicode="k" horiz-adv-x="375" 
d="M130 270l136 249h70l-94 -170l119 -349h-74l-89 280l-68 -124v-156h-70v723h70v-453z" />
    <glyph glyph-name="l" unicode="l" horiz-adv-x="190" 
d="M60 0v723h70v-723h-70z" />
    <glyph glyph-name="m" unicode="m" horiz-adv-x="636" 
d="M62 0v519h69v-54q60 67 123 67q66 0 96 -69q66 69 127 69q100 0 100 -134v-398h-70v375q0 51 -12 73.5t-45 22.5q-51 0 -96 -68v-403h-70v375q0 51 -12 73.5t-45 22.5q-51 0 -96 -68v-403h-69z" />
    <glyph glyph-name="n" unicode="n" horiz-adv-x="413" 
d="M62 0v519h69v-54q60 67 123 67q100 0 100 -134v-398h-69v375q0 53 -12 74.5t-46 21.5q-55 0 -96 -68v-403h-69z" />
    <glyph glyph-name="o" unicode="o" horiz-adv-x="382" 
d="M35 259q0 138 38.5 205t119.5 67q154 0 154 -272t-154 -272q-81 0 -119.5 67t-38.5 205zM106 259q0 -111 19 -160.5t67 -49.5q44 0 63.5 51t19.5 159q0 109 -19.5 160t-63.5 51q-48 0 -67 -50t-19 -161z" />
    <glyph glyph-name="p" unicode="p" horiz-adv-x="410" 
d="M62 -174v693h47l23 -47q49 59 102 59q67 0 104 -69.5t37 -201.5q0 -134 -37 -203t-105 -69q-53 0 -101 60v-222h-70zM132 407v-290q42 -66 88 -66q45 0 64 52t19 163q0 106 -19.5 156.5t-63.5 50.5q-46 0 -88 -66z" />
    <glyph glyph-name="q" unicode="q" horiz-adv-x="410" 
d="M347 -174h-69v222q-48 -60 -101 -60q-68 0 -105 69t-37 203q0 133 36.5 202t103.5 69q54 0 103 -59l23 47h46v-693zM278 407q-42 66 -88 66q-44 0 -63.5 -50.5t-19.5 -156.5q0 -111 19 -163t64 -52q46 0 88 66v290z" />
    <glyph glyph-name="r" unicode="r" horiz-adv-x="263" 
d="M60 0v519h70v-60q50 71 118 71q3 0 7.5 -0.5t7.5 -0.5v-67q-3 0 -7.5 0.5t-7.5 0.5q-75 0 -118 -81v-382h-70z" />
    <glyph glyph-name="s" unicode="s" horiz-adv-x="376" 
d="M36 126l66 15q7 -45 31.5 -70.5t59.5 -25.5q33 0 54.5 22t21.5 58q0 26 -14 47.5t-29.5 34t-51.5 36.5q-66 45 -94.5 77.5t-28.5 80.5q0 57 37 93.5t92 36.5q115 0 146 -124l-59 -18q-21 85 -84 85q-30 0 -48 -18t-18 -46q0 -22 13.5 -41.5t29.5 -31.5t52 -36t57 -40
q68 -52 68 -131q0 -65 -40.5 -103.5t-109.5 -38.5q-59 0 -100 37t-51 101z" />
    <glyph glyph-name="t" unicode="t" horiz-adv-x="240" 
d="M75 459h-69v60h69v173h68v-173h93v-60h-93v-333q0 -42 9 -59.5t38 -17.5q9 0 46 7v-58q-43 -11 -68 -11q-93 0 -93 101v371z" />
    <glyph glyph-name="u" unicode="u" horiz-adv-x="413" 
d="M352 519v-519h-69v54q-60 -67 -123 -67q-100 0 -100 133v399h69v-375q0 -53 12 -74.5t46 -21.5q55 0 96 68v403h69z" />
    <glyph glyph-name="v" unicode="v" horiz-adv-x="379" 
d="M143 0l-127 519h70l105 -445l108 445h65l-128 -519h-93z" />
    <glyph glyph-name="w" unicode="w" horiz-adv-x="551" 
d="M124 0l-104 519h67l63 -341q4 -26 9 -77q4 45 11 76l74 342h64l76 -342q4 -18 9 -76q5 68 7 77l63 341h68l-106 -519h-61l-82 385q-4 18 -5 58q-5 -41 -9 -59l-83 -384h-61z" />
    <glyph glyph-name="x" unicode="x" horiz-adv-x="323" 
d="M3 0l120 263l-117 256h72l78 -182l84 182h66l-113 -247l130 -272h-73l-89 199l-92 -199h-66z" />
    <glyph glyph-name="y" unicode="y" horiz-adv-x="347" 
d="M9 519h72l90 -391l88 391h69l-121 -517q-22 -94 -61 -135.5t-112 -41.5q-15 0 -22 1v64q6 -1 18 -1q48 0 74 28t37 89z" />
    <glyph glyph-name="z" unicode="z" horiz-adv-x="332" 
d="M24 0v53l207 407h-188v59h264v-49l-209 -412h209v-58h-283z" />
    <glyph glyph-name="braceleft" unicode="{" 
d="M417 669h-18q-67 0 -88 -26t-21 -98v-118q0 -77 -19.5 -114.5t-76.5 -53.5q57 -16 76.5 -53.5t19.5 -114.5v-118q0 -72 20 -98t85 -26q3 0 10.5 0.5t11.5 0.5v-52h-23q-100 0 -132 37.5t-32 142.5v119q0 75 -27.5 106t-95.5 31q-3 0 -10.5 -0.5t-11.5 -0.5v53
q4 0 11.5 -0.5t10.5 -0.5q68 0 95.5 31t27.5 106v118q0 105 32.5 143t131.5 38h23v-52z" />
    <glyph glyph-name="bar" unicode="|" 
d="M277 764v-1000h-53v1000h53z" />
    <glyph glyph-name="braceright" unicode="}" 
d="M271 540v-118q0 -75 27.5 -106t95.5 -31q3 0 10.5 0.5t11.5 0.5v-53q-4 0 -11.5 0.5t-10.5 0.5q-68 0 -95.5 -31t-27.5 -106v-119q0 -105 -32 -142.5t-132 -37.5h-23v52h19q66 0 87 25.5t21 97.5v118q0 77 19 114.5t77 53.5q-58 16 -77 53.5t-19 114.5v118q0 73 -20 99
t-85 26q-3 0 -10.5 -0.5t-11.5 -0.5v52h23q99 0 131.5 -38t32.5 -143z" />
    <glyph glyph-name="asciitilde" unicode="~" horiz-adv-x="633" 
d="M547 311q-69 -70 -139 -70q-38 0 -94 33.5t-88 33.5q-60 0 -139 -78v55q72 71 139 71q38 0 94 -34t88 -34q61 0 139 78v-55z" />
    <glyph glyph-name="uni00A0" unicode="&#xa0;" horiz-adv-x="212" 
 />
    <glyph glyph-name="exclamdown" unicode="&#xa1;" horiz-adv-x="256" 
d="M167 724v-90h-79v90h79zM152 511l17 -511h-83l17 511h49z" />
    <glyph glyph-name="cent" unicode="&#xa2;" horiz-adv-x="425" 
d="M302 370q-2 75 -38 96l-66 -409q14 -3 24 -3q74 0 77 127h58q-4 -89 -41 -135t-104 -46q-14 0 -22 1l-24 -145h-44l25 161q-46 26 -66 87.5t-20 166.5q0 260 164 260h6l20 126h44l-21 -131q78 -22 84 -156h-56zM222 478h-9q-51 0 -70 -53t-19 -177q0 -120 34 -169z" />
    <glyph glyph-name="sterling" unicode="&#xa3;" horiz-adv-x="425" 
d="M35 -8v72q46 25 64.5 67t18.5 113q0 40 -6 86h-77v53h67q-3 18 -9.5 51t-9.5 50.5t-5.5 39.5t-2.5 39q0 76 39 121t102 45q77 0 117.5 -52t40.5 -152h-64q-3 144 -91 144q-37 0 -58 -25t-21 -69q0 -22 30 -192h101v-53h-92q5 -39 5 -83q0 -63 -21 -123q44 -64 99 -64
q37 0 52.5 30t17.5 99h65v-4q0 -196 -128 -196q-36 0 -66 18.5t-66 58.5q-38 -56 -102 -74z" />
    <glyph glyph-name="currency" unicode="&#xa4;" horiz-adv-x="425" 
d="M6 526l45 45l67 -66q41 28 94 28q55 0 96 -28l66 66l45 -45l-67 -66q29 -46 29 -94q0 -51 -29 -94l67 -68l-45 -45l-66 66q-45 -28 -96 -28q-49 0 -94 28l-67 -66l-45 45l67 69q-29 45 -29 93q0 50 30 94zM317 366q0 42 -30.5 72.5t-73.5 30.5t-74 -30.5t-31 -72.5
q0 -43 31 -74t74 -31t73.5 31.5t30.5 73.5z" />
    <glyph glyph-name="yen" unicode="&#xa5;" horiz-adv-x="425" 
d="M406 718l-101 -259h88v-39h-103l-29 -73h132v-39h-146v-308h-65v308h-150v39h134l-29 73h-105v39h90l-103 259h72l124 -328l121 328h70z" />
    <glyph glyph-name="brokenbar" unicode="&#xa6;" 
d="M277 699v-370h-53v370h53zM277 199v-370h-53v370h53z" />
    <glyph glyph-name="section" unicode="&#xa7;" 
d="M98 0l50 36q45 -65 99 -65q29 0 48.5 18.5t19.5 44.5q0 20 -13 43t-26.5 38.5t-46.5 50.5q-13 14 -37.5 39t-35.5 37t-28.5 31.5t-26 32t-17.5 28.5t-12.5 31t-3.5 30q0 51 29.5 79.5t82.5 28.5q-59 65 -59 119q0 50 35 82.5t91 32.5q42 0 79 -22t60 -62l-49 -35
q-41 63 -87 63q-28 0 -46.5 -16t-18.5 -41q0 -23 21 -50.5t72 -78.5q60 -59 84.5 -85.5t46.5 -66t22 -77.5q0 -43 -30 -71t-82 -29q59 -66 59 -131q0 -56 -36.5 -89.5t-97.5 -33.5q-90 0 -146 88zM131 404q0 -33 59 -102q78 -89 121 -89q23 0 39 15.5t16 38.5q0 38 -69 113
q-71 79 -109 79q-22 0 -39.5 -16.5t-17.5 -38.5z" />
    <glyph glyph-name="dieresis" unicode="&#xa8;" 
d="M141 641v82h70v-82h-70zM289 641v82h70v-82h-70z" />
    <glyph glyph-name="copyright" unicode="&#xa9;" horiz-adv-x="735" 
d="M367 711q147 0 237.5 -102.5t90.5 -255.5t-90.5 -255.5t-237.5 -102.5q-146 0 -236.5 102.5t-90.5 255.5t90 255.5t237 102.5zM646 353q0 140 -74 229.5t-205 89.5t-204.5 -89.5t-73.5 -229.5t73.5 -229t204.5 -89t205 89t74 229zM435 447q-2 43 -15 62.5t-51 19.5
q-54 0 -70 -40.5t-16 -136.5q0 -46 2.5 -74t11.5 -53t26.5 -35.5t45.5 -10.5q41 0 56 22.5t16 69.5h56q-2 -139 -131 -139q-81 0 -113.5 55.5t-32.5 167.5q0 107 35 163t116 56q118 0 121 -127h-57z" />
    <glyph glyph-name="ordfeminine" unicode="&#xaa;" horiz-adv-x="308" 
d="M210 394q-37 -36 -89 -36q-44 0 -69.5 24.5t-25.5 66.5q0 53 47 92.5t137 60.5q2 18 2 24q0 64 -60 64q-27 0 -41.5 -16t-21.5 -53l-51 8q9 50 38 76.5t75 26.5q60 0 86 -29t26 -92v-166q0 -43 6 -84h-53zM210 556q-64 -13 -98 -42t-34 -66q0 -21 15 -35t37 -14
q37 0 80 40v117z" />
    <glyph glyph-name="guillemotleft" unicode="&#xab;" horiz-adv-x="397" 
d="M359 411l-115 -152l116 -152h-61l-118 152l119 152h59zM214 411l-115 -152l116 -152h-61l-118 152l118 152h60z" />
    <glyph glyph-name="logicalnot" unicode="&#xac;" horiz-adv-x="633" 
d="M509 419v-245h-47v196h-338v49h385z" />
    <glyph glyph-name="uni00AD" unicode="&#xad;" horiz-adv-x="329" 
d="M45 228v62h239v-62h-239z" />
    <glyph glyph-name="registered" unicode="&#xae;" horiz-adv-x="735" 
d="M267 565h101q80 0 110 -28.5t30 -85.5q0 -85 -77 -108l82 -190h-71l-77 181h-36v-181h-62v412zM356 523h-27v-148h27q56 0 72 17.5t16 54.5q0 40 -16 58t-72 18zM367 711q147 0 237.5 -102.5t90.5 -255.5t-90.5 -255.5t-237.5 -102.5q-146 0 -236.5 102.5t-90.5 255.5
t90 255.5t237 102.5zM646 353q0 140 -74 229.5t-205 89.5t-204.5 -89.5t-73.5 -229.5t73.5 -229t204.5 -89t205 89t74 229z" />
    <glyph glyph-name="macron" unicode="&#xaf;" 
d="M124 652v61h252v-61h-252z" />
    <glyph glyph-name="degree" unicode="&#xb0;" horiz-adv-x="329" 
d="M165 709q56 0 95.5 -40t39.5 -96t-39.5 -96t-96.5 -40t-96 39.5t-39 96.5t40 96.5t96 39.5zM266 573q0 42 -29.5 72t-71.5 30t-72 -30t-30 -72t30 -71.5t72 -29.5q43 0 72 29.5t29 71.5z" />
    <glyph glyph-name="plusminus" unicode="&#xb1;" horiz-adv-x="633" 
d="M341 571v-170h168v-48h-168v-170h-48v170h-169v48h169v170h48zM509 73v-48h-385v48h385z" />
    <glyph glyph-name="twosuperior" unicode="&#xb2;" horiz-adv-x="281" 
d="M29 287v37q19 54 100 156q2 2 11.5 14.5t11.5 15t10.5 13.5t10.5 14.5t8 13t7.5 14t5.5 13t5.5 14.5t2.5 13.5t1 15.5q0 31 -16.5 49t-44.5 18q-63 0 -66 -90h-42q3 126 111 126q48 0 75.5 -27.5t27.5 -74.5q0 -26 -13 -55.5t-24.5 -45t-44.5 -56.5q-7 -9 -10 -13
q-67 -82 -85 -125h176v-40h-218z" />
    <glyph glyph-name="threesuperior" unicode="&#xb3;" horiz-adv-x="281" 
d="M24 390h41q0 -72 62 -72q31 0 48.5 24t17.5 69q0 46 -24.5 67t-77.5 21h-5v34h7q94 0 94 79q0 35 -15.5 55t-40.5 20q-48 0 -57 -58h-40q3 45 28.5 69.5t67.5 24.5q46 0 74 -30.5t28 -81.5q0 -67 -58 -94q68 -22 68 -106q0 -60 -31 -95t-82 -35t-78 26.5t-27 76.5v6z" />
    <glyph glyph-name="acute" unicode="&#xb4;" 
d="M183 585l102 171h87l-137 -171h-52z" />
    <glyph glyph-name="mu" unicode="&#xb5;" horiz-adv-x="432" 
d="M168 520l-61 -289q-8 -37 -8 -68q0 -30 1.5 -47.5t6.5 -36t16.5 -27t29.5 -8.5q82 0 126 204l59 272h68l-80 -376q-11 -49 -11 -65q0 -12 1 -18t6 -10t16 -4q4 0 8 1l-10 -54q-19 -5 -32 -5q-57 0 -57 71v7q-27 -79 -100 -79q-69 0 -77 76l-56 -272h-68l154 728h68z" />
    <glyph glyph-name="paragraph" unicode="&#xb6;" 
d="M459 688h-62v-688h-40v688h-92v-688h-40v382q-85 4 -134.5 50t-49.5 120q0 76 52 123t140 47h226v-34z" />
    <glyph glyph-name="periodcentered" unicode="&#xb7;" horiz-adv-x="213" 
d="M106 410q21 0 36.5 -15t15.5 -36t-15.5 -36.5t-36.5 -15.5q-22 0 -36.5 15t-14.5 37q0 21 15 36t36 15z" />
    <glyph glyph-name="cedilla" unicode="&#xb8;" 
d="M128 -207v43q78 -18 120 -18q59 0 59 41q0 48 -67 48q-16 0 -25 -1v94h35v-52h11q110 0 110 -86q0 -89 -121 -89q-45 0 -122 20z" />
    <glyph glyph-name="onesuperior" unicode="&#xb9;" horiz-adv-x="280" 
d="M67 287v36h57v344l-57 -3v24q45 14 76 34h26v-399h54v-36h-156z" />
    <glyph glyph-name="ordmasculine" unicode="&#xba;" horiz-adv-x="287" 
d="M26 542q0 191 119 191q115 0 115 -191q0 -190 -115 -190q-61 0 -90 46.5t-29 143.5zM80 542q0 -78 14 -112.5t50 -34.5q33 0 47.5 35.5t14.5 111.5t-14.5 112t-47.5 36q-36 0 -50 -35t-14 -113z" />
    <glyph glyph-name="guillemotright" unicode="&#xbb;" horiz-adv-x="397" 
d="M36 411h60l119 -152l-118 -152h-61l115 152zM182 411h60l118 -152l-118 -152h-61l116 152z" />
    <glyph glyph-name="onequarter" unicode="&#xbc;" horiz-adv-x="702" 
d="M63 316v34h55v321l-55 -3v23q44 12 73 31h25v-372h52v-34h-150zM102 -14l441 739h53l-441 -739h-53zM594 -7v98h-142v20l122 291h63v-276h47v-35h-47v-98h-43zM594 126l4 248h-2q-16 -45 -27 -71l-73 -177h98z" />
    <glyph glyph-name="onehalf" unicode="&#xbd;" horiz-adv-x="702" 
d="M63 316v34h55v321l-55 -3v23q44 12 73 31h25v-372h52v-34h-150zM102 -14l441 739h53l-441 -739h-53zM463 0v35q19 52 95 145q51 63 62 89q9 21 9 43q0 29 -16 45.5t-43 16.5q-60 0 -63 -83h-39q3 117 106 117q45 0 71.5 -25.5t26.5 -69.5q0 -26 -15 -56t-26.5 -45
t-46.5 -58q-65 -79 -81 -116h168v-38h-208z" />
    <glyph glyph-name="threequarters" unicode="&#xbe;" horiz-adv-x="703" 
d="M23 412h39q0 -67 59 -67q30 0 47 22.5t17 64.5q0 82 -98 82h-4v32h6q89 0 89 74q0 32 -14.5 51t-38.5 19q-47 0 -54 -55h-39q3 42 27.5 65t64.5 23q44 0 70.5 -28.5t26.5 -76.5q0 -63 -55 -87q65 -22 65 -99q0 -57 -29.5 -89.5t-78.5 -32.5q-48 0 -74 25t-26 72v5z
M102 -14l441 739h53l-441 -739h-53zM594 -7v98h-142v20l122 291h63v-276h47v-35h-47v-98h-43zM594 126l4 248h-2q-16 -45 -27 -71l-73 -177h98z" />
    <glyph glyph-name="questiondown" unicode="&#xbf;" horiz-adv-x="343" 
d="M239 723v-89h-79v89h79zM225 508q1 -10 1 -28q0 -80 -46 -172q-8 -16 -24.5 -45.5t-25.5 -47t-17 -43.5t-8 -50q0 -38 18 -59.5t48 -21.5q31 0 49.5 23t18.5 64v3l57 -6q-1 -65 -35.5 -102t-93.5 -37q-60 0 -94 36t-34 98q0 30 10 61.5t20 50t31.5 53.5t29.5 49
q44 77 44 154q0 3 -0.5 9.5t-0.5 10.5h52z" />
    <glyph glyph-name="Agrave" unicode="&#xc0;" horiz-adv-x="440" 
d="M13 0l157 723h102l158 -723h-78l-42 213h-182l-42 -213h-73zM144 281h151l-76 378zM287 791h-52l-137 171h87z" />
    <glyph glyph-name="Aacute" unicode="&#xc1;" horiz-adv-x="440" 
d="M13 0l157 723h102l158 -723h-78l-42 213h-182l-42 -213h-73zM144 281h151l-76 378zM153 791l102 171h87l-137 -171h-52z" />
    <glyph glyph-name="Acircumflex" unicode="&#xc2;" horiz-adv-x="440" 
d="M13 0l157 723h102l158 -723h-78l-42 213h-182l-42 -213h-73zM144 281h151l-76 378zM80 791l96 171h87l96 -171h-52l-87 119l-88 -119h-52z" />
    <glyph glyph-name="Atilde" unicode="&#xc3;" horiz-adv-x="440" 
d="M13 0l157 723h102l158 -723h-78l-42 213h-182l-42 -213h-73zM144 281h151l-76 378zM365 922q-24 -94 -97 -94q-12 0 -32 6l-39 13q-12 4 -26 4q-33 0 -47 -31h-43q21 91 97 91q14 0 29 -5l38 -13q17 -5 30 -5q35 0 47 34h43z" />
    <glyph glyph-name="Adieresis" unicode="&#xc4;" horiz-adv-x="440" 
d="M13 0l157 723h102l158 -723h-78l-42 213h-182l-42 -213h-73zM144 281h151l-76 378zM107 894h74v-94h-74v94zM257 894h74v-94h-74v94z" />
    <glyph glyph-name="Aring" unicode="&#xc5;" horiz-adv-x="440" 
d="M13 0l157 723q-68 39 -68 111q0 51 35 86t86 35t86 -35t35 -86q0 -37 -19 -66.5t-53 -44.5l158 -723h-78l-42 213h-182l-42 -213h-73zM144 281h151l-76 409zM154 834q0 -29 20.5 -49.5t49.5 -20.5t49 20.5t20 49.5t-20 49t-49 20q-30 0 -50 -20t-20 -49z" />
    <glyph glyph-name="AE" unicode="&#xc6;" horiz-adv-x="677" 
d="M176 276h149l3 381h-12zM-5 0l285 723h370v-66h-251v-250h184v-66h-184v-274h260v-67h-334v208h-176l-82 -208h-72z" />
    <glyph glyph-name="Ccedilla" unicode="&#xc7;" horiz-adv-x="464" 
d="M132 -207v43q78 -18 120 -18q59 0 59 41q0 48 -67 48q-16 0 -25 -1v82q-178 21 -178 364q0 196 50 291t157 95q83 0 131 -60t48 -167h-72q-8 162 -108 162q-70 0 -99.5 -75.5t-29.5 -238.5q0 -160 32.5 -233.5t108.5 -73.5q50 0 79 44.5t29 125.5v15h67v-16
q0 -110 -47.5 -171t-132.5 -64v-38h11q110 0 110 -86q0 -89 -121 -89q-45 0 -122 20z" />
    <glyph glyph-name="Egrave" unicode="&#xc8;" horiz-adv-x="417" 
d="M65 0v723h325v-67h-251v-249h184v-66h-184v-274h260v-67h-334zM285 791h-52l-137 171h87z" />
    <glyph glyph-name="Eacute" unicode="&#xc9;" horiz-adv-x="417" 
d="M65 0v723h325v-67h-251v-249h184v-66h-184v-274h260v-67h-334zM161 791l102 171h87l-137 -171h-52z" />
    <glyph glyph-name="Ecircumflex" unicode="&#xca;" horiz-adv-x="417" 
d="M65 0v723h325v-67h-251v-249h184v-66h-184v-274h260v-67h-334zM78 791l96 171h87l96 -171h-52l-87 119l-88 -119h-52z" />
    <glyph glyph-name="Edieresis" unicode="&#xcb;" horiz-adv-x="417" 
d="M65 0v723h325v-67h-251v-249h184v-66h-184v-274h260v-67h-334zM124 894h74v-94h-74v94zM274 894h74v-94h-74v94z" />
    <glyph glyph-name="Igrave" unicode="&#xcc;" horiz-adv-x="209" 
d="M67 0v723h74v-723h-74zM162 791h-52l-137 171h87z" />
    <glyph glyph-name="Iacute" unicode="&#xcd;" horiz-adv-x="209" 
d="M67 0v723h74v-723h-74zM48 791l102 171h87l-137 -171h-52z" />
    <glyph glyph-name="Icircumflex" unicode="&#xce;" horiz-adv-x="209" 
d="M67 0v723h74v-723h-74zM-35 791l96 171h87l96 -171h-52l-87 119l-88 -119h-52z" />
    <glyph glyph-name="Idieresis" unicode="&#xcf;" horiz-adv-x="209" 
d="M67 0v723h74v-723h-74zM-7 894h74v-94h-74v94zM143 894h74v-94h-74v94z" />
    <glyph glyph-name="Eth" unicode="&#xd0;" horiz-adv-x="490" 
d="M74 0v353h-69v54h69v316h134q127 0 183 -86t56 -274q0 -190 -55.5 -276.5t-183.5 -86.5h-134zM148 659v-252h101v-54h-101v-285q28 -2 40 -2q106 0 146 67.5t40 231.5q0 162 -40 229t-145 67q-13 0 -41 -2z" />
    <glyph glyph-name="Ntilde" unicode="&#xd1;" horiz-adv-x="507" 
d="M186 500q-30 81 -55 167v-667h-65v723h108l149 -410q34 -97 59 -180q-6 62 -6 158v432h65v-723h-73zM399 922q-24 -94 -97 -94q-12 0 -32 6l-39 13q-12 4 -26 4q-33 0 -47 -31h-43q21 91 97 91q14 0 29 -5l38 -13q17 -5 30 -5q35 0 47 34h43z" />
    <glyph glyph-name="Ograve" unicode="&#xd2;" horiz-adv-x="481" 
d="M240 670q-63 0 -92 -71t-29 -220q0 -168 28 -246.5t93 -78.5q64 0 92.5 75t28.5 233t-28.5 233t-92.5 75zM240 -14q-98 0 -148.5 95t-50.5 281q0 375 199 375q98 0 149 -94.5t51 -280.5t-51 -281t-149 -95zM298 791h-52l-137 171h87z" />
    <glyph glyph-name="Oacute" unicode="&#xd3;" horiz-adv-x="481" 
d="M240 670q-63 0 -92 -71t-29 -220q0 -168 28 -246.5t93 -78.5q64 0 92.5 75t28.5 233t-28.5 233t-92.5 75zM240 -14q-98 0 -148.5 95t-50.5 281q0 375 199 375q98 0 149 -94.5t51 -280.5t-51 -281t-149 -95zM184 791l102 171h87l-137 -171h-52z" />
    <glyph glyph-name="Ocircumflex" unicode="&#xd4;" horiz-adv-x="481" 
d="M240 670q-63 0 -92 -71t-29 -220q0 -168 28 -246.5t93 -78.5q64 0 92.5 75t28.5 233t-28.5 233t-92.5 75zM240 -14q-98 0 -148.5 95t-50.5 281q0 375 199 375q98 0 149 -94.5t51 -280.5t-51 -281t-149 -95zM101 791l96 171h87l96 -171h-52l-87 119l-88 -119h-52z" />
    <glyph glyph-name="Otilde" unicode="&#xd5;" horiz-adv-x="481" 
d="M240 670q-63 0 -92 -71t-29 -220q0 -168 28 -246.5t93 -78.5q64 0 92.5 75t28.5 233t-28.5 233t-92.5 75zM240 -14q-98 0 -148.5 95t-50.5 281q0 375 199 375q98 0 149 -94.5t51 -280.5t-51 -281t-149 -95zM386 922q-24 -94 -97 -94q-12 0 -32 6l-39 13q-12 4 -26 4
q-33 0 -47 -31h-43q21 91 97 91q14 0 29 -5l38 -13q17 -5 30 -5q35 0 47 34h43z" />
    <glyph glyph-name="Odieresis" unicode="&#xd6;" horiz-adv-x="481" 
d="M240 670q-63 0 -92 -71t-29 -220q0 -168 28 -246.5t93 -78.5q64 0 92.5 75t28.5 233t-28.5 233t-92.5 75zM240 -14q-98 0 -148.5 95t-50.5 281q0 375 199 375q98 0 149 -94.5t51 -280.5t-51 -281t-149 -95zM130 894h74v-94h-74v94zM280 894h74v-94h-74v94z" />
    <glyph glyph-name="multiply" unicode="&#xd7;" horiz-adv-x="633" 
d="M316 332l235 235l34 -34l-235 -235l235 -235l-34 -34l-235 235l-235 -235l-34 34l235 235l-235 235l34 34z" />
    <glyph glyph-name="Oslash" unicode="&#xd8;" horiz-adv-x="481" 
d="M168 95q25 -41 72 -41q64 0 93 76.5t29 236.5q0 88 -16 179zM139 157l182 462q-28 51 -81 51q-65 0 -93 -74t-28 -234q0 -116 20 -205zM48 -67l55 131q-62 90 -62 294q0 379 199 379q70 0 110 -43l33 80l47 -21l-45 -107q55 -89 55 -301q0 -177 -52.5 -268t-151.5 -91
q-58 0 -97 36l-44 -112z" />
    <glyph glyph-name="Ugrave" unicode="&#xd9;" horiz-adv-x="490" 
d="M63 253v470h74v-463q0 -117 19.5 -162.5t88.5 -45.5q68 0 87.5 46t19.5 162v463h74v-470q0 -83 -7 -129t-31 -77q-48 -61 -143 -61q-96 0 -144 61q-25 31 -31.5 76.5t-6.5 129.5zM302 791h-52l-137 171h87z" />
    <glyph glyph-name="Uacute" unicode="&#xda;" horiz-adv-x="490" 
d="M63 253v470h74v-463q0 -117 19.5 -162.5t88.5 -45.5q68 0 87.5 46t19.5 162v463h74v-470q0 -83 -7 -129t-31 -77q-48 -61 -143 -61q-96 0 -144 61q-25 31 -31.5 76.5t-6.5 129.5zM188 791l102 171h87l-137 -171h-52z" />
    <glyph glyph-name="Ucircumflex" unicode="&#xdb;" horiz-adv-x="490" 
d="M63 253v470h74v-463q0 -117 19.5 -162.5t88.5 -45.5q68 0 87.5 46t19.5 162v463h74v-470q0 -83 -7 -129t-31 -77q-48 -61 -143 -61q-96 0 -144 61q-25 31 -31.5 76.5t-6.5 129.5zM105 791l96 171h87l96 -171h-52l-87 119l-88 -119h-52z" />
    <glyph glyph-name="Udieresis" unicode="&#xdc;" horiz-adv-x="490" 
d="M63 253v470h74v-463q0 -117 19.5 -162.5t88.5 -45.5q68 0 87.5 46t19.5 162v463h74v-470q0 -83 -7 -129t-31 -77q-48 -61 -143 -61q-96 0 -144 61q-25 31 -31.5 76.5t-6.5 129.5zM136 894h74v-94h-74v94zM286 894h74v-94h-74v94z" />
    <glyph glyph-name="Yacute" unicode="&#xdd;" horiz-adv-x="377" 
d="M151 0v311l-162 412h77l124 -329l121 329h76l-160 -412v-311h-76zM132 791l102 171h87l-137 -171h-52z" />
    <glyph glyph-name="Thorn" unicode="&#xde;" horiz-adv-x="447" 
d="M139 0h-74v723h74v-144h73q98 0 152.5 -52t54.5 -145q0 -196 -233 -196h-47v-186zM139 512v-264h63q147 0 147 131q0 133 -147 133h-63z" />
    <glyph glyph-name="germandbls" unicode="&#xdf;" horiz-adv-x="422" 
d="M59 0v527q0 101 35 149t111 48q74 0 113.5 -45t39.5 -130q0 -106 -76 -145q52 -22 75.5 -70t23.5 -128q0 -105 -35 -160t-101 -55q-29 0 -57 9v67q23 -16 52 -16q72 0 72 167q0 148 -107 151v63q46 2 66 31t20 91q0 112 -85 112q-77 0 -77 -134v-532h-70z" />
    <glyph glyph-name="agrave" unicode="&#xe0;" horiz-adv-x="410" 
d="M280 47q-52 -52 -119 -52q-59 0 -92.5 35.5t-33.5 95.5q0 76 62.5 132.5t182.5 86.5q2 22 2 33q0 48 -19 70t-61 22q-36 0 -55.5 -23t-28.5 -75l-67 11q25 147 150 147q80 0 114.5 -41.5t34.5 -131.5v-237q0 -62 9 -120h-71zM280 279q-85 -19 -130.5 -60t-45.5 -94
q0 -30 19.5 -50t49.5 -20q49 0 107 56v168zM268 585h-52l-137 171h87z" />
    <glyph glyph-name="aacute" unicode="&#xe1;" horiz-adv-x="410" 
d="M280 47q-52 -52 -119 -52q-59 0 -92.5 35.5t-33.5 95.5q0 76 62.5 132.5t182.5 86.5q2 22 2 33q0 48 -19 70t-61 22q-36 0 -55.5 -23t-28.5 -75l-67 11q25 147 150 147q80 0 114.5 -41.5t34.5 -131.5v-237q0 -62 9 -120h-71zM280 279q-85 -19 -130.5 -60t-45.5 -94
q0 -30 19.5 -50t49.5 -20q49 0 107 56v168zM144 585l102 171h87l-137 -171h-52z" />
    <glyph glyph-name="acircumflex" unicode="&#xe2;" horiz-adv-x="410" 
d="M280 47q-52 -52 -119 -52q-59 0 -92.5 35.5t-33.5 95.5q0 76 62.5 132.5t182.5 86.5q2 22 2 33q0 48 -19 70t-61 22q-36 0 -55.5 -23t-28.5 -75l-67 11q25 147 150 147q80 0 114.5 -41.5t34.5 -131.5v-237q0 -62 9 -120h-71zM280 279q-85 -19 -130.5 -60t-45.5 -94
q0 -30 19.5 -50t49.5 -20q49 0 107 56v168zM61 585l96 171h87l96 -171h-52l-87 119l-88 -119h-52z" />
    <glyph glyph-name="atilde" unicode="&#xe3;" horiz-adv-x="410" 
d="M280 47q-52 -52 -119 -52q-59 0 -92.5 35.5t-33.5 95.5q0 76 62.5 132.5t182.5 86.5q2 22 2 33q0 48 -19 70t-61 22q-36 0 -55.5 -23t-28.5 -75l-67 11q25 147 150 147q80 0 114.5 -41.5t34.5 -131.5v-237q0 -62 9 -120h-71zM280 279q-85 -19 -130.5 -60t-45.5 -94
q0 -30 19.5 -50t49.5 -20q49 0 107 56v168zM343 716q-24 -94 -97 -94q-12 0 -32 6l-39 13q-12 4 -26 4q-33 0 -47 -31h-43q21 91 97 91q14 0 29 -5l38 -13q17 -5 30 -5q35 0 47 34h43z" />
    <glyph glyph-name="adieresis" unicode="&#xe4;" horiz-adv-x="410" 
d="M280 47q-52 -52 -119 -52q-59 0 -92.5 35.5t-33.5 95.5q0 76 62.5 132.5t182.5 86.5q2 22 2 33q0 48 -19 70t-61 22q-36 0 -55.5 -23t-28.5 -75l-67 11q25 147 150 147q80 0 114.5 -41.5t34.5 -131.5v-237q0 -62 9 -120h-71zM280 279q-85 -19 -130.5 -60t-45.5 -94
q0 -30 19.5 -50t49.5 -20q49 0 107 56v168zM92 641v82h70v-82h-70zM240 641v82h70v-82h-70z" />
    <glyph glyph-name="aring" unicode="&#xe5;" horiz-adv-x="410" 
d="M280 47q-52 -52 -119 -52q-59 0 -92.5 35.5t-33.5 95.5q0 76 62.5 132.5t182.5 86.5q2 22 2 33q0 48 -19 70t-61 22q-36 0 -55.5 -23t-28.5 -75l-67 11q25 147 150 147q80 0 114.5 -41.5t34.5 -131.5v-237q0 -62 9 -120h-71zM280 279q-85 -19 -130.5 -60t-45.5 -94
q0 -30 19.5 -50t49.5 -20q49 0 107 56v168zM92 697q0 51 35 86t86 35t86 -35t35 -86t-35 -86t-86 -35t-86 35t-35 86zM144 697q0 -29 20 -49.5t49 -20.5t49.5 20.5t20.5 49.5t-20.5 49.5t-49.5 20.5q-30 0 -49.5 -20t-19.5 -50z" />
    <glyph glyph-name="ae" unicode="&#xe6;" horiz-adv-x="623" 
d="M280 276q-85 -19 -130.5 -60t-45.5 -95q0 -31 19 -51t50 -20q51 0 107 56v170zM349 309h167q1 10 1 29q0 133 -82 133q-83 0 -86 -162zM311 60q-78 -71 -155 -71q-55 0 -88 37t-33 96q0 76 62 132.5t183 87.5q1 11 1 31q0 49 -18 72.5t-57 23.5q-38 0 -58.5 -23.5
t-29.5 -75.5l-67 11q25 149 158 149q77 0 116 -53q45 54 112 54q149 0 149 -240q0 -27 -1 -41h-237q0 -104 21 -152.5t68 -48.5q75 0 80 121h65q-4 -88 -42.5 -135.5t-102.5 -47.5q-78 0 -126 73z" />
    <glyph glyph-name="ccedilla" unicode="&#xe7;" horiz-adv-x="373" 
d="M75 -207v43q78 -18 120 -18q59 0 59 41q0 48 -67 48q-16 0 -25 -1v84q-125 25 -125 269q0 138 38.5 205t119.5 67q61 0 99.5 -43t41.5 -118h-64q-5 101 -78 101q-48 0 -67.5 -51t-19.5 -161q0 -111 19.5 -160.5t68.5 -49.5q75 0 80 121h64q-1 -85 -39.5 -133.5
t-102.5 -49.5v-39h11q110 0 110 -86q0 -89 -121 -89q-45 0 -122 20z" />
    <glyph glyph-name="egrave" unicode="&#xe8;" horiz-adv-x="381" 
d="M108 308h166v20q0 74 -18.5 108.5t-61.5 34.5q-80 0 -86 -163zM275 170h66q-4 -87 -43 -135t-103 -48q-81 0 -119.5 67t-38.5 205t38.5 205t119.5 67q150 0 150 -240q0 -27 -1 -41h-237q1 -106 20.5 -153.5t67.5 -47.5q75 0 80 121zM255 585h-52l-137 171h87z" />
    <glyph glyph-name="eacute" unicode="&#xe9;" horiz-adv-x="381" 
d="M108 308h166v20q0 74 -18.5 108.5t-61.5 34.5q-80 0 -86 -163zM275 170h66q-4 -87 -43 -135t-103 -48q-81 0 -119.5 67t-38.5 205t38.5 205t119.5 67q150 0 150 -240q0 -27 -1 -41h-237q1 -106 20.5 -153.5t67.5 -47.5q75 0 80 121zM121 585l102 171h87l-137 -171h-52z
" />
    <glyph glyph-name="ecircumflex" unicode="&#xea;" horiz-adv-x="381" 
d="M108 308h166v20q0 74 -18.5 108.5t-61.5 34.5q-80 0 -86 -163zM275 170h66q-4 -87 -43 -135t-103 -48q-81 0 -119.5 67t-38.5 205t38.5 205t119.5 67q150 0 150 -240q0 -27 -1 -41h-237q1 -106 20.5 -153.5t67.5 -47.5q75 0 80 121zM58 585l96 171h87l96 -171h-52
l-87 119l-88 -119h-52z" />
    <glyph glyph-name="edieresis" unicode="&#xeb;" horiz-adv-x="381" 
d="M108 308h166v20q0 74 -18.5 108.5t-61.5 34.5q-80 0 -86 -163zM275 170h66q-4 -87 -43 -135t-103 -48q-81 0 -119.5 67t-38.5 205t38.5 205t119.5 67q150 0 150 -240q0 -27 -1 -41h-237q1 -106 20.5 -153.5t67.5 -47.5q75 0 80 121zM89 641v82h70v-82h-70zM237 641v82h70
v-82h-70z" />
    <glyph glyph-name="igrave" unicode="&#xec;" horiz-adv-x="190" 
d="M60 0v519h70v-519h-70zM152 585h-52l-137 171h87z" />
    <glyph glyph-name="iacute" unicode="&#xed;" horiz-adv-x="190" 
d="M60 0v519h70v-519h-70zM38 585l102 171h87l-137 -171h-52z" />
    <glyph glyph-name="icircumflex" unicode="&#xee;" horiz-adv-x="190" 
d="M60 0v519h70v-519h-70zM-45 585l96 171h87l96 -171h-52l-87 119l-88 -119h-52z" />
    <glyph glyph-name="idieresis" unicode="&#xef;" horiz-adv-x="190" 
d="M60 0v519h70v-519h-70zM-14 641v82h70v-82h-70zM134 641v82h70v-82h-70z" />
    <glyph glyph-name="eth" unicode="&#xf0;" horiz-adv-x="382" 
d="M116 244q0 -105 17 -152t60 -47q39 0 57 48.5t18 150.5t-18 150.5t-57 48.5q-43 0 -60 -47t-17 -152zM225 495q-14 44 -31 67l-111 -44l-18 45l102 40q-24 37 -90 75l17 45q64 -21 130 -99l110 42l19 -43l-103 -39q82 -152 82 -340q0 -257 -138 -257q-74 0 -108.5 63
t-34.5 194q0 257 136 257q14 0 38 -6z" />
    <glyph glyph-name="ntilde" unicode="&#xf1;" horiz-adv-x="413" 
d="M62 0v519h69v-54q60 67 123 67q100 0 100 -134v-398h-69v375q0 53 -12 74.5t-46 21.5q-55 0 -96 -68v-403h-69zM359 716q-24 -94 -97 -94q-12 0 -32 6l-39 13q-12 4 -26 4q-33 0 -47 -31h-43q21 91 97 91q14 0 29 -5l38 -13q17 -5 30 -5q35 0 47 34h43z" />
    <glyph glyph-name="ograve" unicode="&#xf2;" horiz-adv-x="382" 
d="M35 259q0 138 38.5 205t119.5 67q154 0 154 -272t-154 -272q-81 0 -119.5 67t-38.5 205zM106 259q0 -111 19 -160.5t67 -49.5q44 0 63.5 51t19.5 159q0 109 -19.5 160t-63.5 51q-48 0 -67 -50t-19 -161zM248 585h-52l-137 171h87z" />
    <glyph glyph-name="oacute" unicode="&#xf3;" horiz-adv-x="382" 
d="M35 259q0 138 38.5 205t119.5 67q154 0 154 -272t-154 -272q-81 0 -119.5 67t-38.5 205zM106 259q0 -111 19 -160.5t67 -49.5q44 0 63.5 51t19.5 159q0 109 -19.5 160t-63.5 51q-48 0 -67 -50t-19 -161zM134 585l102 171h87l-137 -171h-52z" />
    <glyph glyph-name="ocircumflex" unicode="&#xf4;" horiz-adv-x="382" 
d="M35 259q0 138 38.5 205t119.5 67q154 0 154 -272t-154 -272q-81 0 -119.5 67t-38.5 205zM106 259q0 -111 19 -160.5t67 -49.5q44 0 63.5 51t19.5 159q0 109 -19.5 160t-63.5 51q-48 0 -67 -50t-19 -161zM51 585l96 171h87l96 -171h-52l-87 119l-88 -119h-52z" />
    <glyph glyph-name="otilde" unicode="&#xf5;" horiz-adv-x="382" 
d="M35 259q0 138 38.5 205t119.5 67q154 0 154 -272t-154 -272q-81 0 -119.5 67t-38.5 205zM106 259q0 -111 19 -160.5t67 -49.5q44 0 63.5 51t19.5 159q0 109 -19.5 160t-63.5 51q-48 0 -67 -50t-19 -161zM333 716q-24 -94 -97 -94q-12 0 -32 6l-39 13q-12 4 -26 4
q-33 0 -47 -31h-43q21 91 97 91q14 0 29 -5l38 -13q17 -5 30 -5q35 0 47 34h43z" />
    <glyph glyph-name="odieresis" unicode="&#xf6;" horiz-adv-x="382" 
d="M35 259q0 138 38.5 205t119.5 67q154 0 154 -272t-154 -272q-81 0 -119.5 67t-38.5 205zM106 259q0 -111 19 -160.5t67 -49.5q44 0 63.5 51t19.5 159q0 109 -19.5 160t-63.5 51q-48 0 -67 -50t-19 -161zM82 641v82h70v-82h-70zM230 641v82h70v-82h-70z" />
    <glyph glyph-name="divide" unicode="&#xf7;" horiz-adv-x="633" 
d="M317 523q22 0 37 -15.5t15 -37.5q0 -21 -15 -36.5t-37 -15.5t-37 15t-15 37t15.5 37.5t36.5 15.5zM509 322v-48h-385v48h385zM317 178q22 0 37 -15t15 -37q0 -21 -15 -36.5t-37 -15.5t-37 15t-15 37t15.5 37t36.5 15z" />
    <glyph glyph-name="oslash" unicode="&#xf8;" horiz-adv-x="382" 
d="M29 -97l53 138q-47 56 -47 218q0 138 38.5 205t119.5 67q39 0 67 -19l36 93l44 -21l-42 -106q49 -56 49 -219q0 -138 -38.5 -205t-121.5 -67q-43 0 -67 18l-46 -122zM144 69q13 -20 49 -20q46 0 65.5 50.5t19.5 159.5q0 83 -12 134zM115 129l122 322q-16 19 -44 19
q-49 0 -69 -50t-20 -161q0 -75 11 -130z" />
    <glyph glyph-name="ugrave" unicode="&#xf9;" horiz-adv-x="413" 
d="M352 519v-519h-69v54q-60 -67 -123 -67q-100 0 -100 133v399h69v-375q0 -53 12 -74.5t46 -21.5q55 0 96 68v403h69zM264 585h-52l-137 171h87z" />
    <glyph glyph-name="uacute" unicode="&#xfa;" horiz-adv-x="413" 
d="M352 519v-519h-69v54q-60 -67 -123 -67q-100 0 -100 133v399h69v-375q0 -53 12 -74.5t46 -21.5q55 0 96 68v403h69zM150 585l102 171h87l-137 -171h-52z" />
    <glyph glyph-name="ucircumflex" unicode="&#xfb;" horiz-adv-x="413" 
d="M352 519v-519h-69v54q-60 -67 -123 -67q-100 0 -100 133v399h69v-375q0 -53 12 -74.5t46 -21.5q55 0 96 68v403h69zM67 585l96 171h87l96 -171h-52l-87 119l-88 -119h-52z" />
    <glyph glyph-name="udieresis" unicode="&#xfc;" horiz-adv-x="413" 
d="M352 519v-519h-69v54q-60 -67 -123 -67q-100 0 -100 133v399h69v-375q0 -53 12 -74.5t46 -21.5q55 0 96 68v403h69zM98 641v82h70v-82h-70zM246 641v82h70v-82h-70z" />
    <glyph glyph-name="yacute" unicode="&#xfd;" horiz-adv-x="347" 
d="M9 519h72l90 -391l88 391h69l-121 -517q-22 -94 -61 -135.5t-112 -41.5q-15 0 -22 1v64q6 -1 18 -1q48 0 74 28t37 89zM117 585l102 171h87l-137 -171h-52z" />
    <glyph glyph-name="thorn" unicode="&#xfe;" horiz-adv-x="410" 
d="M132 117q42 -66 88 -66q45 0 64 52t19 163q0 106 -19.5 156.5t-63.5 50.5q-46 0 -88 -66v-290zM132 48v-222h-70v897h70v-251q49 59 102 59q67 0 104 -69.5t37 -201.5q0 -134 -37 -203t-105 -69q-53 0 -101 60z" />
    <glyph glyph-name="ydieresis" unicode="&#xff;" horiz-adv-x="347" 
d="M9 519h72l90 -391l88 391h69l-121 -517q-22 -94 -61 -135.5t-112 -41.5q-15 0 -22 1v64q6 -1 18 -1q48 0 74 28t37 89zM55 641v82h70v-82h-70zM203 641v82h70v-82h-70z" />
    <glyph glyph-name="Amacron" unicode="&#x100;" horiz-adv-x="440" 
d="M13 0l157 723h102l158 -723h-78l-42 213h-182l-42 -213h-73zM144 281h151l-76 378zM94 820v61h252v-61h-252z" />
    <glyph glyph-name="amacron" unicode="&#x101;" horiz-adv-x="410" 
d="M280 47q-52 -52 -119 -52q-59 0 -92.5 35.5t-33.5 95.5q0 76 62.5 132.5t182.5 86.5q2 22 2 33q0 48 -19 70t-61 22q-36 0 -55.5 -23t-28.5 -75l-67 11q25 147 150 147q80 0 114.5 -41.5t34.5 -131.5v-237q0 -62 9 -120h-71zM280 279q-85 -19 -130.5 -60t-45.5 -94
q0 -30 19.5 -50t49.5 -20q49 0 107 56v168zM79 652v61h252v-61h-252z" />
    <glyph glyph-name="Abreve" unicode="&#x102;" horiz-adv-x="440" 
d="M13 0l157 723h102l158 -723h-78l-42 213h-182l-42 -213h-73zM144 281h151l-76 378zM82 907h44q3 -37 25.5 -54t68.5 -17t68.5 17t25.5 54h44q-5 -69 -38.5 -101t-99.5 -32t-100 32.5t-38 100.5z" />
    <glyph glyph-name="abreve" unicode="&#x103;" horiz-adv-x="410" 
d="M280 47q-52 -52 -119 -52q-59 0 -92.5 35.5t-33.5 95.5q0 76 62.5 132.5t182.5 86.5q2 22 2 33q0 48 -19 70t-61 22q-36 0 -55.5 -23t-28.5 -75l-67 11q25 147 150 147q80 0 114.5 -41.5t34.5 -131.5v-237q0 -62 9 -120h-71zM280 279q-85 -19 -130.5 -60t-45.5 -94
q0 -30 19.5 -50t49.5 -20q49 0 107 56v168zM67 737h44q3 -37 25.5 -54t68.5 -17t68.5 17t25.5 54h44q-5 -69 -38.5 -101t-99.5 -32t-100 32.5t-38 100.5z" />
    <glyph glyph-name="Aogonek" unicode="&#x104;" horiz-adv-x="440" 
d="M13 0l157 723h102l158 -723q-67 -61 -67 -109q0 -22 10.5 -31t36.5 -9h40v-63h-39q-108 0 -108 80q0 34 21.5 64t69.5 68h-42l-42 213h-182l-42 -213h-73zM144 281h151l-76 378z" />
    <glyph glyph-name="aogonek" unicode="&#x105;" horiz-adv-x="410" 
d="M280 47q-52 -52 -119 -52q-59 0 -92.5 35.5t-33.5 95.5q0 76 62.5 132.5t182.5 86.5q2 22 2 33q0 48 -19 70t-61 22q-36 0 -55.5 -23t-28.5 -75l-67 11q25 147 150 147q80 0 114.5 -41.5t34.5 -131.5v-237q0 -62 9 -120q-67 -61 -67 -109q0 -22 10.5 -31t36.5 -9h40v-63
h-39q-108 0 -108 80q0 34 21.5 64t69.5 68h-35zM280 279q-85 -19 -130.5 -60t-45.5 -94q0 -30 19.5 -50t49.5 -20q49 0 107 56v168z" />
    <glyph glyph-name="Cacute" unicode="&#x106;" horiz-adv-x="464" 
d="M434 237v-16q0 -113 -49.5 -174t-139.5 -61q-204 0 -204 366q0 196 50 291t157 95q83 0 131 -60t48 -167h-72q-8 162 -108 162q-70 0 -99.5 -75.5t-29.5 -238.5q0 -160 32.5 -233.5t108.5 -73.5q50 0 79 44.5t29 125.5v15h67zM175 791l102 171h87l-137 -171h-52z" />
    <glyph glyph-name="cacute" unicode="&#x107;" horiz-adv-x="373" 
d="M272 370q-5 101 -78 101q-48 0 -67.5 -51t-19.5 -161q0 -111 19.5 -160.5t68.5 -49.5q75 0 80 121h64q-1 -85 -40 -134t-104 -49q-81 0 -119.5 67t-38.5 205t38.5 205t119.5 67q61 0 99.5 -43t41.5 -118h-64zM129 585l102 171h87l-137 -171h-52z" />
    <glyph glyph-name="Ccircumflex" unicode="&#x108;" horiz-adv-x="464" 
d="M434 237v-16q0 -113 -49.5 -174t-139.5 -61q-204 0 -204 366q0 196 50 291t157 95q83 0 131 -60t48 -167h-72q-8 162 -108 162q-70 0 -99.5 -75.5t-29.5 -238.5q0 -160 32.5 -233.5t108.5 -73.5q50 0 79 44.5t29 125.5v15h67zM102 791l96 171h87l96 -171h-52l-87 119
l-88 -119h-52z" />
    <glyph glyph-name="ccircumflex" unicode="&#x109;" horiz-adv-x="373" 
d="M272 370q-5 101 -78 101q-48 0 -67.5 -51t-19.5 -161q0 -111 19.5 -160.5t68.5 -49.5q75 0 80 121h64q-1 -85 -40 -134t-104 -49q-81 0 -119.5 67t-38.5 205t38.5 205t119.5 67q61 0 99.5 -43t41.5 -118h-64zM56 585l96 171h87l96 -171h-52l-87 119l-88 -119h-52z" />
    <glyph glyph-name="Cdotaccent" unicode="&#x10a;" horiz-adv-x="464" 
d="M434 237v-16q0 -113 -49.5 -174t-139.5 -61q-204 0 -204 366q0 196 50 291t157 95q83 0 131 -60t48 -167h-72q-8 162 -108 162q-70 0 -99.5 -75.5t-29.5 -238.5q0 -160 32.5 -233.5t108.5 -73.5q50 0 79 44.5t29 125.5v15h67zM207 800v101h86v-101h-86z" />
    <glyph glyph-name="cdotaccent" unicode="&#x10b;" horiz-adv-x="373" 
d="M272 370q-5 101 -78 101q-48 0 -67.5 -51t-19.5 -161q0 -111 19.5 -160.5t68.5 -49.5q75 0 80 121h64q-1 -85 -40 -134t-104 -49q-81 0 -119.5 67t-38.5 205t38.5 205t119.5 67q61 0 99.5 -43t41.5 -118h-64zM157 637v90h76v-90h-76z" />
    <glyph glyph-name="Ccaron" unicode="&#x10c;" horiz-adv-x="464" 
d="M434 237v-16q0 -113 -49.5 -174t-139.5 -61q-204 0 -204 366q0 196 50 291t157 95q83 0 131 -60t48 -167h-72q-8 162 -108 162q-70 0 -99.5 -75.5t-29.5 -238.5q0 -160 32.5 -233.5t108.5 -73.5q50 0 79 44.5t29 125.5v15h67zM102 962h52l88 -119l87 119h52l-96 -171h-87
z" />
    <glyph glyph-name="ccaron" unicode="&#x10d;" horiz-adv-x="373" 
d="M272 370q-5 101 -78 101q-48 0 -67.5 -51t-19.5 -161q0 -111 19.5 -160.5t68.5 -49.5q75 0 80 121h64q-1 -85 -40 -134t-104 -49q-81 0 -119.5 67t-38.5 205t38.5 205t119.5 67q61 0 99.5 -43t41.5 -118h-64zM56 756h52l88 -119l87 119h52l-96 -171h-87z" />
    <glyph glyph-name="Dcaron" unicode="&#x10e;" horiz-adv-x="485" 
d="M69 0v723h134q127 0 183.5 -86t56.5 -274q0 -189 -56 -276t-184 -87h-134zM144 659v-591q28 -2 40 -2q106 0 145.5 67.5t39.5 231.5q0 162 -39.5 229t-144.5 67q-13 0 -41 -2zM92 962h52l88 -119l87 119h52l-96 -171h-87z" />
    <glyph glyph-name="dcaron" unicode="&#x10f;" horiz-adv-x="454" 
d="M349 0h-69v48q-48 -60 -102 -60q-68 0 -104.5 69t-36.5 203q0 133 36.5 202t103.5 69q54 0 103 -59v251h69v-723zM280 117v290q-42 66 -88 66q-44 0 -63.5 -50.5t-19.5 -156.5q0 -111 19 -163t64 -52q48 0 88 66zM380 634v89h79v-94l-55 -120h-29l41 125h-36z" />
    <glyph glyph-name="Dcroat" unicode="&#x110;" horiz-adv-x="490" 
d="M74 0v353h-69v54h69v316h134q127 0 183 -86t56 -274q0 -190 -55.5 -276.5t-183.5 -86.5h-134zM148 659v-252h101v-54h-101v-285q28 -2 40 -2q106 0 146 67.5t40 231.5q0 162 -40 229t-145 67q-13 0 -41 -2z" />
    <glyph glyph-name="dcroat" unicode="&#x111;" horiz-adv-x="410" 
d="M349 0h-69v48q-48 -60 -102 -60q-68 0 -104.5 69t-36.5 203q0 133 36.5 202t103.5 69q54 0 103 -59v120h-149v60h149v71h69v-71h57v-60h-57v-592zM280 117v290q-42 66 -88 66q-44 0 -63.5 -50.5t-19.5 -156.5q0 -111 19 -163t64 -52q48 0 88 66z" />
    <glyph glyph-name="Emacron" unicode="&#x112;" horiz-adv-x="417" 
d="M65 0v723h325v-67h-251v-249h184v-66h-184v-274h260v-67h-334zM82 820v61h252v-61h-252z" />
    <glyph glyph-name="emacron" unicode="&#x113;" horiz-adv-x="381" 
d="M108 308h166v20q0 74 -18.5 108.5t-61.5 34.5q-80 0 -86 -163zM275 170h66q-4 -87 -43 -135t-103 -48q-81 0 -119.5 67t-38.5 205t38.5 205t119.5 67q150 0 150 -240q0 -27 -1 -41h-237q1 -106 20.5 -153.5t67.5 -47.5q75 0 80 121zM64 652v61h252v-61h-252z" />
    <glyph glyph-name="Edotaccent" unicode="&#x116;" horiz-adv-x="417" 
d="M65 0v723h325v-67h-251v-249h184v-66h-184v-274h260v-67h-334zM165 800v101h86v-101h-86z" />
    <glyph glyph-name="edotaccent" unicode="&#x117;" horiz-adv-x="381" 
d="M108 308h166v20q0 74 -18.5 108.5t-61.5 34.5q-80 0 -86 -163zM275 170h66q-4 -87 -43 -135t-103 -48q-81 0 -119.5 67t-38.5 205t38.5 205t119.5 67q150 0 150 -240q0 -27 -1 -41h-237q1 -106 20.5 -153.5t67.5 -47.5q75 0 80 121zM147 637v90h76v-90h-76z" />
    <glyph glyph-name="Eogonek" unicode="&#x118;" horiz-adv-x="417" 
d="M65 0v723h325v-67h-251v-249h184v-66h-184v-274h260v-67h-15q-67 -61 -67 -109q0 -22 10.5 -31t36.5 -9h40v-63h-39q-108 0 -108 80q0 34 21.5 64t69.5 68h-283z" />
    <glyph glyph-name="eogonek" unicode="&#x119;" horiz-adv-x="381" 
d="M254 0q-66 -60 -66 -109q0 -22 10.5 -31t36.5 -9h40v-63h-39q-108 0 -108 80q0 58 75 119h-8q-81 0 -119.5 67t-38.5 205t38.5 205t119.5 67q150 0 150 -240q0 -27 -1 -41h-237q1 -106 20.5 -153.5t67.5 -47.5q75 0 80 121h66q-7 -132 -87 -170zM108 308h166v20
q0 74 -18.5 108.5t-61.5 34.5q-80 0 -86 -163z" />
    <glyph glyph-name="Ecaron" unicode="&#x11a;" horiz-adv-x="417" 
d="M65 0v723h325v-67h-251v-249h184v-66h-184v-274h260v-67h-334zM68 962h52l88 -119l87 119h52l-96 -171h-87z" />
    <glyph glyph-name="ecaron" unicode="&#x11b;" horiz-adv-x="381" 
d="M108 308h166v20q0 74 -18.5 108.5t-61.5 34.5q-80 0 -86 -163zM275 170h66q-4 -87 -43 -135t-103 -48q-81 0 -119.5 67t-38.5 205t38.5 205t119.5 67q150 0 150 -240q0 -27 -1 -41h-237q1 -106 20.5 -153.5t67.5 -47.5q75 0 80 121zM50 756h52l88 -119l87 119h52
l-96 -171h-87z" />
    <glyph glyph-name="Gcircumflex" unicode="&#x11c;" horiz-adv-x="479" 
d="M381 0l-8 42q-47 -56 -126 -56q-206 0 -206 366q0 196 50 291t157 95q83 0 131 -60t48 -167h-72q-8 162 -108 162q-71 0 -99.5 -76t-28.5 -243q0 -155 32 -228.5t105 -73.5q49 0 78 36t29 101v85h-105v65h175v-339h-52zM109 791l96 171h87l96 -171h-52l-87 119l-88 -119
h-52z" />
    <glyph glyph-name="gcircumflex" unicode="&#x11d;" horiz-adv-x="371" 
d="M184 471q-40 0 -56.5 -30t-16.5 -98q0 -67 16.5 -97t56.5 -30q38 0 54 30.5t16 96.5t-16 97t-54 31zM152 30q-37 -14 -54 -32t-17 -45q0 -30 28.5 -48.5t78.5 -18.5q55 0 84.5 17.5t29.5 47.5q0 34 -35.5 52t-114.5 27zM94 192q-45 47 -45 151q0 185 133 185
q67 0 101 -47q37 47 85 47h3v-65q-11 3 -20 3q-25 0 -50 -23q15 -54 15 -112q0 -84 -34.5 -128.5t-97.5 -44.5q-17 0 -44 5q-17 -1 -28.5 -10.5t-11.5 -19.5q0 -25 25 -33q16 -5 59 -12.5t69 -15.5q60 -18 86.5 -44t26.5 -73q0 -56 -49 -91t-132 -35q-82 0 -127 32t-45 87
q0 56 74 102q-52 27 -52 66q0 41 59 76zM45 585l96 171h87l96 -171h-52l-87 119l-88 -119h-52z" />
    <glyph glyph-name="Gbreve" unicode="&#x11e;" horiz-adv-x="479" 
d="M381 0l-8 42q-47 -56 -126 -56q-206 0 -206 366q0 196 50 291t157 95q83 0 131 -60t48 -167h-72q-8 162 -108 162q-71 0 -99.5 -76t-28.5 -243q0 -155 32 -228.5t105 -73.5q49 0 78 36t29 101v85h-105v65h175v-339h-52zM101 907h44q3 -37 25.5 -54t68.5 -17t68.5 17
t25.5 54h44q-5 -69 -38.5 -101t-99.5 -32t-100 32.5t-38 100.5z" />
    <glyph glyph-name="gbreve" unicode="&#x11f;" horiz-adv-x="371" 
d="M184 471q-40 0 -56.5 -30t-16.5 -98q0 -67 16.5 -97t56.5 -30q38 0 54 30.5t16 96.5t-16 97t-54 31zM152 30q-37 -14 -54 -32t-17 -45q0 -30 28.5 -48.5t78.5 -18.5q55 0 84.5 17.5t29.5 47.5q0 34 -35.5 52t-114.5 27zM94 192q-45 47 -45 151q0 185 133 185
q67 0 101 -47q37 47 85 47h3v-65q-11 3 -20 3q-25 0 -50 -23q15 -54 15 -112q0 -84 -34.5 -128.5t-97.5 -44.5q-17 0 -44 5q-17 -1 -28.5 -10.5t-11.5 -19.5q0 -25 25 -33q16 -5 59 -12.5t69 -15.5q60 -18 86.5 -44t26.5 -73q0 -56 -49 -91t-132 -35q-82 0 -127 32t-45 87
q0 56 74 102q-52 27 -52 66q0 41 59 76zM47 737h44q3 -37 25.5 -54t68.5 -17t68.5 17t25.5 54h44q-5 -69 -38.5 -101t-99.5 -32t-100 32.5t-38 100.5z" />
    <glyph glyph-name="Gdotaccent" unicode="&#x120;" horiz-adv-x="479" 
d="M381 0l-8 42q-47 -56 -126 -56q-206 0 -206 366q0 196 50 291t157 95q83 0 131 -60t48 -167h-72q-8 162 -108 162q-71 0 -99.5 -76t-28.5 -243q0 -155 32 -228.5t105 -73.5q49 0 78 36t29 101v85h-105v65h175v-339h-52zM207 800v101h86v-101h-86z" />
    <glyph glyph-name="gdotaccent" unicode="&#x121;" horiz-adv-x="371" 
d="M184 471q-40 0 -56.5 -30t-16.5 -98q0 -67 16.5 -97t56.5 -30q38 0 54 30.5t16 96.5t-16 97t-54 31zM152 30q-37 -14 -54 -32t-17 -45q0 -30 28.5 -48.5t78.5 -18.5q55 0 84.5 17.5t29.5 47.5q0 34 -35.5 52t-114.5 27zM94 192q-45 47 -45 151q0 185 133 185
q67 0 101 -47q37 47 85 47h3v-65q-11 3 -20 3q-25 0 -50 -23q15 -54 15 -112q0 -84 -34.5 -128.5t-97.5 -44.5q-17 0 -44 5q-17 -1 -28.5 -10.5t-11.5 -19.5q0 -25 25 -33q16 -5 59 -12.5t69 -15.5q60 -18 86.5 -44t26.5 -73q0 -56 -49 -91t-132 -35q-82 0 -127 32t-45 87
q0 56 74 102q-52 27 -52 66q0 41 59 76zM142 637v90h76v-90h-76z" />
    <glyph glyph-name="Gcommaaccent" unicode="&#x122;" horiz-adv-x="479" 
d="M381 0l-8 42q-47 -56 -126 -56q-206 0 -206 366q0 196 50 291t157 95q83 0 131 -60t48 -167h-72q-8 162 -108 162q-71 0 -99.5 -76t-28.5 -243q0 -155 32 -228.5t105 -73.5q49 0 78 36t29 101v85h-105v65h175v-339h-52zM214 -142v89h79v-95l-55 -119h-29l40 125h-35z" />
    <glyph glyph-name="gcommaaccent" unicode="&#x123;" horiz-adv-x="371" 
d="M184 471q-40 0 -56.5 -30t-16.5 -98q0 -67 16.5 -97t56.5 -30q38 0 54 30.5t16 96.5t-16 97t-54 31zM152 30q-37 -14 -54 -32t-17 -45q0 -30 28.5 -48.5t78.5 -18.5q55 0 84.5 17.5t29.5 47.5q0 34 -35.5 52t-114.5 27zM94 192q-45 47 -45 151q0 185 133 185
q67 0 101 -47q37 47 85 47h3v-65q-11 3 -20 3q-25 0 -50 -23q15 -54 15 -112q0 -84 -34.5 -128.5t-97.5 -44.5q-17 0 -44 5q-17 -1 -28.5 -10.5t-11.5 -19.5q0 -25 25 -33q16 -5 59 -12.5t69 -15.5q60 -18 86.5 -44t26.5 -73q0 -56 -49 -91t-132 -35q-82 0 -127 32t-45 87
q0 56 74 102q-52 27 -52 66q0 41 59 76zM227 682v-89h-79v95l55 119h29l-40 -125h35z" />
    <glyph glyph-name="Hcircumflex" unicode="&#x124;" horiz-adv-x="488" 
d="M65 0v723h74v-310h210v310h74v-723h-74v344h-210v-344h-74zM104 791l96 171h87l96 -171h-52l-87 119l-88 -119h-52z" />
    <glyph glyph-name="hcircumflex" unicode="&#x125;" horiz-adv-x="413" 
d="M62 0v723h69v-258q60 67 124 67q99 0 99 -134v-398h-69v375q0 51 -12.5 73.5t-45.5 22.5q-51 0 -96 -68v-403h-69zM-24 791l96 171h87l96 -171h-52l-87 119l-88 -119h-52z" />
    <glyph glyph-name="Hbar" unicode="&#x126;" horiz-adv-x="488" 
d="M4 542v60h61v121h74v-121h210v121h74v-121h61v-60h-61v-542h-74v344h-210v-344h-74v542h-61zM139 413h210v129h-210v-129z" />
    <glyph glyph-name="hbar" unicode="&#x127;" horiz-adv-x="413" 
d="M62 0v592h-57v60h57v71h69v-71h149v-60h-149v-127q60 67 124 67q99 0 99 -134v-398h-69v375q0 51 -12.5 73.5t-45.5 22.5q-51 0 -96 -68v-403h-69z" />
    <glyph glyph-name="Imacron" unicode="&#x12a;" horiz-adv-x="209" 
d="M67 0v723h74v-723h-74zM-22 820v61h252v-61h-252z" />
    <glyph glyph-name="imacron" unicode="&#x12b;" horiz-adv-x="190" 
d="M60 0v519h70v-519h-70zM-31 652v61h252v-61h-252z" />
    <glyph glyph-name="Iogonek" unicode="&#x12e;" horiz-adv-x="209" 
d="M67 0v723h74v-723q-67 -61 -67 -109q0 -22 10.5 -31t36.5 -9h40v-63h-39q-108 0 -108 80q0 34 21.5 64t69.5 68h-38z" />
    <glyph glyph-name="iogonek" unicode="&#x12f;" horiz-adv-x="190" 
d="M60 0v519h70v-519q-67 -61 -67 -109q0 -22 10.5 -31t36.5 -9h40v-63h-39q-108 0 -108 80q0 34 21.5 64t69.5 68h-34zM60 641v82h70v-82h-70z" />
    <glyph glyph-name="Idotaccent" unicode="&#x130;" horiz-adv-x="209" 
d="M67 0v723h74v-723h-74zM61 800v101h86v-101h-86z" />
    <glyph glyph-name="dotlessi" unicode="&#x131;" horiz-adv-x="190" 
d="M60 0v519h70v-519h-70z" />
    <glyph glyph-name="Jcircumflex" unicode="&#x134;" horiz-adv-x="269" 
d="M206 241v-50q0 -103 -21 -141q-37 -65 -133 -65q-28 0 -58 6l3 69q31 -10 62 -10q21 0 35 7t22 17t11.5 32.5t4.5 41.5t1 55v520h73v-482zM24 791l96 171h87l96 -171h-52l-87 119l-88 -119h-52z" />
    <glyph glyph-name="jcircumflex" unicode="&#x135;" horiz-adv-x="190" 
d="M130 -38q0 -74 -20 -105t-75 -31q-15 0 -48 4v57q18 -2 24 -2q32 0 40.5 19.5t8.5 74.5v540h70v-557zM-55 585l96 171h87l96 -171h-52l-87 119l-88 -119h-52z" />
    <glyph glyph-name="Kcommaaccent" unicode="&#x136;" horiz-adv-x="444" 
d="M64 0v723h75v-386l214 386h74l-144 -255l167 -468h-80l-135 391l-97 -174v-217h-74zM196 -142v89h79v-95l-55 -119h-29l40 125h-35z" />
    <glyph glyph-name="kcommaaccent" unicode="&#x137;" horiz-adv-x="375" 
d="M130 270l136 249h70l-94 -170l119 -349h-74l-89 280l-68 -124v-156h-70v723h70v-453zM162 -142v89h79v-95l-55 -119h-29l40 125h-35z" />
    <glyph glyph-name="Lacute" unicode="&#x139;" horiz-adv-x="382" 
d="M69 0v723h75v-654h227v-69h-302zM114 791l102 171h87l-137 -171h-52z" />
    <glyph glyph-name="lacute" unicode="&#x13a;" horiz-adv-x="190" 
d="M60 0v723h70v-723h-70zM38 791l102 171h87l-137 -171h-52z" />
    <glyph glyph-name="Lcommaaccent" unicode="&#x13b;" horiz-adv-x="382" 
d="M69 0v723h75v-654h227v-69h-302zM165 -142v89h79v-95l-55 -119h-29l40 125h-35z" />
    <glyph glyph-name="lcommaaccent" unicode="&#x13c;" horiz-adv-x="190" 
d="M60 0v723h70v-723h-70zM59 -142v89h79v-95l-55 -119h-29l40 125h-35z" />
    <glyph glyph-name="Lcaron" unicode="&#x13d;" horiz-adv-x="382" 
d="M69 0v723h75v-654h227v-69h-302zM256 634v89h79v-94l-59 -120h-29l45 125h-36z" />
    <glyph glyph-name="lcaron" unicode="&#x13e;" horiz-adv-x="234" 
d="M60 0v723h70v-723h-70zM160 634v89h79v-94l-55 -120h-29l41 125h-36z" />
    <glyph glyph-name="Ldot" unicode="&#x13f;" horiz-adv-x="382" 
d="M69 0v723h75v-654h227v-69h-302zM253 316v101h86v-101h-86z" />
    <glyph glyph-name="ldot" unicode="&#x140;" horiz-adv-x="267" 
d="M60 0v723h70v-723h-70zM191 306v90h76v-90h-76z" />
    <glyph glyph-name="Lslash" unicode="&#x141;" horiz-adv-x="387" 
d="M74 0v316l-69 -47v62l69 49v343h74v-303l114 79v-63l-114 -80v-287h227v-69h-301z" />
    <glyph glyph-name="lslash" unicode="&#x142;" horiz-adv-x="199" 
d="M65 0v326l-60 -41v49l60 43v346h69v-309l60 42v-50l-60 -42v-364h-69z" />
    <glyph glyph-name="Nacute" unicode="&#x143;" horiz-adv-x="507" 
d="M186 500q-30 81 -55 167v-667h-65v723h108l149 -410q34 -97 59 -180q-6 62 -6 158v432h65v-723h-73zM206 791l102 171h87l-137 -171h-52z" />
    <glyph glyph-name="nacute" unicode="&#x144;" horiz-adv-x="413" 
d="M62 0v519h69v-54q60 67 123 67q100 0 100 -134v-398h-69v375q0 53 -12 74.5t-46 21.5q-55 0 -96 -68v-403h-69zM159 585l102 171h87l-137 -171h-52z" />
    <glyph glyph-name="Ncommaaccent" unicode="&#x145;" horiz-adv-x="507" 
d="M186 500q-30 81 -55 167v-667h-65v723h108l149 -410q34 -97 59 -180q-6 62 -6 158v432h65v-723h-73zM228 -142v89h79v-95l-55 -119h-29l40 125h-35z" />
    <glyph glyph-name="ncommaaccent" unicode="&#x146;" horiz-adv-x="413" 
d="M62 0v519h69v-54q60 67 123 67q100 0 100 -134v-398h-69v375q0 53 -12 74.5t-46 21.5q-55 0 -96 -68v-403h-69zM171 -142v89h79v-95l-55 -119h-29l40 125h-35z" />
    <glyph glyph-name="Ncaron" unicode="&#x147;" horiz-adv-x="507" 
d="M186 500q-30 81 -55 167v-667h-65v723h108l149 -410q34 -97 59 -180q-6 62 -6 158v432h65v-723h-73zM123 962h52l88 -119l87 119h52l-96 -171h-87z" />
    <glyph glyph-name="ncaron" unicode="&#x148;" horiz-adv-x="413" 
d="M62 0v519h69v-54q60 67 123 67q100 0 100 -134v-398h-69v375q0 53 -12 74.5t-46 21.5q-55 0 -96 -68v-403h-69zM66 756h52l88 -119l87 119h52l-96 -171h-87z" />
    <glyph glyph-name="Omacron" unicode="&#x14c;" horiz-adv-x="481" 
d="M240 670q-63 0 -92 -71t-29 -220q0 -168 28 -246.5t93 -78.5q64 0 92.5 75t28.5 233t-28.5 233t-92.5 75zM240 -14q-98 0 -148.5 95t-50.5 281q0 375 199 375q98 0 149 -94.5t51 -280.5t-51 -281t-149 -95zM114 820v61h252v-61h-252z" />
    <glyph glyph-name="omacron" unicode="&#x14d;" horiz-adv-x="382" 
d="M35 259q0 138 38.5 205t119.5 67q154 0 154 -272t-154 -272q-81 0 -119.5 67t-38.5 205zM106 259q0 -111 19 -160.5t67 -49.5q44 0 63.5 51t19.5 159q0 109 -19.5 160t-63.5 51q-48 0 -67 -50t-19 -161zM65 652v61h252v-61h-252z" />
    <glyph glyph-name="Obreve" unicode="&#x14e;" horiz-adv-x="481" 
d="M240 670q-63 0 -92 -71t-29 -220q0 -168 28 -246.5t93 -78.5q64 0 92.5 75t28.5 233t-28.5 233t-92.5 75zM240 -14q-98 0 -148.5 95t-50.5 281q0 375 199 375q98 0 149 -94.5t51 -280.5t-51 -281t-149 -95zM102 907h44q3 -37 25.5 -54t68.5 -17t68.5 17t25.5 54h44
q-5 -69 -38.5 -101t-99.5 -32t-100 32.5t-38 100.5z" />
    <glyph glyph-name="obreve" unicode="&#x14f;" horiz-adv-x="382" 
d="M35 259q0 138 38.5 205t119.5 67q154 0 154 -272t-154 -272q-81 0 -119.5 67t-38.5 205zM106 259q0 -111 19 -160.5t67 -49.5q44 0 63.5 51t19.5 159q0 109 -19.5 160t-63.5 51q-48 0 -67 -50t-19 -161zM53 737h44q3 -37 25.5 -54t68.5 -17t68.5 17t25.5 54h44
q-5 -69 -38.5 -101t-99.5 -32t-100 32.5t-38 100.5z" />
    <glyph glyph-name="Ohungarumlaut" unicode="&#x150;" horiz-adv-x="481" 
d="M240 670q-63 0 -92 -71t-29 -220q0 -168 28 -246.5t93 -78.5q64 0 92.5 75t28.5 233t-28.5 233t-92.5 75zM240 -14q-98 0 -148.5 95t-50.5 281q0 375 199 375q98 0 149 -94.5t51 -280.5t-51 -281t-149 -95zM147 791l72 171h77l-108 -171h-41zM273 791l82 171h76
l-117 -171h-41z" />
    <glyph glyph-name="ohungarumlaut" unicode="&#x151;" horiz-adv-x="382" 
d="M35 259q0 138 38.5 205t119.5 67q154 0 154 -272t-154 -272q-81 0 -119.5 67t-38.5 205zM106 259q0 -111 19 -160.5t67 -49.5q44 0 63.5 51t19.5 159q0 109 -19.5 160t-63.5 51q-48 0 -67 -50t-19 -161zM98 585l72 171h77l-108 -171h-41zM224 585l82 171h76l-117 -171
h-41z" />
    <glyph glyph-name="OE" unicode="&#x152;" horiz-adv-x="716" 
d="M240 670q-63 0 -92 -71t-29 -220q0 -168 28 -246.5t93 -78.5q64 0 92.5 75t28.5 233t-28.5 233t-92.5 75zM369 0v69q-42 -83 -129 -83q-98 0 -148.5 95t-50.5 281q0 376 202 376q86 0 126 -85v70h321v-66h-254v-250h187v-66h-187v-274h262v-67h-329z" />
    <glyph glyph-name="oe" unicode="&#x153;" horiz-adv-x="625" 
d="M195 470q-49 0 -68.5 -50t-19.5 -161t19.5 -160.5t68.5 -49.5q46 0 65.5 50.5t19.5 159.5t-19.5 160t-65.5 51zM351 309h167v20q0 74 -18.5 108t-62.5 34q-86 0 -86 -162zM519 170h65q-4 -89 -43.5 -136t-107.5 -47q-84 0 -117 73q-43 -73 -121 -73q-81 0 -119.5 67
t-38.5 205t38.5 205t119.5 67q76 0 120 -74q43 74 123 74q150 0 150 -240q0 -27 -1 -41h-237q0 -5 -0.5 -14.5t-0.5 -13.5q0 -173 89 -173q76 0 81 121z" />
    <glyph glyph-name="Racute" unicode="&#x154;" horiz-adv-x="468" 
d="M65 0v723h132q233 0 233 -190q0 -136 -114 -173l118 -360h-80l-109 344q-50 -2 -77 -2h-29v-342h-74zM139 407h63q149 0 149 126t-149 126h-63v-252zM167 791l102 171h87l-137 -171h-52z" />
    <glyph glyph-name="racute" unicode="&#x155;" horiz-adv-x="263" 
d="M60 0v519h70v-60q50 71 118 71q3 0 7.5 -0.5t7.5 -0.5v-67q-3 0 -7.5 0.5t-7.5 0.5q-75 0 -118 -81v-382h-70zM64 585l102 171h87l-137 -171h-52z" />
    <glyph glyph-name="Rcommaaccent" unicode="&#x156;" horiz-adv-x="468" 
d="M65 0v723h132q233 0 233 -190q0 -136 -114 -173l118 -360h-80l-109 344q-50 -2 -77 -2h-29v-342h-74zM139 407h63q149 0 149 126t-149 126h-63v-252zM198 -142v89h79v-95l-55 -119h-29l40 125h-35z" />
    <glyph glyph-name="rcommaaccent" unicode="&#x157;" horiz-adv-x="263" 
d="M60 0v519h70v-60q50 71 118 71q3 0 7.5 -0.5t7.5 -0.5v-67q-3 0 -7.5 0.5t-7.5 0.5q-75 0 -118 -81v-382h-70zM96 -142v89h79v-95l-55 -119h-29l40 125h-35z" />
    <glyph glyph-name="Rcaron" unicode="&#x158;" horiz-adv-x="468" 
d="M65 0v723h132q233 0 233 -190q0 -136 -114 -173l118 -360h-80l-109 344q-50 -2 -77 -2h-29v-342h-74zM139 407h63q149 0 149 126t-149 126h-63v-252zM84 962h52l88 -119l87 119h52l-96 -171h-87z" />
    <glyph glyph-name="rcaron" unicode="&#x159;" horiz-adv-x="263" 
d="M60 0v519h70v-60q50 71 118 71q3 0 7.5 -0.5t7.5 -0.5v-67q-3 0 -7.5 0.5t-7.5 0.5q-75 0 -118 -81v-382h-70zM-9 756h52l88 -119l87 119h52l-96 -171h-87z" />
    <glyph glyph-name="Sacute" unicode="&#x15a;" horiz-adv-x="435" 
d="M36 192h70q7 -139 115 -139q48 0 77 33t29 87t-32.5 94t-107.5 95q-51 37 -77.5 63.5t-44.5 64t-18 84.5q0 69 45.5 116t114.5 47q81 0 127.5 -51.5t49.5 -144.5h-69q-9 134 -105 134q-44 0 -70.5 -27.5t-26.5 -73.5q0 -48 35 -85q17 -18 39 -35.5t51 -39t45 -34.5
q59 -48 86.5 -95.5t27.5 -108.5q0 -86 -49 -138t-129 -52q-86 0 -134 53.5t-49 152.5zM150 791l102 171h87l-137 -171h-52z" />
    <glyph glyph-name="sacute" unicode="&#x15b;" horiz-adv-x="376" 
d="M36 126l66 15q7 -45 31.5 -70.5t59.5 -25.5q33 0 54.5 22t21.5 58q0 26 -14 47.5t-29.5 34t-51.5 36.5q-66 45 -94.5 77.5t-28.5 80.5q0 57 37 93.5t92 36.5q115 0 146 -124l-59 -18q-21 85 -84 85q-30 0 -48 -18t-18 -46q0 -22 13.5 -41.5t29.5 -31.5t52 -36t57 -40
q68 -52 68 -131q0 -65 -40.5 -103.5t-109.5 -38.5q-59 0 -100 37t-51 101zM121 585l102 171h87l-137 -171h-52z" />
    <glyph glyph-name="Scircumflex" unicode="&#x15c;" horiz-adv-x="435" 
d="M36 192h70q7 -139 115 -139q48 0 77 33t29 87t-32.5 94t-107.5 95q-51 37 -77.5 63.5t-44.5 64t-18 84.5q0 69 45.5 116t114.5 47q81 0 127.5 -51.5t49.5 -144.5h-69q-9 134 -105 134q-44 0 -70.5 -27.5t-26.5 -73.5q0 -48 35 -85q17 -18 39 -35.5t51 -39t45 -34.5
q59 -48 86.5 -95.5t27.5 -108.5q0 -86 -49 -138t-129 -52q-86 0 -134 53.5t-49 152.5zM77 791l96 171h87l96 -171h-52l-87 119l-88 -119h-52z" />
    <glyph glyph-name="scircumflex" unicode="&#x15d;" horiz-adv-x="376" 
d="M36 126l66 15q7 -45 31.5 -70.5t59.5 -25.5q33 0 54.5 22t21.5 58q0 26 -14 47.5t-29.5 34t-51.5 36.5q-66 45 -94.5 77.5t-28.5 80.5q0 57 37 93.5t92 36.5q115 0 146 -124l-59 -18q-21 85 -84 85q-30 0 -48 -18t-18 -46q0 -22 13.5 -41.5t29.5 -31.5t52 -36t57 -40
q68 -52 68 -131q0 -65 -40.5 -103.5t-109.5 -38.5q-59 0 -100 37t-51 101zM48 585l96 171h87l96 -171h-52l-87 119l-88 -119h-52z" />
    <glyph glyph-name="Scedilla" unicode="&#x15e;" horiz-adv-x="435" 
d="M105 -207v43q78 -18 120 -18q59 0 59 41q0 48 -67 48q-16 0 -25 -1v81q-74 8 -114.5 61t-41.5 144h70q7 -139 115 -139q48 0 77 33t29 87t-32.5 94t-107.5 95q-51 37 -77.5 63.5t-44.5 64t-18 84.5q0 69 45.5 116t114.5 47q81 0 127.5 -51.5t49.5 -144.5h-69
q-9 134 -105 134q-44 0 -70.5 -27.5t-26.5 -73.5q0 -48 35 -85q17 -18 39 -35.5t51 -39t45 -34.5q59 -48 86.5 -95.5t27.5 -108.5q0 -84 -47 -135.5t-123 -54.5v-38h11q110 0 110 -86q0 -89 -121 -89q-45 0 -122 20z" />
    <glyph glyph-name="scedilla" unicode="&#x15f;" horiz-adv-x="376" 
d="M76 -207v43q78 -18 120 -18q59 0 59 41q0 48 -67 48q-16 0 -25 -1v84q-51 7 -84.5 43t-42.5 93l66 15q7 -45 31.5 -70.5t59.5 -25.5q33 0 54.5 22t21.5 58q0 26 -14 47.5t-29.5 34t-51.5 36.5q-66 45 -94.5 77.5t-28.5 80.5q0 57 37 93.5t92 36.5q115 0 146 -124l-59 -18
q-21 85 -84 85q-30 0 -48 -18t-18 -46q0 -22 13.5 -41.5t29.5 -31.5t52 -36t57 -40q68 -52 68 -131q0 -62 -37.5 -100t-101.5 -41v-41h11q110 0 110 -86q0 -89 -121 -89q-45 0 -122 20z" />
    <glyph glyph-name="Scaron" unicode="&#x160;" horiz-adv-x="435" 
d="M36 192h70q7 -139 115 -139q48 0 77 33t29 87t-32.5 94t-107.5 95q-51 37 -77.5 63.5t-44.5 64t-18 84.5q0 69 45.5 116t114.5 47q81 0 127.5 -51.5t49.5 -144.5h-69q-9 134 -105 134q-44 0 -70.5 -27.5t-26.5 -73.5q0 -48 35 -85q17 -18 39 -35.5t51 -39t45 -34.5
q59 -48 86.5 -95.5t27.5 -108.5q0 -86 -49 -138t-129 -52q-86 0 -134 53.5t-49 152.5zM78 962h52l88 -119l87 119h52l-96 -171h-87z" />
    <glyph glyph-name="scaron" unicode="&#x161;" horiz-adv-x="376" 
d="M36 126l66 15q7 -45 31.5 -70.5t59.5 -25.5q33 0 54.5 22t21.5 58q0 26 -14 47.5t-29.5 34t-51.5 36.5q-66 45 -94.5 77.5t-28.5 80.5q0 57 37 93.5t92 36.5q115 0 146 -124l-59 -18q-21 85 -84 85q-30 0 -48 -18t-18 -46q0 -22 13.5 -41.5t29.5 -31.5t52 -36t57 -40
q68 -52 68 -131q0 -65 -40.5 -103.5t-109.5 -38.5q-59 0 -100 37t-51 101zM48 756h52l88 -119l87 119h52l-96 -171h-87z" />
    <glyph glyph-name="Tcedilla" unicode="&#x162;" horiz-adv-x="382" 
d="M154 0v661h-144v62h363v-62h-146v-661h-38v-52h11q110 0 110 -86q0 -89 -121 -89q-45 0 -122 20v43q78 -18 120 -18q59 0 59 41q0 48 -67 48q-16 0 -25 -1v94z" />
    <glyph glyph-name="tcedilla" unicode="&#x163;" horiz-adv-x="240" 
d="M8 -207v43q78 -18 120 -18q59 0 59 41q0 48 -67 48q-16 0 -25 -1v110q-20 24 -20 72v371h-69v60h69v173h68v-173h93v-60h-93v-333q0 -42 9 -59.5t38 -17.5q17 0 46 7v-58q-43 -11 -68 -11q-22 0 -38 6v-45h11q110 0 110 -86q0 -89 -121 -89q-45 0 -122 20z" />
    <glyph glyph-name="Tcaron" unicode="&#x164;" horiz-adv-x="382" 
d="M154 0v661h-144v62h363v-62h-146v-661h-73zM51 962h52l88 -119l87 119h52l-96 -171h-87z" />
    <glyph glyph-name="tcaron" unicode="&#x165;" horiz-adv-x="268" 
d="M75 459h-69v60h69v173h68v-173h93v-60h-93v-333q0 -42 9 -59.5t38 -17.5q9 0 46 7v-58q-43 -11 -68 -11q-93 0 -93 101v371zM185 704v89h79v-94l-55 -120h-29l41 125h-36z" />
    <glyph glyph-name="Utilde" unicode="&#x168;" horiz-adv-x="490" 
d="M63 253v470h74v-463q0 -117 19.5 -162.5t88.5 -45.5q68 0 87.5 46t19.5 162v463h74v-470q0 -83 -7 -129t-31 -77q-48 -61 -143 -61q-96 0 -144 61q-25 31 -31.5 76.5t-6.5 129.5zM390 922q-24 -94 -97 -94q-12 0 -32 6l-39 13q-12 4 -26 4q-33 0 -47 -31h-43q21 91 97 91
q14 0 29 -5l38 -13q17 -5 30 -5q35 0 47 34h43z" />
    <glyph glyph-name="utilde" unicode="&#x169;" horiz-adv-x="413" 
d="M352 519v-519h-69v54q-60 -67 -123 -67q-100 0 -100 133v399h69v-375q0 -53 12 -74.5t46 -21.5q55 0 96 68v403h69zM348 716q-24 -94 -97 -94q-12 0 -32 6l-39 13q-12 4 -26 4q-33 0 -47 -31h-43q21 91 97 91q14 0 29 -5l38 -13q17 -5 30 -5q35 0 47 34h43z" />
    <glyph glyph-name="Umacron" unicode="&#x16a;" horiz-adv-x="490" 
d="M63 253v470h74v-463q0 -117 19.5 -162.5t88.5 -45.5q68 0 87.5 46t19.5 162v463h74v-470q0 -83 -7 -129t-31 -77q-48 -61 -143 -61q-96 0 -144 61q-25 31 -31.5 76.5t-6.5 129.5zM119 820v61h252v-61h-252z" />
    <glyph glyph-name="umacron" unicode="&#x16b;" horiz-adv-x="413" 
d="M352 519v-519h-69v54q-60 -67 -123 -67q-100 0 -100 133v399h69v-375q0 -53 12 -74.5t46 -21.5q55 0 96 68v403h69zM80 652v61h252v-61h-252z" />
    <glyph glyph-name="Ubreve" unicode="&#x16c;" horiz-adv-x="490" 
d="M63 253v470h74v-463q0 -117 19.5 -162.5t88.5 -45.5q68 0 87.5 46t19.5 162v463h74v-470q0 -83 -7 -129t-31 -77q-48 -61 -143 -61q-96 0 -144 61q-25 31 -31.5 76.5t-6.5 129.5zM107 907h44q3 -37 25.5 -54t68.5 -17t68.5 17t25.5 54h44q-5 -69 -38.5 -101t-99.5 -32
t-100 32.5t-38 100.5z" />
    <glyph glyph-name="ubreve" unicode="&#x16d;" horiz-adv-x="413" 
d="M352 519v-519h-69v54q-60 -67 -123 -67q-100 0 -100 133v399h69v-375q0 -53 12 -74.5t46 -21.5q55 0 96 68v403h69zM68 737h44q3 -37 25.5 -54t68.5 -17t68.5 17t25.5 54h44q-5 -69 -38.5 -101t-99.5 -32t-100 32.5t-38 100.5z" />
    <glyph glyph-name="Uring" unicode="&#x16e;" horiz-adv-x="490" 
d="M63 253v470h74v-463q0 -117 19.5 -162.5t88.5 -45.5q68 0 87.5 46t19.5 162v463h74v-470q0 -83 -7 -129t-31 -77q-48 -61 -143 -61q-96 0 -144 61q-25 31 -31.5 76.5t-6.5 129.5zM124 834q0 51 35 86t86 35t86 -35t35 -86t-35 -86t-86 -35t-86 35t-35 86zM176 834
q0 -29 20 -49.5t49 -20.5t49.5 20.5t20.5 49.5t-20.5 49.5t-49.5 20.5q-30 0 -49.5 -20t-19.5 -50z" />
    <glyph glyph-name="uring" unicode="&#x16f;" horiz-adv-x="413" 
d="M352 519v-519h-69v54q-60 -67 -123 -67q-100 0 -100 133v399h69v-375q0 -53 12 -74.5t46 -21.5q55 0 96 68v403h69zM85 697q0 51 35 86t86 35t86 -35t35 -86t-35 -86t-86 -35t-86 35t-35 86zM137 697q0 -29 20 -49.5t49 -20.5t49.5 20.5t20.5 49.5t-20.5 49.5t-49.5 20.5
q-30 0 -49.5 -20t-19.5 -50z" />
    <glyph glyph-name="Uhungarumlaut" unicode="&#x170;" horiz-adv-x="490" 
d="M63 253v470h74v-463q0 -117 19.5 -162.5t88.5 -45.5q68 0 87.5 46t19.5 162v463h74v-470q0 -83 -7 -129t-31 -77q-48 -61 -143 -61q-96 0 -144 61q-25 31 -31.5 76.5t-6.5 129.5zM152 791l72 171h77l-108 -171h-41zM278 791l82 171h76l-117 -171h-41z" />
    <glyph glyph-name="uhungarumlaut" unicode="&#x171;" horiz-adv-x="413" 
d="M352 519v-519h-69v54q-60 -67 -123 -67q-100 0 -100 133v399h69v-375q0 -53 12 -74.5t46 -21.5q55 0 96 68v403h69zM113 585l72 171h77l-108 -171h-41zM239 585l82 171h76l-117 -171h-41z" />
    <glyph glyph-name="Uogonek" unicode="&#x172;" horiz-adv-x="490" 
d="M324 0q-67 -61 -67 -109q0 -22 10.5 -31t36.5 -9h40v-63h-39q-108 0 -108 80q0 57 75 120q-18 -2 -27 -2q-96 0 -144 61q-25 31 -31.5 76.5t-6.5 129.5v470h74v-463q0 -117 19.5 -162.5t88.5 -45.5q68 0 87.5 46t19.5 162v463h74v-470q0 -83 -7 -129t-31 -77
q-24 -32 -64 -47z" />
    <glyph glyph-name="uogonek" unicode="&#x173;" horiz-adv-x="413" 
d="M352 519v-519q-67 -61 -67 -109q0 -22 10.5 -31t36.5 -9h40v-63h-39q-108 0 -108 80q0 34 21.5 64t69.5 68h-33v54q-60 -67 -123 -67q-100 0 -100 133v399h69v-375q0 -53 12 -74.5t46 -21.5q55 0 96 68v403h69z" />
    <glyph glyph-name="Ydieresis" unicode="&#x178;" horiz-adv-x="377" 
d="M151 0v311l-162 412h77l124 -329l121 329h76l-160 -412v-311h-76zM78 894h74v-94h-74v94zM228 894h74v-94h-74v94z" />
    <glyph glyph-name="Zacute" unicode="&#x179;" horiz-adv-x="369" 
d="M358 0h-344v56l262 609h-235v58h317v-50l-264 -607h264v-66zM127 791l102 171h87l-137 -171h-52z" />
    <glyph glyph-name="zacute" unicode="&#x17a;" horiz-adv-x="332" 
d="M24 0v53l207 407h-188v59h264v-49l-209 -412h209v-58h-283zM99 585l102 171h87l-137 -171h-52z" />
    <glyph glyph-name="Zdotaccent" unicode="&#x17b;" horiz-adv-x="369" 
d="M358 0h-344v56l262 609h-235v58h317v-50l-264 -607h264v-66zM141 800v101h86v-101h-86z" />
    <glyph glyph-name="zdotaccent" unicode="&#x17c;" horiz-adv-x="332" 
d="M24 0v53l207 407h-188v59h264v-49l-209 -412h209v-58h-283zM123 637v90h76v-90h-76z" />
    <glyph glyph-name="Zcaron" unicode="&#x17d;" horiz-adv-x="369" 
d="M358 0h-344v56l262 609h-235v58h317v-50l-264 -607h264v-66zM45 962h52l88 -119l87 119h52l-96 -171h-87z" />
    <glyph glyph-name="zcaron" unicode="&#x17e;" horiz-adv-x="332" 
d="M24 0v53l207 407h-188v59h264v-49l-209 -412h209v-58h-283zM26 756h52l88 -119l87 119h52l-96 -171h-87z" />
    <glyph glyph-name="uni018F" unicode="&#x18f;" horiz-adv-x="474" 
d="M228 -14q-108 0 -150 80t-42 262v70h319q0 26 -1 50.5t-8 68.5t-19 75.5t-36.5 55.5t-57.5 24q-55 0 -81 -34.5t-39 -97.5h-70q11 87 55 142.5t126 55.5q46 0 81.5 -16.5t57.5 -47.5t36.5 -66t21.5 -80.5t9.5 -82.5t2.5 -81q0 -90 -9.5 -156t-32 -117.5t-63.5 -78
t-100 -26.5zM356 328h-250v-45.5t0.5 -49t3 -45t7 -44.5t13.5 -35.5t22 -31t32.5 -18t44.5 -7.5q127 0 127 276z" />
    <glyph glyph-name="florin" unicode="&#x192;" horiz-adv-x="425" 
d="M19 -165v59q21 -6 38 -6q31 0 46 20q14 19 24 54.5t19 109.5t14 129t15 184h-85v59h91q6 148 42 216.5t112 68.5q22 0 54 -4v-59q-25 8 -49 8q-50 0 -68 -50.5t-25 -179.5h87v-59h-93q-17 -307 -52 -431.5t-125 -124.5q-21 0 -45 6z" />
    <glyph glyph-name="uni01CF" unicode="&#x1cf;" horiz-adv-x="209" 
d="M67 0v723h74v-723h-74zM-36 962h52l88 -119l87 119h52l-96 -171h-87z" />
    <glyph glyph-name="uni01D0" unicode="&#x1d0;" horiz-adv-x="190" 
d="M60 0v519h70v-519h-70zM-45 756h52l88 -119l87 119h52l-96 -171h-87z" />
    <glyph glyph-name="uni01DD" unicode="&#x1dd;" horiz-adv-x="381" 
d="M274 210h-166v-20q0 -74 18.5 -108.5t61.5 -34.5q80 0 86 163zM107 348h-66q4 87 43 135t103 48q81 0 119.5 -67t38.5 -205t-38.5 -205t-119.5 -67q-150 0 -150 240q0 27 1 41h237q-1 106 -20.5 153.5t-67.5 47.5q-75 0 -80 -121z" />
    <glyph glyph-name="Gcaron" unicode="&#x1e6;" horiz-adv-x="479" 
d="M381 0l-8 42q-47 -56 -126 -56q-206 0 -206 366q0 196 50 291t157 95q83 0 131 -60t48 -167h-72q-8 162 -108 162q-71 0 -99.5 -76t-28.5 -243q0 -155 32 -228.5t105 -73.5q49 0 78 36t29 101v85h-105v65h175v-339h-52zM109 962h52l88 -119l87 119h52l-96 -171h-87z" />
    <glyph glyph-name="gcaron" unicode="&#x1e7;" horiz-adv-x="371" 
d="M184 471q-40 0 -56.5 -30t-16.5 -98q0 -67 16.5 -97t56.5 -30q38 0 54 30.5t16 96.5t-16 97t-54 31zM152 30q-37 -14 -54 -32t-17 -45q0 -30 28.5 -48.5t78.5 -18.5q55 0 84.5 17.5t29.5 47.5q0 34 -35.5 52t-114.5 27zM94 192q-45 47 -45 151q0 185 133 185
q67 0 101 -47q37 47 85 47h3v-65q-11 3 -20 3q-25 0 -50 -23q15 -54 15 -112q0 -84 -34.5 -128.5t-97.5 -44.5q-17 0 -44 5q-17 -1 -28.5 -10.5t-11.5 -19.5q0 -25 25 -33q16 -5 59 -12.5t69 -15.5q60 -18 86.5 -44t26.5 -73q0 -56 -49 -91t-132 -35q-82 0 -127 32t-45 87
q0 56 74 102q-52 27 -52 66q0 41 59 76zM45 756h52l88 -119l87 119h52l-96 -171h-87z" />
    <glyph glyph-name="AEacute" unicode="&#x1fc;" horiz-adv-x="677" 
d="M176 276h149l3 381h-12zM-5 0l285 723h370v-66h-251v-250h184v-66h-184v-274h260v-67h-334v208h-176l-82 -208h-72zM371 791l102 171h87l-137 -171h-52z" />
    <glyph glyph-name="aeacute" unicode="&#x1fd;" horiz-adv-x="623" 
d="M280 276q-85 -19 -130.5 -60t-45.5 -95q0 -31 19 -51t50 -20q51 0 107 56v170zM349 309h167q1 10 1 29q0 133 -82 133q-83 0 -86 -162zM311 60q-78 -71 -155 -71q-55 0 -88 37t-33 96q0 76 62 132.5t183 87.5q1 11 1 31q0 49 -18 72.5t-57 23.5q-38 0 -58.5 -23.5
t-29.5 -75.5l-67 11q25 149 158 149q77 0 116 -53q45 54 112 54q149 0 149 -240q0 -27 -1 -41h-237q0 -104 21 -152.5t68 -48.5q75 0 80 121h65q-4 -88 -42.5 -135.5t-102.5 -47.5q-78 0 -126 73zM264 585l102 171h87l-137 -171h-52z" />
    <glyph glyph-name="Scommaaccent" unicode="&#x218;" horiz-adv-x="435" 
d="M36 192h70q7 -139 115 -139q48 0 77 33t29 87t-32.5 94t-107.5 95q-51 37 -77.5 63.5t-44.5 64t-18 84.5q0 69 45.5 116t114.5 47q81 0 127.5 -51.5t49.5 -144.5h-69q-9 134 -105 134q-44 0 -70.5 -27.5t-26.5 -73.5q0 -48 35 -85q17 -18 39 -35.5t51 -39t45 -34.5
q59 -48 86.5 -95.5t27.5 -108.5q0 -86 -49 -138t-129 -52q-86 0 -134 53.5t-49 152.5zM187 -142v89h79v-95l-55 -119h-29l40 125h-35z" />
    <glyph glyph-name="scommaaccent" unicode="&#x219;" horiz-adv-x="376" 
d="M36 126l66 15q7 -45 31.5 -70.5t59.5 -25.5q33 0 54.5 22t21.5 58q0 26 -14 47.5t-29.5 34t-51.5 36.5q-66 45 -94.5 77.5t-28.5 80.5q0 57 37 93.5t92 36.5q115 0 146 -124l-59 -18q-21 85 -84 85q-30 0 -48 -18t-18 -46q0 -22 13.5 -41.5t29.5 -31.5t52 -36t57 -40
q68 -52 68 -131q0 -65 -40.5 -103.5t-109.5 -38.5q-59 0 -100 37t-51 101zM162 -142v89h79v-95l-55 -119h-29l40 125h-35z" />
    <glyph glyph-name="Tcommaaccent" unicode="&#x21a;" horiz-adv-x="382" 
d="M154 0v661h-144v62h363v-62h-146v-661h-73zM155 -142v89h79v-95l-55 -119h-29l40 125h-35z" />
    <glyph glyph-name="tcommaaccent" unicode="&#x21b;" horiz-adv-x="240" 
d="M75 459h-69v60h69v173h68v-173h93v-60h-93v-333q0 -42 9 -59.5t38 -17.5q9 0 46 7v-58q-43 -11 -68 -11q-93 0 -93 101v371zM104 -142v89h79v-95l-55 -119h-29l40 125h-35z" />
    <glyph glyph-name="uni0228" unicode="&#x228;" horiz-adv-x="417" 
d="M65 0v723h325v-67h-251v-249h184v-66h-184v-274h260v-67h-171v-52h11q110 0 110 -86q0 -89 -121 -89q-45 0 -122 20v43q78 -18 120 -18q59 0 59 41q0 48 -67 48q-16 0 -25 -1v94h-128z" />
    <glyph glyph-name="uni0229" unicode="&#x229;" horiz-adv-x="381" 
d="M78 -207v43q78 -18 120 -18q59 0 59 41q0 48 -67 48q-16 0 -25 -1v84q-128 22 -128 269q0 138 38.5 205t119.5 67q150 0 150 -240q0 -27 -1 -41h-237q1 -106 20.5 -153.5t67.5 -47.5q75 0 80 121h66q-4 -86 -41.5 -133.5t-99.5 -49.5v-39h11q110 0 110 -86
q0 -89 -121 -89q-45 0 -122 20zM108 308h166v20q0 74 -18.5 108.5t-61.5 34.5q-80 0 -86 -163z" />
    <glyph glyph-name="uni0237" unicode="&#x237;" horiz-adv-x="190" 
d="M130 -38q0 -74 -20 -105t-75 -31q-15 0 -48 4v57q18 -2 24 -2q32 0 40.5 19.5t8.5 74.5v540h70v-557z" />
    <glyph glyph-name="uni0259" unicode="&#x259;" horiz-adv-x="381" 
d="M274 210h-166v-20q0 -74 18.5 -108.5t61.5 -34.5q80 0 86 163zM107 348h-66q4 87 43 135t103 48q81 0 119.5 -67t38.5 -205t-38.5 -205t-119.5 -67q-150 0 -150 240q0 27 1 41h237q-1 106 -20.5 153.5t-67.5 47.5q-75 0 -80 -121z" />
    <glyph glyph-name="afii57929" unicode="&#x2bc;" horiz-adv-x="213" 
d="M72 634v89h79v-94l-55 -120h-29l41 125h-36z" />
    <glyph glyph-name="circumflex" unicode="&#x2c6;" 
d="M110 585l96 171h87l96 -171h-52l-87 119l-88 -119h-52z" />
    <glyph glyph-name="caron" unicode="&#x2c7;" 
d="M110 756h52l88 -119l87 119h52l-96 -171h-87z" />
    <glyph glyph-name="breve" unicode="&#x2d8;" 
d="M112 737h44q3 -37 25.5 -54t68.5 -17t68.5 17t25.5 54h44q-5 -69 -38.5 -101t-99.5 -32t-100 32.5t-38 100.5z" />
    <glyph glyph-name="dotaccent" unicode="&#x2d9;" 
d="M207 637v90h76v-90h-76z" />
    <glyph glyph-name="ring" unicode="&#x2da;" 
d="M129 697q0 51 35 86t86 35t86 -35t35 -86t-35 -86t-86 -35t-86 35t-35 86zM181 697q0 -29 20 -49.5t49 -20.5t49.5 20.5t20.5 49.5t-20.5 49.5t-49.5 20.5q-30 0 -49.5 -20t-19.5 -50z" />
    <glyph glyph-name="ogonek" unicode="&#x2db;" 
d="M284 0q-67 -61 -67 -109q0 -22 10.5 -31t36.5 -9h40v-63h-39q-108 0 -108 80q0 34 21.5 64t69.5 68h36z" />
    <glyph glyph-name="tilde" unicode="&#x2dc;" 
d="M392 716q-24 -94 -97 -94q-12 0 -32 6l-39 13q-12 4 -26 4q-33 0 -47 -31h-43q21 91 97 91q14 0 29 -5l38 -13q17 -5 30 -5q35 0 47 34h43z" />
    <glyph glyph-name="hungarumlaut" unicode="&#x2dd;" 
d="M157 585l72 171h77l-108 -171h-41zM283 585l82 171h76l-117 -171h-41z" />
    <glyph glyph-name="acutecomb" unicode="&#x301;" horiz-adv-x="2" 
d="M-235 585l102 171h87l-137 -171h-52z" />
    <glyph glyph-name="uni037E" unicode="&#x37e;" horiz-adv-x="236" 
d="M78 273v89h79v-89h-79zM78 2v89h79v-95l-59 -139h-29l43 145h-34z" />
    <glyph glyph-name="tonos" unicode="&#x384;" 
d="M193 573l52 150h87l-87 -150h-52z" />
    <glyph glyph-name="dieresistonos" unicode="&#x385;" 
d="M111 621v82h66v-82h-66zM323 621v82h66v-82h-66zM189 593l52 150h83l-83 -150h-52z" />
    <glyph glyph-name="Alphatonos" unicode="&#x386;" horiz-adv-x="440" 
d="M13 0l157 723h102l158 -723h-78l-42 213h-182l-42 -213h-73zM144 281h151l-76 378zM-24 573l52 150h87l-87 -150h-52z" />
    <glyph glyph-name="anoteleia" unicode="&#x387;" horiz-adv-x="213" 
d="M106 410q21 0 36.5 -15t15.5 -36t-15.5 -36.5t-36.5 -15.5q-22 0 -36.5 15t-14.5 37q0 21 15 36t36 15z" />
    <glyph glyph-name="Epsilontonos" unicode="&#x388;" horiz-adv-x="417" 
d="M65 0v723h325v-67h-251v-249h184v-66h-184v-274h260v-67h-334zM-106 573l52 150h87l-87 -150h-52z" />
    <glyph glyph-name="Etatonos" unicode="&#x389;" horiz-adv-x="488" 
d="M65 0v723h74v-310h210v310h74v-723h-74v344h-210v-344h-74zM-100 573l52 150h87l-87 -150h-52z" />
    <glyph glyph-name="Iotatonos" unicode="&#x38a;" horiz-adv-x="209" 
d="M67 0v723h74v-723h-74zM-100 573l52 150h87l-87 -150h-52z" />
    <glyph glyph-name="Omicrontonos" unicode="&#x38c;" horiz-adv-x="481" 
d="M240 670q-63 0 -92 -71t-29 -220q0 -168 28 -246.5t93 -78.5q64 0 92.5 75t28.5 233t-28.5 233t-92.5 75zM240 -14q-98 0 -148.5 95t-50.5 281q0 375 199 375q98 0 149 -94.5t51 -280.5t-51 -281t-149 -95zM-74 573l52 150h87l-87 -150h-52z" />
    <glyph glyph-name="Upsilontonos" unicode="&#x38e;" horiz-adv-x="377" 
d="M151 0v311l-162 412h77l124 -329l121 329h76l-160 -412v-311h-76zM-166 573l52 150h87l-87 -150h-52z" />
    <glyph glyph-name="Omegatonos" unicode="&#x38f;" horiz-adv-x="486" 
d="M42 0v64h105q-60 55 -82 131.5t-22 201.5q0 157 55 248.5t146 91.5q101 0 150 -89t49 -251q0 -132 -19.5 -206t-83.5 -127h104v-64h-165v62q52 48 69 122t17 207q0 62 -5 108.5t-18 87t-37.5 61.5t-61.5 21q-122 0 -122 -278q0 -133 17 -207t69 -122v-62h-165zM-81 573
l52 150h87l-87 -150h-52z" />
    <glyph glyph-name="iotadieresistonos" unicode="&#x390;" horiz-adv-x="201" 
d="M60 129v390h70v-390q0 -43 6 -61t25 -18q16 0 26 6v-57q-24 -8 -42 -8q-28 0 -46 11t-26 32.5t-10.5 42.5t-2.5 52zM-28 621v82h66v-82h-66zM164 621v82h66v-82h-66zM46 593l38 150h83l-69 -150h-52z" />
    <glyph glyph-name="Alpha" unicode="&#x391;" horiz-adv-x="440" 
d="M13 0l157 723h102l158 -723h-78l-42 213h-182l-42 -213h-73zM144 281h151l-76 378z" />
    <glyph glyph-name="Beta" unicode="&#x392;" horiz-adv-x="475" 
d="M65 0v723h132q68 0 107 -9.5t73 -43.5q43 -43 43 -124q0 -122 -103 -164q119 -43 119 -180q0 -103 -56.5 -152.5t-172.5 -49.5h-142zM139 409h69q141 0 141 132q0 66 -35.5 92t-115.5 26h-59v-250zM139 66h75q77 0 113 33t36 105q0 73 -38 107.5t-117 34.5h-69v-280z" />
    <glyph glyph-name="Gamma" unicode="&#x393;" horiz-adv-x="376" 
d="M69 0v723h302v-69h-227v-654h-75z" />
    <glyph glyph-name="uni0394" unicode="&#x394;" horiz-adv-x="445" 
d="M10 0l161 723h102l162 -723h-425zM96 68h247l-123 591z" />
    <glyph glyph-name="Epsilon" unicode="&#x395;" horiz-adv-x="417" 
d="M65 0v723h325v-67h-251v-249h184v-66h-184v-274h260v-67h-334z" />
    <glyph glyph-name="Zeta" unicode="&#x396;" horiz-adv-x="369" 
d="M358 0h-344v56l262 609h-235v58h317v-50l-264 -607h264v-66z" />
    <glyph glyph-name="Eta" unicode="&#x397;" horiz-adv-x="488" 
d="M65 0v723h74v-310h210v310h74v-723h-74v344h-210v-344h-74z" />
    <glyph glyph-name="Theta" unicode="&#x398;" horiz-adv-x="481" 
d="M240 670q-63 0 -92 -71t-29 -220q0 -168 28 -246.5t93 -78.5q64 0 92.5 75t28.5 233t-28.5 233t-92.5 75zM240 -14q-98 0 -148.5 95t-50.5 281q0 375 199 375q98 0 149 -94.5t51 -280.5t-51 -281t-149 -95zM153 344v68h174v-68h-174z" />
    <glyph glyph-name="Iota" unicode="&#x399;" horiz-adv-x="209" 
d="M67 0v723h74v-723h-74z" />
    <glyph glyph-name="Kappa" unicode="&#x39a;" horiz-adv-x="444" 
d="M64 0v723h75v-386l214 386h74l-144 -255l167 -468h-80l-135 391l-97 -174v-217h-74z" />
    <glyph glyph-name="Lambda" unicode="&#x39b;" horiz-adv-x="429" 
d="M210 657l-127 -657h-73l153 723h102l154 -723h-78l-127 657h-4z" />
    <glyph glyph-name="Mu" unicode="&#x39c;" horiz-adv-x="616" 
d="M64 0v723h115l87 -376q25 -109 40 -220q14 102 41 219l88 377h116v-723h-66v672l-156 -672h-46l-154 672v-672h-65z" />
    <glyph glyph-name="Nu" unicode="&#x39d;" horiz-adv-x="507" 
d="M186 500q-30 81 -55 167v-667h-65v723h108l149 -410q34 -97 59 -180q-6 62 -6 158v432h65v-723h-73z" />
    <glyph glyph-name="Xi" unicode="&#x39e;" horiz-adv-x="422" 
d="M402 0h-382v69h154v277h-97v68h97v241h-145v68h364v-68h-145v-241h97v-68h-97v-277h154v-69z" />
    <glyph glyph-name="Omicron" unicode="&#x39f;" horiz-adv-x="481" 
d="M240 670q-63 0 -92 -71t-29 -220q0 -168 28 -246.5t93 -78.5q64 0 92.5 75t28.5 233t-28.5 233t-92.5 75zM240 -14q-98 0 -148.5 95t-50.5 281q0 375 199 375q98 0 149 -94.5t51 -280.5t-51 -281t-149 -95z" />
    <glyph glyph-name="Pi" unicode="&#x3a0;" horiz-adv-x="488" 
d="M65 0v723h358v-723h-74v654h-210v-654h-74z" />
    <glyph glyph-name="Rho" unicode="&#x3a1;" horiz-adv-x="444" 
d="M65 0v723h121q233 0 233 -196t-233 -196h-47v-331h-74zM139 392h63q147 0 147 131q0 133 -147 133h-63v-264z" />
    <glyph glyph-name="Sigma" unicode="&#x3a3;" horiz-adv-x="378" 
d="M364 0h-346v59l166 325l-155 283v56h335v-67h-248l147 -271l-160 -316h261v-69z" />
    <glyph glyph-name="Tau" unicode="&#x3a4;" horiz-adv-x="382" 
d="M154 0v661h-144v62h363v-62h-146v-661h-73z" />
    <glyph glyph-name="Upsilon" unicode="&#x3a5;" horiz-adv-x="377" 
d="M151 0v311l-162 412h77l124 -329l121 329h76l-160 -412v-311h-76z" />
    <glyph glyph-name="Phi" unicode="&#x3a6;" horiz-adv-x="626" 
d="M276 723h74v-62q63 0 110 -25t73 -68t38.5 -94.5t12.5 -111.5q0 -57 -12.5 -106.5t-39 -92t-73 -67t-109.5 -24.5v-72h-74v72q-63 0 -109.5 24.5t-73 67t-39 92t-12.5 106.5q0 60 12.5 111.5t38.5 94.5t73 68t110 25v62zM276 138v457q-160 -4 -160 -231q0 -41 6.5 -77
t23 -71.5t50 -56.5t80.5 -21zM350 595v-457q47 0 80.5 21t50 56.5t23 71.5t6.5 77q0 227 -160 231z" />
    <glyph glyph-name="Chi" unicode="&#x3a7;" horiz-adv-x="382" 
d="M-11 0l155 383l-147 340h79l107 -264l106 264h76l-139 -339l168 -384h-83l-125 307l-121 -307h-76z" />
    <glyph glyph-name="Psi" unicode="&#x3a8;" horiz-adv-x="602" 
d="M542 723v-328q0 -74 -18.5 -127.5t-50.5 -80t-65 -38t-70 -11.5v-138h-74v138q-37 0 -70 11.5t-65 38t-50.5 80t-18.5 127.5v328h74v-281q0 -37 1 -60.5t5 -54t12.5 -49t22 -36.5t36.5 -26.5t53 -9.5v517h74v-517q30 1 53 9.5t36.5 26.5t22 36.5t12.5 49t5 54t1 60.5v281
h74z" />
    <glyph glyph-name="uni03A9" unicode="&#x3a9;" horiz-adv-x="486" 
d="M42 0v64h105q-60 55 -82 131.5t-22 201.5q0 157 55 248.5t146 91.5q101 0 150 -89t49 -251q0 -132 -19.5 -206t-83.5 -127h104v-64h-165v62q52 48 69 122t17 207q0 62 -5 108.5t-18 87t-37.5 61.5t-61.5 21q-122 0 -122 -278q0 -133 17 -207t69 -122v-62h-165z" />
    <glyph glyph-name="Iotadieresis" unicode="&#x3aa;" horiz-adv-x="209" 
d="M67 0v723h74v-723h-74zM-7 894h74v-94h-74v94zM143 894h74v-94h-74v94z" />
    <glyph glyph-name="Upsilondieresis" unicode="&#x3ab;" horiz-adv-x="377" 
d="M151 0v311l-162 412h77l124 -329l121 329h76l-160 -412v-311h-76zM79 894h74v-94h-74v94zM229 894h74v-94h-74v94z" />
    <glyph glyph-name="alphatonos" unicode="&#x3ac;" horiz-adv-x="407" 
d="M279 127v270q-32 72 -88 72q-48 0 -66 -52t-18 -160q0 -206 82 -206q59 0 90 76zM347 0h-68v53q-16 -29 -43.5 -47t-57.5 -18q-59 0 -101 61.5t-42 205.5q0 276 147 276q58 0 97 -60v48h68v-519zM195 573l52 150h87l-87 -150h-52z" />
    <glyph glyph-name="epsilontonos" unicode="&#x3ad;" horiz-adv-x="384" 
d="M282 146h68q-10 -84 -47.5 -121.5t-109.5 -37.5q-67 0 -111 39.5t-44 116.5q0 114 97 131v4q-85 28 -85 117q0 70 38.5 102.5t102.5 32.5q137 0 154 -143h-64q-12 84 -86 84q-38 0 -56.5 -22t-18.5 -56q0 -90 95 -90h33v-60h-30q-108 0 -108 -98t89 -98q78 0 83 99z
M149 573l52 150h87l-87 -150h-52z" />
    <glyph glyph-name="etatonos" unicode="&#x3ae;" horiz-adv-x="413" 
d="M62 0v519h69v-54q60 67 123 67q100 0 100 -134v-572h-69v549q0 53 -12 74.5t-46 21.5q-55 0 -96 -68v-403h-69zM132 573l52 150h87l-87 -150h-52z" />
    <glyph glyph-name="iotatonos" unicode="&#x3af;" horiz-adv-x="201" 
d="M60 129v390h70v-390q0 -43 6 -61t25 -18q16 0 26 6v-57q-24 -8 -42 -8q-28 0 -46 11t-26 32.5t-10.5 42.5t-2.5 52zM56 573l52 150h87l-87 -150h-52z" />
    <glyph glyph-name="upsilondieresistonos" unicode="&#x3b0;" horiz-adv-x="415" 
d="M355 519v-316q0 -117 -36.5 -164.5t-111.5 -47.5q-74 0 -110.5 47.5t-36.5 164.5v316h69v-316q0 -83 15.5 -116.5t62.5 -33.5t62.5 33.5t15.5 116.5v316h70zM68 621v82h66v-82h-66zM280 621v82h66v-82h-66zM146 593l52 150h83l-83 -150h-52z" />
    <glyph glyph-name="alpha" unicode="&#x3b1;" horiz-adv-x="407" 
d="M279 127v270q-32 72 -88 72q-48 0 -66 -52t-18 -160q0 -206 82 -206q59 0 90 76zM347 0h-68v53q-16 -29 -43.5 -47t-57.5 -18q-59 0 -101 61.5t-42 205.5q0 276 147 276q58 0 97 -60v48h68v-519z" />
    <glyph glyph-name="beta" unicode="&#x3b2;" horiz-adv-x="430" 
d="M318 194q0 91 -25 129t-93 38h-26v60h21q52 0 76 29t24 94q0 122 -78 122q-83 0 -83 -120v-403q41 -92 112 -92q72 0 72 143zM390 198q0 -207 -137 -207q-77 0 -119 64v-229h-70v703q0 197 144 197q72 0 113.5 -46.5t41.5 -133.5q0 -57 -23.5 -96t-65.5 -53
q63 -19 89.5 -66t26.5 -133z" />
    <glyph glyph-name="gamma" unicode="&#x3b3;" horiz-adv-x="379" 
d="M154 -174v174l-138 519h70l105 -425l108 425h65l-140 -519v-174h-70z" />
    <glyph glyph-name="delta" unicode="&#x3b4;" horiz-adv-x="382" 
d="M347 245q0 -258 -156 -258t-156 258q0 192 111 231q-70 55 -70 136q0 47 34 82t102 35q50 0 90 -6v-62q-38 10 -90 10q-38 0 -51 -16.5t-13 -43.5q0 -64 81 -118q26 -18 42 -32.5t36 -42.5t30 -71.5t10 -101.5zM275 245q0 89 -18 129.5t-65 65.5q-85 -24 -85 -195
q0 -36 2 -63t9.5 -61t26 -53t46.5 -19t46.5 19t26 53t9.5 61t2 63z" />
    <glyph glyph-name="epsilon" unicode="&#x3b5;" horiz-adv-x="384" 
d="M282 146h68q-10 -84 -47.5 -121.5t-109.5 -37.5q-67 0 -111 39.5t-44 116.5q0 114 97 131v4q-85 28 -85 117q0 70 38.5 102.5t102.5 32.5q137 0 154 -143h-64q-12 84 -86 84q-38 0 -56.5 -22t-18.5 -56q0 -90 95 -90h33v-60h-30q-108 0 -108 -98t89 -98q78 0 83 99z" />
    <glyph glyph-name="zeta" unicode="&#x3b6;" horiz-adv-x="342" 
d="M342 723v-46q-99 -95 -166 -225t-67 -235q0 -113 88 -155l45 -21q27 -12 39 -18.5t29.5 -19t24.5 -28t7 -35.5q0 -43 -66 -121l-55 37q51 57 51 79q0 28 -45 49l-51 24q-46 22 -74 45t-46.5 63.5t-18.5 97.5q0 104 69 236t153 213h-212v60h295z" />
    <glyph glyph-name="eta" unicode="&#x3b7;" horiz-adv-x="413" 
d="M62 0v519h69v-54q60 67 123 67q100 0 100 -134v-572h-69v549q0 53 -12 74.5t-46 21.5q-55 0 -96 -68v-403h-69z" />
    <glyph glyph-name="theta" unicode="&#x3b8;" horiz-adv-x="386" 
d="M274 344h-162q0 -167 14 -231t67 -64t67 64t14 231zM113 404h160q-2 153 -17.5 208.5t-62.5 55.5t-61.5 -54t-18.5 -210zM348 357q0 -62 -1.5 -102t-6 -87.5t-15 -76t-27.5 -54.5t-43 -38t-62 -12q-31 0 -54.5 10t-39.5 26t-27.5 43.5t-18 55t-10 70t-4.5 78t-1 87.5
q0 61 1.5 102t6.5 88t15.5 76.5t27 56t43 38.5t61.5 12t61.5 -12t43 -38.5t27 -56t15.5 -76.5t6.5 -88t1.5 -102z" />
    <glyph glyph-name="iota" unicode="&#x3b9;" horiz-adv-x="201" 
d="M60 129v390h70v-390q0 -43 6 -61t25 -18q16 0 26 6v-57q-24 -8 -42 -8q-28 0 -46 11t-26 32.5t-10.5 42.5t-2.5 52z" />
    <glyph glyph-name="kappa" unicode="&#x3ba;" horiz-adv-x="375" 
d="M130 276l148 243h74l-108 -177l117 -342h-74l-87 270l-70 -114v-156h-70v519h70v-243z" />
    <glyph glyph-name="lambda" unicode="&#x3bb;" horiz-adv-x="347" 
d="M90 0h-72l132 533q-6 30 -9 42.5t-11 35t-16 32t-22 18t-33 8.5q-14 0 -28 -4v64q16 4 32 4q69 0 98.5 -43t54.5 -153l121 -537h-69l-88 411z" />
    <glyph glyph-name="uni03BC" unicode="&#x3bc;" horiz-adv-x="416" 
d="M354 0h-70v58q-53 -70 -99 -70q-35 0 -53 28v-190h-70v693h70v-328q0 -139 61 -139q50 0 91 75v392h70v-519z" />
    <glyph glyph-name="nu" unicode="&#x3bd;" horiz-adv-x="379" 
d="M143 0l-127 519h70l105 -445l108 445h65l-128 -519h-93z" />
    <glyph glyph-name="xi" unicode="&#x3be;" horiz-adv-x="342" 
d="M136 550q0 -43 8.5 -71t25.5 -39.5t31.5 -15t37.5 -3.5h38v-60h-38q-59 0 -93 -28.5t-34 -111.5q0 -65 19.5 -100.5t60.5 -54.5l42 -20q28 -13 42.5 -21.5t32.5 -21.5t25.5 -27.5t7.5 -32.5q0 -14 -3.5 -27t-12.5 -28.5t-13.5 -22t-19.5 -25.5t-17 -21l-54 37
q50 61 50 80q0 28 -47 49l-42 19q-47 21 -75.5 43.5t-48 65.5t-19.5 105q0 80 35.5 125t90.5 52q-50 16 -74 51.5t-24 106.5q0 75 36 124t104 49q65 0 97 -37t37 -96h-65q-5 42 -22 57.5t-47 15.5q-72 0 -72 -116z" />
    <glyph glyph-name="omicron" unicode="&#x3bf;" horiz-adv-x="382" 
d="M35 259q0 138 38.5 205t119.5 67q154 0 154 -272t-154 -272q-81 0 -119.5 67t-38.5 205zM106 259q0 -111 19 -160.5t67 -49.5q44 0 63.5 51t19.5 159q0 109 -19.5 160t-63.5 51q-48 0 -67 -50t-19 -161z" />
    <glyph glyph-name="pi" unicode="&#x3c0;" horiz-adv-x="435" 
d="M429 519v-60h-64v-459h-70v459h-156v-459h-70v459h-63v60h423z" />
    <glyph glyph-name="rho" unicode="&#x3c1;" horiz-adv-x="400" 
d="M294 252q0 44 -2 73.5t-9 67.5t-25.5 58t-46.5 20q-29 0 -47.5 -16.5t-27 -48.5t-11 -63t-2.5 -77v-141q14 -34 40 -55.5t48 -21.5q83 0 83 204zM366 251q0 -49 -6.5 -92t-21 -83.5t-44 -64t-70.5 -23.5q-59 0 -101 57v-219h-70v440q0 78 12.5 132t36 82t50.5 39.5
t63 11.5q151 0 151 -280z" />
    <glyph glyph-name="sigma1" unicode="&#x3c2;" horiz-adv-x="372" 
d="M337 370h-65q0 40 -17.5 70.5t-58.5 30.5q-28 0 -47 -17t-27.5 -48t-11.5 -60.5t-3 -68.5q0 -51 5.5 -87.5t13 -58t24.5 -37.5t30 -23t38 -18q67 -29 95.5 -50.5t28.5 -57.5q0 -14 -2.5 -26.5t-11.5 -27.5t-12.5 -20.5t-19.5 -26t-20 -25.5l-54 37q50 63 50 79
q0 19 -23 35t-79 40q-70 30 -101.5 83t-31.5 168q0 143 40 206.5t123 63.5q61 0 97.5 -46t39.5 -115z" />
    <glyph glyph-name="sigma" unicode="&#x3c3;" horiz-adv-x="386" 
d="M192 459q-29 0 -47 -15t-26 -46t-10 -59.5t-2 -75.5q0 -45 3 -78t11 -67.5t26 -52.5t45 -18q19 0 33.5 8t23.5 25.5t14.5 35.5t8 46t3 48.5t0.5 52.5q0 31 -0.5 50.5t-3 45.5t-8 41.5t-14.5 30t-23.5 21.5t-33.5 7zM382 459l-95 2q61 -49 61 -198q0 -141 -37.5 -208.5
t-118.5 -67.5t-119 67.5t-38 208.5q0 136 40 196t117 60h190v-60z" />
    <glyph glyph-name="tau" unicode="&#x3c4;" horiz-adv-x="338" 
d="M328 459h-129v-320q0 -46 8.5 -67.5t36.5 -21.5q22 0 34 6v-57q-24 -8 -50 -8q-24 0 -41.5 6t-28 20t-17 27t-9 38.5t-3 42.5t-0.5 49v285h-123v60h322v-60z" />
    <glyph glyph-name="upsilon" unicode="&#x3c5;" horiz-adv-x="415" 
d="M355 519v-316q0 -117 -36.5 -164.5t-111.5 -47.5q-74 0 -110.5 47.5t-36.5 164.5v316h69v-316q0 -83 15.5 -116.5t62.5 -33.5t62.5 33.5t15.5 116.5v316h70z" />
    <glyph glyph-name="phi" unicode="&#x3c6;" horiz-adv-x="549" 
d="M441 257q0 94 -31.5 154t-100.5 60v-423q132 4 132 209zM513 257q0 -73 -18 -130.5t-65.5 -97.5t-120.5 -42v-161h-68v161q-72 2 -120 42.5t-66.5 98t-18.5 129.5q0 100 37 172.5t96 97.5l36 -54q-97 -53 -97 -216q0 -55 10 -98t41.5 -76.5t81.5 -34.5v482h58
q60 0 103.5 -23t66.5 -63t33.5 -86t10.5 -101z" />
    <glyph glyph-name="chi" unicode="&#x3c7;" horiz-adv-x="323" 
d="M3 0l120 263l-117 256h72l78 -182l84 182h66l-113 -247l130 -272h-73l-89 199l-92 -199h-66z" />
    <glyph glyph-name="psi" unicode="&#x3c8;" horiz-adv-x="574" 
d="M514 519v-316q0 -212 -193 -212v-165h-68v165q-193 0 -193 212v316h70v-316q0 -146 123 -146v502h68v-502q123 0 123 146v316h70z" />
    <glyph glyph-name="omega" unicode="&#x3c9;" horiz-adv-x="570" 
d="M522 234q0 -243 -133 -243q-71 0 -104 70q-33 -70 -103 -70q-134 0 -134 243q0 142 34.5 212.5t105.5 83.5v-65q-36 -15 -52 -67.5t-16 -153.5q0 -100 14 -146.5t54 -46.5q28 0 45 26t17 67v197h70v-197q0 -41 17 -67t45 -26q41 0 54.5 46t13.5 147t-16 153.5t-52 67.5
v65q71 -13 105.5 -83.5t34.5 -212.5z" />
    <glyph glyph-name="iotadieresis" unicode="&#x3ca;" horiz-adv-x="201" 
d="M60 129v390h70v-390q0 -43 6 -61t25 -18q16 0 26 6v-57q-24 -8 -42 -8q-28 0 -46 11t-26 32.5t-10.5 42.5t-2.5 52zM6 641v82h66v-82h-66zM130 641v82h66v-82h-66z" />
    <glyph glyph-name="upsilondieresis" unicode="&#x3cb;" horiz-adv-x="415" 
d="M355 519v-316q0 -117 -36.5 -164.5t-111.5 -47.5q-74 0 -110.5 47.5t-36.5 164.5v316h69v-316q0 -83 15.5 -116.5t62.5 -33.5t62.5 33.5t15.5 116.5v316h70zM99 641v82h70v-82h-70zM247 641v82h70v-82h-70z" />
    <glyph glyph-name="omicrontonos" unicode="&#x3cc;" horiz-adv-x="382" 
d="M35 259q0 138 38.5 205t119.5 67q154 0 154 -272t-154 -272q-81 0 -119.5 67t-38.5 205zM106 259q0 -111 19 -160.5t67 -49.5q44 0 63.5 51t19.5 159q0 109 -19.5 160t-63.5 51q-48 0 -67 -50t-19 -161zM137 573l52 150h87l-87 -150h-52z" />
    <glyph glyph-name="upsilontonos" unicode="&#x3cd;" horiz-adv-x="415" 
d="M355 519v-316q0 -117 -36.5 -164.5t-111.5 -47.5q-74 0 -110.5 47.5t-36.5 164.5v316h69v-316q0 -83 15.5 -116.5t62.5 -33.5t62.5 33.5t15.5 116.5v316h70zM163 573l52 150h87l-87 -150h-52z" />
    <glyph glyph-name="omegatonos" unicode="&#x3ce;" horiz-adv-x="570" 
d="M522 234q0 -243 -133 -243q-71 0 -104 70q-33 -70 -103 -70q-134 0 -134 243q0 142 34.5 212.5t105.5 83.5v-65q-36 -15 -52 -67.5t-16 -153.5q0 -100 14 -146.5t54 -46.5q28 0 45 26t17 67v197h70v-197q0 -41 17 -67t45 -26q41 0 54.5 46t13.5 147t-16 153.5t-52 67.5
v65q71 -13 105.5 -83.5t34.5 -212.5zM250 573l52 150h87l-87 -150h-52z" />
    <glyph glyph-name="afii10023" unicode="&#x401;" horiz-adv-x="417" 
d="M65 0v723h325v-67h-251v-249h184v-66h-184v-274h260v-67h-334zM116 894h74v-94h-74v94zM266 894h74v-94h-74v94z" />
    <glyph glyph-name="afii10051" unicode="&#x402;" horiz-adv-x="554" 
d="M10 723h363v-62h-155v-265q45 27 109 27q100 0 144.5 -64t44.5 -162q0 -88 -40.5 -146.5t-123.5 -58.5q-38 0 -72 12l14 69q23 -13 54 -13q34 0 56 24.5t30 54.5t8 62q0 69 -30.5 112.5t-98.5 43.5q-57 0 -95 -37v-320h-74v661h-134v62z" />
    <glyph glyph-name="afii10052" unicode="&#x403;" horiz-adv-x="376" 
d="M69 0v723h302v-69h-227v-654h-75zM173 791l102 171h87l-137 -171h-52z" />
    <glyph glyph-name="afii10053" unicode="&#x404;" horiz-adv-x="474" 
d="M368 208l70 -7q-4 -98 -54 -156.5t-128 -58.5q-63 0 -105.5 26.5t-66 78.5t-33.5 117.5t-10 155.5q0 44 2.5 81t9.5 82.5t21.5 80.5t36.5 66t57.5 47.5t81.5 16.5q83 0 127.5 -57t53.5 -147l-70 -8q-6 33 -12 53.5t-18.5 44.5t-35 36t-54.5 12q-33 0 -57.5 -23t-36.5 -53
t-19 -72t-8 -66.5t-1 -49.5h205v-70h-206q0 -286 137 -286q34 0 58 16.5t35 43t15.5 50t4.5 46.5z" />
    <glyph glyph-name="afii10054" unicode="&#x405;" horiz-adv-x="435" 
d="M36 192h70q7 -139 115 -139q48 0 77 33t29 87t-32.5 94t-107.5 95q-51 37 -77.5 63.5t-44.5 64t-18 84.5q0 69 45.5 116t114.5 47q81 0 127.5 -51.5t49.5 -144.5h-69q-9 134 -105 134q-44 0 -70.5 -27.5t-26.5 -73.5q0 -48 35 -85q17 -18 39 -35.5t51 -39t45 -34.5
q59 -48 86.5 -95.5t27.5 -108.5q0 -86 -49 -138t-129 -52q-86 0 -134 53.5t-49 152.5z" />
    <glyph glyph-name="afii10055" unicode="&#x406;" horiz-adv-x="209" 
d="M67 0v723h74v-723h-74z" />
    <glyph glyph-name="afii10056" unicode="&#x407;" horiz-adv-x="209" 
d="M67 0v723h74v-723h-74zM-8 894h74v-94h-74v94zM142 894h74v-94h-74v94z" />
    <glyph glyph-name="afii10057" unicode="&#x408;" horiz-adv-x="269" 
d="M206 241v-50q0 -103 -21 -141q-37 -65 -133 -65q-28 0 -58 6l3 69q31 -10 62 -10q21 0 35 7t22 17t11.5 32.5t4.5 41.5t1 55v520h73v-482z" />
    <glyph glyph-name="afii10058" unicode="&#x409;" horiz-adv-x="768" 
d="M369 0v653h-164q-1 -130 -12 -337q-7 -132 -23 -191q-14 -52 -50 -90t-89 -38q-13 0 -26 3v71q3 0 9 -1t8 -1q32 0 54 27.5t30 61.5q13 60 22 222q5 111 12 343h303v-298h106q90 0 136 -59t46 -157q0 -100 -50 -154.5t-143 -54.5h-169zM443 66h83q66 0 98 34t32 113
q0 62 -34.5 103.5t-92.5 41.5h-86v-292z" />
    <glyph glyph-name="afii10059" unicode="&#x40a;" horiz-adv-x="748" 
d="M349 0v350h-210v-350h-74v723h74v-304h210v304h74v-304h106q91 0 136.5 -57t45.5 -155q0 -99 -50 -153t-143 -54h-169zM423 66h83q67 0 98.5 33t31.5 112q0 61 -34 100t-93 39h-86v-284z" />
    <glyph glyph-name="afii10060" unicode="&#x40b;" horiz-adv-x="540" 
d="M373 723v-62h-155v-255q63 19 134 19q136 0 136 -132v-293h-74v280q0 40 -15 59.5t-58 19.5q-60 0 -123 -18v-341h-74v661h-134v62h363z" />
    <glyph glyph-name="afii10061" unicode="&#x40c;" horiz-adv-x="458" 
d="M139 723v-316h55q55 0 73 25.5t22 94.5q5 87 10 113q19 90 95 90q20 0 32 -5v-69q-4 1 -13 1q-27 0 -37 -17.5t-13 -48.5q-1 -11 -4 -50.5t-7 -71.5q-10 -81 -74 -92v-3q65 -6 87 -72q10 -28 16 -137q1 -22 2 -30.5t4 -24t7.5 -21.5t13.5 -11.5t22 -5.5q12 0 18 1v-69
q-15 -8 -36 -8q-40 0 -64 25t-31 66q-9 54 -11 111q-2 76 -24.5 107.5t-85.5 31.5h-57v-337h-74v723h74zM183 791l102 171h87l-137 -171h-52z" />
    <glyph glyph-name="afii10062" unicode="&#x40e;" horiz-adv-x="384" 
d="M12 -4v68q26 -7 53 -7q49 0 76 40q19 27 34 74l-182 552h80l132 -440l115 440h74l-137 -491q-38 -139 -68 -184q-40 -62 -117 -62q-22 0 -60 10zM256 907h68q0 -60 -36 -96.5t-91 -36.5t-91 36.5t-36 96.5h68q0 -33 14.5 -55t44.5 -22t44.5 22t14.5 55z" />
    <glyph glyph-name="afii10145" unicode="&#x40f;" horiz-adv-x="488" 
d="M65 0v723h74v-653h210v653h74v-723h-142v-166h-74v166h-142z" />
    <glyph glyph-name="afii10017" unicode="&#x410;" horiz-adv-x="440" 
d="M13 0l157 723h102l158 -723h-78l-42 213h-182l-42 -213h-73zM144 281h151l-76 378z" />
    <glyph glyph-name="afii10018" unicode="&#x411;" horiz-adv-x="476" 
d="M65 0v723h325v-66h-251v-242h105q91 0 142 -55t51 -153q0 -207 -204 -207h-168zM139 66h93q131 0 131 139q0 77 -33 110.5t-97 33.5h-94v-283z" />
    <glyph glyph-name="afii10019" unicode="&#x412;" horiz-adv-x="475" 
d="M65 0v723h132q68 0 107 -9.5t73 -43.5q43 -43 43 -124q0 -122 -103 -164q119 -43 119 -180q0 -103 -56.5 -152.5t-172.5 -49.5h-142zM139 409h69q141 0 141 132q0 66 -35.5 92t-115.5 26h-59v-250zM139 66h75q77 0 113 33t36 105q0 73 -38 107.5t-117 34.5h-69v-280z" />
    <glyph glyph-name="afii10020" unicode="&#x413;" horiz-adv-x="376" 
d="M69 0v723h302v-69h-227v-654h-75z" />
    <glyph glyph-name="afii10021" unicode="&#x414;" 
d="M420 -166v166h-352v-166h-72v236h47q37 65 54 124q26 83 37 229q7 82 9 300h291v-653h58v-236h-72zM122 70h238v583h-152q0 -226 -26 -371q-24 -132 -60 -212z" />
    <glyph glyph-name="afii10022" unicode="&#x415;" horiz-adv-x="417" 
d="M65 0v723h325v-67h-251v-249h184v-66h-184v-274h260v-67h-334z" />
    <glyph glyph-name="afii10024" unicode="&#x416;" horiz-adv-x="648" 
d="M361 723v-316h21q58 0 75.5 26t20.5 94q5 87 10 113q19 90 96 90q20 0 32 -5v-69q-5 1 -15 1q-44 0 -48 -63q-3 -62 -11 -125q-5 -38 -24 -63t-50 -29v-3q62 -6 87 -72q7 -18 9.5 -34t3.5 -48.5t3 -54.5q1 -6 2 -19.5t1.5 -18t2 -15t3.5 -14.5t6 -10.5t8.5 -9t12 -4.5
t16.5 -2q10 0 15 1v-69q-15 -8 -36 -8q-76 0 -96 91q-3 16 -11 111q-2 28 -4 42t-6 33t-11 28t-18.5 19t-29.5 13.5t-42 3.5h-23v-337h-74v337h-23q-24 0 -42 -3.5t-29.5 -13.5t-18.5 -19t-11 -28t-6 -33t-4 -42q-8 -95 -11 -111q-20 -91 -96 -91q-21 0 -36 8v69q5 -1 15 -1
q9 0 16.5 2t12 4.5t8.5 9t6 10.5t3.5 14.5t2 15t1.5 18t2 19.5q2 22 3 54.5t3.5 48.5t9.5 34q25 66 87 72v3q-31 4 -50 29t-24 63q-8 63 -11 125q-4 63 -50 63q-9 0 -13 -1v69q12 5 32 5q77 0 96 -90q5 -26 10 -113q3 -68 20.5 -94t75.5 -26h21v316h74z" />
    <glyph glyph-name="afii10025" unicode="&#x417;" horiz-adv-x="468" 
d="M36 192h70q3 -61 32 -100.5t87 -39.5q65 0 97 42t32 104q0 72 -33.5 107.5t-105.5 35.5h-48v70h48q118 0 119 140q0 51 -26.5 86t-81.5 35q-49 0 -77.5 -35.5t-33.5 -95.5h-70q2 91 50 144t142 53q80 0 125.5 -48.5t45.5 -136.5q0 -74 -29.5 -118t-83.5 -54v-2
q133 -20 133 -178q0 -99 -53 -157t-149 -58q-172 0 -190 206z" />
    <glyph glyph-name="afii10026" unicode="&#x418;" horiz-adv-x="508" 
d="M65 0v723h74v-469l-4 -71l19 47l215 454v39h74v-723h-74v474l4 71l-18 -50l-216 -452v-43h-74z" />
    <glyph glyph-name="afii10027" unicode="&#x419;" horiz-adv-x="508" 
d="M65 0v723h74v-469l-4 -71l19 47l215 454v39h74v-723h-74v474l4 71l-18 -50l-216 -452v-43h-74zM316 907h68q0 -60 -36 -96.5t-91 -36.5t-91 36.5t-36 96.5h68q0 -33 14.5 -55t44.5 -22t44.5 22t14.5 55z" />
    <glyph glyph-name="afii10028" unicode="&#x41a;" horiz-adv-x="458" 
d="M139 723v-316h55q55 0 73 25.5t22 94.5q5 87 10 113q19 90 95 90q20 0 32 -5v-69q-4 1 -13 1q-27 0 -37 -17.5t-13 -48.5q-1 -11 -4 -50.5t-7 -71.5q-10 -81 -74 -92v-3q65 -6 87 -72q10 -28 16 -137q1 -22 2 -30.5t4 -24t7.5 -21.5t13.5 -11.5t22 -5.5q12 0 18 1v-69
q-15 -8 -36 -8q-40 0 -64 25t-31 66q-9 54 -11 111q-2 76 -24.5 107.5t-85.5 31.5h-57v-337h-74v723h74z" />
    <glyph glyph-name="afii10029" unicode="&#x41b;" horiz-adv-x="508" 
d="M369 0v653h-164q-1 -130 -12 -337q-7 -132 -23 -191q-14 -52 -50 -90t-89 -38q-13 0 -26 3v71q3 0 9 -1t8 -1q32 0 54 27.5t30 61.5q13 60 22 222q5 111 12 343h303v-723h-74z" />
    <glyph glyph-name="afii10030" unicode="&#x41c;" horiz-adv-x="616" 
d="M64 0v723h115l87 -376q25 -109 40 -220q14 102 41 219l88 377h116v-723h-66v672l-156 -672h-46l-154 672v-672h-65z" />
    <glyph glyph-name="afii10031" unicode="&#x41d;" horiz-adv-x="488" 
d="M65 0v723h74v-310h210v310h74v-723h-74v344h-210v-344h-74z" />
    <glyph glyph-name="afii10032" unicode="&#x41e;" horiz-adv-x="481" 
d="M240 670q-63 0 -92 -71t-29 -220q0 -168 28 -246.5t93 -78.5q64 0 92.5 75t28.5 233t-28.5 233t-92.5 75zM240 -14q-98 0 -148.5 95t-50.5 281q0 375 199 375q98 0 149 -94.5t51 -280.5t-51 -281t-149 -95z" />
    <glyph glyph-name="afii10033" unicode="&#x41f;" horiz-adv-x="488" 
d="M65 0v723h358v-723h-74v654h-210v-654h-74z" />
    <glyph glyph-name="afii10034" unicode="&#x420;" horiz-adv-x="444" 
d="M65 0v723h121q233 0 233 -196t-233 -196h-47v-331h-74zM139 392h63q147 0 147 131q0 133 -147 133h-63v-264z" />
    <glyph glyph-name="afii10035" unicode="&#x421;" horiz-adv-x="464" 
d="M434 237v-16q0 -113 -49.5 -174t-139.5 -61q-204 0 -204 366q0 196 50 291t157 95q83 0 131 -60t48 -167h-72q-8 162 -108 162q-70 0 -99.5 -75.5t-29.5 -238.5q0 -160 32.5 -233.5t108.5 -73.5q50 0 79 44.5t29 125.5v15h67z" />
    <glyph glyph-name="afii10036" unicode="&#x422;" horiz-adv-x="382" 
d="M154 0v661h-144v62h363v-62h-146v-661h-73z" />
    <glyph glyph-name="afii10037" unicode="&#x423;" horiz-adv-x="384" 
d="M12 -4v68q26 -7 53 -7q49 0 76 40q19 27 34 74l-182 552h80l132 -440l115 440h74l-137 -491q-38 -139 -68 -184q-40 -62 -117 -62q-22 0 -60 10z" />
    <glyph glyph-name="afii10038" unicode="&#x424;" horiz-adv-x="626" 
d="M276 744h74v-88q63 0 110 -23t73 -64t38.5 -90.5t12.5 -109.5q0 -120 -56.5 -199t-177.5 -79v-91h-74v91q-121 0 -177.5 79t-56.5 199q0 60 12.5 109.5t38.5 90.5t73 64t110 23v88zM276 157v433q-160 -4 -160 -219q0 -214 160 -214zM350 590v-433q160 0 160 214
q0 215 -160 219z" />
    <glyph glyph-name="afii10039" unicode="&#x425;" horiz-adv-x="382" 
d="M-11 0l155 383l-147 340h79l107 -264l106 264h76l-139 -339l168 -384h-83l-125 307l-121 -307h-76z" />
    <glyph glyph-name="afii10040" unicode="&#x426;" horiz-adv-x="490" 
d="M65 0v723h74v-653h210v653h74v-653h58v-236h-72v166h-344z" />
    <glyph glyph-name="afii10041" unicode="&#x427;" horiz-adv-x="460" 
d="M321 0v317q-63 -19 -133 -19q-136 0 -136 132v293h74v-280q0 -40 15 -59.5t58 -19.5q59 0 122 18v341h74v-723h-74z" />
    <glyph glyph-name="afii10042" unicode="&#x428;" horiz-adv-x="710" 
d="M65 0v723h74v-653h179v653h74v-653h179v653h74v-723h-580z" />
    <glyph glyph-name="afii10043" unicode="&#x429;" horiz-adv-x="710" 
d="M65 0v723h74v-653h178v653h74v-653h178v653h74v-653h58v-236h-72v166h-564z" />
    <glyph glyph-name="afii10044" unicode="&#x42a;" horiz-adv-x="552" 
d="M143 0v661h-134v62h208v-298h116q90 0 136 -59t46 -157q0 -100 -50 -154.5t-143 -54.5h-179zM217 66h93q66 0 98 34t32 113q0 62 -34.5 103.5t-92.5 41.5h-96v-292z" />
    <glyph glyph-name="afii10045" unicode="&#x42b;" horiz-adv-x="616" 
d="M65 0v723h74v-298h106q90 0 136 -59t46 -157q0 -100 -50 -154.5t-143 -54.5h-169zM139 66h83q66 0 98 34t32 113q0 62 -34.5 103.5t-92.5 41.5h-86v-292zM477 0v723h74v-723h-74z" />
    <glyph glyph-name="afii10046" unicode="&#x42c;" horiz-adv-x="474" 
d="M65 0v723h74v-298h116q90 0 136 -59t46 -157q0 -100 -50 -154.5t-143 -54.5h-179zM139 66h93q66 0 98 34t32 113q0 62 -34.5 103.5t-92.5 41.5h-96v-292z" />
    <glyph glyph-name="afii10047" unicode="&#x42d;" horiz-adv-x="474" 
d="M36 195h70q1 -22 6.5 -44t17.5 -46t35 -38.5t54 -14.5q137 0 137 286h-206v70h205q0 25 -1 49.5t-8 66.5t-19 72t-36.5 53t-57.5 23q-55 0 -81 -34.5t-39 -97.5h-70q11 87 55 142.5t126 55.5q46 0 81.5 -16.5t57.5 -47.5t36.5 -66t21.5 -80.5t9.5 -82.5t2.5 -81
q0 -90 -10 -155.5t-33.5 -117.5t-66 -78.5t-105.5 -26.5q-76 0 -126 56.5t-56 152.5z" />
    <glyph glyph-name="afii10048" unicode="&#x42e;" horiz-adv-x="650" 
d="M215 413q14 324 196 324q198 0 198 -375q0 -376 -198 -376q-192 0 -197 358h-75v-344h-74v723h74v-310h76zM411 670q-63 0 -91 -71t-28 -220q0 -169 27 -247t92 -78q64 0 91.5 74.5t27.5 233.5q0 158 -28 233t-91 75z" />
    <glyph glyph-name="afii10049" unicode="&#x42f;" horiz-adv-x="472" 
d="M333 0v329h-109l-106 -329h-83l116 343q-54 15 -81 64.5t-27 119.5q0 94 52 145t171 51h141v-723h-74zM333 394v265h-73q-139 0 -139 -132q0 -69 32 -101t109 -32h71z" />
    <glyph glyph-name="afii10065" unicode="&#x430;" horiz-adv-x="410" 
d="M280 47q-52 -52 -119 -52q-59 0 -92.5 35.5t-33.5 95.5q0 76 62.5 132.5t182.5 86.5q2 22 2 33q0 48 -19 70t-61 22q-36 0 -55.5 -23t-28.5 -75l-67 11q25 147 150 147q80 0 114.5 -41.5t34.5 -131.5v-237q0 -62 9 -120h-71zM280 279q-85 -19 -130.5 -60t-45.5 -94
q0 -30 19.5 -50t49.5 -20q49 0 107 56v168z" />
    <glyph glyph-name="afii10066" unicode="&#x431;" horiz-adv-x="384" 
d="M101 448h2q35 63 103 63q41 0 70.5 -23.5t44 -63t21 -80t6.5 -84.5q0 -273 -159 -273q-35 0 -61.5 13t-42.5 37.5t-26.5 51.5t-15 64.5t-6 65.5t-1.5 66q0 115 13 206q8 61 25.5 103.5t58.5 69.5q27 18 64.5 28.5t81 18.5t59.5 12v-62q-21 -7 -77 -22t-75 -23
q-79 -32 -85 -168zM191 47q85 0 85 205q0 28 -0.5 47.5t-5 51t-12.5 51t-24 34.5t-39 15q-28 0 -46.5 -16t-27 -46.5t-11.5 -61t-3 -72.5q0 -28 0.5 -47.5t5 -53t13 -54t25 -37t40.5 -16.5z" />
    <glyph glyph-name="afii10067" unicode="&#x432;" horiz-adv-x="412" 
d="M62 0v519h169q131 0 131 -126q0 -85 -67 -118v-1q79 -28 79 -130q0 -68 -35 -106t-104 -38h-173zM132 58h77q93 0 93 91q0 95 -88 95h-82v-186zM132 302h77q81 0 81 86q0 73 -79 73h-79v-159z" />
    <glyph glyph-name="afii10068" unicode="&#x433;" horiz-adv-x="322" 
d="M62 0v519h256v-60h-186v-459h-70z" />
    <glyph glyph-name="afii10069" unicode="&#x434;" horiz-adv-x="422" 
d="M345 -120v120h-279v-124h-62v184h41q40 76 54 159q22 122 22 300h238v-459h48v-180h-62zM123 60h166v399h-105q-5 -140 -18 -230q-14 -95 -43 -169z" />
    <glyph glyph-name="afii10070" unicode="&#x435;" horiz-adv-x="381" 
d="M108 308h166v20q0 74 -18.5 108.5t-61.5 34.5q-80 0 -86 -163zM275 170h66q-4 -87 -43 -135t-103 -48q-81 0 -119.5 67t-38.5 205t38.5 205t119.5 67q150 0 150 -240q0 -27 -1 -41h-237q1 -106 20.5 -153.5t67.5 -47.5q75 0 80 121z" />
    <glyph glyph-name="afii10072" unicode="&#x436;" horiz-adv-x="526" 
d="M298 0h-70v243h-39q-16 0 -26 -6.5t-15.5 -22t-7.5 -25t-5 -29.5q-9 -82 -18 -108q-19 -58 -72 -58q-16 0 -29 7v58q4 -1 12 -1q19 1 24 20q6 14 10.5 60t7.5 62q12 61 58 73v1q-38 13 -50 51q-3 11 -12 80q-7 57 -27 57q-5 0 -8 -1v58q16 4 26 4q48 0 62 -52
q4 -17 9.5 -64t10.5 -63q12 -41 51 -41h38v216h70v-216h38q39 0 51 41q5 16 10.5 63t9.5 64q14 52 62 52q10 0 26 -4v-58q-3 1 -8 1q-20 0 -27 -57q-9 -69 -12 -80q-12 -38 -50 -51v-1q46 -12 58 -73q3 -16 7.5 -62t10.5 -60q9 -20 26 -20q6 0 10 1v-58q-13 -7 -29 -7
q-53 0 -72 58q-9 26 -18 108q-3 20 -5 29.5t-7.5 25t-15.5 22t-26 6.5h-39v-243z" />
    <glyph glyph-name="afii10073" unicode="&#x437;" horiz-adv-x="382" 
d="M32 146h68q5 -99 83 -99q89 0 89 98t-108 98h-30v60h33q95 0 95 90q0 34 -18.5 56t-56.5 22q-74 0 -86 -84h-64q17 143 154 143q64 0 102.5 -32.5t38.5 -102.5q0 -91 -85 -119v-1q97 -17 97 -132q0 -77 -44 -116.5t-111 -39.5q-72 0 -109.5 37.5t-47.5 121.5z" />
    <glyph glyph-name="afii10074" unicode="&#x438;" horiz-adv-x="426" 
d="M62 0v519h70v-318l-4 -56l22 53l144 291v30h70v-519h-70v314l4 56l-23 -56l-143 -281v-33h-70z" />
    <glyph glyph-name="afii10075" unicode="&#x439;" horiz-adv-x="426" 
d="M62 0v519h70v-318l-4 -56l22 53l144 291v30h70v-519h-70v314l4 56l-23 -56l-143 -281v-33h-70zM272 719h60q0 -51 -29 -82q-29 -33 -86 -33t-88 33q-29 31 -29 82h60q0 -31 13 -48q16 -23 43 -23t43 23q13 17 13 48z" />
    <glyph glyph-name="afii10076" unicode="&#x43a;" horiz-adv-x="378" 
d="M132 0h-70v519h70v-216h54q40 0 52 41q5 16 10 63q3 24 5 37.5t7.5 30.5t12.5 26t19 15.5t28 6.5q11 0 27 -4v-58q-2 1 -6 1t-7 -1t-5.5 -3t-4.5 -4t-3.5 -6t-2.5 -6.5t-2 -8.5l-1.5 -9t-1.5 -10t-2 -10q-11 -74 -12 -79q-12 -37 -51 -51v-1q47 -12 59 -73q3 -16 7.5 -62
t10.5 -60q9 -20 28 -20q6 0 9 1v-58q-13 -7 -29 -7q-53 0 -72 58q-7 20 -18 108l-3 21t-5 21t-9.5 21.5t-15 13.5t-22.5 6h-56v-243z" />
    <glyph glyph-name="afii10077" unicode="&#x43b;" horiz-adv-x="396" 
d="M4 0v59q2 -1 5 -1q14 0 25 4.5t19 15t13.5 21.5t9.5 30t6.5 34.5t4 41t2.5 43t2 47t2 47.5q3 74 3 177h238v-519h-70v459h-105q-1 -43 -2 -91.5t-1 -71t-2.5 -58.5t-6.5 -82q-14 -158 -123 -158q-10 0 -20 2z" />
    <glyph glyph-name="afii10078" unicode="&#x43c;" horiz-adv-x="528" 
d="M62 0v519h104l99 -397l97 397h104v-519h-68v344l2 94l-17 -78l-94 -360h-58l-92 358l-19 80l2 -92v-346h-60z" />
    <glyph glyph-name="afii10079" unicode="&#x43d;" horiz-adv-x="420" 
d="M62 0v519h70v-218h156v218h70v-519h-70v241h-156v-241h-70z" />
    <glyph glyph-name="afii10080" unicode="&#x43e;" horiz-adv-x="382" 
d="M35 259q0 138 38.5 205t119.5 67q154 0 154 -272t-154 -272q-81 0 -119.5 67t-38.5 205zM106 259q0 -111 19 -160.5t67 -49.5q44 0 63.5 51t19.5 159q0 109 -19.5 160t-63.5 51q-48 0 -67 -50t-19 -161z" />
    <glyph glyph-name="afii10081" unicode="&#x43f;" horiz-adv-x="420" 
d="M62 0v519h296v-519h-70v459h-156v-459h-70z" />
    <glyph glyph-name="afii10082" unicode="&#x440;" horiz-adv-x="410" 
d="M62 -174v693h47l23 -47q49 59 102 59q67 0 104 -69.5t37 -201.5q0 -134 -37 -203t-105 -69q-53 0 -101 60v-222h-70zM132 407v-290q42 -66 88 -66q45 0 64 52t19 163q0 106 -19.5 156.5t-63.5 50.5q-46 0 -88 -66z" />
    <glyph glyph-name="afii10083" unicode="&#x441;" horiz-adv-x="373" 
d="M272 370q-5 101 -78 101q-48 0 -67.5 -51t-19.5 -161q0 -111 19.5 -160.5t68.5 -49.5q75 0 80 121h64q-1 -85 -40 -134t-104 -49q-81 0 -119.5 67t-38.5 205t38.5 205t119.5 67q61 0 99.5 -43t41.5 -118h-64z" />
    <glyph glyph-name="afii10084" unicode="&#x442;" horiz-adv-x="328" 
d="M129 0v459h-123v60h316v-60h-123v-459h-70z" />
    <glyph glyph-name="afii10085" unicode="&#x443;" horiz-adv-x="347" 
d="M9 519h72l90 -391l88 391h69l-121 -517q-22 -94 -61 -135.5t-112 -41.5q-15 0 -22 1v64q6 -1 18 -1q48 0 74 28t37 89z" />
    <glyph glyph-name="afii10086" unicode="&#x444;" horiz-adv-x="550" 
d="M240 723h70v-193q56 0 97.5 -24.5t63.5 -66t32.5 -87t10.5 -94.5q0 -51 -10.5 -96.5t-33 -85.5t-64 -64t-96.5 -24v-162h-70v162q-55 0 -96 23.5t-63.5 64t-33.5 86t-11 96.5q0 49 10.5 94.5t32.5 87t63.5 66t97.5 24.5v193zM242 48v422q-65 0 -99.5 -56t-34.5 -151
q0 -215 134 -215zM308 470v-422q134 0 134 215q0 95 -34.5 151t-99.5 56z" />
    <glyph glyph-name="afii10087" unicode="&#x445;" horiz-adv-x="323" 
d="M3 0l120 263l-117 256h72l78 -182l84 182h66l-113 -247l130 -272h-73l-89 199l-92 -199h-66z" />
    <glyph glyph-name="afii10088" unicode="&#x446;" horiz-adv-x="424" 
d="M62 0v519h70v-459h156v459h70v-459h50v-180h-62v120h-284z" />
    <glyph glyph-name="afii10089" unicode="&#x447;" horiz-adv-x="390" 
d="M258 0v223q-62 -16 -109 -16q-55 0 -81 31.5t-26 85.5v195h70v-176q0 -42 13.5 -59t54.5 -17t78 12v240h70v-519h-70z" />
    <glyph glyph-name="afii10090" unicode="&#x448;" horiz-adv-x="598" 
d="M62 0v519h70v-459h132v459h70v-459h132v459h70v-519h-474z" />
    <glyph glyph-name="afii10091" unicode="&#x449;" horiz-adv-x="602" 
d="M62 0v519h70v-459h132v459h70v-459h132v459h70v-459h50v-180h-62v120h-462z" />
    <glyph glyph-name="afii10092" unicode="&#x44a;" horiz-adv-x="466" 
d="M118 0v459h-114v60h184v-209h88q152 0 152 -155t-153 -155h-157zM188 60h64q51 0 77.5 20.5t26.5 75.5q0 52 -25.5 73t-75.5 21h-67v-190z" />
    <glyph glyph-name="afii10093" unicode="&#x44b;" horiz-adv-x="554" 
d="M422 0v519h70v-519h-70zM62 0v519h70v-209h84q152 0 152 -155t-153 -155h-153zM132 60h60q51 0 77.5 20.5t26.5 75.5q0 52 -25.5 73t-75.5 21h-63v-190z" />
    <glyph glyph-name="afii10094" unicode="&#x44c;" horiz-adv-x="408" 
d="M62 0v519h70v-209h88q152 0 152 -155t-153 -155h-157zM132 60h64q51 0 77.5 20.5t26.5 75.5q0 52 -25.5 73t-75.5 21h-67v-190z" />
    <glyph glyph-name="afii10095" unicode="&#x44d;" horiz-adv-x="374" 
d="M32 151h66q4 -39 23 -71.5t57 -32.5q21 0 37 9t25.5 27.5t15.5 34.5t8.5 43.5t3 39.5t0.5 37h-142v60h142q-2 35 -4 55t-8 45.5t-14.5 39t-24.5 23t-38 9.5q-73 0 -79 -87h-66q3 58 42 103t108 45q154 0 154 -269q0 -53 -5 -93.5t-19.5 -86t-48 -70.5t-83.5 -25
q-135 0 -150 164z" />
    <glyph glyph-name="afii10096" unicode="&#x44e;" horiz-adv-x="540" 
d="M197 301q5 117 42.5 173.5t112.5 56.5q152 0 152 -272t-152 -272q-79 0 -116.5 62t-39.5 192h-64v-241h-70v519h70v-218h65zM267 259q0 -112 18.5 -161t65.5 -49q44 0 62.5 50.5t18.5 159.5t-18.5 160t-62.5 51q-47 0 -65.5 -49.5t-18.5 -161.5z" />
    <glyph glyph-name="afii10097" unicode="&#x44f;" horiz-adv-x="408" 
d="M276 0v225h-83l-95 -225h-80l104 231q-88 26 -88 143q0 145 149 145h163v-519h-70zM276 283v178h-77q-93 0 -93 -91q0 -87 91 -87h79z" />
    <glyph glyph-name="afii10071" unicode="&#x451;" horiz-adv-x="381" 
d="M108 308h166v20q0 74 -18.5 108.5t-61.5 34.5q-80 0 -86 -163zM275 170h66q-4 -87 -43 -135t-103 -48q-81 0 -119.5 67t-38.5 205t38.5 205t119.5 67q150 0 150 -240q0 -27 -1 -41h-237q1 -106 20.5 -153.5t67.5 -47.5q75 0 80 121zM89 641v82h70v-82h-70zM237 641v82h70
v-82h-70z" />
    <glyph glyph-name="afii10099" unicode="&#x452;" horiz-adv-x="412" 
d="M62 0v592h-57v60h57v71h69v-71h149v-60h-149v-127q60 67 124 67q99 0 99 -134v-388q0 -92 -26.5 -139.5t-89.5 -47.5q-25 0 -45 5v64q15 -4 39 -4q13 0 22.5 4t15 15t9 21t4.5 31t1.5 35t0.5 44v288q0 70 -3 91q-8 54 -55 54q-51 0 -96 -68v-403h-69z" />
    <glyph glyph-name="afii10100" unicode="&#x453;" horiz-adv-x="322" 
d="M62 0v519h256v-60h-186v-459h-70zM143 585l102 171h87l-137 -171h-52z" />
    <glyph glyph-name="afii10101" unicode="&#x454;" horiz-adv-x="374" 
d="M276 163l66 -4q-5 -78 -41 -125t-109 -47q-50 0 -83.5 25t-48 70.5t-19.5 86t-5 93.5q0 269 154 269q69 0 109.5 -46.5t40.5 -109.5l-66 -6q0 101 -79 101q-19 0 -32.5 -5.5t-23 -19t-15 -26t-9.5 -36.5t-5.5 -39t-3.5 -46h142v-60h-142q0 -25 0.5 -37t3 -39.5t8.5 -43.5
t15.5 -34.5t25.5 -27.5t37 -9q40 0 60 37.5t20 78.5z" />
    <glyph glyph-name="afii10102" unicode="&#x455;" horiz-adv-x="376" 
d="M36 126l66 15q7 -45 31.5 -70.5t59.5 -25.5q33 0 54.5 22t21.5 58q0 26 -14 47.5t-29.5 34t-51.5 36.5q-66 45 -94.5 77.5t-28.5 80.5q0 57 37 93.5t92 36.5q115 0 146 -124l-59 -18q-21 85 -84 85q-30 0 -48 -18t-18 -46q0 -22 13.5 -41.5t29.5 -31.5t52 -36t57 -40
q68 -52 68 -131q0 -65 -40.5 -103.5t-109.5 -38.5q-59 0 -100 37t-51 101z" />
    <glyph glyph-name="afii10103" unicode="&#x456;" horiz-adv-x="190" 
d="M60 0v519h70v-519h-70zM60 641v82h70v-82h-70z" />
    <glyph glyph-name="afii10104" unicode="&#x457;" horiz-adv-x="190" 
d="M60 0v519h70v-519h-70zM-14 641v82h70v-82h-70zM134 641v82h70v-82h-70z" />
    <glyph glyph-name="afii10105" unicode="&#x458;" horiz-adv-x="190" 
d="M130 -38q0 -74 -20 -105t-75 -31q-15 0 -48 4v57q18 -2 24 -2q32 0 40.5 19.5t8.5 74.5v540h70v-557zM60 641v82h70v-82h-70z" />
    <glyph glyph-name="afii10106" unicode="&#x459;" horiz-adv-x="600" 
d="M264 0v459h-105q-1 -43 -2 -91.5t-1 -71t-2.5 -58.5t-6.5 -82q-14 -158 -123 -158q-10 0 -20 2v59q2 -1 5 -1q14 0 25 4.5t19 15t13.5 21.5t9.5 30t6.5 34.5t4 41t2.5 43t2 47t2 47.5q3 74 3 177h238v-209h78q152 0 152 -155t-153 -155h-147zM334 60h54q51 0 77.5 20.5
t26.5 75.5q0 52 -25.5 73t-75.5 21h-57v-190z" />
    <glyph glyph-name="afii10107" unicode="&#x45a;" horiz-adv-x="624" 
d="M288 0v245h-156v-245h-70v519h70v-214h156v214h70v-214h78q152 0 152 -150q0 -155 -153 -155h-147zM358 60h54q50 0 77 21.5t27 74.5q0 89 -101 89h-57v-185z" />
    <glyph glyph-name="afii10108" unicode="&#x45b;" horiz-adv-x="413" 
d="M62 0v592h-57v60h57v71h69v-71h149v-60h-149v-127q60 67 124 67q99 0 99 -134v-398h-69v375q0 51 -12.5 73.5t-45.5 22.5q-51 0 -96 -68v-403h-69z" />
    <glyph glyph-name="afii10109" unicode="&#x45c;" horiz-adv-x="378" 
d="M132 0h-70v519h70v-216h54q40 0 52 41q5 16 10 63q3 24 5 37.5t7.5 30.5t12.5 26t19 15.5t28 6.5q11 0 27 -4v-58q-2 1 -6 1t-7 -1t-5.5 -3t-4.5 -4t-3.5 -6t-2.5 -6.5t-2 -8.5l-1.5 -9t-1.5 -10t-2 -10q-11 -74 -12 -79q-12 -37 -51 -51v-1q47 -12 59 -73q3 -16 7.5 -62
t10.5 -60q9 -20 28 -20q6 0 9 1v-58q-13 -7 -29 -7q-53 0 -72 58q-7 20 -18 108l-3 21t-5 21t-9.5 21.5t-15 13.5t-22.5 6h-56v-243zM152 585l102 171h87l-137 -171h-52z" />
    <glyph glyph-name="afii10110" unicode="&#x45e;" horiz-adv-x="347" 
d="M9 519h72l90 -391l88 391h69l-121 -517q-22 -94 -61 -135.5t-112 -41.5q-15 0 -22 1v64q6 -1 18 -1q48 0 74 28t37 89zM224 719h60q0 -51 -29 -82q-29 -33 -86 -33t-88 33q-29 31 -29 82h60q0 -31 13 -48q16 -23 43 -23t43 23q13 17 13 48z" />
    <glyph glyph-name="afii10193" unicode="&#x45f;" horiz-adv-x="420" 
d="M62 0v519h70v-459h156v459h70v-519h-117v-118h-62v118h-117z" />
    <glyph glyph-name="afii10146" unicode="&#x462;" horiz-adv-x="553" 
d="M144 0v621h-134v62h134v70h74v-70h155v-62h-155v-196h116q90 0 136 -59t46 -157q0 -100 -50 -154.5t-143 -54.5h-179zM218 66h93q66 0 98 34t32 113q0 62 -34.5 103.5t-92.5 41.5h-96v-292z" />
    <glyph glyph-name="afii10194" unicode="&#x463;" horiz-adv-x="465" 
d="M119 0v459h-113v60h113v204h70v-204h133v-60h-133v-149h88q152 0 152 -155t-153 -155h-157zM189 60h64q51 0 77.5 20.5t26.5 75.5q0 52 -25.5 73t-75.5 21h-67v-190z" />
    <glyph glyph-name="afii10147" unicode="&#x472;" horiz-adv-x="481" 
d="M240 -14q-98 0 -148.5 95t-50.5 281q0 375 199 375q98 0 149 -94.5t51 -280.5t-51 -281t-149 -95zM240 54q63 0 91.5 73t29.5 225q-30 -19 -66 -19q-16 0 -39 7l-50 14q-20 5 -31 5q-34 0 -56 -22q2 -145 30.5 -214t90.5 -69zM240 670q-60 0 -89 -64t-32 -198
q29 16 64 16q15 0 37 -6l46 -13q26 -7 38 -7q38 0 55 24q-5 127 -33.5 187.5t-85.5 60.5z" />
    <glyph glyph-name="afii10195" unicode="&#x473;" horiz-adv-x="382" 
d="M35 259q0 138 38.5 205t119.5 67q154 0 154 -272t-154 -272q-81 0 -119.5 67t-38.5 205zM192 49q42 0 61.5 46.5t21.5 144.5q-18 -14 -41 -14q-14 0 -29 5l-37 11q-9 3 -23 3q-19 0 -39 -20q3 -92 22.5 -134t63.5 -42zM192 470q-45 0 -64.5 -43t-21.5 -138q21 16 46 16
q14 0 26 -4l36 -11q13 -4 27 -4q20 0 33 15q-3 86 -22.5 127.5t-59.5 41.5z" />
    <glyph glyph-name="afii10148" unicode="&#x474;" horiz-adv-x="477" 
d="M367 555l-127 -555h-70l-165 723h74l108 -493q5 -21 18 -113q11 67 22 116l76 355q12 56 48.5 97t94.5 41q13 0 26 -3v-71q-3 0 -9 1t-8 1q-34 0 -56 -28t-32 -71z" />
    <glyph glyph-name="afii10196" unicode="&#x475;" horiz-adv-x="411" 
d="M407 519v-59q-2 1 -5 1q-52 0 -73 -85l-93 -376h-93l-127 519h70l105 -445l70 289q10 43 18 66.5t22 47.5t34.5 34t51.5 10q10 0 20 -2z" />
    <glyph glyph-name="afii10050" unicode="&#x490;" horiz-adv-x="376" 
d="M69 723h232v124h70v-194h-228v-653h-74v723z" />
    <glyph glyph-name="afii10098" unicode="&#x491;" horiz-adv-x="322" 
d="M62 519h188v125h68v-185h-186v-459h-70v519z" />
    <glyph glyph-name="uni0492" unicode="&#x492;" horiz-adv-x="376" 
d="M10 414h59v309h302v-69h-227v-240h200v-68h-200v-346h-75v346h-59v68z" />
    <glyph glyph-name="uni0493" unicode="&#x493;" horiz-adv-x="322" 
d="M62 0v240h-57v60h57v219h256v-60h-186v-159h148v-60h-148v-240h-70z" />
    <glyph glyph-name="uni0494" unicode="&#x494;" horiz-adv-x="478" 
d="M69 0v723h302v-69h-227v-257q44 26 107 26q100 0 144.5 -64t44.5 -162q0 -88 -40.5 -146.5t-123.5 -58.5q-38 0 -72 12l14 69q23 -13 54 -13q34 0 56 24.5t30 54.5t8 62q0 69 -30.5 112.5t-98.5 43.5q-55 0 -93 -35v-322h-75z" />
    <glyph glyph-name="uni0495" unicode="&#x495;" horiz-adv-x="413" 
d="M132 207v-207h-70v519h256v-60h-186v-190q60 67 124 67q99 0 99 -134v-189q0 -92 -26.5 -139.5t-89.5 -47.5q-25 0 -45 5v64q15 -4 39 -4q13 0 22.5 4t15 15t9 21t4.5 31t1.5 35t0.5 44v89q0 70 -3 91q-7 54 -55 54q-51 0 -96 -68z" />
    <glyph glyph-name="uni0496" unicode="&#x496;" horiz-adv-x="648" 
d="M361 723v-316h21q58 0 75.5 26t20.5 94q5 87 10 113q19 90 96 90q20 0 32 -5v-69q-5 1 -15 1q-44 0 -48 -63q-3 -62 -11 -125q-5 -38 -24 -63t-50 -29v-3q62 -6 87 -72q7 -18 9.5 -34t3.5 -48.5t3 -54.5q1 -6 2 -19.5t1.5 -18.5t2 -15.5t3.5 -14.5t6 -10.5t8.5 -9.5
t12 -5t16.5 -2h73v-236h-72v166q-9 -4 -22 -4q-76 0 -96 91q-3 16 -11 111q-2 28 -4 42t-6 33t-11 28t-18.5 19t-29.5 13.5t-42 3.5h-23v-337h-74v337h-23q-24 0 -42 -3.5t-29.5 -13.5t-18.5 -19t-11 -28t-6 -33t-4 -42q-8 -95 -11 -111q-20 -91 -96 -91q-21 0 -36 8v69
q5 -1 15 -1q9 0 16.5 2t12 4.5t8.5 9t6 10.5t3.5 14.5t2 15t1.5 18t2 19.5q2 22 3 54.5t3.5 48.5t9.5 34q25 66 87 72v3q-31 4 -50 29t-24 63q-8 63 -11 125q-4 63 -50 63q-9 0 -13 -1v69q12 5 32 5q77 0 96 -90q5 -26 10 -113q3 -68 20.5 -94t75.5 -26h21v316h74z" />
    <glyph glyph-name="uni0497" unicode="&#x497;" horiz-adv-x="576" 
d="M298 0h-70v243h-39q-16 0 -26 -6.5t-15.5 -22t-7.5 -25t-5 -29.5q-9 -82 -18 -108q-19 -58 -72 -58q-16 0 -29 7v58q4 -1 12 -1q19 1 24 20q6 14 10.5 60t7.5 62q12 61 58 73v1q-38 13 -50 51q-3 11 -12 80q-7 57 -27 57q-5 0 -8 -1v58q16 4 26 4q48 0 62 -52
q4 -17 9.5 -64t10.5 -63q12 -41 51 -41h38v216h70v-216h38q39 0 51 41q5 16 10.5 63t9.5 64q14 52 62 52q10 0 26 -4v-58q-3 1 -8 1q-20 0 -27 -57q-9 -69 -12 -80q-12 -38 -50 -51v-1q46 -12 58 -73q3 -16 7.5 -62t10.5 -60q8 -18 26 -18h60v-180h-62v116q-10 -2 -17 -2
q-53 0 -72 58q-9 26 -18 108q-3 20 -5 29.5t-7.5 25t-15.5 22t-26 6.5h-39v-243z" />
    <glyph glyph-name="uni0498" unicode="&#x498;" horiz-adv-x="468" 
d="M36 192h70q3 -61 32 -100.5t87 -39.5q65 0 97 42t32 104q0 72 -33.5 107.5t-105.5 35.5h-48v70h48q118 0 119 140q0 51 -26.5 86t-81.5 35q-49 0 -77.5 -35.5t-33.5 -95.5h-70q2 91 50 144t142 53q80 0 125.5 -48.5t45.5 -136.5q0 -74 -29.5 -118t-83.5 -54v-2
q133 -20 133 -178q0 -86 -40.5 -142t-114.5 -69v-156h-72v153q-149 14 -165 205z" />
    <glyph glyph-name="uni0499" unicode="&#x499;" horiz-adv-x="382" 
d="M32 146h68q5 -99 83 -99q89 0 89 98t-108 98h-30v60h33q95 0 95 90q0 34 -18.5 56t-56.5 22q-74 0 -86 -84h-64q17 143 154 143q64 0 102.5 -32.5t38.5 -102.5q0 -91 -85 -119v-1q97 -17 97 -132q0 -67 -33.5 -105.5t-87.5 -47.5v-110h-62v109q-59 6 -89.5 43.5
t-39.5 113.5z" />
    <glyph glyph-name="uni049A" unicode="&#x49a;" horiz-adv-x="458" 
d="M139 723v-316h55q55 0 73 25.5t22 94.5q5 87 10 113q19 90 95 90q20 0 32 -5v-69q-4 1 -13 1q-27 0 -37 -17.5t-13 -48.5q-1 -11 -4 -50.5t-7 -71.5q-10 -81 -74 -92v-3q65 -6 87 -72q10 -28 16 -137q1 -19 1.5 -25.5t2.5 -21.5t5 -20.5t8 -13.5t13 -11t19 -3h76v-236
h-72v166q-14 -4 -22 -4q-40 0 -64 25t-31 66q-9 54 -11 111q-2 76 -24.5 107.5t-85.5 31.5h-57v-337h-74v723h74z" />
    <glyph glyph-name="uni049B" unicode="&#x49b;" horiz-adv-x="428" 
d="M132 0h-70v519h70v-216h54q40 0 52 41q5 16 10 63q3 24 5 37.5t7.5 30.5t12.5 26t19 15.5t28 6.5q11 0 27 -4v-58q-2 1 -6 1t-7 -1t-5.5 -3t-4.5 -4t-3.5 -6t-2.5 -6.5t-2 -8.5l-1.5 -9t-1.5 -10t-2 -10q-11 -74 -12 -79q-12 -37 -51 -51v-1q47 -12 59 -73q3 -16 7.5 -62
t10.5 -60q8 -18 28 -18h59v-180h-62v116q-10 -2 -17 -2q-53 0 -72 58q-7 20 -18 108l-3 21t-5 21t-9.5 21.5t-15 13.5t-22.5 6h-56v-243z" />
    <glyph glyph-name="uni049C" unicode="&#x49c;" horiz-adv-x="508" 
d="M215 165v172h-76v-337h-74v723h74v-316h76v173h55v-172q38 6 51.5 32t17.5 87q5 87 10 113q19 90 95 90q20 0 32 -5v-69q-4 1 -13 1q-27 0 -37 -17.5t-13 -48.5q-1 -11 -4 -50.5t-7 -71.5q-10 -81 -74 -92v-3q65 -6 87 -72q10 -28 16 -137q1 -22 2 -30.5t4 -24t7.5 -21.5
t13.5 -11.5t22 -5.5q12 0 18 1v-69q-15 -8 -36 -8q-40 0 -64 25t-31 66q-9 54 -11 111q-2 68 -20 99.5t-66 37.5v-170h-55z" />
    <glyph glyph-name="uni049D" unicode="&#x49d;" horiz-adv-x="412" 
d="M233 406v-103q34 2 45 41q5 16 10 63q3 24 5 37.5t7.5 30.5t12.5 26t19 15.5t28 6.5q11 0 27 -4v-58q-2 1 -6 1t-7 -1t-5.5 -3t-4.5 -4t-3.5 -6t-2.5 -6.5t-2 -8.5l-1.5 -9t-1.5 -10t-2 -10q-11 -74 -12 -79q-12 -37 -51 -51v-1q47 -12 59 -73q3 -16 7.5 -62t10.5 -60
q9 -20 28 -20q6 0 9 1v-58q-13 -7 -29 -7q-53 0 -72 58q-7 20 -18 108q-2 17 -4 26t-7 24t-15 23t-24 9v-102h-47v103h-54v-243h-70v519h70v-216h54v103h47z" />
    <glyph glyph-name="uni04A0" unicode="&#x4a0;" horiz-adv-x="547" 
d="M228 723v-316h55q55 0 73 25.5t22 94.5q5 87 10 113q19 90 95 90q19 0 32 -5v-69q-4 1 -13 1q-27 0 -37 -17.5t-13 -48.5q-1 -11 -4 -50.5t-7 -71.5q-10 -81 -74 -92v-3q65 -6 87 -72q10 -28 16 -137q1 -22 2 -30.5t4 -24t7.5 -21.5t13.5 -11.5t22 -5.5q12 0 18 1v-69
q-15 -8 -36 -8q-40 0 -64 25t-31 66q-9 54 -11 111q-2 76 -24.5 107.5t-85.5 31.5h-57v-337h-74v661h-144v62h218z" />
    <glyph glyph-name="uni04A1" unicode="&#x4a1;" horiz-adv-x="445" 
d="M199 0h-70v459h-123v60h193v-216h54q40 0 52 41q5 16 10 63q3 24 5 37.5t7.5 30.5t12.5 26t19 15.5t28 6.5q11 0 27 -4v-58q-2 1 -6 1t-7 -1t-5.5 -3t-4.5 -4t-3.5 -6t-2.5 -6.5t-2 -8.5l-1.5 -9t-1.5 -10t-2 -10q-11 -74 -12 -79q-12 -37 -51 -51v-1q47 -12 59 -73
q3 -16 7.5 -62t10.5 -60q9 -20 28 -20q6 0 9 1v-58q-13 -7 -29 -7q-53 0 -72 58q-7 20 -18 108l-3 21t-5 21t-9.5 21.5t-15 13.5t-22.5 6h-56v-243z" />
    <glyph glyph-name="uni04A2" unicode="&#x4a2;" horiz-adv-x="490" 
d="M409 0h-60v344h-210v-344h-74v723h74v-310h210v310h74v-653h58v-236h-72v166z" />
    <glyph glyph-name="uni04A3" unicode="&#x4a3;" horiz-adv-x="424" 
d="M346 0h-58v241h-156v-241h-70v519h70v-218h156v218h70v-459h50v-180h-62v120z" />
    <glyph glyph-name="uni04A4" unicode="&#x4a4;" horiz-adv-x="579" 
d="M65 0v723h74v-310h210v310h220v-62h-146v-661h-74v344h-210v-344h-74z" />
    <glyph glyph-name="uni04A5" unicode="&#x4a5;" horiz-adv-x="487" 
d="M62 0v519h70v-218h156v218h193v-60h-123v-459h-70v241h-156v-241h-70z" />
    <glyph glyph-name="uni04AA" unicode="&#x4aa;" horiz-adv-x="464" 
d="M434 237v-16q0 -99 -38.5 -158t-108.5 -73v-156h-72v154q-174 26 -174 364q0 196 50 291t157 95q83 0 131 -60t48 -167h-72q-8 162 -108 162q-70 0 -99.5 -75.5t-29.5 -238.5q0 -160 32.5 -233.5t108.5 -73.5q50 0 79 44.5t29 125.5v15h67z" />
    <glyph glyph-name="uni04AB" unicode="&#x4ab;" horiz-adv-x="373" 
d="M272 370q-5 101 -78 101q-48 0 -67.5 -51t-19.5 -161q0 -111 19.5 -160.5t68.5 -49.5q75 0 80 121h64q-1 -73 -30 -120t-79 -59v-111h-62v109q-131 20 -131 270q0 138 38.5 205t119.5 67q61 0 99.5 -43t41.5 -118h-64z" />
    <glyph glyph-name="uni04AE" unicode="&#x4ae;" horiz-adv-x="377" 
d="M227 311v-311h-76v311l-162 412h77l124 -329l121 329h76z" />
    <glyph glyph-name="uni04AF" unicode="&#x4af;" horiz-adv-x="379" 
d="M154 -174v174l-138 519h70l105 -425l108 425h65l-140 -519v-174h-70z" />
    <glyph glyph-name="uni04B0" unicode="&#x4b0;" horiz-adv-x="377" 
d="M339 305v-48h-112v-257h-76v257h-111v48h111v6l-162 412h77l124 -329l121 329h76l-160 -412v-6h112z" />
    <glyph glyph-name="uni04B1" unicode="&#x4b1;" horiz-adv-x="379" 
d="M146 31l-130 488h70l105 -425l108 425h65l-132 -488h94v-60h-102v-145h-70v145h-102v60h94z" />
    <glyph glyph-name="uni04B2" unicode="&#x4b2;" horiz-adv-x="426" 
d="M350 0h-39l-125 307l-121 -307h-76l155 383l-147 340h79l107 -264l106 264h76l-139 -339l137 -314h59v-236h-72v166z" />
    <glyph glyph-name="uni04B3" unicode="&#x4b3;" horiz-adv-x="348" 
d="M283 0h-33l-89 199l-92 -199h-66l120 263l-117 256h72l78 -182l84 182h66l-113 -247l101 -212h51v-180h-62v120z" />
    <glyph glyph-name="uni04B6" unicode="&#x4b6;" horiz-adv-x="462" 
d="M321 0v317q-63 -19 -133 -19q-136 0 -136 132v293h74v-280q0 -40 15 -59.5t58 -19.5q59 0 122 18v341h74v-653h58v-236h-72v166h-60z" />
    <glyph glyph-name="uni04B7" unicode="&#x4b7;" horiz-adv-x="394" 
d="M258 0v223q-62 -16 -109 -16q-55 0 -81 31.5t-26 85.5v195h70v-176q0 -42 13.5 -59t54.5 -17t78 12v240h70v-459h50v-180h-62v120h-58z" />
    <glyph glyph-name="uni04B8" unicode="&#x4b8;" horiz-adv-x="460" 
d="M201 145v153h-13q-136 0 -136 132v293h74v-280q0 -40 15.5 -59.5t59.5 -19.5v196h55v-193q45 6 75 15v341h74v-723h-74v317q-34 -10 -75 -15v-157h-55z" />
    <glyph glyph-name="uni04B9" unicode="&#x4b9;" horiz-adv-x="398" 
d="M266 0v223q-26 -7 -53 -11v-98h-47v93h-17q-55 0 -81 31.5t-26 85.5v195h70v-176q0 -39 10.5 -56t43.5 -20v113h47v-112q32 4 53 11v240h70v-519h-70z" />
    <glyph glyph-name="uni04BA" unicode="&#x4ba;" horiz-adv-x="461" 
d="M65 723h74v-317q63 19 134 19q136 0 136 -132v-293h-74v280q0 40 -15 59.5t-58 19.5q-60 0 -123 -18v-341h-74v723z" />
    <glyph glyph-name="uni04BB" unicode="&#x4bb;" horiz-adv-x="413" 
d="M62 0v723h69v-258q60 67 124 67q99 0 99 -134v-398h-69v375q0 51 -12.5 73.5t-45.5 22.5q-51 0 -96 -68v-403h-69z" />
    <glyph glyph-name="uni04C0" unicode="&#x4c0;" horiz-adv-x="190" 
d="M60 0v723h70v-723h-70z" />
    <glyph glyph-name="uni04C1" unicode="&#x4c1;" horiz-adv-x="648" 
d="M361 723v-316h21q58 0 75.5 26t20.5 94q5 87 10 113q19 90 96 90q20 0 32 -5v-69q-5 1 -15 1q-44 0 -48 -63q-3 -62 -11 -125q-5 -38 -24 -63t-50 -29v-3q62 -6 87 -72q7 -18 9.5 -34t3.5 -48.5t3 -54.5q1 -6 2 -19.5t1.5 -18t2 -15t3.5 -14.5t6 -10.5t8.5 -9t12 -4.5
t16.5 -2q10 0 15 1v-69q-15 -8 -36 -8q-76 0 -96 91q-3 16 -11 111q-2 28 -4 42t-6 33t-11 28t-18.5 19t-29.5 13.5t-42 3.5h-23v-337h-74v337h-23q-24 0 -42 -3.5t-29.5 -13.5t-18.5 -19t-11 -28t-6 -33t-4 -42q-8 -95 -11 -111q-20 -91 -96 -91q-21 0 -36 8v69q5 -1 15 -1
q9 0 16.5 2t12 4.5t8.5 9t6 10.5t3.5 14.5t2 15t1.5 18t2 19.5q2 22 3 54.5t3.5 48.5t9.5 34q25 66 87 72v3q-31 4 -50 29t-24 63q-8 63 -11 125q-4 63 -50 63q-9 0 -13 -1v69q12 5 32 5q77 0 96 -90q5 -26 10 -113q3 -68 20.5 -94t75.5 -26h21v316h74zM383 907h68
q0 -60 -36 -96.5t-91 -36.5t-91 36.5t-36 96.5h68q0 -33 14.5 -55t44.5 -22t44.5 22t14.5 55z" />
    <glyph glyph-name="uni04C2" unicode="&#x4c2;" horiz-adv-x="526" 
d="M298 0h-70v243h-39q-16 0 -26 -6.5t-15.5 -22t-7.5 -25t-5 -29.5q-9 -82 -18 -108q-19 -58 -72 -58q-16 0 -29 7v58q4 -1 12 -1q19 1 24 20q6 14 10.5 60t7.5 62q12 61 58 73v1q-38 13 -50 51q-3 11 -12 80q-7 57 -27 57q-5 0 -8 -1v58q16 4 26 4q48 0 62 -52
q4 -17 9.5 -64t10.5 -63q12 -41 51 -41h38v216h70v-216h38q39 0 51 41q5 16 10.5 63t9.5 64q14 52 62 52q10 0 26 -4v-58q-3 1 -8 1q-20 0 -27 -57q-9 -69 -12 -80q-12 -38 -50 -51v-1q46 -12 58 -73q3 -16 7.5 -62t10.5 -60q9 -20 26 -20q6 0 10 1v-58q-13 -7 -29 -7
q-53 0 -72 58q-9 26 -18 108q-3 20 -5 29.5t-7.5 25t-15.5 22t-26 6.5h-39v-243zM317 719h60q0 -51 -29 -82q-29 -33 -86 -33t-88 33q-29 31 -29 82h60q0 -31 13 -48q16 -23 43 -23t43 23q13 17 13 48z" />
    <glyph glyph-name="uni04C3" unicode="&#x4c3;" horiz-adv-x="473" 
d="M139 723v-316h55q55 0 73 25.5t22 94.5q5 87 10 113q19 90 95 90q20 0 32 -5v-69q-4 1 -13 1q-27 0 -37 -17.5t-13 -48.5q-1 -11 -4 -50.5t-7 -71.5q-10 -81 -74 -92v-3q49 -9 81 -29t48 -52t22 -68t6 -88q0 -88 -40.5 -146.5t-123.5 -58.5q-37 0 -72 12l14 69
q23 -13 54 -13q34 0 56 24.5t30 54.5t8 62q0 196 -165 196h-57v-337h-74v723h74z" />
    <glyph glyph-name="uni04C4" unicode="&#x4c4;" horiz-adv-x="378" 
d="M132 0h-70v519h70v-216h54q40 0 52 41q5 16 10 63q3 24 5 37.5t7.5 30.5t12.5 26t19 15.5t28 6.5q11 0 27 -4v-58q-2 1 -6 1t-7 -1t-5.5 -3t-4.5 -4t-3.5 -6t-2.5 -6.5t-2 -8.5l-1.5 -9t-1.5 -10t-2 -10q-11 -74 -12 -79q-12 -37 -51 -51v-1q55 -2 81 -33t26 -98v-129
q0 -92 -26.5 -139.5t-89.5 -47.5q-25 0 -45 5v64q15 -4 39 -4q13 0 22.5 4t15 15t9 21t4.5 31t1.5 35t0.5 44v29q0 70 -3 91q-11 82 -95 82h-56v-243z" />
    <glyph glyph-name="uni04C7" unicode="&#x4c7;" horiz-adv-x="488" 
d="M423 723v-723q0 -70 -21 -109q-37 -65 -133 -65q-28 0 -58 6l3 69q31 -10 62 -10q43 0 58 26t15 83v344h-210v-344h-74v723h74v-310h210v310h74z" />
    <glyph glyph-name="uni04C8" unicode="&#x4c8;" horiz-adv-x="420" 
d="M358 -38q0 -74 -20 -105t-75 -31q-15 0 -48 4v57q18 -2 24 -2q32 0 40.5 19.5t8.5 74.5v262h-156v-241h-70v519h70v-218h156v218h70v-557z" />
    <glyph glyph-name="uni04D0" unicode="&#x4d0;" horiz-adv-x="440" 
d="M13 0l157 723h102l158 -723h-78l-42 213h-182l-42 -213h-73zM144 281h151l-76 378zM279 907h68q0 -60 -36 -96.5t-91 -36.5t-91 36.5t-36 96.5h68q0 -33 14.5 -55t44.5 -22t44.5 22t14.5 55z" />
    <glyph glyph-name="uni04D1" unicode="&#x4d1;" horiz-adv-x="410" 
d="M280 47q-52 -52 -119 -52q-59 0 -92.5 35.5t-33.5 95.5q0 76 62.5 132.5t182.5 86.5q2 22 2 33q0 48 -19 70t-61 22q-36 0 -55.5 -23t-28.5 -75l-67 11q25 147 150 147q80 0 114.5 -41.5t34.5 -131.5v-237q0 -62 9 -120h-71zM280 279q-85 -19 -130.5 -60t-45.5 -94
q0 -30 19.5 -50t49.5 -20q49 0 107 56v168zM259 719h60q0 -51 -29 -82q-29 -33 -86 -33t-88 33q-29 31 -29 82h60q0 -31 13 -48q16 -23 43 -23t43 23q13 17 13 48z" />
    <glyph glyph-name="uni04D2" unicode="&#x4d2;" horiz-adv-x="440" 
d="M13 0l157 723h102l158 -723h-78l-42 213h-182l-42 -213h-73zM144 281h151l-76 378zM118 894h74v-94h-74v94zM268 894h74v-94h-74v94z" />
    <glyph glyph-name="uni04D3" unicode="&#x4d3;" horiz-adv-x="410" 
d="M280 47q-52 -52 -119 -52q-59 0 -92.5 35.5t-33.5 95.5q0 76 62.5 132.5t182.5 86.5q2 22 2 33q0 48 -19 70t-61 22q-36 0 -55.5 -23t-28.5 -75l-67 11q25 147 150 147q80 0 114.5 -41.5t34.5 -131.5v-237q0 -62 9 -120h-71zM280 279q-85 -19 -130.5 -60t-45.5 -94
q0 -30 19.5 -50t49.5 -20q49 0 107 56v168zM96 641v82h70v-82h-70zM244 641v82h70v-82h-70z" />
    <glyph glyph-name="uni04D4" unicode="&#x4d4;" horiz-adv-x="677" 
d="M176 276h149l3 381h-12zM-5 0l285 723h370v-66h-251v-250h184v-66h-184v-274h260v-67h-334v208h-176l-82 -208h-72z" />
    <glyph glyph-name="uni04D5" unicode="&#x4d5;" horiz-adv-x="623" 
d="M280 276q-85 -19 -130.5 -60t-45.5 -95q0 -31 19 -51t50 -20q51 0 107 56v170zM349 309h167q1 10 1 29q0 133 -82 133q-83 0 -86 -162zM311 60q-78 -71 -155 -71q-55 0 -88 37t-33 96q0 76 62 132.5t183 87.5q1 11 1 31q0 49 -18 72.5t-57 23.5q-38 0 -58.5 -23.5
t-29.5 -75.5l-67 11q25 149 158 149q77 0 116 -53q45 54 112 54q149 0 149 -240q0 -27 -1 -41h-237q0 -104 21 -152.5t68 -48.5q75 0 80 121h65q-4 -88 -42.5 -135.5t-102.5 -47.5q-78 0 -126 73z" />
    <glyph glyph-name="uni04D6" unicode="&#x4d6;" horiz-adv-x="417" 
d="M65 0v723h325v-67h-251v-249h184v-66h-184v-274h260v-67h-334zM267 907h68q0 -60 -36 -96.5t-91 -36.5t-91 36.5t-36 96.5h68q0 -33 14.5 -55t44.5 -22t44.5 22t14.5 55z" />
    <glyph glyph-name="uni04D7" unicode="&#x4d7;" horiz-adv-x="381" 
d="M108 308h166v20q0 74 -18.5 108.5t-61.5 34.5q-80 0 -86 -163zM275 170h66q-4 -87 -43 -135t-103 -48q-81 0 -119.5 67t-38.5 205t38.5 205t119.5 67q150 0 150 -240q0 -27 -1 -41h-237q1 -106 20.5 -153.5t67.5 -47.5q75 0 80 121zM244 719h60q0 -51 -29 -82
q-29 -33 -86 -33t-88 33q-29 31 -29 82h60q0 -31 13 -48q16 -23 43 -23t43 23q13 17 13 48z" />
    <glyph glyph-name="uni04D8" unicode="&#x4d8;" horiz-adv-x="474" 
d="M228 -14q-108 0 -150 80t-42 262v70h319q0 26 -1 50.5t-8 68.5t-19 75.5t-36.5 55.5t-57.5 24q-55 0 -81 -34.5t-39 -97.5h-70q11 87 55 142.5t126 55.5q46 0 81.5 -16.5t57.5 -47.5t36.5 -66t21.5 -80.5t9.5 -82.5t2.5 -81q0 -90 -9.5 -156t-32 -117.5t-63.5 -78
t-100 -26.5zM356 328h-250v-45.5t0.5 -49t3 -45t7 -44.5t13.5 -35.5t22 -31t32.5 -18t44.5 -7.5q127 0 127 276z" />
    <glyph glyph-name="afii10846" unicode="&#x4d9;" horiz-adv-x="381" 
d="M274 210h-166v-20q0 -74 18.5 -108.5t61.5 -34.5q80 0 86 163zM107 348h-66q4 87 43 135t103 48q81 0 119.5 -67t38.5 -205t-38.5 -205t-119.5 -67q-150 0 -150 240q0 27 1 41h237q-1 106 -20.5 153.5t-67.5 47.5q-75 0 -80 -121z" />
    <glyph glyph-name="uni04DA" unicode="&#x4da;" horiz-adv-x="474" 
d="M228 -14q-108 0 -150 80t-42 262v70h319q0 26 -1 50.5t-8 68.5t-19 75.5t-36.5 55.5t-57.5 24q-55 0 -81 -34.5t-39 -97.5h-70q11 87 55 142.5t126 55.5q46 0 81.5 -16.5t57.5 -47.5t36.5 -66t21.5 -80.5t9.5 -82.5t2.5 -81q0 -90 -9.5 -156t-32 -117.5t-63.5 -78
t-100 -26.5zM356 328h-250v-45.5t0.5 -49t3 -45t7 -44.5t13.5 -35.5t22 -31t32.5 -18t44.5 -7.5q127 0 127 276zM135 894h74v-94h-74v94zM285 894h74v-94h-74v94z" />
    <glyph glyph-name="uni04DB" unicode="&#x4db;" horiz-adv-x="381" 
d="M274 210h-166v-20q0 -74 18.5 -108.5t61.5 -34.5q80 0 86 163zM107 348h-66q4 87 43 135t103 48q81 0 119.5 -67t38.5 -205t-38.5 -205t-119.5 -67q-150 0 -150 240q0 27 1 41h237q-1 106 -20.5 153.5t-67.5 47.5q-75 0 -80 -121zM81 641v82h70v-82h-70zM229 641v82h70
v-82h-70z" />
    <glyph glyph-name="uni04DC" unicode="&#x4dc;" horiz-adv-x="648" 
d="M361 723v-316h21q58 0 75.5 26t20.5 94q5 87 10 113q19 90 96 90q20 0 32 -5v-69q-5 1 -15 1q-44 0 -48 -63q-3 -62 -11 -125q-5 -38 -24 -63t-50 -29v-3q62 -6 87 -72q7 -18 9.5 -34t3.5 -48.5t3 -54.5q1 -6 2 -19.5t1.5 -18t2 -15t3.5 -14.5t6 -10.5t8.5 -9t12 -4.5
t16.5 -2q10 0 15 1v-69q-15 -8 -36 -8q-76 0 -96 91q-3 16 -11 111q-2 28 -4 42t-6 33t-11 28t-18.5 19t-29.5 13.5t-42 3.5h-23v-337h-74v337h-23q-24 0 -42 -3.5t-29.5 -13.5t-18.5 -19t-11 -28t-6 -33t-4 -42q-8 -95 -11 -111q-20 -91 -96 -91q-21 0 -36 8v69q5 -1 15 -1
q9 0 16.5 2t12 4.5t8.5 9t6 10.5t3.5 14.5t2 15t1.5 18t2 19.5q2 22 3 54.5t3.5 48.5t9.5 34q25 66 87 72v3q-31 4 -50 29t-24 63q-8 63 -11 125q-4 63 -50 63q-9 0 -13 -1v69q12 5 32 5q77 0 96 -90q5 -26 10 -113q3 -68 20.5 -94t75.5 -26h21v316h74zM222 894h74v-94h-74
v94zM372 894h74v-94h-74v94z" />
    <glyph glyph-name="uni04DD" unicode="&#x4dd;" horiz-adv-x="526" 
d="M298 0h-70v243h-39q-16 0 -26 -6.5t-15.5 -22t-7.5 -25t-5 -29.5q-9 -82 -18 -108q-19 -58 -72 -58q-16 0 -29 7v58q4 -1 12 -1q19 1 24 20q6 14 10.5 60t7.5 62q12 61 58 73v1q-38 13 -50 51q-3 11 -12 80q-7 57 -27 57q-5 0 -8 -1v58q16 4 26 4q48 0 62 -52
q4 -17 9.5 -64t10.5 -63q12 -41 51 -41h38v216h70v-216h38q39 0 51 41q5 16 10.5 63t9.5 64q14 52 62 52q10 0 26 -4v-58q-3 1 -8 1q-20 0 -27 -57q-9 -69 -12 -80q-12 -38 -50 -51v-1q46 -12 58 -73q3 -16 7.5 -62t10.5 -60q9 -20 26 -20q6 0 10 1v-58q-13 -7 -29 -7
q-53 0 -72 58q-9 26 -18 108q-3 20 -5 29.5t-7.5 25t-15.5 22t-26 6.5h-39v-243zM154 641v82h70v-82h-70zM302 641v82h70v-82h-70z" />
    <glyph glyph-name="uni04DE" unicode="&#x4de;" horiz-adv-x="468" 
d="M36 192h70q3 -61 32 -100.5t87 -39.5q65 0 97 42t32 104q0 72 -33.5 107.5t-105.5 35.5h-48v70h48q118 0 119 140q0 51 -26.5 86t-81.5 35q-49 0 -77.5 -35.5t-33.5 -95.5h-70q2 91 50 144t142 53q80 0 125.5 -48.5t45.5 -136.5q0 -74 -29.5 -118t-83.5 -54v-2
q133 -20 133 -178q0 -99 -53 -157t-149 -58q-172 0 -190 206zM132 894h74v-94h-74v94zM282 894h74v-94h-74v94z" />
    <glyph glyph-name="uni04DF" unicode="&#x4df;" horiz-adv-x="382" 
d="M32 146h68q5 -99 83 -99q89 0 89 98t-108 98h-30v60h33q95 0 95 90q0 34 -18.5 56t-56.5 22q-74 0 -86 -84h-64q17 143 154 143q64 0 102.5 -32.5t38.5 -102.5q0 -91 -85 -119v-1q97 -17 97 -132q0 -77 -44 -116.5t-111 -39.5q-72 0 -109.5 37.5t-47.5 121.5zM82 641v82
h70v-82h-70zM230 641v82h70v-82h-70z" />
    <glyph glyph-name="uni04E2" unicode="&#x4e2;" horiz-adv-x="508" 
d="M65 0v723h74v-469l-4 -71l19 47l215 454v39h74v-723h-74v474l4 71l-18 -50l-216 -452v-43h-74zM128 820v61h252v-61h-252z" />
    <glyph glyph-name="uni04E3" unicode="&#x4e3;" horiz-adv-x="426" 
d="M62 0v519h70v-318l-4 -56l22 53l144 291v30h70v-519h-70v314l4 56l-23 -56l-143 -281v-33h-70zM87 652v61h252v-61h-252z" />
    <glyph glyph-name="uni04E4" unicode="&#x4e4;" horiz-adv-x="508" 
d="M65 0v723h74v-469l-4 -71l19 47l215 454v39h74v-723h-74v474l4 71l-18 -50l-216 -452v-43h-74zM152 894h74v-94h-74v94zM302 894h74v-94h-74v94z" />
    <glyph glyph-name="uni04E5" unicode="&#x4e5;" horiz-adv-x="426" 
d="M62 0v519h70v-318l-4 -56l22 53l144 291v30h70v-519h-70v314l4 56l-23 -56l-143 -281v-33h-70zM104 641v82h70v-82h-70zM252 641v82h70v-82h-70z" />
    <glyph glyph-name="uni04E6" unicode="&#x4e6;" horiz-adv-x="481" 
d="M240 670q-63 0 -92 -71t-29 -220q0 -168 28 -246.5t93 -78.5q64 0 92.5 75t28.5 233t-28.5 233t-92.5 75zM240 -14q-98 0 -148.5 95t-50.5 281q0 375 199 375q98 0 149 -94.5t51 -280.5t-51 -281t-149 -95zM138 894h74v-94h-74v94zM288 894h74v-94h-74v94z" />
    <glyph glyph-name="uni04E7" unicode="&#x4e7;" horiz-adv-x="382" 
d="M35 259q0 138 38.5 205t119.5 67q154 0 154 -272t-154 -272q-81 0 -119.5 67t-38.5 205zM106 259q0 -111 19 -160.5t67 -49.5q44 0 63.5 51t19.5 159q0 109 -19.5 160t-63.5 51q-48 0 -67 -50t-19 -161zM82 641v82h70v-82h-70zM230 641v82h70v-82h-70z" />
    <glyph glyph-name="uni04E8" unicode="&#x4e8;" horiz-adv-x="481" 
d="M240 -14q-98 0 -148.5 95t-50.5 281q0 375 199 375q98 0 149 -94.5t51 -280.5t-51 -281t-149 -95zM240 54q62 0 90.5 71t30.5 219h-242q2 -150 30.5 -220t90.5 -70zM240 670q-60 0 -89 -63t-32 -194h241q-7 257 -120 257z" />
    <glyph glyph-name="uni04E9" unicode="&#x4e9;" horiz-adv-x="382" 
d="M35 259q0 138 38.5 205t119.5 67q154 0 154 -272t-154 -272q-81 0 -119.5 67t-38.5 205zM192 49q42 0 61.5 46.5t21.5 145.5h-169q2 -101 21 -146.5t65 -45.5zM192 470q-43 0 -63 -40.5t-23 -128.5h168q-3 86 -22.5 127.5t-59.5 41.5z" />
    <glyph glyph-name="uni04EA" unicode="&#x4ea;" horiz-adv-x="481" 
d="M240 -14q-98 0 -148.5 95t-50.5 281q0 375 199 375q98 0 149 -94.5t51 -280.5t-51 -281t-149 -95zM240 54q62 0 90.5 71t30.5 219h-242q2 -150 30.5 -220t90.5 -70zM240 670q-60 0 -89 -63t-32 -194h241q-7 257 -120 257zM138 894h74v-94h-74v94zM288 894h74v-94h-74v94z
" />
    <glyph glyph-name="uni04EB" unicode="&#x4eb;" horiz-adv-x="382" 
d="M35 259q0 138 38.5 205t119.5 67q154 0 154 -272t-154 -272q-81 0 -119.5 67t-38.5 205zM192 49q42 0 61.5 46.5t21.5 145.5h-169q2 -101 21 -146.5t65 -45.5zM192 470q-43 0 -63 -40.5t-23 -128.5h168q-3 86 -22.5 127.5t-59.5 41.5zM82 641v82h70v-82h-70zM230 641v82
h70v-82h-70z" />
    <glyph glyph-name="uni04EE" unicode="&#x4ee;" horiz-adv-x="384" 
d="M12 -4v68q26 -7 53 -7q49 0 76 40q19 27 34 74l-182 552h80l132 -440l115 440h74l-137 -491q-38 -139 -68 -184q-40 -62 -117 -62q-22 0 -60 10zM66 820v61h252v-61h-252z" />
    <glyph glyph-name="uni04EF" unicode="&#x4ef;" horiz-adv-x="347" 
d="M9 519h72l90 -391l88 391h69l-121 -517q-22 -94 -61 -135.5t-112 -41.5q-15 0 -22 1v64q6 -1 18 -1q48 0 74 28t37 89zM47 652v61h252v-61h-252z" />
    <glyph glyph-name="uni04F0" unicode="&#x4f0;" horiz-adv-x="384" 
d="M12 -4v68q26 -7 53 -7q49 0 76 40q19 27 34 74l-182 552h80l132 -440l115 440h74l-137 -491q-38 -139 -68 -184q-40 -62 -117 -62q-22 0 -60 10zM90 894h74v-94h-74v94zM240 894h74v-94h-74v94z" />
    <glyph glyph-name="uni04F1" unicode="&#x4f1;" horiz-adv-x="347" 
d="M9 519h72l90 -391l88 391h69l-121 -517q-22 -94 -61 -135.5t-112 -41.5q-15 0 -22 1v64q6 -1 18 -1q48 0 74 28t37 89zM64 641v82h70v-82h-70zM212 641v82h70v-82h-70z" />
    <glyph glyph-name="uni04F2" unicode="&#x4f2;" horiz-adv-x="384" 
d="M12 -4v68q26 -7 53 -7q49 0 76 40q19 27 34 74l-182 552h80l132 -440l115 440h74l-137 -491q-38 -139 -68 -184q-40 -62 -117 -62q-22 0 -60 10zM99 791l72 171h77l-108 -171h-41zM225 791l82 171h76l-117 -171h-41z" />
    <glyph glyph-name="uni04F3" unicode="&#x4f3;" horiz-adv-x="347" 
d="M9 519h72l90 -391l88 391h69l-121 -517q-22 -94 -61 -135.5t-112 -41.5q-15 0 -22 1v64q6 -1 18 -1q48 0 74 28t37 89zM80 585l72 171h77l-108 -171h-41zM206 585l82 171h76l-117 -171h-41z" />
    <glyph glyph-name="uni04F4" unicode="&#x4f4;" horiz-adv-x="460" 
d="M321 0v317q-63 -19 -133 -19q-136 0 -136 132v293h74v-280q0 -40 15 -59.5t58 -19.5q59 0 122 18v341h74v-723h-74zM128 894h74v-94h-74v94zM278 894h74v-94h-74v94z" />
    <glyph glyph-name="uni04F5" unicode="&#x4f5;" horiz-adv-x="390" 
d="M258 0v223q-62 -16 -109 -16q-55 0 -81 31.5t-26 85.5v195h70v-176q0 -42 13.5 -59t54.5 -17t78 12v240h70v-519h-70zM86 641v82h70v-82h-70zM234 641v82h70v-82h-70z" />
    <glyph glyph-name="uni04F8" unicode="&#x4f8;" horiz-adv-x="616" 
d="M65 0v723h74v-298h106q90 0 136 -59t46 -157q0 -100 -50 -154.5t-143 -54.5h-169zM139 66h83q66 0 98 34t32 113q0 62 -34.5 103.5t-92.5 41.5h-86v-292zM477 0v723h74v-723h-74zM206 894h74v-94h-74v94zM356 894h74v-94h-74v94z" />
    <glyph glyph-name="uni04F9" unicode="&#x4f9;" horiz-adv-x="554" 
d="M422 0v519h70v-519h-70zM62 0v519h70v-209h84q152 0 152 -155t-153 -155h-153zM132 60h60q51 0 77.5 20.5t26.5 75.5q0 52 -25.5 73t-75.5 21h-63v-190zM168 641v82h70v-82h-70zM316 641v82h70v-82h-70z" />
    <glyph glyph-name="uni1E9E" unicode="&#x1e9e;" horiz-adv-x="860" 
d="M36 192h70q7 -139 115 -139q48 0 77 33t29 87t-32.5 94t-107.5 95q-51 37 -77.5 63.5t-44.5 64t-18 84.5q0 69 45.5 116t114.5 47q81 0 127.5 -51.5t49.5 -144.5h-69q-9 134 -105 134q-44 0 -70.5 -27.5t-26.5 -73.5q0 -48 35 -85q17 -18 39 -35.5t51 -39t45 -34.5
q59 -48 86.5 -95.5t27.5 -108.5q0 -86 -49 -138t-129 -52q-86 0 -134 53.5t-49 152.5zM461 192h70q7 -139 115 -139q48 0 77 33t29 87t-32.5 94t-107.5 95q-51 37 -77.5 63.5t-44.5 64t-18 84.5q0 69 45.5 116t114.5 47q81 0 127.5 -51.5t49.5 -144.5h-69q-9 134 -105 134
q-44 0 -70.5 -27.5t-26.5 -73.5q0 -48 35 -85q17 -18 39 -35.5t51 -39t45 -34.5q59 -48 86.5 -95.5t27.5 -108.5q0 -86 -49 -138t-129 -52q-86 0 -134 53.5t-49 152.5z" />
    <glyph glyph-name="uni2010" unicode="&#x2010;" horiz-adv-x="329" 
d="M45 228v62h239v-62h-239z" />
    <glyph glyph-name="uni2011" unicode="&#x2011;" horiz-adv-x="329" 
d="M45 228v62h239v-62h-239z" />
    <glyph glyph-name="figuredash" unicode="&#x2012;" horiz-adv-x="400" 
d="M0 342v46h400v-46h-400z" />
    <glyph glyph-name="endash" unicode="&#x2013;" horiz-adv-x="400" 
d="M0 236v46h400v-46h-400z" />
    <glyph glyph-name="emdash" unicode="&#x2014;" horiz-adv-x="700" 
d="M0 282h700v-46h-700v46z" />
    <glyph glyph-name="quoteleft" unicode="&#x2018;" horiz-adv-x="213" 
d="M148 592v-89h-79v95l59 139h29l-45 -145h36z" />
    <glyph glyph-name="quoteright" unicode="&#x2019;" horiz-adv-x="213" 
d="M72 648v89h79v-94l-59 -140h-29l45 145h-36z" />
    <glyph glyph-name="quotesinglbase" unicode="&#x201a;" horiz-adv-x="213" 
d="M71 2v89h79v-95l-59 -139h-29l44 145h-35z" />
    <glyph glyph-name="quotedblleft" unicode="&#x201c;" horiz-adv-x="365" 
d="M148 592v-89h-79v95l59 139h29l-45 -145h36zM299 592v-89h-79v95l60 139h29l-45 -145h35z" />
    <glyph glyph-name="quotedblright" unicode="&#x201d;" horiz-adv-x="365" 
d="M72 648v89h79v-94l-59 -140h-29l45 145h-36zM224 648v89h79v-94l-59 -140h-29l44 145h-35z" />
    <glyph glyph-name="quotedblbase" unicode="&#x201e;" horiz-adv-x="365" 
d="M68 1v89h79v-95l-59 -139h-29l44 145h-35zM219 1v89h79v-95l-59 -139h-29l45 145h-36z" />
    <glyph glyph-name="dagger" unicode="&#x2020;" 
d="M230 -110q-2 280 -27 419q20 92 28 175l-159 -25v87l159 -26l-26 203h89l-26 -203l160 26v-87l-161 25q11 -95 27 -175q-23 -115 -26 -419h-38z" />
    <glyph glyph-name="daggerdbl" unicode="&#x2021;" 
d="M204 312q24 114 27 172l-158 -25v87l159 -26l-27 203h90l-27 -203l160 26v-87l-161 25q12 -101 30 -172q-20 -76 -28 -171l159 25v-87l-160 25l27 -203h-90l27 204l-159 -26v87l160 -25q-12 103 -29 171z" />
    <glyph glyph-name="bullet" unicode="&#x2022;" horiz-adv-x="590" 
d="M150 372q0 60 42.5 102t102.5 42q59 0 101.5 -42t42.5 -102q0 -59 -42.5 -102t-102.5 -43t-102 42.5t-42 102.5z" />
    <glyph glyph-name="ellipsis" unicode="&#x2026;" horiz-adv-x="1000" 
d="M127 0v89h79v-89h-79zM460 0v89h79v-89h-79zM794 0v89h79v-89h-79z" />
    <glyph glyph-name="perthousand" unicode="&#x2030;" horiz-adv-x="1104" 
d="M543 292q63 0 107 -44.5t44 -107.5t-44 -107.5t-107 -44.5t-107.5 44.5t-44.5 107.5t44.5 107.5t107.5 44.5zM542 237q-40 0 -68.5 -28.5t-28.5 -68.5t28.5 -68.5t68.5 -28.5t68.5 28.5t28.5 68.5t-28.5 68.5t-68.5 28.5zM912 292q63 0 107.5 -44.5t44.5 -107.5
t-44.5 -107.5t-107.5 -44.5t-107.5 44.5t-44.5 107.5t44.5 107.5t107.5 44.5zM912 237q-41 0 -69.5 -28.5t-28.5 -68.5t28.5 -68.5t69.5 -28.5q40 0 68.5 28.5t28.5 68.5t-28.5 68.5t-68.5 28.5zM195 729q63 0 107.5 -44.5t44.5 -107.5t-44.5 -107.5t-107.5 -44.5
t-107.5 44.5t-44.5 107.5t44.5 107.5t107.5 44.5zM195 674q-41 0 -69.5 -28.5t-28.5 -68.5t28.5 -68.5t69.5 -28.5t69 28t28 69t-28 69t-69 28zM114 -14l443 745h55l-443 -745h-55z" />
    <glyph glyph-name="guilsinglleft" unicode="&#x2039;" horiz-adv-x="264" 
d="M216 411l-116 -152l116 -152h-61l-118 152l119 152h60z" />
    <glyph glyph-name="guilsinglright" unicode="&#x203a;" horiz-adv-x="264" 
d="M38 411h60l118 -152l-118 -152h-61l116 152z" />
    <glyph glyph-name="fraction" unicode="&#x2044;" horiz-adv-x="167" 
d="M-166 -14l441 739h53l-441 -739h-53z" />
    <glyph glyph-name="Euro" unicode="&#x20ac;" horiz-adv-x="425" 
d="M17 440h39q6 153 44.5 222t124.5 69q77 0 115.5 -53t49.5 -168h-70q-7 83 -29 120.5t-66 37.5q-52 0 -74 -53.5t-26 -174.5h179l-12 -39h-168v-73h165l-12 -39h-152q3 -127 24.5 -183t75.5 -56q23 0 39.5 10.5t26.5 25.5t16.5 41.5t9.5 50t5 59.5h71
q-10 -130 -48.5 -189.5t-119.5 -59.5q-88 0 -126.5 71.5t-43.5 229.5h-56l12 39h43v73h-49z" />
    <glyph glyph-name="uni20B4" unicode="&#x20b4;" horiz-adv-x="425" 
d="M38 449h199q71 62 71 145q0 75 -87 75q-91 0 -99 -107h-65q3 84 47.5 126.5t119.5 42.5q69 0 109.5 -37.5t40.5 -99.5q0 -87 -48 -145h53v-39h-90q-20 -20 -70 -63h160v-39h-202q-63 -63 -63 -155q0 -48 24.5 -74.5t71.5 -26.5t74 31.5t31 87.5h70q-2 -84 -48.5 -133.5
t-124.5 -49.5q-80 0 -124 44t-44 124q0 88 46 152h-52v39h85q16 18 68 63h-153v39z" />
    <glyph glyph-name="uni20B6" unicode="&#x20b6;" horiz-adv-x="425" 
d="M12 360h59v363h107q219 0 219 -210t-219 -210h-37v-78h131v-57h-131v-168h-70v168h-59v57h59v78h-59v57zM141 360h53q70 0 103.5 40t33.5 109q0 151 -137 151h-53v-300z" />
    <glyph glyph-name="uni20B6" unicode="&#x20cf;" horiz-adv-x="425" 
d="M12 360h59v363h107q219 0 219 -210t-219 -210h-37v-78h131v-57h-131v-168h-70v168h-59v57h59v78h-59v57zM141 360h53q70 0 103.5 40t33.5 109q0 151 -137 151h-53v-300z" />
    <glyph glyph-name="uni20B6" unicode="&#x20ce;" horiz-adv-x="425" 
d="M12 360h59v363h107q219 0 219 -210t-219 -210h-37v-78h131v-57h-131v-168h-70v168h-59v57h59v78h-59v57zM141 360h53q70 0 103.5 40t33.5 109q0 151 -137 151h-53v-300z" />
    <glyph glyph-name="uni20B6" unicode="&#x20cd;" horiz-adv-x="425" 
d="M12 360h59v363h107q219 0 219 -210t-219 -210h-37v-78h131v-57h-131v-168h-70v168h-59v57h59v78h-59v57zM141 360h53q70 0 103.5 40t33.5 109q0 151 -137 151h-53v-300z" />
    <glyph glyph-name="uni20B6" unicode="&#x20cc;" horiz-adv-x="425" 
d="M12 360h59v363h107q219 0 219 -210t-219 -210h-37v-78h131v-57h-131v-168h-70v168h-59v57h59v78h-59v57zM141 360h53q70 0 103.5 40t33.5 109q0 151 -137 151h-53v-300z" />
    <glyph glyph-name="uni20B6" unicode="&#x20cb;" horiz-adv-x="425" 
d="M12 360h59v363h107q219 0 219 -210t-219 -210h-37v-78h131v-57h-131v-168h-70v168h-59v57h59v78h-59v57zM141 360h53q70 0 103.5 40t33.5 109q0 151 -137 151h-53v-300z" />
    <glyph glyph-name="uni20B6" unicode="&#x20ca;" horiz-adv-x="425" 
d="M12 360h59v363h107q219 0 219 -210t-219 -210h-37v-78h131v-57h-131v-168h-70v168h-59v57h59v78h-59v57zM141 360h53q70 0 103.5 40t33.5 109q0 151 -137 151h-53v-300z" />
    <glyph glyph-name="uni20B6" unicode="&#x20c9;" horiz-adv-x="425" 
d="M12 360h59v363h107q219 0 219 -210t-219 -210h-37v-78h131v-57h-131v-168h-70v168h-59v57h59v78h-59v57zM141 360h53q70 0 103.5 40t33.5 109q0 151 -137 151h-53v-300z" />
    <glyph glyph-name="uni20B6" unicode="&#x20c8;" horiz-adv-x="425" 
d="M12 360h59v363h107q219 0 219 -210t-219 -210h-37v-78h131v-57h-131v-168h-70v168h-59v57h59v78h-59v57zM141 360h53q70 0 103.5 40t33.5 109q0 151 -137 151h-53v-300z" />
    <glyph glyph-name="uni20B6" unicode="&#x20c7;" horiz-adv-x="425" 
d="M12 360h59v363h107q219 0 219 -210t-219 -210h-37v-78h131v-57h-131v-168h-70v168h-59v57h59v78h-59v57zM141 360h53q70 0 103.5 40t33.5 109q0 151 -137 151h-53v-300z" />
    <glyph glyph-name="uni20B6" unicode="&#x20c6;" horiz-adv-x="425" 
d="M12 360h59v363h107q219 0 219 -210t-219 -210h-37v-78h131v-57h-131v-168h-70v168h-59v57h59v78h-59v57zM141 360h53q70 0 103.5 40t33.5 109q0 151 -137 151h-53v-300z" />
    <glyph glyph-name="uni20B6" unicode="&#x20c5;" horiz-adv-x="425" 
d="M12 360h59v363h107q219 0 219 -210t-219 -210h-37v-78h131v-57h-131v-168h-70v168h-59v57h59v78h-59v57zM141 360h53q70 0 103.5 40t33.5 109q0 151 -137 151h-53v-300z" />
    <glyph glyph-name="uni20B6" unicode="&#x20c4;" horiz-adv-x="425" 
d="M12 360h59v363h107q219 0 219 -210t-219 -210h-37v-78h131v-57h-131v-168h-70v168h-59v57h59v78h-59v57zM141 360h53q70 0 103.5 40t33.5 109q0 151 -137 151h-53v-300z" />
    <glyph glyph-name="uni20B6" unicode="&#x20c3;" horiz-adv-x="425" 
d="M12 360h59v363h107q219 0 219 -210t-219 -210h-37v-78h131v-57h-131v-168h-70v168h-59v57h59v78h-59v57zM141 360h53q70 0 103.5 40t33.5 109q0 151 -137 151h-53v-300z" />
    <glyph glyph-name="uni20B6" unicode="&#x20c2;" horiz-adv-x="425" 
d="M12 360h59v363h107q219 0 219 -210t-219 -210h-37v-78h131v-57h-131v-168h-70v168h-59v57h59v78h-59v57zM141 360h53q70 0 103.5 40t33.5 109q0 151 -137 151h-53v-300z" />
    <glyph glyph-name="uni20B6" unicode="&#x20c1;" horiz-adv-x="425" 
d="M12 360h59v363h107q219 0 219 -210t-219 -210h-37v-78h131v-57h-131v-168h-70v168h-59v57h59v78h-59v57zM141 360h53q70 0 103.5 40t33.5 109q0 151 -137 151h-53v-300z" />
    <glyph glyph-name="uni20B6" unicode="&#x20c0;" horiz-adv-x="425" 
d="M12 360h59v363h107q219 0 219 -210t-219 -210h-37v-78h131v-57h-131v-168h-70v168h-59v57h59v78h-59v57zM141 360h53q70 0 103.5 40t33.5 109q0 151 -137 151h-53v-300z" />
    <glyph glyph-name="uni20B6" unicode="&#x20bf;" horiz-adv-x="425" 
d="M12 360h59v363h107q219 0 219 -210t-219 -210h-37v-78h131v-57h-131v-168h-70v168h-59v57h59v78h-59v57zM141 360h53q70 0 103.5 40t33.5 109q0 151 -137 151h-53v-300z" />
    <glyph glyph-name="uni20B6" unicode="&#x20be;" horiz-adv-x="425" 
d="M12 360h59v363h107q219 0 219 -210t-219 -210h-37v-78h131v-57h-131v-168h-70v168h-59v57h59v78h-59v57zM141 360h53q70 0 103.5 40t33.5 109q0 151 -137 151h-53v-300z" />
    <glyph glyph-name="uni20B6" unicode="&#x20bd;" horiz-adv-x="425" 
d="M12 360h59v363h107q219 0 219 -210t-219 -210h-37v-78h131v-57h-131v-168h-70v168h-59v57h59v78h-59v57zM141 360h53q70 0 103.5 40t33.5 109q0 151 -137 151h-53v-300z" />
    <glyph glyph-name="uni20B6" unicode="&#x20bc;" horiz-adv-x="425" 
d="M12 360h59v363h107q219 0 219 -210t-219 -210h-37v-78h131v-57h-131v-168h-70v168h-59v57h59v78h-59v57zM141 360h53q70 0 103.5 40t33.5 109q0 151 -137 151h-53v-300z" />
    <glyph glyph-name="uni20B6" unicode="&#x20bb;" horiz-adv-x="425" 
d="M12 360h59v363h107q219 0 219 -210t-219 -210h-37v-78h131v-57h-131v-168h-70v168h-59v57h59v78h-59v57zM141 360h53q70 0 103.5 40t33.5 109q0 151 -137 151h-53v-300z" />
    <glyph glyph-name="uni20B6" unicode="&#x20ba;" horiz-adv-x="425" 
d="M12 360h59v363h107q219 0 219 -210t-219 -210h-37v-78h131v-57h-131v-168h-70v168h-59v57h59v78h-59v57zM141 360h53q70 0 103.5 40t33.5 109q0 151 -137 151h-53v-300z" />
    <glyph glyph-name="uni20B6" unicode="&#x20b9;" horiz-adv-x="425" 
d="M12 360h59v363h107q219 0 219 -210t-219 -210h-37v-78h131v-57h-131v-168h-70v168h-59v57h59v78h-59v57zM141 360h53q70 0 103.5 40t33.5 109q0 151 -137 151h-53v-300z" />
    <glyph glyph-name="uni20B6" unicode="&#x20b7;" horiz-adv-x="425" 
d="M12 360h59v363h107q219 0 219 -210t-219 -210h-37v-78h131v-57h-131v-168h-70v168h-59v57h59v78h-59v57zM141 360h53q70 0 103.5 40t33.5 109q0 151 -137 151h-53v-300z" />
    <glyph glyph-name="uni20B8" unicode="&#x20b8;" horiz-adv-x="425" 
d="M175 0v538h-144v62h363v-62h-146v-538h-73zM394 661h-363v62h363v-62z" />
    <glyph glyph-name="afii61352" unicode="&#x2116;" horiz-adv-x="780" 
d="M599 722q121 0 121 -183q0 -184 -121 -184q-120 0 -120 184q0 183 120 183zM598 668q-57 0 -57 -129q0 -130 59 -130q58 0 58 130q0 129 -60 129zM485 286h229v-56h-229v56zM186 500q-30 81 -55 167v-667h-65v723h108l149 -410q34 -97 59 -180q-6 62 -6 158v432h65v-723
h-73z" />
    <glyph glyph-name="uni2117" unicode="&#x2117;" horiz-adv-x="735" 
d="M267 565h81q78 0 114 -27.5t36 -86.5q0 -117 -143 -117h-26v-181h-62v412zM336 523h-7v-148h7q54 0 76 15.5t22 56.5t-22.5 58.5t-75.5 17.5zM367 711q147 0 237.5 -102.5t90.5 -255.5t-90.5 -255.5t-237.5 -102.5q-146 0 -236.5 102.5t-90.5 255.5t90 255.5t237 102.5z
M646 353q0 140 -74 229.5t-205 89.5t-204.5 -89.5t-73.5 -229.5t73.5 -229t204.5 -89t205 89t74 229z" />
    <glyph glyph-name="trademark" unicode="&#x2122;" horiz-adv-x="707" 
d="M269 711v-54h-64v-207h-66v207h-64v54h194zM416 711l42 -178l39 178h98v-261h-60v214l-54 -214h-46l-56 214v-214h-60v261h97z" />
    <glyph glyph-name="Omega" unicode="&#x2126;" horiz-adv-x="486" 
d="M42 0v64h105q-60 55 -82 131.5t-22 201.5q0 157 55 248.5t146 91.5q101 0 150 -89t49 -251q0 -132 -19.5 -206t-83.5 -127h104v-64h-165v62q52 48 69 122t17 207q0 62 -5 108.5t-18 87t-37.5 61.5t-61.5 21q-122 0 -122 -278q0 -133 17 -207t69 -122v-62h-165z" />
    <glyph glyph-name="partialdiff" unicode="&#x2202;" horiz-adv-x="514" 
d="M89 643l9 57q168 -18 272.5 -136t104.5 -304q0 -125 -53.5 -198t-167.5 -73q-90 0 -151 66.5t-61 163.5q0 99 57 166.5t149 67.5q108 0 159 -72q-32 111 -116 179.5t-202 82.5zM258 397q-74 0 -114 -54t-40 -125q0 -74 42 -123.5t115 -49.5t112 49t39 131
q0 75 -40.5 123.5t-113.5 48.5z" />
    <glyph glyph-name="Delta" unicode="&#x2206;" horiz-adv-x="445" 
d="M10 0l161 723h102l162 -723h-425zM96 68h247l-123 591z" />
    <glyph glyph-name="product" unicode="&#x220f;" horiz-adv-x="564" 
d="M10 769h544v-65h-76v-884h76v-65h-222v65h71v884h-242v-884h70v-65h-221v65h76v884h-76v65z" />
    <glyph glyph-name="summation" unicode="&#x2211;" horiz-adv-x="480" 
d="M449 772v-236h-68v168h-292l199 -426l-199 -458h302v167h69v-235h-450v66l197 460l-197 431v63h439z" />
    <glyph glyph-name="minus" unicode="&#x2212;" horiz-adv-x="633" 
d="M124 322h385v-48h-385v48z" />
    <glyph glyph-name="uni2215" unicode="&#x2215;" horiz-adv-x="454" 
d="M-20 -14l441 739h53l-441 -739h-53z" />
    <glyph glyph-name="radical" unicode="&#x221a;" horiz-adv-x="686" 
d="M686 843v-64h-206l-221 -779h-91l-86 301h-82v64h136l77 -279h5l209 757h259z" />
    <glyph glyph-name="infinity" unicode="&#x221e;" horiz-adv-x="686" 
d="M344 299q-21 -30 -47 -55q-48 -45 -127 -45q-64 0 -105 40.5t-41 111.5q0 69 41 109.5t112 40.5q38 0 65 -11t56 -38q22 -21 44 -50q25 31 38 45q54 56 133 56q56 0 102 -36.5t46 -117.5q0 -75 -43 -113t-108 -38q-75 0 -127 55q-14 15 -39 46zM378 351q14 -24 35 -48
q43 -49 96 -49q43 0 66.5 24.5t23.5 70.5q0 47 -24.5 72.5t-68.5 25.5q-57 0 -97 -53q-23 -30 -31 -43zM308 350q-14 24 -35 48q-41 47 -92 47q-46 0 -70.5 -25.5t-24.5 -70.5q0 -44 24 -69t68 -25q55 0 98 52q19 21 32 43z" />
    <glyph glyph-name="integral" unicode="&#x222b;" horiz-adv-x="519" 
d="M113 -235l16 65q22 -10 44 -10q35 0 44 23t9 89v648q0 35 1 56t6.5 50t16.5 45t31.5 28t50.5 12q43 0 74 -12l-16 -64q-24 10 -43 10q-18 0 -29 -9t-16 -30.5t-6.5 -43t-1.5 -59.5v-619q0 -38 -1 -59.5t-7.5 -50t-19 -43.5t-36.5 -26t-58 -11q-30 0 -59 11z" />
    <glyph glyph-name="approxequal" unicode="&#x2248;" horiz-adv-x="633" 
d="M547 401q-69 -70 -139 -70q-38 0 -94 33.5t-88 33.5q-60 0 -139 -78v55q72 71 139 71q38 0 94 -34t88 -34q61 0 139 78v-55zM547 221q-69 -70 -139 -70q-38 0 -94 33.5t-88 33.5q-60 0 -139 -78v55q72 71 139 71q38 0 94 -34t88 -34q61 0 139 78v-55z" />
    <glyph glyph-name="notequal" unicode="&#x2260;" horiz-adv-x="633" 
d="M195 0h-55l91 183h-107v48h131l67 134h-198v48h222l92 183h55l-92 -183h108v-48h-132l-67 -134h199v-48h-223z" />
    <glyph glyph-name="lessequal" unicode="&#x2264;" horiz-adv-x="633" 
d="M509 73v-48h-385v48h385zM509 575l-323 -197l323 -196v-59l-385 235v40l385 236v-59z" />
    <glyph glyph-name="greaterequal" unicode="&#x2265;" horiz-adv-x="633" 
d="M124 25v48h385v-48h-385zM447 378l-323 197v59l385 -236v-40l-385 -235v59z" />
    <glyph glyph-name="lozenge" unicode="&#x25ca;" horiz-adv-x="833" 
d="M417 696l285 -383l-285 -382l-285 382zM417 601l-212 -288l212 -287l212 287z" />
    <glyph glyph-name="uni2606" unicode="&#x2606;" horiz-adv-x="833" 
d="M415 748l96 -299h317l-253 -193l92 -300l-252 185l-253 -185l95 300l-253 193h314zM415 588l-53 -192h-200l161 -121l-65 -185l157 119l158 -120l-65 186l161 121h-201z" />
    <glyph glyph-name="uniF400" unicode="&#xf400;" horiz-adv-x="2" 
d="M-235 585l102 171h87l-137 -171h-52z" />
    <glyph glyph-name="uniF401" unicode="&#xf401;" horiz-adv-x="2" 
d="M-265 791l102 171h87l-137 -171h-52z" />
    <glyph glyph-name="uniF406" unicode="&#xf406;" 
d="M112 907h44q3 -37 25.5 -54t68.5 -17t68.5 17t25.5 54h44q-5 -69 -38.5 -101t-99.5 -32t-100 32.5t-38 100.5z" />
    <glyph glyph-name="uniF407" unicode="&#xf407;" 
d="M128 -207v43q78 -18 120 -18q59 0 59 41q0 48 -67 48q-16 0 -25 -1v94h35v-52h11q110 0 110 -86q0 -89 -121 -89q-45 0 -122 20z" />
    <glyph glyph-name="uniF408" unicode="&#xf408;" 
d="M110 791l96 171h87l96 -171h-52l-87 119l-88 -119h-52z" />
    <glyph glyph-name="uniF409" unicode="&#xf409;" horiz-adv-x="213" 
d="M71 -142v89h79v-95l-55 -119h-29l40 125h-35z" />
    <glyph glyph-name="uniF40A" unicode="&#xf40a;" horiz-adv-x="213" 
d="M72 634v89h79v-94l-59 -120h-29l45 125h-36z" />
    <glyph glyph-name="uniF40B" unicode="&#xf40b;" 
d="M207 800v101h86v-101h-86z" />
    <glyph glyph-name="uniF40C" unicode="&#xf40c;" 
d="M129 834q0 51 35 86t86 35t86 -35t35 -86t-35 -86t-86 -35t-86 35t-35 86zM181 834q0 -29 20 -49.5t49 -20.5t49.5 20.5t20.5 49.5t-20.5 49.5t-49.5 20.5q-30 0 -49.5 -20t-19.5 -50z" />
    <glyph glyph-name="uniF40D" unicode="&#xf40d;" 
d="M395 922q-24 -94 -97 -94q-12 0 -32 6l-39 13q-12 4 -26 4q-33 0 -47 -31h-43q21 91 97 91q14 0 29 -5l38 -13q17 -5 30 -5q35 0 47 34h43z" />
    <glyph glyph-name="uniF40E" unicode="&#xf40e;" 
d="M284 0q-67 -61 -67 -109q0 -22 10.5 -31t36.5 -9h40v-63h-39q-108 0 -108 80q0 34 21.5 64t69.5 68h36z" />
    <glyph glyph-name="uniF4C6" unicode="&#xf4c6;" horiz-adv-x="460" 
d="M321 0v317q-63 -19 -133 -19q-136 0 -136 132v293h74v-280q0 -40 15 -59.5t58 -19.5q59 0 122 18v341h74v-691q0 -103 -21 -141q-37 -65 -133 -65q-28 0 -58 6l3 69q31 -10 62 -10q42 0 56.5 25.5t16.5 83.5z" />
    <glyph glyph-name="uniF4C7" unicode="&#xf4c7;" horiz-adv-x="390" 
d="M328 -38q0 -74 -20 -105t-75 -31q-15 0 -48 4v57q18 -2 24 -2q32 0 40.5 19.5t8.5 74.5v244q-62 -16 -109 -16q-55 0 -81 31.5t-26 85.5v195h70v-176q0 -42 13.5 -59t54.5 -17t78 12v240h70v-557z" />
    <glyph glyph-name="uniF4CC" unicode="&#xf4cc;" horiz-adv-x="384" 
d="M12 -4v68q26 -7 53 -7q49 0 76 40q19 27 34 74l-182 552h80l132 -440l115 440h74l-137 -491q-38 -139 -68 -184q-40 -62 -117 -62q-22 0 -60 10zM125 791l102 171h87l-137 -171h-52z" />
    <glyph glyph-name="uniF4CD" unicode="&#xf4cd;" horiz-adv-x="347" 
d="M9 519h72l90 -391l88 391h69l-121 -517q-22 -94 -61 -135.5t-112 -41.5q-15 0 -22 1v64q6 -1 18 -1q48 0 74 28t37 89zM106 585l102 171h87l-137 -171h-52z" />
    <glyph glyph-name="dollar.fitted" unicode="&#xf5f5;" horiz-adv-x="370" 
d="M158 -113v113q-139 23 -148 196h60q5 -122 88 -134v295q-134 94 -134 209q0 63 36 103.5t98 45.5v98h50v-98q124 -15 135 -174h-56q-5 102 -79 121v-264q80 -60 115.5 -111t35.5 -116q0 -74 -39.5 -118.5t-111.5 -52.5v-113h-50zM208 59q43 3 68 33.5t25 78.5
q0 83 -93 149v-261zM158 434v228q-38 -3 -58.5 -27t-20.5 -64q0 -78 79 -137z" />
    <glyph glyph-name="Euro.fitted" unicode="&#xf5f6;" horiz-adv-x="427" 
d="M31 440h39q6 153 44.5 222t124.5 69q77 0 115.5 -53t49.5 -168h-70q-7 83 -29 120.5t-66 37.5q-52 0 -74 -53.5t-26 -174.5h179l-12 -39h-168v-73h165l-12 -39h-152q3 -127 24.5 -183t75.5 -56q23 0 39.5 10.5t26.5 25.5t16.5 41.5t9.5 50t5 59.5h71
q-10 -130 -48.5 -189.5t-119.5 -59.5q-88 0 -126.5 71.5t-43.5 229.5h-56l12 39h43v73h-49z" />
    <glyph glyph-name="cent.fitted" unicode="&#xf5f7;" horiz-adv-x="317" 
d="M254 370q-2 75 -38 96l-66 -409q13 -3 24 -3q74 0 77 127h58q-4 -89 -41 -135t-104 -46q-14 0 -22 1l-24 -145h-44l25 161q-46 26 -66 87.5t-20 166.5q0 260 164 260h6l20 126h44l-21 -131q78 -22 84 -156h-56zM174 478h-9q-51 0 -70 -53t-19 -177q0 -120 34 -169z" />
    <glyph glyph-name="sterling.fitted" unicode="&#xf5f8;" horiz-adv-x="400" 
d="M19 -8v72q46 25 64.5 67t18.5 113q0 40 -6 86h-77v53h67q-3 18 -9.5 51t-9.5 50.5t-5.5 39.5t-2.5 39q0 76 39 121t102 45q77 0 117.5 -52t40.5 -152h-64q-3 144 -91 144q-37 0 -58 -25t-21 -69q0 -22 30 -192h101v-53h-92q5 -39 5 -83q0 -63 -21 -123q44 -64 99 -64
q37 0 52.5 30t17.5 99h65v-4q0 -196 -128 -196q-36 0 -66 18.5t-66 58.5q-38 -56 -102 -74z" />
    <glyph glyph-name="yen.fitted" unicode="&#xf5f9;" horiz-adv-x="411" 
d="M399 718l-101 -259h88v-39h-103l-29 -73h132v-39h-146v-308h-65v308h-150v39h134l-29 73h-105v39h90l-103 259h72l124 -328l121 328h70z" />
    <glyph glyph-name="florin.fitted" unicode="&#xf5fa;" horiz-adv-x="378" 
d="M5 -165v59q21 -6 38 -6q31 0 46 20q14 19 24 54.5t19 109.5t14 129t15 184h-85v59h91q6 148 42 216.5t112 68.5q22 0 54 -4v-59q-25 8 -49 8q-50 0 -68 -50.5t-25 -179.5h87v-59h-93q-17 -307 -52 -431.5t-125 -124.5q-21 0 -45 6z" />
    <glyph glyph-name="uni20B4.fitted" unicode="&#xf5fb;" horiz-adv-x="394" 
d="M23 449h199q71 62 71 145q0 75 -87 75q-91 0 -99 -107h-65q3 84 47.5 126.5t119.5 42.5q69 0 109.5 -37.5t40.5 -99.5q0 -87 -48 -145h53v-39h-90q-20 -20 -70 -63h160v-39h-202q-63 -63 -63 -155q0 -48 24.5 -74.5t71.5 -26.5t74 31.5t31 87.5h70q-2 -84 -48.5 -133.5
t-124.5 -49.5q-79 0 -123.5 44t-44.5 124q0 88 46 152h-52v39h85q16 18 68 63h-153v39z" />
    <glyph glyph-name="uni20B6.fitted" unicode="&#xf5fc;" horiz-adv-x="414" 
d="M20 360h59v363h107q219 0 219 -210t-219 -210h-37v-78h131v-57h-131v-168h-70v168h-59v57h59v78h-59v57zM149 360h53q70 0 103.5 40t33.5 109q0 151 -137 151h-53v-300z" />
    <glyph glyph-name="uni20B8.fitted" unicode="&#xf5fd;" horiz-adv-x="373" 
d="M149 0v538h-144v62h363v-62h-146v-538h-73zM368 661h-363v62h363v-62z" />
    <glyph glyph-name="currency.fitted" unicode="&#xf5fe;" horiz-adv-x="471" 
d="M29 526l45 45l67 -66q41 28 94 28q55 0 96 -28l66 66l45 -45l-67 -66q29 -46 29 -94q0 -51 -29 -94l67 -68l-45 -45l-66 66q-45 -28 -96 -28q-49 0 -94 28l-67 -66l-45 45l67 69q-29 45 -29 93q0 50 30 94zM340 366q0 42 -30.5 72.5t-73.5 30.5t-74 -30.5t-31 -72.5
q0 -43 31 -74t74 -31t73.5 31.5t30.5 73.5z" />
    <glyph glyph-name="numbersign.fitted" unicode="&#xf5ff;" horiz-adv-x="478" 
d="M325 710l-82 -236h79l84 236h62l-83 -236h70l-18 -52h-71l-48 -136h70l-18 -52h-70l-83 -234h-63l84 234h-81l-84 -234h-62l83 234h-71l19 52h70l49 136h-69l17 52h70l84 236h62zM303 422h-80l-47 -136h80z" />
    <glyph glyph-name="uniF639" unicode="&#xf639;" horiz-adv-x="389" 
d="M23 359q0 197 37 284.5t134 87.5t134.5 -87.5t37.5 -284.5t-37.5 -284t-134.5 -87t-134 87t-37 284zM93 359q0 -169 20.5 -239t80.5 -70t80 70t20 239t-20 239t-80 70t-80.5 -70t-20.5 -239z" />
    <glyph glyph-name="uniF63A" unicode="&#xf63a;" horiz-adv-x="370" 
d="M22 0v62q20 60 55 118t96 142q70 97 88 134q25 51 25 101q0 51 -25.5 81t-67.5 30q-95 0 -100 -149h-63q4 209 168 209q72 0 114 -45.5t42 -123.5q0 -62 -30 -119t-94 -144q-11 -14 -16 -21q-104 -142 -128 -208h266v-67h-330z" />
    <glyph glyph-name="uniF63B" unicode="&#xf63b;" horiz-adv-x="369" 
d="M19 171h62q0 -119 93 -119q48 0 74.5 40t26.5 115q0 76 -37.5 111t-117.5 35h-7v57h10q142 0 142 132q0 59 -23.5 92t-61.5 33q-73 0 -86 -97h-61q4 75 43 116t103 41q69 0 111.5 -50.5t42.5 -136.5q0 -113 -88 -156q103 -38 103 -177q0 -100 -46.5 -158.5t-124.5 -58.5
q-77 0 -117.5 44t-40.5 128v9z" />
    <glyph glyph-name="uniF63C" unicode="&#xf63c;" horiz-adv-x="387" 
d="M230 -12v174h-225v36l193 520h101v-493h75v-63h-75v-174h-69zM230 225l7 443h-4q-14 -48 -42 -127l-116 -316h155z" />
    <glyph glyph-name="uniF63D" unicode="&#xf63d;" horiz-adv-x="360" 
d="M21 166h62q2 -118 87 -118q49 0 77.5 52.5t28.5 150.5q0 81 -25.5 123.5t-73.5 42.5q-61 0 -88 -70l-55 10l24 361h249l-7 -63h-187l-11 -212q29 32 81 32q78 0 120 -57.5t42 -166.5q0 -127 -48.5 -195t-133.5 -68q-67 0 -104.5 44.5t-37.5 124.5v9z" />
    <glyph glyph-name="uniF63E" unicode="&#xf63e;" horiz-adv-x="374" 
d="M94 312q-2 -38 -2 -54q0 -206 101 -206q44 0 68 43t24 124q0 162 -92 162q-55 0 -99 -69zM91 376q48 63 114 63t107.5 -58.5t41.5 -163.5q0 -107 -45.5 -168t-121.5 -61q-88 0 -126.5 84.5t-38.5 266.5q0 193 46 292t134 99q58 0 95.5 -39t38.5 -103h-64q-9 85 -71 85
q-107 0 -110 -297z" />
    <glyph glyph-name="uniF63F" unicode="&#xf63f;" horiz-adv-x="328" 
d="M44 -12l205 668h-239v62h312v-45l-206 -685h-72z" />
    <glyph glyph-name="uniF640" unicode="&#xf640;" horiz-adv-x="395" 
d="M136 380q-95 74 -95 181q0 75 43.5 121.5t115.5 46.5t116 -44t44 -115q0 -106 -105 -186q119 -78 119 -205q0 -83 -51 -137t-128 -54q-78 0 -126.5 53t-48.5 141q0 107 116 198zM197 347q-106 -72 -106 -167q0 -57 30 -93t76 -36t75.5 35t29.5 93q0 98 -105 168zM198 416
q94 69 94 153q0 44 -26 72.5t-68 28.5q-41 0 -66 -29t-25 -77q0 -81 91 -148z" />
    <glyph glyph-name="uniF641" unicode="&#xf641;" horiz-adv-x="374" 
d="M283 342q-48 -63 -115 -63q-66 0 -107 58.5t-41 163.5q0 107 45 168t121 61q89 0 127.5 -84.5t38.5 -266.5q0 -193 -46.5 -292t-134.5 -99q-58 0 -95 39t-38 103h63q9 -85 72 -85q107 0 110 297zM280 406q2 38 2 54q0 206 -101 206q-44 0 -68.5 -43t-24.5 -124
q0 -162 92 -162q56 0 100 69z" />
    <glyph glyph-name="uniF6BA" unicode="&#xf6ba;" horiz-adv-x="329" 
d="M45 334v62h239v-62h-239z" />
    <glyph glyph-name="uniF6BB" unicode="&#xf6bb;" horiz-adv-x="400" 
d="M0 342v46h400v-46h-400z" />
    <glyph glyph-name="uniF6BC" unicode="&#xf6bc;" horiz-adv-x="700" 
d="M0 388h700v-46h-700v46z" />
    <glyph glyph-name="uniF6C3" unicode="&#xf6c3;" horiz-adv-x="213" 
d="M71 -142v89h79v-95l-55 -119h-29l40 125h-35z" />
    <glyph glyph-name="uniF6C9" unicode="&#xf6c9;" 
d="M183 791l102 171h87l-137 -171h-52z" />
    <glyph glyph-name="uniF6CA" unicode="&#xf6ca;" 
d="M110 962h52l88 -119l87 119h52l-96 -171h-87z" />
    <glyph glyph-name="uniF6CB" unicode="&#xf6cb;" horiz-adv-x="404" 
d="M100 894h74v-94h-74v94zM250 894h74v-94h-74v94z" />
    <glyph glyph-name="uniF6CE" unicode="&#xf6ce;" 
d="M317 791h-52l-137 171h87z" />
    <glyph glyph-name="uniF6CF" unicode="&#xf6cf;" 
d="M157 791l72 171h77l-108 -171h-41zM283 791l82 171h76l-117 -171h-41z" />
    <glyph glyph-name="uniF6D0" unicode="&#xf6d0;" 
d="M124 820v61h252v-61h-252z" />
    <glyph glyph-name="uniF6D1" unicode="&#xf6d1;" horiz-adv-x="514" 
d="M316 907h68q0 -60 -36 -96.5t-91 -36.5t-91 36.5t-36 96.5h68q0 -33 14.5 -55t44.5 -22t44.5 22t14.5 55z" />
    <glyph glyph-name="uniF6D4" unicode="&#xf6d4;" horiz-adv-x="420" 
d="M264 719h60q0 -51 -29 -82q-29 -33 -86 -33t-88 33q-29 31 -29 82h60q0 -31 13 -48q16 -23 43 -23t43 23q13 17 13 48z" />
    <glyph glyph-name="uniF6DC" unicode="&#xf6dc;" horiz-adv-x="262" 
d="M15 0v60h86v574l-86 -6v41q71 23 115 56h40v-665h82v-60h-237z" />
    <glyph glyph-name="uniF8FF" unicode="&#xf8ff;" horiz-adv-x="688" 
d="M495 711q5 -65 -38 -118q-52 -62 -115 -60q0 73 42 121q48 54 111 57zM642 470q-82 -56 -82 -140q0 -55 27.5 -96.5t74.5 -60.5q-29 -64 -45 -91q-65 -109 -131 -109q-25 0 -61 18q-23 12 -55 12q-45 0 -74 -14q-36 -18 -59 -18q-61 0 -116 84q-87 132 -87 260
q0 92 51.5 158.5t136.5 66.5q24 0 66 -12q9 -2 25.5 -7.5t26.5 -7.5t20 -2q16 0 65 19q37 13 72 13q45 0 84 -20t61 -53z" />
    <glyph glyph-name="uniFEFF" unicode="&#xfeff;" horiz-adv-x="0" 
 />
    <glyph glyph-name="nbspace" horiz-adv-x="212" 
 />
    <glyph glyph-name="hyphenminus" horiz-adv-x="329" 
d="M45 228v62h239v-62h-239z" />
    <glyph glyph-name="dotlessi1" horiz-adv-x="190" 
d="M60 0v519h70v-519h-70z" />
    </font>
</defs>
</svg>
